<mxfile host="65bd71144e" scale="2" border="0">
    <diagram id="-t9OUlRj6Mb3m12M3T90" name="Page-1">
        <mxGraphModel dx="950" dy="558" grid="1" gridSize="10" guides="1" tooltips="1" connect="1" arrows="1" fold="1" page="1" pageScale="1" pageWidth="827" pageHeight="1169" math="0" shadow="0">
            <root>
                <mxCell id="0"/>
                <mxCell id="1" parent="0"/>
                <mxCell id="11" style="edgeStyle=none;html=1;entryX=0.888;entryY=0.5;entryDx=0;entryDy=0;entryPerimeter=0;" parent="1" source="2" edge="1">
                    <mxGeometry relative="1" as="geometry">
                        <mxPoint x="337.9200000000001" y="383" as="targetPoint"/>
                    </mxGeometry>
                </mxCell>
                <mxCell id="33" value="Pub" style="edgeLabel;html=1;align=center;verticalAlign=middle;resizable=0;points=[];" parent="11" vertex="1" connectable="0">
                    <mxGeometry x="-0.4923" relative="1" as="geometry">
                        <mxPoint x="19" as="offset"/>
                    </mxGeometry>
                </mxCell>
                <mxCell id="13" style="edgeStyle=none;html=1;entryX=-0.07;entryY=0.5;entryDx=0;entryDy=0;entryPerimeter=0;" parent="1" source="2" target="9" edge="1">
                    <mxGeometry relative="1" as="geometry">
                        <Array as="points">
                            <mxPoint x="214" y="261"/>
                        </Array>
                    </mxGeometry>
                </mxCell>
                <mxCell id="31" value="State" style="edgeLabel;html=1;align=center;verticalAlign=middle;resizable=0;points=[];" parent="13" vertex="1" connectable="0">
                    <mxGeometry x="0.2712" relative="1" as="geometry">
                        <mxPoint as="offset"/>
                    </mxGeometry>
                </mxCell>
                <mxCell id="22" style="edgeStyle=none;html=1;entryX=0;entryY=0.5;entryDx=0;entryDy=0;" parent="1" source="2" target="20" edge="1">
                    <mxGeometry relative="1" as="geometry">
                        <Array as="points">
                            <mxPoint x="214" y="545"/>
                        </Array>
                    </mxGeometry>
                </mxCell>
                <mxCell id="23" value="sends otlp" style="edgeLabel;html=1;align=center;verticalAlign=middle;resizable=0;points=[];" parent="22" vertex="1" connectable="0">
                    <mxGeometry x="0.2188" y="3" relative="1" as="geometry">
                        <mxPoint x="19" y="3" as="offset"/>
                    </mxGeometry>
                </mxCell>
                <mxCell id="2" value="Credit Api" style="aspect=fixed;html=1;points=[];align=center;image;fontSize=12;image=img/lib/azure2/other/Worker_Container_App.svg;" parent="1" vertex="1">
                    <mxGeometry x="180" y="350" width="68" height="66" as="geometry"/>
                </mxCell>
                <mxCell id="5" value="" style="shape=image;verticalLabelPosition=bottom;labelBackgroundColor=default;verticalAlign=top;aspect=fixed;imageAspect=0;image=data:image/png,iVBORw0KGgoAAAANSUhEUgAAARgAAAEYCAYAAACHjumMAAAxhklEQVR4nOzdCXQb5dU4/EtsyZY8ki2NI8dihsQJdqhkk8W0laDFjvuSFpKWlnqhLAk4BFpIIXbYIVFEaQttEqdg2lJjSgKFJHb7tv836UI+nDhdZPqebI1lXmTIgoSVKJbGi7zJdvIdgWhD8PLInkUj3d85PgfsZ+beWNL1bM9zk8+fPw8IISSEGVIngBCKX1hgEEKCwQKDEBIMFhiEkGCwwCCEBIMFBiEkGCwwCCHBYIFBCAkGCwxCSDBYYBBCgsECgxASTLLUCUzE6XRCW1ub1GmgC1iyqcwWb7BT6jzQf5hMJjCbzVKnMbbz58/H7JfNZpP614MuYLMwl52rsv5N6jzQp4U/J1J/Vsf7wlMkRIShlKk2K9sAANccW7HgEanzQfKABQYR2Vw0ZyUAfCH832Za/eMNFma+1Dmh2IcFBk3KpFell+XRj17wrUtW5RuekjAlJBNYYNCkWlcufB4A5lz4PVaTUt5UaiqRLiskB1hg0IQ2XTv7vwDg9rF+Vsymb7fMomaKnxWSCywwaELVhcaJToUurVs6b62I6SCZwQKDxnVsxYL7AcA60Rgzrb63NFc/T7yskJxggUFjKs2l55lp9RaCoRm7ls/fadKrLhEhLSQzWGDQmDYXzd4IAEmEwwttVvZOgVNCMoQFBn1GU6npS6wm5dZotinLozcUMdqYnnqCxIcFBn2KZRZFF7PpvwGAaE95ZteW5LzAUEqBMkNyhAUGfUrd0nn3A8BlU9nWTKvvrsw3XMt/VkiusMCgfyvN1c8x0+o109nHqnyDHS/4ok9ggUEfCReFXcvn7wAA/XT2w2pSimtLclbxlxmSMyww6COV+YYVAPBFPvZVzKZvKc2l8dkYhAUGARQx2qTqQiOfi+9obFbmcR73h2QKC0yCYygl1JbkPAcAOXzu10yrb925LHfCp4BR/MMCk+Aq8w1fMtPqewXYdUpZXmajSa9SCbBvJBNYYBKYSa/66K6PgCGMddfhZMhEhgUmgdWW5FSymhRB13SxGjWPFDHaDCFjoNiFBSZBlebSc4vZ9K0ihErfV2Z+g6GUpPOaUBzBApOgInd5NCKF+1plvuHbIsVCMQQLTALauSzXaqbVt4kZc6OVXW/Sq1LEjImkhwUmwZj0KlVZXmYjAIj9Yc9vXblwo8gxkcSwwCSYyF0do0ThH1y7KPsqiWIjCWCBSSBFjFZnNWqkbJqWvKV4Dh7FJBAsMAmCoZRJ+8rMbwBAusSpXL9zWW6pxDkgkWCBSRCV+Ybwh/qrUucRfs+V5WVuK82lsd1JAsACkwBMelXKRiu7Xuo8LqCuWpz9hNRJIOFhgUkArSsX/gAAzFLncSGrUXOvzcJcLnUeSFhYYOLc2kXZXwCAaqnzGIPCZmUbLbMotdSJIOFggYlzkbs2sfqY/oKqQiOufhfHsMDEsZ3Lcm+OkQu74yrLox8qzdVPa5lOFLuwwMSp0lw6qywv82UZvMbsruXzX5Q6CSSMWH/zoSmqWpy9HgDksthT6aZrZ98gdRKIf1hg4pDNwlxhNWrukTqPaFQXGp+SOgfEPywwccYyi0qzWdlGAJBbG9fCYysWPCx1EohfWGDiTFWh8e5Ye+aFlJlWP7PBwsyXOg/EHywwcaQ0Vz+zLI9+UOo8puESgdcIRiLDAhNHdi2fXy/hUgy8YDUpFU2lpmKp80D8wAITJzZdO/tGAPi61HnwoZhNf80yi8qUOg80fVhg4kARo423uzCX1i3FdifxAAtMHKgtydkAAFdKnQefzLT6vtJcPfa3ljksMDK3wcIUmGl1PF4Yzdi1fP4Ok151idSJoKnDAiNzcX7X5Sqblb1D6iTQ1GGBkbGmUtMNrCblW1LnIaSyPNpWxGjl9tAgisACI1OWWdSsYjb9ZZHDOgDAL3LM2bUlObUMpRQ5LOIDFhiZqls670EAyBIxZL/d4b7J6e9/TsSYHzHT6nsq8w1fFjsumj4sMDJkszCfM9Pqu8WM6ejo3WJv8Zxe/eb7zwPACTFjw8fXmp7CC77ygwVGZkx6VVJkMqNYfaXDAqv3vv/T8H+0nA5ydof7ZgA4J2J8YDUpxbUlObj6ncxggZEZm5UNH7mYRAw50uDqvLktMNDzyTfsLZ5/unuHtouYw0eK2fQtpbn0XLHjoqnDAiMjRYw2pSyPFrX9iNPf31ixp33vxd9f13xqY7j4iJlL+KjNZmUeFzkmmgYsMDLBUMpLakty6gEgW8Swg/XHfD8Y6weN7f5TTn//GhFz+YiZVt+2c1muRey4aGqwwMhEZb5hqZlW3ypmzP3u7vVbD3vbxvt5wfajLwLAATFzAoCUsrzMRpNelSpyXDQFWGBkwKRXzdhoZcVuGv/2mqYTNZMNqt5/MnzKdl6clP7t0rrrcDKkHGCBkYHakpzwh0nU04KNDvfGtsDA6GTjth72ho9g6sTJ6j+sRs0jRYw2Q+y4KDpYYGLc2kXZpmI2/WkxYzr9/W+83Or7C+n4/G1HqgGgXdisPiNjX5n5dYZSxmpTOYQFJvatKjA8KXL7kdNrmk5UeoIh4tOetsBAX4PL/yNh0xrT9ZX5hpskiIsIYYGJYTuX5V5nptWlYsZscPmfbvb0DEa73brmk68DwF+FyWp8G63sepNelSJ2XEQGC0yMMulV2rK8zB0AoBAx7P/ZHe4pdVn0BEMhu8NdBgB9/Kc1oYLWlQttIsdEhLDAxKi66+Y9DABi9mwO2h3u0rbAwJQfnrO3eM44Ono385sWkYfWLsq+SoK4aBJYYGKQzcJkW42aKjFjOv39dfYWj3O6+4nMWTrLT1bEkrcUz8GjmBiEBSbGMJRSabOyDQCgFjHsWbvDs4mPHbUFBoINrs4KABjmY39RuGHnslxRr1ehyWGBiTGbi+bcCgDXiBlzv7t7dWO7v4Ov/VXsad/n9Pfv5Gt/hGaU5WW+UppLzxQ5LpoAFpgYYtKrqLI8WtTJfO7eof8paWz7A9/7rT/mexoA+vne7yTSqhZnPyFyTDQBLDAxpHXlwi0AcLmYMetbfRuE2O/Ww95397u7HxFi3xOxGjX32iyMqL9DND4sMDFi7aLsIgC4S8yYTn//00+1eI4Itf81TSdecPcO/U2o/Y9DYbOyjZZZlJjXsNA4sMDEiC3Fc54CADGXhHSuaToh6NoybYGB8/WtPinu7iyoKjRWShAXXQQLTAw4tmLBPQBwrZgxtxzssDV7egSP83Krr8np7xe7+wGU5dEPl+bqxXyOCI0BC4zESnPp2WZaXSty2L+83Or7rRiBPMFQ+FTpuwDgFiPeBdhdy+f/UuSY6CJYYCS2uWj2RgAQs7HYmfLd797RFhgQLWCzp2e4weWXogNl2aZrZ18vQVwUgQVGQjYL83lWk7JCzJgNLv+WxvbAaTFjhtkd7l8DwCGx41YXGp8SOyb6DywwErHMojJsVnaHyK/BuzUHOyQ5bWgLDJwr3/1uBQB0iRz6qmMrFjwockwUgQVGInVL560BADFbcIzaHe7yltNBoiu7pbk0ca9Wm4UhWq+msT3wntPf/3PS/fLFTKuf3WBh8sSOi7DASKI0V8+YafUDYsZ09w7V21s8/yIdv7lo9mrSsTYr+4hlFpVJMnb1m+/XAICHdN88mbEq3yDFNaCEhwVGZCa9CnYtn/86ABB9IHkSWtd8ivhaRFOpqYTVpERzcTSrqtB4D8nAltPBzv3u7tui2DcvWE3KzU2lpmKx4yY6LDAiq8w3fAcARG3k3uDqvKex3f8hyVjLLEpbzKbXR9spoCyPvrc0V68jGVvS2Nbs7h16I5r986GYTX+V9EgL8QMLjIiKGO2M6kKj2Ifqb1XsaX+FdHBVofFOAJgzha6Nxl3L5xMv+bCu+ZRN7P7WAMDULcV2J2LCAiOi2pKc8AcwV8SQ56r3nyR+VN+kV6WV5dHTuTZ0x9pF2V8gGdjY7m93+vtFv7tjptX3lebqsb+1SLDAiGSDhfmimVaLukodAPxi62Hv30kHt65cuBEAcqYRb8aqAsNDpIMLth+tAYC3pxFvKjJ2LZ+/w6RXiTnvK2FhgRGBSa+CVfkGsR/4ejd/25GHSQevXZSdDwDTvrNlptU37lyWS7xg1paDHaI284/4vM3KrpQgbsLBAiOC2pKcW1lNylIxYza4/D9sCwwQL/i0qsCw7sIOBk5//6RdHcehKMvLfNWkVxFNf3jwwKm9APCbKcaasrI82lbEaLFpm8CwwAisNJeeXcymiz2ZsXld88kdpINtFmaBmVZXXPi9Nv/AdC7A5lTmG+4kHVy++937AODkNOJNxZzakpxahiJ+nhBNARYYgdmszKPh834RQwaXNDjLPcEQ0aLbJr3qEpuV3c5398jqQuPDRYyW6DpHY3ugu8Hlf4bP+CTMtPq7lfkGUR8ZSDRYYARkszBXmWm1qOf6jo7eLc2eHh/p+Mp8w80AcKUAqVxeW5LzJOngdc0ntwHAPwXIY0Kr8g12k17MzryJBQuMQEx6VYrNyjaK3Ff6bKQvEbHqQqNg6+aaafXG0lx6DslYTzA0aHe4SwEg6ra108FqUpbUluTg6ncCwQIjkLrr5n0fAGaLGHK4wdVZ0RYYCJJucGzFgvsAYME4P55yh8cLzKhanE18J8ve4nE7Onp/xkPcqBSz6TWluTQ+GyMALDACKGK0GqtR85iYMZ3+/l0Ve9r3kY4vzaWzzLR6ywRDopoqMB6rUbPKZmFY0vE1h7zPAEA3H7GjoLVZGVFfr0SBBYZnDKWcsa/M/BuR+0r3R/oQEatanL0OAMS4haK0WdlXGUpJdEu4sd3f1eDq/A5PR1DEzLT6NpuFsYgZMxFggeFZZb7hmwDwdTFj7nd3P771sPf/SMcXMVraatTcK2xWnw5ZmW8g/p1U7Gn/k9Pf/9/CpvQZqTYr22DSq1JFjhvXsMDwyKRXKTZaWUEamY3H3Tv0jzVNJ54nHc9Qykv2lZlfBoC0SYbyOhFxo5V9KJrH8+uP+Z4CgCE+cyDA1F2HkyH5hAWGR7UlORsmuGgqiPpW38a2APlDcZX5hq8AwDcIhvJ9inJ1bUnOraSDtx72tu53d4veU8lq1DxSxGjTxY4br7DA8GTtouzFxWy6qK1Snf7+V19u9e2NZptV+Qbiuzp8K2bTayyzqCzS8WuaTmyS4NmYjH1l5jdIrxmhiWGB4cmW4jm2C+fyiKBjTdOJ1Z5giHiDplLTDawm5TpBs5pYZt3Sed8jHdwWGBjd6HBvFDalMV1fmW/4lgRx4w4WGB7sXJZ7EwAsFzNmg8v/g2ZPD/E1CsssKqOYTX9R2KwmZ6bV3y3N1c8kHf9yq+/PTn8/8bwqvmy0sutNehVOVJomLDDTVJpLZ5blZW4X+XfptDvcddFsUFVovAsAmCg2meps6slk7Vo+fyvpYE8wdH5N04k7AUDsXk5X1pbkSHH0FFewwExT1eLsJwjuyPCp1+5wl4VPH0g3MOlVmrI8+vtRxhFyOctb1i7Kvpp0cLOnZzB8xCZgPmMqZtMfWrsou1DsuPEEC8w02CzMPJGfJwGnv/9Fe4vnnWi2aV258EcAcJlwWUVvS/GcqC422x3u8Oldm3AZjSk5cm0NTREWmCmyzKLUkcmMYp6nn1n95vubo9lg7aLshQBAfGFVRMt2LstdQjo4fMQWPnILH8EJm9ZnhPP8tsgx4wYWmCmqKjRWAsBCMWPud3dXtpwORnUtIrJGbizeck0uy8vcHs2FVHuLp83p7/+VsGl9xoyyvMxtpbk0tjuZAiwwU1Caq9eX5dGiPk/i7h36fUlj2x+j2WbnstxCM62e6l9fogWrpomxWdm7otlg9ZvvbwofyQmX0pjSItfaUJSwwEzBruXzXwQA4hnCfKhv9UU1BcGkVyWV5WW+BgApwmU1fWV59ENFjJb4fRg+gtvv7iZejpMvVqPmXpuFmSd2XLnDAhOlTdfOviF8ECNmTKe/f+NTLZ5j0WxTmW+4FQCuEC4r3sypLcmJquNCSWPbn9y9Q78TLqUxKW1WtpGhlGqR48oaFpgoVRcaxW4/8q81TSei6gZZxGgFXamOb2Za/XhpLh1VQ7poj+h4snBz0Rxc/S4KWGCicGzFgvCHVtTnIrYc7LA1e3qi2qa2JKc6fJY0zdBitnW9ZHPRbOKGbWFPtXicTn8/8Zq/fCnLox8m7cGNsMAQ22Bh5ptp9Y9FDrvnwQOnfh/NBqW59KVmWv0sD7FFXfCJ1aTcYbMwUS1buabpxA8B4IhwWY2J3bV8/i9FjilbWGAIRTozitlu1Fu++92oD8erFmc/CABETc9ijCKy8h3xhNHwkZ1EnSHLN107+2sSxJUdLDAEmkpNX2E1KeVixmxw+Tc3tgeI24/Ax08WZ1mNmnuEy0pwV0dWBCT24IFTuwFA7NXvpLgWJ0tYYCZhmUUZitn07SKHbas52BHVzGeGUs6wWdltIrdJ4V1k5buo3pflu99dDQAe4bIa0+ePrViwTuSYsoMFZhJ1S+dVAYBRxJAjdoe7vOV0kLj9CHx8W/qrAPBVHvMQajb1ZD4fbZ+ixvaAv8Hlj6ofFB/MtPonpbl0nthx5QQLzARKc/W5Zlot6jwed+9Qnb3F44xmG5NeJcRKdWLeRfqUYjb9p5ZZVHY029Qc7HgJAI4Kl9WYZmwumo1LOkwAC8w4wofpu5bP3wUAYq7POrSu+VTUyxLUluTcxGpSioVJSRIZdUvnrYlmg5bTwf5IZ0gxpjj8G6tJ+U5TqelaMWPKCRaYcdisrNiTGc83uDrvamz3e6PZyDKLoovZ9BeES0saZlp9d2muflY029hbPO85OnpF/10Us+mvWWZROBlyDFhgxlDEaBVlebTY64DsrdjT/lq0G1UVGu8GgKg+iDKRuWv5/NpoN6o55P0hAPQJk9K42Lql8x4QOaYsYIG5CEMpw6ccL0a5vOR0jVbvPxl1QSvN1WeU5dH3CZOSuKca4/j22kXZRdFs0Nju72xwda4Q+xqSmVbfV5qrzxEzphxggblIZb6hxEyrxZ6t+/zWw96WaDfatXz+TwDgUmFSig3RrnwHH3eG/B0A7BYmo3Hpdi2fvyOa5nKJAAvMBcJvjlX5hqgmFvLgnfxtRx6PdqO1i7I/DwCrhEkppnx157LcqG+/V+8/uVGCo7AvVOYbVogcM6ZhgblAbUnOvawm5Utixmxw+Z9uCwwMRLvdqgLDgwny+iWV5WVui7Zn9NbD3sP73d1izx2D6kLjxiJGG4srCEoiEd6gRNYuys4rZtP5mCQYjaZ1zSd3RbvRzmW5VjOtFroxmGTPwYwhy2Zlo54CsabpxNMSTIacU1uS8zxDYUslwALzH6sKDE+K3X5kSYOzwhMMRTVr2aRXJUdWqhO6i6Sos6knU5ZHP1jEaKOaxNkWGBje6HCLfcoLZlr9vcp8g6hHwrEKC8zHRwRFZlpdIWZMR0fvpmZPT2e022mVSRqnv/9PANAtTGYxadTdO/TXmapkfbQbvtzq+38A8Adh0hrfqnyD3aSX9bQwXiR8gTHpVWlleZm7RG8/sje69iOfaDkd5Aq2H11TvttlBoBw3uf5Ty+mHLA73FfMfunQLdHOLoePO0OeW9LgvA0A/MKkNzZWk1JSW5Ij+trBsSbhC0zddfMeBACDiCFDDa7O8rbAwLQeBmts9384o8ZRUd188otOf/+rABD1heJY5u4d+qPd4f7aZXUHl9hbPO9NZ1/Nnp5gg8v/Q/6yI1PMpm8tzaWjWkQr3iR0gSlitDOtRs2DYsZ0+vt3VOxpP8DX/rYe8v5vwfajK8p3uxYBwD6+9ivhbOqjdof7i7NfOrTM3uL5S/gIhI+d2h3uFwDgOB/7ioLWZmUeEzlmTEnYAsNQSsW+MnP4FIMSMexA/TGfIH9JG9v9786ocZRUN5/8SuSaw3SfARH1LpK7d+hvdoe7/LK6g1+wt3j+yff+2wIDIbvD/W0A6Od73xMx0+rbbBbmi2LGjCUJW2A2F82pCB/FihxWtarA8ITNwswUKsDWQ96mGTWObza4/NcAQFStTiRyYr+7e9n1v3vny/YWT4MnGAoJFWi/pyf8+/iHUPsfR6rNyjZE+xxPvEjIAmPSq9RlebToK9LDx3/RVtisrPvUXYtftVmYYoZSCvIaVOxx/W/+tiMLag52fCty6hRLz7WEHWlw+e+6esexgpLGtj+2BYS5hMRQSijNpRf8vSJ/y74ysxcA/kuQQBNj665LzMmQCVlgWlcufBYA5kuYQgqrSbnNZmX3fbC68G82C3OVEEHaAgPn1x049fvwqVODy389AHwgRJwo+fa7u+/M33aksGKPq77FGxRs5rPNwpg/WF34p13L845YjZoqABDsyHEyVqPm0SJGK+baQjEh4QrM2kXZ4VOHe6XO4wJWm5X931N3LW7auSzvVks2JUjnwIo9rjfztx25vOZgx0oA6CDYhO95PGcbXP7qq3cc+1xJY9srbYEBQY6oLNmUZueyvBWn7lr8ls3KtgJArKz+n7GvzPw6QykTahpBwhWYLcVz7LH472Y1KUvK8ujX/nFzwTtNpabbTXoV72/EtsDA8LoDp7YDwCG+903AWbHHVdPiDQaE2LlJr1I1lZrW/uPmgvfK8uhtrCalRIg403RDtF0T5C7mPmhCOrZiwR0A8BWp85jEZcVs+vbWlQtbdy7Le9iSHd3atITi5lB97eLsK4+tWLC5deXC94rZ9BqRn2mK2kYru8GkVyXMRKWEKTCRjodRtQKR2BVlefSz/7i5oL2p1PTD0lyaz6Ig+wJjszBXnquy/nFL0ZyjZlpdLXLnh+m4srYkR4q+2pJImAKzuWj2BpGnA/AlrZhNf3zX8rz2YysWbA3/xeZhn1qCMbF21yl8GpS6+drZt5+rsu61WdmDAHC91DlNRTGb/sjaRdmLpc5DDAlRYGwWZgGrSZH74kwzzbT6gS1Fcw6fq7L+tjSXvnwa+yIpMDEzm7qI0SYdW7Hg/taVC09XFRq3R241y7E97ieStxTPSYh2J3FfYCyzKK3Nyu4CgHi5eh9+zW7atTzv2LEVCxo2Xzv7a9Es0xhZp4SkwEgq8vxKwd8r8jftKzN/aKbVP4uHU7sLLNu5LPcmqZMQmpz/ChCpKjTeCQDx2H0v1UyrS8NfVYVGZ4PLf3/FHlfTZBtZsjUpsf662yzMFTYruxkAbpA6FwGdmKlSDEmdhNBi+o3Gh3XNJ3/Z5u93V+Yb7mY1KXy2Vo0l5rI8em9ZnvXtmoMd9fWtvtcnWIZTkOdspsuSTWmqFhtvtGRTK1hNSvgUKC4Xz3b3DjW3eIO/qjnU8d8t3mBczYAfS9wXGE8wNGRv8fwu/GWzMAttVvYFALha6rwEED51slYVGsNfm53+/sfWNJ34ZbOn5+L1YkgLjCizqU16VWptSc7qYjb9CQDIEiOmRI7aHe7v21s8f5U6ETHFfYG5kL3Fc6S+1fflVfmGJZX5htWsJuXbcfo7SDfT6p/vKzM/6ujora855K1vbPd/GPkZ6TJrgt5FWrs4u2BVvmGFmVbfLHIPKjGdd/cO/fHlVt+L9a2+P3uCoVjoNSWqePxwTcgTDJ2zt3jeCn/ZLMxlNiv7PAB8Q+q8BHKZ1aixW40am9PfX7um6cSTUp8i2SxMvs3KPhO5vhKXp0ERf7U73PfaWzytUicipYQrMBeyt3g+qG/13bgq31C4dHbG3Vaj5japP4ACmWGm1ffvKzNXunuH/i5RDjnnqqx/AYAlIixYLpURd+/QbyNHLM18LZYlZ3F/m3oynmAoXGgOXrOz9Z4lDc5Lnf7+OqlzEhAl4YXu2QCwNI6Ly/+zO9zzZr906GZ7i2cfFpePJXyBuVCzp6erYPvRu8t3uy53dPT+ROyFomNMwl0vmIIBd+/QS3aH+/OX1R28MXxELHVCsSahT5HG09juf7+x3f9IEaNdX1uS86SZVj+Gvyt0Iae//5U1TSfWNXt6BJkdHi/wCGYCzZ6eUMH2oxvKd7sudXT0PgEAJ6XOCUmq29HRW1O+23VFwfajd2JxmRwWGAKN7X7fNTtbf7SkwTnX6e9fAwBBqXNCojrn9PdvWdLgzL5mZ2t1Y7v/XakTkgs87I9Cs6fnfMH2oy+Y9Kptq/INK6oKjXcDwAKp8xIIXqQEOO3o6K2rOeT9VWO73yN1MnKERzBT0BYYCK47cOrnM2ocCxtc/jIA8EqdkwBiZja1BEJOf/8TSxqczDU7WzdgcZk6LDDTVLHH1Zi/7cjsmoMdt4YPcvAvv6y97+jofbh8tyu7YPvRHzV7eqRqPhc3sMDwILLW7eszahzFDS5/CQA4pc4JRaXH6e//7pIG5+XX7Gz9aWO7Hy/e8gSvwfCsYo+r2e5QFazKN9wQuUbzNZmupJcIjtYc7HixvtW3fbq9wtHY8AhGAJF+RHtm1DhutDvcV/HcM1os8XwNxtvg8pfPqHEsXHfg1C+wuAgHC4zA7C2eY5Ge0V9y+vu3A4Bc3swXL/Mgd+cA4G81Bztuz992ZE7FHleD1AklAiwwItl6yPv3gu1HV5bvdpkA4A28GCwqV4PLv3RGjePL6w6ceq0tMCBY/2v0aVhgRNbY7v9gRo3jlurmkwud/v7nEny+k5DCp3h/rjnY8a38bUc+V7HH9ZbUCSUiLDAS2XrIe6xg+9EHyne78gCgBgDifn1WEf2zweW3zqhxXL/uwKnfC9WmFk0O7yJJrLHdH5hR46heuzj7OWu2prIsj74DAFip83J09MptNvWg09//P/WtvhffPNn1Vlsg7pe7lQUsMDFi6yHvya3g3WB3qH5cW5LzQDGb/qiUbTo8QVldpvhz+W7XWpwjFHvwFCnGtAUGBkoa2565esexvAaXfx0AvCN1TjGq1+nv/3V180lL+FQIi0tswgITo1q8QV/FHteW/G1HCva7u+8EgA6pc4oR5wDgN+W7XaaC7Ucrtx7yvi11Qmh8WGBiXFtgYLSkse2Vq3ccu6LB5b8LAMT6QMXahVG/09//XHXzyStn1DhuwwmI8oAFRiZavMHeij2u+vxtRyz73d3XA8D/CRwyVib6hQDgufLdrryC7Ucf2HrIi/O8ZAQv8spMW2AAShrb/sxQyn2r8g3LIx0rl0qdlwA+dPr7X6lv9dVvPeQ9IXUyaGqwwMhUpGPlb8NfNguzKNKx0ip1XjwI7nd3/3RN04nNOEdI/rDAxAF7i+dwfavvS5GOleEjmptk+Nq+3+Dyv1RzqGNbizcYjwt4JSS8BhMnPulYOfulQxV2h3seAPzPNHcp1oN2nfvd3Wsij/M/g8UlvsjtrxwiEOlY+Y1V+YbCynzDPawm5dYpdKwUejb1vxpc/l/VHOp4vcUb5ASOhSSCRzBx6pOOlbNfOnR3pGPlS1LnFPHBfnf3d/K3HVlUscf1AhaX+IYFJgFEOlauLt/tynV09P5UohncjgaX/46rdxwzlTS27cAJiIkBT5ESSGO7/73Gdv/DRYz2ydqSnPVmWv2oCO+Bd+wO9wMNLv9enICYeLDAJKBIx8r1pbn081WLs++yGjV3R5rTX2haF3ndvUNvvtzqe7G+1bfHEwzhUhQJCgtMAmts9/sa2/0/KmK0P64tybnPTKt/DADUNHf7tt3hvs/e4jnIU5pIxrDAoE86VtaW5tKvWLOplZFuCNEYdfcO/S5yxPKWJxiKlWkGSGrnz5+P2S+bzSb1rydhmfQqBelYm4VJETYbNJHw50Tqz+p4X3gXCY2pLTBAfA3G3uLBayxoTFhgEEKCwQKDEBIMFhiEkGCwwCCEBIMFBiEkGCwwCCHBYIFBCAkGCwxCSDBYYBBCgsECgxASDBYYhJBgsMAghASDBQYhJBgsMAghwWCBQQgJBgsMQkgwWGAQQoLBAoMQEgwWGISQYLDAIIQEgwUGISQYLDAIIcFggUEICQYLDEJIMFhgEEKCwQKDEBIMFhiEkGCSpU6AhE6nM+h0uhelziPszJkz6/v6+lov/n5aWlp+VlbWD0j2wXHcbRzH9V38/blz574c/udOJ7+RkZFzg4ODIwAwAAA9AOAHgA+HhoZOjYyMvDM4OPjh6Ojo+enEmDt37qMA8EWCoa3Hjx9fP51Yer3+2oyMjCrC4aNdXV1rA4GA5+IfGAyGSoqivk6wjyPHjx+3X/zNuXPnvgIA6ZNtHP4df/DBB48T5jshnU6Xp9PpniUYtwMAdvIRk2+yKDAAoAaAb0qdRMTPxvl+ZhQ5Ksb5/vUAMGuKeX0kOTkZKIr6zPcv+F74w9fIcdxLHMc5pxjmi4T/1owp7v8jqampyoyMjHoAuJxk/MDAwANjFZeIAsKc08b5/g0AMHOyjZOTk7+p0+l+z3HcPwliTUZPmPMRHmIJAk+REg8DAGt1Ot2/5s6d+7Zer/+eQqFQSZ3UxZKSklKNRuMfSIvLyMjIa52dnc8Jn9nkdDrdr8P587CrFB72ISksMIkr/Np/ISMj4+csyx7PyMiwSp3QhbKzs6sB4GuEwzu8Xu+a4eFhgbMiZqJp+lYe9pPJwz4khQUGhc3S6/V7GYZ5PCkpabzTN9HodLoipVL5GOHw0xzHlQwPD3cLnFZUKIqqUigUCf/5SvhfAPq3NKVS+cPs7OynJU0iLY3V6XR7wp9RkvHBYPBhjuPeFT6zqJkzMzMfkDoJqWGBic4oAJyROgkhKZXKaoZhVksRO/wXn6bpX01wofVTQqHQz/x+/2vCZzY1KpXq6ZSUFFbqPKSEBSYKAwMDz/b19b0jdR4CS1Yqlb/KyMjIFzswy7LPJCcnk153ecvj8ayd7i13galnzpy5RuokpCSX29QhgW7FGQHAQDj2n52dnRsFyGEq9gWDwT+N8f2kyGsaPgLIpChqdvhQPfLvjIpWq32kq6vrdn7SnZzBYCgFgIcIh/vOnDlzr8Ap8UKpVN6VlpZW09fXd1rqXKQgiwLDcVwHx3GL+NynQqFQsyzrIh0fCAQeG46d2xRv+3y+n042yOfzhf+dQFGURafT2QFgKWmA5OTkcp1Ot5bjOP+0s51EamqqnqKonxMODw0MDFzf19dH/NpJTJ+VlfXC8ePHvy11IlJI2FOkmTNnPgYAl5KMDYVCz/f29jYJnxX/wjWR47iWU6dOfY3juG8CwAeEmyrT0tIEP7xPSUnJMBqNe0keYoOPL+o+6fV6DwmdF89u0mq110idhBQSssDodLq5qampDxIOb+vs7HxgdHRU4KyENTo6ep7juD8EAoGVpNsolUrBT5FmzpwZPrJaTDj8TxzHbRI4JUGETzmlzkEKCVdgUlJSNDqd7g/hI3OS8V1dXY8MDg7G8oXEqHR1de0PhUJ1hMPnpaWlZQmVi8FgqFAqld8jHH7I7XaXDw8Py/K1UCqVNxgMhi9LnYfYEq7AzJw5834AIL1Dsj0QCOwWOCXR9fX1RXOxep4QOWRkZFxJUdTrE8zLutC5QCCwanh4OChELiJJCv97E+3hu4T6x+p0usuVSmU14fB33W73fQKnJAmO4zoA4DjJ2KSkJN6PYBQKhUqv19cRvv9CwWDwlq6urpid0BcFRqPR3CV1EmJKmAKjUCiSdTrd7yMzVCcVCATWy/wv5mTGm3X8KampqRo+gyoUCmBZ9lUA+ALJ+FAo9HOfzxeTSxFMRUZGBukfuLiQMAVGp9PdH3kmhERjb2/vbwVOSWpDhON4nZuk0+nCR4Wkt2xbzp49a+MzvsC6wqdzk4yZzzAM6fM+spcQBSY1NTWToqgNhMM/7OjouG10dHSyN4rckS4nwNuzP+FTVIqifkI4PPw6LB0aGurhK74IwgVm72SDlErlM2lpaVE//ChHcV9gkpKSUoxG43+TrEYGHz9n8cTg4CDpX3c5I3qDDw4O8jJLOS0t7VKdTrc3snjYZEa7urpWDw4O9vIRW0xdXV2TPgAZ/tylp6eTrtIna3FfYGiaXgUAXyIc3sRx3DaBU5KcTqfTAUAOydjR0VEvTzE3A8AckrEDAwOPBgKBsaZCxLxAIPAWAEyae2pq6n2pqalEf/TkLK4LTFpa2iyKop4gHP7hmTNnvhM7swGEk5aWdh/hax8+TXxvuvEYhlmnVCrLCIc7Ojs7Zfkw3SfOnDnzXQCY7MhPlZmZuT0pKUmkrKQRtwVGoVBckpWVtYP0VCAYDD7d19fnEz4zaaWlpWUplUrSonusr68vMJ14GRkZ/6VUKjdF8V5bTFGUrJc46Ovr+yAUCv16snFKpfIbGo2mSJyspBG3BUan090JAKQv3gG/3z/pG0LuFAqFgqbpX5Be4A2FQq9MM6RBr9fXRrlNik6n25mUlKScZmxJcRz3PAAMTjZukikEsj+cjssCk5qaqqIoinRltu6Ojo6bRkdH4/rCblpaWjbLsv9ITk7+FuEmfZ2dnb+aZlgTAMyfwnZWmqa/M83Ykurr6zs+MDDwo8nGJScnX6/T6a4d58cj/GcmrrgrMElJSUlGo/ENAMgmGR8MBp8aHBwUfEkCKaSlpWWkp6d/lWGY57Kyso4CwFWk246MjPxmcHCwX9gMx0dR1KMKhYKPlfnF9KkLKp2dnc+SXMPS6XT1SUlJY63iN8BrdhKQxXow0aBpuhwAbiQc7uQ4LiZaXUTpxrlz5453Ryb8mtKROUSXTXH/5/x+/+Zp5MeHK1iWtR8/flxOs5A/9VDi8PBwKBgMPkdR1GTvsctpmr7d5/P98qLvY4GJJQqFQktR1FOEwwMcx31zeHhYjoehn4t8CWE0FAp9L0YWdKrWarU7e3p65LL+y2c+T93d3a9QFFU92S16iqLWchxXNzw8fOG6IJNew4l1cXWKxLJsHWmjrlAotIXjuGnfgo03oVCozuPxkC7nILRkrVZLescrFnymwAwNDfVyHHc3wbbzMzMzHxYmLenETYHR6/XfAoBywuHOs2fPPi9wSnJzPhQK/drr9ZIuxDVdRE/pKpXKbxgMhq8Knw4vxnyoheO4vSMjI5NOIVCpVOtTUlIYQTKTSFwUmNTU1KSMjIxJm4RHDHEcd6PM5rgILhQKPeHxeCpHR0c/05RfAB8Gg0GSRvRhyRRF/UahUBD1SZLYuE/N9fT0kMzBUqWnp5Mc7ciG7AtMUlISZGZm/hIAcknGDw4ObuY47n3hM5OHkZGRfRzHFXm93h+LFPI0x3Ff8fl8zaFQaCvhNvTMmTNlvcxBb2/v/wcAf5lsHEVRq9PS0jLEyUp4si8wGo3meqVSSbqIj/fs2bOTPpuQII5wHPdVr9dbwnHcAbHWHA4Gg+s+6cTY2dkZPh1zk2yXmpq6LjU1VSd4gtMz7ucp/Pvt6Oi4PdKCZyKzsrKyZD1V4kKyLjAKhSJFr9eTFoz+yF0jMU4BYtGHALA7GAw+fubMmc+fOnWqkOO4N8WcexUKhTb5/f43Pvn/wcHB0WAw+Azh5lqj0fhqUlKSbN+zg4ODZwcHB39BMPROrVZLuhB6TJP1bWqWZZ8FgIUkY0Oh0Iscx/1T+KxEcRgA3h7nZ+FDkYFQKNTb19f3YWRpzMMcx3WJnOPF/uTxeD6z0BLHcXUURT1IOLt7mUaj+XpXV9cfhElReN3d3TWpqan3A8AlEwybodVq1/X19ZEs/RDTZFtg9Hr9EgD4PuFwz9mzZ0kvAsvBX44fP/6Y1ElEoePMmTNj9lgaHh4eDgaDt1AU1QwAk84/0uv1T/b19e2+6HkR2ejr6zsVCoWeUiqVE67Up1Qqvw0Ab4mXmTBke7iZkZHxU9IlBwYGBsqGhobiuml9DBvkOO66vr6+cRcZ9/l8LaFQqIFwf1dlZmY+wF964ou0ID45ybAUpVJJ+tBozJJlgWEY5gcAUEgydmRkpM7r9bYInxUaSzAYfJjjuLbJxvX09DxLOntYpVL9QKvV5vGSoAQGBwehq6trC8FQos6jsUx2BSYjI8OiVCqfJBwe9Pv96wVOCY3vcGTZgkn19PQcAwDSuydquXdK7O3t/WX4YEbqPIQmqwKjUChmaLVa0msp4XP7ir6+vrMCp4XG1x3NXSq32x0+JXiXZKxSqbxFp9MRtT6JRZFrT7cCgCw7VZKSVYHJzMx8KDk5eby1Mz4lFArt8Pl8fxQ+K8SX4eHhwWAwSHoUk6rT6XYqFArZLkzl8/neDIVCsr+QOxHZFBitVnuVSqUivejVxXFcNO1RUYzw+/2vAcBRwuFzdDrddwVOSVCEUwhkSzYFJjMz80cktzHh41XpV0101wLFrtHR0UGO426JPM8zKYqiHktNTU0RPjNh9PT07CXppSRXsigwDMPcBwDXkYwdGRlp9Hq9vxM+KyQUjuPaRkZGthMOn5WZmfminFfnP3PmzN0AEJdtimP+QbuMjIwrlEol8apzycnJhXPnzj0sVD7BYLDW5/PVC7V/9DG/3//jrKysOyZ54vUjSqVypUaj+XVXV1ezONnxq6+v72QoFHpFqVSO+TCinMV0gVEoFKDVan8S5ZEWUUOxacgSeP/o4w9deygUspE+bKbVajf09fV9Ra59rc6ePfuzSy+99B6+e4FLLaZPkSiKKk9OTiZdNwTFmc7Ozh+Q3rZOTk4uyczMvEX4rIQxNDT03sDAQDxNZ/lITBcYAdedRTIQeeKVeHkNlUr1fFpammyffo0U1LhaqyjWCwxKcL29va8BwL8Ih+t1Ot06gVMSTKQLQVwt5YoFBsW04eHhcxzH3QoARD2alErlXWlpaVNp9hYTuru7f026CJccYIFBMY/juNZQKPQq4XBNVlbWGwqFYtK7T7FoaGioh+M4WT88eCEsMEgWenp6NpEexQDAIo1Gc7vAKY2FqFPCZDiO++PIyMg+PvYlNSwwSBZ6enreGxgYIJ7+kZGRsT41NVXs9zdvy7HGyxSCS86fj+vJnAghCeERDEJIMFhgEEKCwQKDEBIMFhiEkGCwwCCEBIMFBiEkGCwwCCHBYIFBCAkGCwxCSDBYYBBCgsECgxASzP8fAAD//02k1mVZMQcTAAAAAElFTkSuQmCC;" parent="1" vertex="1">
                    <mxGeometry x="530" y="510" width="70" height="70" as="geometry"/>
                </mxCell>
                <mxCell id="6" value="Prometheus" style="shape=image;verticalLabelPosition=bottom;labelBackgroundColor=default;verticalAlign=top;aspect=fixed;imageAspect=0;image=data:image/png,iVBORw0KGgoAAAANSUhEUgAACBIAAAgACAYAAACR/ILlAAAABGdBTUEAALGPC/xhBQAAACBjSFJNAAB6JgAAgIQAAPoAAACA6AAAdTAAAOpgAAA6mAAAF3CculE8AAAABmJLR0QA/wD/AP+gvaeTAACAAElEQVR42uzdeZxld13n//f33uolO9m7KmlIMCFLVTWBxiUCGhWRTCahqyrljuKW0VHRcQN/o9LuMLgM6qgEgUBQwEp3BwKEnbAZtgbS3ZUQCEkg6arODll7qXu/vz+CCpill1ru8nw+Hj4ekaSrznl973LOvZ8+JwEAAAAAAAAAAAAAAAAAAAAAAAAAAAAAAAAAAAAAAAAAAAAAAAAAAAAAAAAAAAAAAAAAAAAAAAAAAAAAAAAAAAAAAAAAAAAAAAAAAAAAAAAAAAAAAAAAAAAAAAAAAAAAAFg8RQIAAAB4ZHdccNphreaKg0qjHrqn1T58oNFc2Sr10NT2wY3aWFFLXZlSDqrJ8rRzSGnUgZJ6WLtdGqXUIx4+8y5HJklqDk6y4hvOyI/8j3+uZWVSD/qGX/2ElEc5Z685PElzP3epnZKvPeq/rbnnG/55Zxp56D82t12/WkupX/9/d6fkga//m6+mtmst5d5GaqvW3F9rY09KfbCUsqu02zuTxkPtZHcaeaC280BptHYOpPm17KkPDOzZ+dDRV95wr0cbAAAAdA6DBAAAAPSUL583euSyFXOHN1oDh7ea7cMb7cbh7UY9vJRyRK3tJ5RaDi+lHlFTDk9y2MP/Vw4rqQfV5NCv/28H5eF/ZvE8kOShJPem5IHUr/9zcn+S+0rq12rKvbWWe0sj99R2+95Go3FvbbfvbTXKvQOtgXt372l97Ynv2PrVklQ5AQAAYP8ZJAAAAKDj3DJ59kGl9cDRtbSPGmiXI2upR9XkqEbJUbXmyCRHJeXoUttH1tI4KqlHpebIlByuHknuS3JPSu6utdxdUu9JKXen3b6rltxTkrtTy92lmbtbrXpPaZe7S3vFXUNXbH5QOgAAADBIAAAAwCK4ZfLsg+quu49ctqx5ZDvNwUa7PVQb5chac2RJHaylDJWaI78+DHBkkkHVWAI7k9yTmntSck9KZpLM1pp7Ssk9pV1matqzpVHv2bOndc/qp1+/o6xPWzYAAAB6jUECAAAA9tuXzxs9cvnK1tC/Dwe00xgsjTqU+vVhgJqhJCe6UgA9aleSu1MyU5PZUnNPKXWmpsz++9BBs9GYubPRvnV4anq3XAAAAHQLgwQAAAD8F7eOnX70QHvZUG3WJ9Zah2opJ5TkxJQ6lJQTU3NckuOcV8Jeu/3r/7e9JDPtWm8pjcb2RrvOzKXe0hxYPjM49dk7ZAIAAKAT+MAHAACgz9w6dvrRpdF4YknzSWnXJ5ZSTqi1DqXkiSUZqsmJSVYqBYtuZ5LtqXUmJbfUUmZKcmtqvpJ2+Upau748dMUX7pQJAACAhWaQAAAAoMd8+bzRI5cty5NLyZNrow6V1MGa8uQkT07NKUmOUAm61q4k25PcmGT24VspNG6syY0DyY3H3XX0V8pVV83JBAAAwIEwSAAAANBlvnFQoJ08uZT2k/PwoMDJSVYnWa4S9K09SW4ptd5UG40bk9xYUm+syY2tRr1x9dT03RIBAADweAwSAAAAdJg6Odm8Ldc/sdWu31aSJ5e0n/wfVxR4+KoCR6oE7KevJrkxKTeW5Maa3FhrvXGgUb50XOP0L5epqZZEAAAAGCQAAABYIv95ZYH2cBo58xtuP3BGkoMVAhbZniS3JLkxqTemlGtryvRAcuNxo1tvLuvTlggAAKA/GCQAAABYQHdPrj1i156dp6Xk9JrylJqcWko5NamnJjlUIaBLPJiSLyT5Ymq+WFK+WFI+/1C78fmTL//cV+UBAADoLQYJAAAA5sGXzxs9ctny9nAajTNL2k9upwyXmjOTnOzcC+hpJfek5tqkTtfauDGN9rUDaUwft2HrTSWpAgEAAHTjqR4AAAB7pSbl9onRk+fSHk7NGY2U02vKmUk9PckRCgF804vmvSm5PrVcm0Y+n+TzrUZ724nD0ze6TQIAAEBnM0gAAADwCL7xCgNJHU7N2iRPjdsRAByo3am5IY1M15prU+pmVzAAAADoLAYJAACAvnbTurOesGKgPZpWe7iWjJZkOMlokqPUAVhED98iYTol20qtW1Mb03MD7a2rp6bvFgcAAGCxT9EAAAD6xFcuOG2ouWxgbdqNM0v5+lUGSs5wbgTQ0WaTTKfk2tKum9Oom1eNXnud2yMAAAAsHB+WAQAAPWd6cnj5Ue16atplbW2Utak5M8nTkhytDkBPePj2CCWbU7I57bp5YCCfO25q+n5pAAAADpxBAgAAoKvdde4ph+8+ZOXTay1PT22vTcrTk5yapKkOQF9pJ/WGkvKZlHymtOvmh+qyz5x8+ee+Kg0AAMC+MUgAAAB0jTsuOO2wPc2Bp+bhqwys/fqtCU5P0lAHgEcxW0s2p2ZzSt3cbDc/sWrTlttlAQAAeHQGCQAAgI5017mnHL5n5YpntEqe0Xj4KgNra/JtzmMAmAc3JWVzSjbXdt28uw58ypULAAAA/pMP4AAAgCVXzzlnYMfRt5+WdllbG2Vtkmem5mlxpQEAFs/DVy5ol4+WtD/WGjh88+qpqx+SBQAA6EcGCQAAgEX3lQtOG1rWXP7M2qjPSs3aJE9PcpAyAHSQudR8ISWbU7I5rfLRwbO2frasT1saAACg1xkkAAAAFtSXzxs9cvmyfFdttM9OytlJvj3JEcoA0HVq7q2lfLrUenUj+fhc5q4+cdPn7xIGAADoNQYJAACAeXXbxOiT2+32s9yiAIA+MZuSjyb5mKsWAAAAvcIgAQAAsN9unxw+dG4uZ9U0nplGfVap+a4kxygDQB+7P8k1pdSPtpOP1Xbr31y1AAAA6DYGCQAAgL12x/gZg3Ol+ezUPKuWPDs1o0maygDAo2qnZLqmfDjt9kfbAwMfWT11zXZZAACATmaQAAAAeFT/cZuCkmemlmel5AznEQBwwL75dgiXb/1MSaosAABAp/ABIAAAkCSpk5PN2T2fPyvN+qzUPDvJs5IcrwwALLg7knwstX641Hxs1VeP/Uy56qo5WQAAgKVikAAAAPpUnZxs7mhPn17TfGZSn5PkOak5UhkAWHIPJLm6Jh9LKR/9aqP94eGp6d2yAAAAi8UgAQAA9AmDAwDQtQwWAAAAi8ogAQAA9Ki6Po0dW8884z8GB2p+IMlRygBA13t4sKCW95W0P3bPQD5psAAAAJhPBgkAAKCH3DYx+uRW8hyDAwDQV/5zsKDmfYOXb/1MSaosAADA/jJIAAAAXWzH2Jrjaur31tJ+TlJ+KMmTVAGAvnd7Sj6UlPelzr17aON1X5YEAADYFwYJAACgi+x4wZpDWg/WsxtpP6emPCc1T3dcDwA8jhuT+r5SG++bG2i/f/XU9N2SAAAAj8UHjgAA0MHq5GRzpl73nWnVH0opzy3JtydpKgMA7KdWks+k5j1pNt49eOdRV5errpqTBQAA+EYGCQAAoMPcPjm8qjWX59ZG+e9JnpOaI1UBABbIA0murrW8r6S+bWjTtuskAQAADBIAAMASu2Xy7IMa7fuf6XYFAEAH+I/bICzf+dC7j77yhnslAQCA/uPDSQAAWAKzk8NnZq78t1ry3CTPTrJSFQCgw+yqKR9L2u9uthpXrnrr1q2SAABAfzBIAAAAi+CbrjpQy/OTnK4KANBlbkvynlLLFa5WAAAAvc0gAQAALJDZdWedVJut5yb1Oal5XpLDVAEAesRckk/UWq5oDLSvGJyavlYSAADoHQYJAABgntTJyebs3LVnl0b+e015TmrWqgIA9Ikbk/q+WvL2Bx/c9Z5Tr7xhlyQAANC9DBIAAMABuGVy+Khmu/y32s75JXleSg5XBQDoc/cneXcp9Yq6e887hq74wp2SAABAdzFIAAAA+2jH5JqT2+36gzX1/FLzQ0mWqQIA8IjaKflsrXl7aZcrhi7fulkSAADofAYJAADgcdT1acx+bvRptVHPLyX/3S0LAAD2240peXtNuWLo6OUfKhdv3iMJAAB0HoMEAADwCGbOX3twlu9+bqn1gpqcl+Q4VQAA5tVdSd5RUq9oNvOu46am75cEAAA6g0ECAAD4ui+fN3rk8uV5Ti31/CTrkhymCgDAotiZ5KMpeftAo77luKnpHZIAAMDSMUgAAEBfm5182rGZ231uu1EmS81zkyxXBQBgSbWSfLzWckV7oL1h9dT0DZIAAMDiMkgAAEDf2TG55uR2u31BaiaTnJ2koQoAQIequbaWTDWa9V8Hp6avFQQAABaeQQIAAPrCLRMjaxrtOlEaZSw1o4oAAHSl61KzsTbaG07YcO1n5QAAgIVhkAAAgJ41O3HmcLs2Jkvyw0nOUAQAoKd8OSVvTbtODW6a/lhJqiQAADA/DBIAANBTvmF44EeSnK4IAEBfMFQAAADzyCABAABd7z+GB2p+NCWnKQIA0Ne+kpLLDRUAAMD+M0gAAEBXunXd8FmNkh9JKZNJvk0RAAD+q3pzLeWy0ipvHrp862Y9AABg7xgkAACga8yuO+ukdmn9SCn1p5OcoQgAAPvg4dsf1MbrhzZu+YwcAADw6AwSAADQ0bY/f2R1Gch4aiaTPFMRAAAOWM21tWSq1ua/nLjpmi8IAgAA38wgAQAAHefWsdOPbjSWTaTWn0ry3Y5bAQBYMF8fKmg2G69fNbXlJkEAAMAHsgAAdIib1p31hBWNPRfWNH6spH5vkqYqAAAsonaSjyTlTa1me2r11PTdkgAA0K8MEgAAsGSmJ4eXP6GdHyq1TCaZSHKwKgAAdIDdteQ9jXadqnMrLxu6YvODkgAA0E8MEgAAsOhm1o2uTbP+VGp+LMmxigAA0MG+luRttdSpocaZ7yxTUy1JAADodQYJAABYFDMTo6fXWn+0kfxETU5RBACALnRrSjbWtC85YcO1n5UDAIBeZZAAAIAFs2NszXHtRvvHUvMTSb5dEQAAekbJ55Jy6bI696ZjN143KwgAAL11uAsAAPNoenJ4+RPa+aGS8oLUrEuyTBUAAHpYO8kHSq2X1rmVlw1dsflBSQAA6HYGCQAAmBezE2cOJ+UFtZafSXKcIgAA9KGvJXlbLeUNQxu2vr8kVRIAALqRQQIAAPbbHeNnDO4pzR9O8sLUnKUIAAB8Xc31teTNzWbj9aumttwkCAAA3cQgAQAA++SL556y4uCDVzzXrQsAAGCvtJNcnVLeMNBo/8txU9P3SwIAQKczSAAAwF6ZGV/z9Frqz5ZafyLJExQBAIB9VHNvSt5U2vW1g5dPf1IQAAA6lUECAAAe1d2Ta4/Y2d79I0m9KDVrFQEAgHlzXa3l9Y2BgdcOTn32DjkAAOgkBgkAAPgvZtaNrk2jfVFSfiLJIYoAAMCC2Z2St9bUS4caZ76zTE21JAEAYKkZJAAAIElyx/gZg7vrwE81Sv35mpyiCAAALLrtpdQ3lkbzVaumttwkBwAAS8UgAQBAH6vnnDMwe/Rd/z21/nyS5yVpqgIAAEuuneS9pZbX3D3Qfuvw1PRuSQAAWEwGCQAA+tAtk089oTHX/slS6v9M8kRFAACgY91WSr2k0SqvPv7ybV+SAwCAxWCQAACgT9T1acxsHf3+knpRasaSDKgCAABdo53kA6WWi1cdu/zycvHmPZIAALBQDBIAAPS4r1xw2lCzufwFpdRfSvIkRQAAoOs9fJWCNC4+fsPWG+UAAGC+GSQAAOhBrj4AAAB9wVUKAABYEAYJAAB6yB3jZwzOZeDna+pFSU5UBAAA+sZsUv+p1Rx41eqpa7bLAQDAgTBIAADQA2bWja5No/5akh9NskwRAADoW+0kH6il/s3Qhum3l6RKAgDAvjJIAADQpW6fHD50rt348dT6P5M8VREAAOBbfLHW8pr2QPvVq6em75YDAIC9ZZAAAKDL3Dr21Kc0G3M/W2v5hSRHKQIAADyOnUmm2rX+5Ymbpq+RAwCAx2OQAACgC9T1acxsHT6v1PKiJD/gOA4AANgvJZuTcvGuw+57w8mX3LxTEAAAHvmwEQCAjnX35NojdrZ3vTA1v5HkiYoAAADz5LZS6iV79sz9zRPfdv2MHAAAfCODBAAAHeiWiTNObab5K6n5uSSHKAIAACyQXUn+tVXyF6s3bNsiBwAAiUECAICOMjM2/KzaKC8uNec5VgMAABbZx0otr1w1cPrGMjXVkgMAoH/5cBoAYIl98dxTVhy6csWP1NL4naQOKwIAACyxG2stF++uzVedfPnnvioHAED/MUgAALBE7hg/Y3B3mv+jJL+S5GhFAACADnNfUt9Um82/OmFqy/VyAAD0D4MEAACLbGbd6No06q8l+dEkyxQBAAA6XLuWvDMprzxhw9b3yQEA0PsMEgAALII6OdmcaV/730otL07yTEUAAICuVPK5pPxDq3Hopaunrn5IEACAXj3sAwBgwdw9ufaIne1dL0zNbyR5oiIAAECPuK2UeslcY+BvV09ds10OAIDeYpAAAGAB3DJxxqnNNH8lNT+X5BBFAACAHrU7yVtaJX+xesO2LXIAAPQGgwQAAPOkJmXHutHn1VJ/PSU/6FgLAADor3Oi8oGk/cqhNdNvL+vTVgQAoHv5cBsA4ABNTw4vP2ouP1pL43eSOqwIAADQ576Ukr9tNQ67ePXU1Q/JAQDQfQwSAADspzsuOO2wPcuW/WxqfjPJakUAAAC+ye01+Yd2s/7N6qnpu+UAAOgeBgkAAPbRbReMHD83kF8qJS9KzZGKAAAAPKb7U/LaNOpfDk1Nf0UOAIDOZ5AAAGAv3TJxxqnNNH8lNRclWakIAADAPmnXknc2av2jwY3Tn5IDAKBzGSQAAHgcM2PDz6qN8uJSc57jJwAAgHnxsVrqy4c2TL+9JFUOAIDO4oNwAIBHUJMyMz58flJ+tyTfpQgAAMCC+HRq/nzwqdsuL+vTlgMAoDMYJAAA+AZ1fRozW4fPK7WsT/J0RQAAABbFl1Lytw88uPMfT73yhl1yAAAsLYMEAABJpieHlx81lx+tJf87KU9RBAAAYEl8JSV/ld0rXj10xeYH5QAAWBoGCQCAvnb75PChc+3yc6n57SQnKAIAANAR7qzJ/5vbVV75pHdsvUcOAIDFZZAAAOhLM+c/5Zi6bPmvlORXkxylCAAAQEe6LyWvm9uz5+VPfNv1M3IAACwOgwQAQF/5ygWnDQ0sG/it1HJRkkMUAQAA6AoPldTXtNJ8+Ykbt9wqBwDAwjJIAAD0he3PH1ldBvJbqfmFJAcpAgAA0JV2J3lLs5T1x2/YeqMcAAALwyABANDTZsbPeFJK8zdSc1GSlYoAAAD0hIcHCtr5w+Mv3/YlOQAA5pdBAgCgJ+2YXHNyu9V6SVJ+NsmAIgAAAD1pT5I3GygAAJhfBgkAgJ4yOzl8Zm2VlyT5sRggAAAA6Bd7kry51ax/tHpq+gY5AAAOjEECAKAn3Do2/NRGafxeUseTNBQBAADoS3uSvL7RbPzZqqktN8kBALB/DBIAAF1tduLM4VobL07yEzFAAAAAwMMevkJBaf3x6g3XfVEOAIB9Y5AAAOhK33ALgx9P0lQEAACAR9BOyYZ2u/l7J2665gtyAADsHYMEAEBXmRkbOSMlvxsDBAAAAOy9dko21Ebj90+Y2nK9HAAAj80gAQDQFXZMrjm53Wq9JCk/FwMEAAAA7B8DBQAAe8EgAQDQ0b5hgOBnkwwoAgAAwDxop2RDUv5gaMPWz8sBAPDNDBIAAB1px+Sak9tz9aUp9SdigAAAAICF0Ury5lazrl89NX2DHAAADzNIAAB0lB1ja46rjdZv1Fp+PckKRQAAAFgEc0ne1Cxl/fEbtt4oBwDQ7wwSAAAd4dax049uNpq/XWt5UZKDFAEAAGAJ7E7qJcvSXn/sxutm5QAA+pVBAgBgSd0+OXzonrnGL5dSfzfJEYoAAADQAR5IyWsa7cafrtq05XY5AIB+Y5AAAFgSM+evPTjLd/1Cav6/JMcpAgAAQAe6v5T6/1Y0Vv75UVObvyYHANAvDBIAAItqenJ4+ZHtxgtT6/okg4oAAADQBe6qtbyiPXDo36yeuvohOQCAXmeQAABYFHV9GjuuGZ2opb4syZMVAQAAoAttTyl/NHjX0a8tV101JwcA0KsMEgAAC277xPD5pZY/SzKiBgAsmlaSryS5IcmNNdnRqPWO2ij/IzWj8gDAAbkuNb83uGnbppJUOQCAXmOQAABYMDvG13xXO+2XJfleNQBgwc3Wks2p2ZxSPlp2L/+3oSs2P/iN/8HM+JqnJ+1PJWnIBQDz4pONWn931abpD0gBAPQSgwQAwLybnThzOLX5ZzX1AjUAYME8kJQrU3P5XGv3B5/4tutnHus/rkmZHR/5cJJnSQcA86zUK9vt/O6Jm6avEQMA6InDGwkAgPly6/iaExtp/X5Sfi5JUxEAmHd3J3lHqeWK5kD7yuOmpu/f2z84OzHyw7XmLRICwIKpKbms1aj/3+qp6RvkAAC6mUECAOCA3Tp2+tGNNP+/lPI/k6xUBADmVU3y/iR/P3j3MVeUq66a29cfcNMLT1q54t5Dr01yspwAsOB2l+RVpTb+ZNWmLbfLAQB0I4MEAMB+m54cXn5ku/xSatYneYIiADCPau5NqW8upf7N4IZrpw/kR81MjL4ktf65qACwqB6oyV+0m4e9fPXU1Q/JAQB0E4MEAMA+q+vTmN068uOp+ZMkT1IEAOb1nfbmlMafZ/fyNw5dsfnBA/1pt10wcnyrmS+k5HBtAWBJfCUpvzu4ceubysNXGgIA6HgGCQCAfbJjbPj726W8IsnT1QCAeXVLSv7ygQd3/uOpV96wa75+6Mz4yKuT/Ly8ALDkPp2U3xzauPXDUgAAnc4gAQCwV2YnzhyutfF/kvw3NQBgPk/My0xq+8/u37nrn+ZzgCBJbpkYWdOs+UySptIA0DE2tJr1Jaunpm+QAgDoVAYJAIDH9JULThsaGFj2h0l+Jr6EAID59ECt5Y93H3HfK0++5OadC/ELZsdH31pTL5AaADrO7pT6/1qN/Mnqqem75QAAOo1BAgDgEd0+OXzonrn8dinlN5McoggAzOvZ+MY6l18/4a3bblmoXzEzMfKM1HzSuT8AdLS7k/rH9zTz98NT07vlAAA6hQ8TAIBvUpOyY2z0wlrqXyR5oiIAMK++VEp50eCGre9c6F80Mz7yjrglEQB0i6+UWn9/1abpS0tS5QAAlppBAgDgP8yOjX5vLfWvkjxdDQCYV7tL8mc7D7//5Qt1G4NvtGN8zXe1075adgDoMrV+pJT85uDG6U+JAQAsJYMEAEBmJoefmFb5kyQ/6fgAAObddUnjJ4c2bvnMor23uxoBAHSzmpLLGo3Gi1dNbblJDgBgKfiiAAD62O2Tw4fuaZXfKsmLk6xUBADmVU3qq7Nn5f8aumLzg4v1S3c8f3S03azXOOcHgK63OyX/uLKx4g+Omtr8NTkAgMXkQwUA6EN1fRo7rhn+yVrK/0lyvCIAMO92lFJ+bnDD1ncu9i+eGRu5NCU/aQkAoGfclZI/HrzrmP9XrrpqTg4AYDEYJACAPjNz4chz085fJhlRAwAW5Ex7Y6tRf2H11PTdi/4+//Dtim5IssxCAECPqbm2NMpvL8WgIgDQfwwSAECf2DG55uR2u/XXqeX5agDAgmillN8b3LD15SWpS7EBM2PDf5lSfsNSAEBPe0ertP7X6g3XfVEKAGChGCQAgB53y+TZBzVa9724JC9OslIRAFgQd6eRHxu6bNt7lmoDZs5fe3CW77o1NUdaDgDoeXtS8g/L9uz5vWPfdv19cgAA860hAQD0ru0Tw+c3W/dNl+SlMUQAAAuiJFuapXz7Ug4RJElZtvOFhggAoG8sS82L5gaWf352bPinqr80CADMMwcXANCDZsZGzkjJ3yR5jhoAsKAn1W8uhzR+ftWlWx5Yyu2oSZkdG9mWkjOtCgD0oZqrGu3yolVv3bpVDABgPhgkAIAecte5pxy+a+WKl6aUX02yTBEAWNBT6j8Z3Lj1D0pSl3pLdowNf3+7lPdbEwDoa3Mp+ftdrYGXnnz5574qBwBwINzaAAB6wMN/C3F0ctdBK7ellN+IIQIAWEitUvI/hzZu/f1OGCJIklrKL1gWAOh7A6l50YrG3JdmJkZ+rU5ONiUBAPaXKxIAQJfbPnHm00pt/G2SZ6oBAAvuwVrqj56wYfqKTtmgm9ad9YQVjbmZJAdZHgDgG3ymNvKrJ1y27d+kAAD2lUECAOhSXz5v9MhlK+v61PxyEn/LAAAW3t019YITNk5/rJM2avv4yK+W5G8sDwDwCGqSNzbn8tvHv23bbXIAAHvLIAEAdNsnAJOTzR3t6y6qNX+S5ChFAGBR3NQqrR9aveG6L3bahs2Mj34mqU+zRADAY/hqal46eM8xf1+uumpODgDg8RgkAIAuMjs+/O015e+SfIcaALBY6s2lvez7Bi//3M2dtmUzYyNnpORaawQA7N1hTa5Po/7a0Ibpd4sBADyWAQkAoPPdMX7G4J40X16Tn4xBQABYTF9sp/n9J17+uVs7dPt+whIBAHut5LTU8q7tEyNvL7X1K0Mbr/uyKADAIx82AAAdq160dtnsXbv+Z9r5o5QcrggALOo78RdazYHvXz11zfZO3cKZ8ZEvJDnVWgEA++HBmrxi9+H3v+zkS27eKQcA8I0MEgBAh5odH/6+mvL3SU5XAwAW3XUDzfr9x01N7+jYY4V1w99RG+UTlgoAOBAluaGW+itudwAAfCO3NgCADjM7+bRja2vPX9TkBTH0BwBLoEw35+oPHLdx+rZO3spaMmatAIADPqZITkkt75oZG33TwED7Nzp5kBIAWDwNCQCgY07cy+zY8E/V1p7pJD8VQwQAsBS+tCxzP3j827bd1vFbWso6ywUAzN+xRf2xuVa5bmZi5Nfqet8dAEDfHxpIAABL75aJM05t1ubfJ3mOGgCwZG5v1+azT9x0zRc6/thhcviUZqt80ZIBAAuiZHNa5X8MXb51sxgA0J9MFQLAErrphSetnBkf/qNmbW6LIQIAWDol9zRa5TndMESQJANzrkYAACygmrVp1Ktnxob/fOb8tQcLAgD9xyABACyR2bHR711x76GfTcrvJ1muCAAsmYdSGs9f9datW7tnk+vzLBsAsMCWpZSXZNmubbPrRs+VAwD6i1sbAMAiu2Vy+KhmK3+elF/wXgwAS25PKWXd4Iat7+yWDZ6eHF5+ZKvck8TfDgQAFk0teXutjV86ceOWW9UAgN7nigQAsFgn3EnZPj7ycw/fz7hcFEMEALD0b8+1/Ew3DREkyZGtxnfFEAEAsMhKzX9vpL11dmLkl+p63y0AQK/zZg8Ai+CWiTNO3TE2/N6S/FOSoxQBgKVXkz8a2rT1n7ttu0vq91k9AGCJPKHW/P3slpFPzUyMPEMOAOhd/iYkACygm1540srl9x76kpK8JMkKRQCgY86GpwY3bPuRktRu2/SZ8ZGrknyvRQQAlthcSv5+oFH/93FT0/fLAQC9xRUJAGCBzI6Nfu+Kew/9bEleGkMEANA5SjZn94oXduMQwU0vPGllku+0iABABxhIzYvmWuXzM2Mj43IAQG9xRQIAmGe3XTByfGsgr0jyk95rAaDjbG81m9+5euqa7d248bdeuOYHGu32+ywjANBpasnbM5f/ecJbt92iBgB0P1ckAID5OmFOyuzY8E+1BrItyQtiiAAAOs397VrP69YhgiRptNrfZxkBgE5Uav57aWbrzMTIr9XJyaYiANDl7+0SAMCB2z655rTSav9TkmepAQAdqV1LXXfChukrunknZsZHPpTkeywnANDJavLxRmn//OCGa6fVAIDuZJAAAA7kxHh9GrNbR38+tf5VkkMUAYCOfdf+46GN03/Q9ccdW0a+muQw6wkAdIE9pdS/uruRPxiemt4tBwB0F4MEALCfZifOHK618dok36EGAHTwiW+t7181cOYPlampVjfvx8zYyBkpudaKAgBddSyWbKnt8rNDl2/drAYAdI+GBACwb+o55wxsHxt9ca2NzTFEAACd7pYMLP+xbh8i+PoZ/FrLCQB0m5qsSaN+fHZi+GVfPPeUFYoAQHcwSAAA++DWdcNnzR511ydLqS9L4uQXADrbrtKuFw5OffaOntibdn2aJQUAutRAreXFhxy88lMzEyPPkAMAOp9BAgDYC/Witcu2j42+uNEon0h8iA8A3fEGnl8fvHz6kz2zP6UMW1QAoMuPz0ZTc/XMxMgrZ85fe7AgANC5DBIAwOOYmRh5xuyduz7z9asQLFcEALrCpUObtv1jj+3T6ZYVAOgBA6l5UZbt2nzr2OjZcgBAZyoSAMAju+mFJ61cfu+hLynJ/5dkmSIA0DW+tGxuz9OOfdv19/XKDu14wZpD2g+073MeDwD0mJrUVw8085vHTU3fLwcAdA5XJACAR3Dr2OjZK+499LMleWkMEQBAN9lTUn+sl4YIkqR9Xz09hggAgN5TknJRq1U+Ozs2+r1yAEDnMEgAAN/glsmzD5qdGH5Zo9SPxOWDAaD7lPIHgxunP9Vzu9Von2xxAYBeVZNTaqkfnBkfftUdF5x2mCIAsPQMEgDA120fH35mc+6+z9ZaXpykqQgAdJlaPzLYOP0VPblryYkWGADocSUpF+0ZWLZ1+9jID8oBAEtrQAIA+t3M+WsPLst3/kGt5bdTDNkBQJf6agbyk2VqqtWbu1cMEgAA/eJJpeQ9MxMjU61G/cXVU9N3SwIAi8+XJQD0tZkL1zy7LNt1zdevQuB9EQC6VK31l4ampr/Sq/tXXJEAAOi7A7xMNltl28zE6DoxAGDx+cIEgL5017mnHD4zMXpx2u0P1eQURQCge9XUS07YNP3m3t7HnGClAYA+NJhaN82Mj7z+y+eNHikHACwegwQA9J3tF458966DVn4mtf5CkqIIAHS12bldjd/og/1cbakBgD72U8tW1Ou2TwyfLwUALA5fngDQN7547ikrDj14xR/WWn4rSVMRAOiFs9oyNrRh6+W9vIt1fRqzW0YeSrLcggMA5NJlc3t++di3XX+fFACwcAwSANAXdoytGWk32pem5iw1AKBnXDq0cdtP9fpOfuWC04YGBpZtt9wAAP+u3lwa5WcGL9t2lRYAsDDc2gCA3j6tnJxszkyMvqRd2psNEQBAT9nRatZf74cdbS5rHm+5AQC+UTmptvP+7RMjr7jphSet1AMA5p9BAgB61uy6s06abV33/tT653EpYADoLTW/vHpq+u5+2NXSLodYcACA/6JRan5rxdcO3TwzMfIMOQBgnt9oJQCgF82ODf9UbcxtSfK9agBAbynJm4c2bdvYR7t8qFUHAHjUg8MzU3P17MTwy6Ynh/1FEgCYJwYJAOgpt10wcvzs+MjbaimvT3KYIgDQc+5Kc9mL+muXy8GWHQDgMQ3UWl58ZKt8dGZs5Aw5AODAGSQAoGfMrhs9tzWQz9bkfDUAoFfVlwxOffaOftrjkuqKBAAAe+fbU/KZ7WOjL67rff8BAAfCGykAXe+OC047bGZ8+FW1Ud+ZZFARAOhZnxpcM/3a/jtzL4dYegCAvbaylPqy2S0j7/rKBacNyQEA+8cgAQBd7dax0bPnBpZ9JikXqQEAPa1VS/t/lPVp992et2OQAABg3/3gwMCya2YmRtdJAQD7ziABAF2pXrR22fbxkfWNUj9Sk1MUAYAeV+rfnLDh2s/2574bJAAA2E/HpNZNM+Mjb7h9ctjtogBgHxgkAKDr3DIxsmbHnbs+XZKXJmkqAgC9raTMrHhw1/o+LnCwRwEAwAF5QatVPrtjfM13SQEAe8cgAQBdoyZlZmLk15o1n6zJGkUAoD+0U3/j6CtvuLdv979U5+4AAAeoJqe00/7I7MTwy+pFa5cpAgCPzYcRAHSF2XVnnTQ7Nvyh1PzfJCsUAYC+8b4TNm57Sz8HKDV7PAwAAObFQK3lxbN37v7ILZPDbpUJAI/BIAEAHW9mbGS8Nuc+k1KerQYA9JVWo1V+Q4Y6pwEAwLweX31ns1U+MzMxepEWAPDIBiQAoFPdMnn2Qc32fS9LzYtS9QCAPnTxqrdu3drvEUppzNXqYAgAYJ4dllpfNTMx8pxdrYGLTr78c1+VBAD+kysSANCRZieHz2y27/tEal6kBgD0oZp7m3P5QyGSWl2RAABgAY87J1c09nz21rHRs8UAgP9kkACAjjM7NvxTtVU+lZpRNQCgP5WSPzr+bdtuUyIpJXtUAABY0COukxqlfnj7+Mj6ut73JgCQGCQAoIPcPbn2iO1jI2+ppbw+ycGKAEDfuvH+h3b+nQwPq21XJAAAWAQDJXnp7JaRd98xfsagHAD0O4MEAHSEHeNrvmtna9dnS8kPqwEAfe+3Tr3yhl0yPKw2Gq5IAACweJ6zJ83Pza4bPVcKAPqZQQIAllSdnGxuHx9Z3077o0lOVgQA+t6HhjZu2yTDfyrJbhUAABbVcbVR3z4zNvzn9aK1y+QAoB8ZJABgyWx//sjq2blrP1iSlyZpKgIAfa+W1N+W4ZuVdu5RAQBg0TVSyktm7tz14R2Ta/zlFwD68I0QAJbA9rHR55dmPpdSnq0GAJAkKdk0uHH6U0J8a5f2nSIAACzVIWq+qz3X/tzM+OiPqwFAPxmQAIDFdNMLT1q54r5DX55af/XhczEAgCRJu5X8oQz/1VwpdzWrDgAAS6bk8KT+88z4yPMahzR+adWlWx4QBYBe54oEACyamYnR01fce+jHU/OiGCIAAL7ZG1dv2LZFhv+q7tnjigQAAJ3hBe0H2p++dd3wWVIA0OsMEgCwKGbHhn8qtX46yVPVAAC+xZ5mO38kwyPbtad1lwoAAB3j9EajfHxmYuTXqr8oA0AP8yYHwIK669xTDt+18qB/TKk/pgYA8Ehq8vcnbNz2y0o8upnxkfuSHKoEAEDnKClva9U9P3vips8b/ASg57giAQALZnbd8HfsOmjlZwwRAACPYWdN489leFw+nAYA6DA19YJGGZieuXDkuWoA0GsMEgCwACdRKdvHRl9cG+VjSb5NEQDgUY8bav72xI1bblXicZTcKQIAQEc6Pu28c3Z89Pfret+5ANA7vKkBMK9uHTv96NnxkStKqS9LMqAIAPAYHmwMLHuFDHuj3q4BAEDHatbUP5rdMvqOW8dOP1oOAHqBQQIA5s3MxMgzGmXgU0nOUwMAeFylvmpw6rN3CLFXsb6sAQBAp6vPa5SBz906Nnq2FgB0O4MEAMyLmYnRi1LzsSQnqwEA7IVdrcbAX8qwd2q73KwCAEBXOLFR6oe3j42+WAoAuplLTgNwQO4695TDdx288p9S66QaAMA+eO3qqWu2y7B3Go16U606AAB0iYFS6stmxke+c2Vzxc8cNbX5a5IA0G1ckQCA/TYzvubpuw5a+ZnUGCIAAPbFnkaz8QoZ9kGtN4kAANB1xna2dn5yx/NHR6UAoNsYJABgv8yODf9U0v5okm9TAwDYFyV546qpLb4Y3wd1zx69AAC68+j3Ke1m/cT2iZGf1QKArnoHkwCAfXHHBacdNjew7NU1+RE1AID90GrX5pknbrrmC1Lsm5nxkXuTHKYEAECXKvnHBx7c+eunXnnDLjEA6HSuSADAXpsZGzljz8CyTxoiAAD2V0kuM0Sw3/FuFgEAoIvV/OIhB6386Oy6s04SA4BOZ5AAgL0yMzG6LiVXJzldDQBg/9W/1GD/lGqQAACgBzyjlrlrZsZGxqUAoJMZJADgMdWL1i6bGR/969S6KckRigAAB+BDgxunPyXDfh6XlXqDCgAAPaDk8JRcNjM+8md1crIpCACdyCABAI9qx9ia42bu3P2upP66GgDAgaqpf6XCgfQr21QAAOgZJcnvzrau+8Ad42cMygFApzFIAMAjmrlwzbPbpf25kvr9agAA8+CLQ2um3y7DAZzA17pVBQCAnvM9e9L83K0XrvkBKQDoJAYJAPgmNSkzEyO/lnb7/UlMQwMA86LU+sqyPm0lDuA4bc/K6URDAIAedFyj3X7X9vGR9XW9720A6AxFAgD+3R0XnHbYnmXLXpOaSTUAgHk887xnoFGfeNzU9P1iHJiZ8ZEvJDlVCQCAXj10zhW7d5WfftI7tt6jBgBLyWQbAEmS7ZNrTtszsOyThggAgPlWUi82RDBvMd3eAACgh9Xk/OUr6idnJ84cVgOApWSQAIDMrhs9t7TaH09yuhoAwDzb06rNv5NhftRqkAAAoOeP+ZJTam18fGZieEINAJaKQQKA/j4pKdvHRl9cG/XtSZ6gCAAw30qy8cSNW25VYp56lmqQAACgPxyaWqZmJ4ZfVtf7LgeAxefNB6BP3T45fOjs+Oi/llJf5v0AAFgwtfyDCPOn3R4wSAAA0D9KreXFs1tGrrhp3VlPkAOAxeSLI4A+dNu6kW+ba5d/S+qFagAAC+i6VZu2fliG+XPCwFO+lOQBJQAA+sp/W9GYu3r75JrTpABgsRgkAOgzs2Oj39tq5OrUjKoBACyomn8sSRVi/pSpqVaSzUoAAPSd00ur/amZidF1UgCwGAwSAPSRmYnRi2qp70tyrBoAwAJ7aM/ucqkM86+kfFwFAIC+dFhq3Tg7Mfyyut73OwAsLG80AH3gpheetHJmbPSS1PqqJAOKAACL4F+e9I6t98gw/2qtn1ABAKBvlVrLi3dsGbn8rnNPOVwOABaKQQKAHnfr+JoTV9x76IdT6k+rAQAsmpJ/FGFhLCutq1UAAOhvNTl/18qVn5yZGD1dDQAWgkECgB42c+GaZzfS/nSSb1cDAFhEnxrasO3TMiyMYzdeN5vkK0oAAPS5ktNS68dmLhx5rhgAzDeDBAA9avv4yK+m3f5AkuPVAAAWV71YgwUuXPNxFQAASHJU2nnn7NjIb0kBwHwySADQY7547ikrZsdGXlOSv0kyoAgAsMgeWtlcOSXDwiqN8gkVAAD4umYtecXs+MibZ85fe7AcAMwHgwQAPeQrF5w2dPBBK6+qJT+rBgCwJGo2HDW1+WtCLHDmUl2RAACAbzkUz49k2a5/2zG55mQ1ADhQBgkAesT2C0e+e2Bg2eaSfJcaAMBSqckbVFh4uw+9/zNJdisBAMC3eGq71f7E7IUj50gBwIEwSADQA2YmRi8q7XwwySo1AIAltH1o4IwPyLDwTr7k5p1JPqUEAACP4Njaznu3j42+WAoA9pdBAoAuVs85Z2BmfOTvU+urkixXBABYYm8oU1MtGRZL+aAGAAA8ioFS6stmx0deOz057HNDAPaZQQKALnXHBacdNnvUnZcn+SU1AICOUIrbGizmCX1tGyQAAOAx1eRnjmyVD+4YW3OcGgDsC4MEAF3otonRJ+9pLvt4kvPUAAA6QUmuHtqw9fNKLJ6Hjnjg35I8pAQAAI/ju9ulffXM2MgZUgCwtwwSAHSZmQvXPLtV6ydScqYaAECnqCmvV2FxnXzJzTtrytVKAACwF56cRj5264VrfkAKAPaGQQKALrJ9bPhH026/J8kxagAAHWRPu+65TIbFV+L2BgAA7KWaIxvt9rtmx4Z/WQwAHo9BAoCuOMZP2T4+sr6U8i9JVioCAHSY95646fN3ybAkx4kGCQAA2BcDtZS/m5kYeWWdnGzKAcCjMUgA0OFueuFJK2fHh99YkpcmKYoAAJ2m1PoWFZbG0N3HfiLJfUoAALBPal402/r82+8695TDxQDgkRgkAOhgd4yfMbji3kM/nJQfVwMA6FC7VgysfKsMS6NcddVcUj6mBAAA+64+b9fBKz86M37Gk7QA4FsZJADoULeuGz5rT5qfTPLtagAAnaok7zlqavPXlFjCNaj1/SoAALBfakaT5tWz48M+gwTgmxgkAOhAM2PDz2uU8qEkJ6oBAHSymvJmFZZWSeNdKgAAcAAGa8qHZ8ZHXRUVgP9gkACgw8xMjPxaSnl7StyfDADodDtXPPTQ22VYWqs2bdmW5MtKAABwAFYm9Y3bx0fW16TIAYBBAoAOUc85Z2D7xOjfpeb/JmkqAgB0gXccfeUN98rQAUquFAEAgAM9qizJS3eMj7zplsmzD5IDoL8ZJADoAF8+b/TImaPuenep9ZfVAAC6Ra31MhU6ZC1S36kCAADzc2yZH2m27nvPzPlPOUYNgP5lkABgid22buTblq2oHyup368GANBF9uyuy94lQ2doHtz8QJKdSgAAME+elWXLPzE7OXymFAD9ySABwBLaPj78zFYjVyc5Qw0AoKvUfPDkyz/3VSE6w6pLtzyQ5ENKAAAwj55cW+Xjs+Mj50kB0H8MEgAske1joz9TUj6Q5Fg1AIBuUxvlChU6bVHi9gYAAMy3w2ry1u0To78iBUB/MUgAsMhqUmbGR/60lPraJMsVAQC68mSy1Xy7Cp2lNVANEgAAsBCapda/nRkf+Yu63vdKAP2iSACweOo55wzMHnXnPyT5eTUAgC52zdDGbWfJ0HlmxoevT8pTlAAAYEGUbNx12P0/cfIlN+8UA6C3mRwDWCR3XHDaYbNH3vmOGCIAALqe2xp07tLkHSIAALBgasZXfO3QK29ad9YTxADobQYJABbB7ZPDq/YMLLsqJc9VAwDodiXtt6nQqYvT3CQCAAALfEJwzooy97GZyeEnigHQuwwSACywWyaHT2m1ykeSPF0NAKAHzK7aOP1pGTrT4MiWjyXZoQQAAAuq5My0ysdvXTd8lhgAvckgAcAC2j4+/Mxmq3y8JqeoAQD0iHeWpMrQmcr6tFPcegIAgEUx2GiUD85eOHKOFAC9xyABwAKZmRhdV1Lem+RoNQCAXlGT96rQ4drtjSIAALBInlDbeffM+OiPSwHQWwwSACyAmfHhn0+tU0kOUgMA6CHtRnPZB2TobIPHrnx/Su5RAgCARbI8qW/cPj6yXgqA3mGQAGAe1aQ8fMBcXp1kQBEAoMd8ZnDqs3fI0NnKxZv3pNYrlQAAYDEPQ0vy0pmJkVfW9b57AugFXswB5sn05PDy2fGRS0vyUjUAgB71Hgm6Q0k2qQAAwKKredHslpHLbpk825VaAbqcQQKAeXD75PChR7Yab03yE2oAAL2qNPJeFbpD3bPynUkeVAIAgCUw1mjd94GZ859yjBQA3csgAcABumP8jMG5VuPDSX2eGgBAD3vg/gd2Xi1Ddxi6YvODKdXgBwAAS6Ik35Vlyz88M37Gk9QA6E4GCQAOwOzk8Jl70rw6qU9TAwDocVedeuUNu2ToHqWdjSoAALCEzigZ+Ldbx4afKgVA9zFIALCfdoyv+a7aKh9KYqoWAOh9xW0Nus3ynbsuT7JTCQAAlkpNHWqU8tGZsWFXcwXoMgYJAPbDzPjIWDvtDyRxny8AoD9OHufKB1ToLkdfecO9KfXdSgAAsMQOTSlvnZkY+UkpALqHQQKAfbR9fORXk1yW5CA1AIC+UHLP8U/bOi1E96nJW1QAAKADLE/NG7aPj6yXAqA7GCQA2Es1KbPjoy8vyd94/QQA+uxA6N/K+rSF6D7LGrkiyYNKAADQAUpJXjo7PvI3db3PVwE6nRdqgL1QJyebsxOjr6qpv6MGANB3x0K1fESF7nTc1PT9KXmHEgAAdMz5RfKrs1uGL60XrV2mBkDnMkgA8DimJ4eXz8xd9y+p9RfUAAD6UrMaJOhq1e0NAADoMOXHZ+/ctemWybPdPhagQxkkAHgMM+evPfjIVuOtpeSH1QAA+tTOBx/YuVmG7rXrsAfekZp7lQAAoMOc12zd9667J9ceIQVA5zFIAPAoblp31hOybNd7kvo8NQCAPvaJU6+8YZcM3evkS27emZIrlAAAoAN9z87Wrg/MTj7tWCkAOotBAoBHcNsFI8evaMxdleSZagAAfa3moyL0wDIWtzcAAKBjPb229nx4+/NHVksB0DkMEgB8ix2Ta05uDeRjSZ6qBgBANUjQA77ayLtTco8SAAB0qNNLMx+9deypT5ECoDMYJAD4BjNjI2e0W+0PJ/k2NQAAUlsD+aQM3W94anp3ajYqAQBAB3tio7Q+sn3izKdJAbD0DBIAfN3MxMgzUvLhJCeqAQCQJLlh9dT03TL0htLIG1UAAKDDHVdq48O3XrjmB6QAWFoGCQCSzF44ck7aeX+SY9QAAPi6Wj4tQu9Yddm2DyX1ZiUAAOhwhzba7XfMTIyukwJg6RgkAPre9vHhC2o7V6bkcDUAAP5TKXWzCj20nklNypuUAACgC6xIrVOz46MvlAJgaRgkAPra9rHRnykpG5OsVAMA4L+cMRok6DGlWd3eAHpbO8lXZACgRwzU1NfMToz8khQAi88gAdC3tk+M/kop9Z+SNNUAAPgv2ssf2PkZGXrL4NT0tUn5rBLQk+5PzaQMAPSYRq35+9mJ4ZdJAbDIL8ASAP1o+9joi0utf+t1EADgUV1/9JU33CtDDypxVQLoPTeW0v6uNEo7yRPlAKDX1FpePDs+8jd1vc9zARaLF1ygvw44kzIzPvrXpVQTrAAAj+3TEvSm5p76z0nmlICe8dFGbZw9uOHa6bSrSz8D0LNq8quzW0YuqeecM6AGwMIzSAD0z4HmRWuXzY4PvzGpv64GAMDjKNksQm86/m3bbkvyfiWgJ/zT4DErvn/Vpi2337Zu5NtS8hxJAOhxL5g9+s63fPHcU1ZIAbCwDBIAfeGL556yYvbOXW9Jyo+rAQDw+EqtW1Toaf8sAXT563SpLx/auO0XysWb9yTJXDO/GJ/1AdAPasYPOWjllXdccNphYgAsHCcXQM/b8YI1hxyycuW7koypAQCwd0ptTqvQuwaadVOSB5SArtRKrRcNbph+yb//Dze98KSVpeaF0gDQR75vz8Cyd909ufYIKQAWhkECoKfteMGaQ9oPtK9IyTlqAADstTtXbdpyuwy967ip6ftTy2VKQNfZWVJ/dGjT9Ku/8X9cce+hk0mOkQeAPvPdO1u7PnDr2OlHSwEw/wwSAD3r7sm1R9QH2u9N8n1qAADsg5ptIvSBkteKAF31nL2nXcv3D26cfqQhoF8UCIA+9fRGGXiPYQKA+WeQAOhJN6076wk7W7vfXZOz1QAA2De1UdzWoA8Mbtz6kZLcoAR0hbtLrT904qatV3/rv7hlYmRNku+WCIA+9vRGGfjIHeNnDEoBMH8MEgA9Z+b8pxyzotH6QFK/Uw0AgP04Uazta1XofSWpNXmdEtDxZkuzPntw4/SnHulfNtv5WYkAIGfsycB7b58cXiUFwPwwSAD0lB1ja44ry5a/P6lPUwMAYP/UNNzaoE+0ms3XJ2kpAR3rK63S+t7BqelHHPCq69MopUzKBABJUofnWvnQLZNPPUELgANnkADoGbdPDq9qp/3BmqxRAwDgAOzZ5YoEfWL11DXbk/JeJaAj3VjaA9+7esN1X3y0/+C2a4bPqalDUgHAvytPGWi1rtr+/JHVWgAcGIMEQE+4ZfKpJ8zNlatScqYaAAAH5LahK75wpwz9o9S8VgXoOF9OWt8/ePnnbn6s/6jdaPyoVADwzWpySmnmQ7PrzjpJDYD9Z5AA6Hrbnz+yeqDVuiolp6kBAHCAav2CCP3l7oH2W5MYHoHOcVttNn5oaON1X37Ml+uL1i5LrRNyAcAjOrk25j58y+TwKVIA7B+DBEBXmxk/40mlmQ/WxAEhAMD8nCbeqEF/GZ6a3l2SNykBHeH20qzff8LUlusf93z4rp3PS3KUZADwqFY3W+UjsxNnDksBsO8MEgBd6+FLUzU/mOTb1AAAmB+l1JtU6D9zJf+kAiy5r9bSft7g1PS1e/V63W78mGQA8LhW1dp4/47nj45KAbBvDBIAXWn75JrTamPuo0lOVgMAYP7UxBUJ+tDqDdu2JOWzSsCSvfjemzR+4IQN1+7V83Dm/LUHp9TzhQOAvXJ8u1nfd8vEyBopAPaeQQKg68xMjJ7eaNUPJDlBDQCA+VUb+ZIKfbr2qa9TAZbE7jQzObRxy2f2+vk6sPOCJIdKBwB77bhmctXsuuHvkAJg7xgkALrKLRMja1Lrh2rqkBoAAPNvebvl1gZ9qt2s/5xklxKwuE+9UvKCocu2vWdf/lBp5EelA4B9VHNkbZZ3zY4Pf7sYAI/PIAHQNW5dN3xWs+b9SY5TAwBgQTx4zMbrdsjQn1ZPTd9da96qBCyikt8Y3LDtX/flj9wyefZBqeUHxQOA/VBzZE157/YLR75bDIDHZpAA6Aoz42ue3miU9yU5Rg0AgAVzY0mqDP2ruL0BLJpa6x8Nbdj2yn39cwPt+78vycEKAsB+O6K0854dY8PfLwXAozNIAHS8W8dGz07aH0hytBoAAAunJG5r0OcGB858b5JblIAF94YTNk2/dL/+ZG2fKx8AHLBD2qW8zTABwKMzSAB0tFvHRs9ulPruJEeoAQCwsGrJdhX6W5maaiXl9UrAQr7Y1o888NDOi/b7j6ecJyIAzItD2qW83TABwCMzSAB0rO0TZz6t0ajvSHKYGgAAC6/UMqMCjWZ5bdziAhbKTWVg+cSpV96wa3/+8MzYyBlJTpYRAObNQe1Srpi9cOQcKQC+5fMBCYBOdOvY8FNLbbwvNUeqAQCwOGrasyqwamrLTUk+rATM+4vsvaW0zx+c+uwd+/sjSuJqBAAw/w6u7bx9Znz0e6QA+E8GCYCOs+P5o6ONUt6X5Cg1AAAWT0kxSMDDj4VSX6cCzKs9tVEmBjdcO30gP6SW/DcpAWBBHJJar5hdN/wdUgA8zCAB0FG2T645rd2s70lyjBoAAIurpmGQgCRJObh5WWruVQLm6TlV6/86YcPW9x3Iz7jr3FMOT/JMNQFgod6wc3htlPfMTIw8QwwAgwRAB7ll4oxTG636gSSr1AAAWHzLsscgAUmSVZdueSAl/6oEzItLBzdN/78D/SG7Dl7xg0mWywkAC+qI1Lx3ZnzN06UA+p1BAqAj3DI5fEqzNj9YU4fUAABYEu1j7j7+Dhn4d400XqMCHLBP7zr8/ovm5SfVcq6cALAonpC0r5ydHD5TCqC/PxcAWGIzk8NPbLby3iQnqAEAsGTuKFddNScD/27Vxi0fT3KNErDf7mo0Gz988iU375ynn3eOpACwaI6rrfJBwwRAPzNIACypmcnhJ6ZVrkrKSWoAACypHRLwrWriqgSwf+ZKIxeumtpy03z8sNsnh1cl+TZZAWBRHVdb5T23TA6fIgXQjwwSAEvmlsmnnlBa5f1JTlYDAGDJ3S0B32puV3ljkoeUgH1Tan538LJtV83Xz2vNNZ6tKgAsiROarfL+2XVnnSQF0G8MEgBLYsfYmuOac6331MQ0JwBAZ/iaBHyrJ71j6z1JLlMC9sk7V23a9pfz+QNroz5LVgBYMk+sjbkPGSYA+o1BAmDRzU4+7dh2qR9IiftLAQB0iJr6VRV4RI3Gq0WAvXZr9uz+6ZLU+X2RLq5IAABL64lpzL33lsmnniAF0DcfB0gALKab1p31hNra866kDqsBANA5Si2uSMAjGrpsy0eSMq0EPK65mvqjQ1d84c75/KF3nXvK4UldIy8ALK2anNJstT54x/gZg2oA/cAgAbBoblp31hNWNObem+TpagAAdJaaapCAx3iAtF8jAjzu6+j/PmHj9Mfm++fuOnjF2UmaCgNARzh1T21+8PbJ4VVSAL3OIAGwKO6eXHvEisbce5I8Qw0AgA48OSzlXhV4NO203pBkpxLwaMq7hjZOv2JBfnTNM/UFgE56289prVZ5961jpx8tBtDLDBIAC27HC9YcsnNu5xVJvl0NAIDO1E6+qgKP5sRNn78rqRuVgEd057LM/WxJ6oL89FqeLTEAdJaarGk0Bt53y+TwUWoAvcogAbCgdrxgzSHt+1tXpvjgAwCgo08OqysS8NhKbVysAvxXNfXnjt143eyC/OyL1i5LyXeoDAAdeRBwVrNVrrx7cu0RYgC9yCABsGBumTz7oPYD7SsMEQAAdL7aaBsk4DGt2rT1w6m5Xgn4Jq86YeP02xbqh996164zkhwsMwB0rO/Y2dr1ztsnhw+VAug1BgmABVEvWrus0b7vX5N8nxoAAJ2vtBs7VeAxHyNJLck/KQH/8Zy4YaBZf2shf8dA6tOUBoCO9917Wo233vTCk1ZKAfQSgwTAvKtJ2XHnrleVmv+uBgBAd2g36x4VeNxj/bndlyTZpQRkrpT2Tx43NX3/Ap9fP1VqAOh8JfX7V9x3yJvrOecMqAH0CoMEwLybHR/9q5r8jBIAAF10ctg2SMDjG7riC3eW5HIl6Hcl5Y9Wbbj2Ewv+i2o5S20A6BK1PH/2qDtfW5MiBtALDBIA82pmfPSPk/rrSgAAdJdWOwYJ2LvHSqPxahXoc9esOmb5yxbpd62RGwC6ygt2jI+8UgagFxgkAObN9vGRX03q7ykBANB9mm5twF464bItH0jyRSXoU3NJ42fLxZsX/DVzZvyMJyU5WnIA6C41+dWZiZH/rQTQ7QwSAPNiZnzkBSUxaQkA0KVa7WUGCdgrJakp5bVK0J+P//JHQxu3fGYxfletA2cpDgBdquZPZsaHf10IoJsZJAAO2Pax0ecneW3c+wkAoGsNDLgiAXuvuae+LnE7DPpMyecW8ZYGaZR6lugA0NUHD381Oz76Qh2AbmWQADggt1645gdKqW9JMqAGAED3mmv5Upi9d/zbtt2WlLcqQR/Z027XFy7GLQ3+XS1ZIzsAdLVSUy+eHR85TwqgGxkkAPbbjokzv7PRbl+eZIUaAADdbdlc2yAB+6ZRXy0CfeQVJ26avmZRf2PNU2UHgO4/1arJ1Mz46PdIAXTdab8EwP6YnThzuF0b70hyqBoAAN1vT3NuTgX2xeBl296b5EtK0OtKckOredifLObvnJ4cXp7kJPUBoCcclFqvmFk3ulYKoJsYJAD22W0To09Obb4nydFqAAD0hoN2zrkiAfukJDUlr1OCXtcu5ZdWT1390GL+ziPbjScnaaoPAD1z8Hx4GvVdM2MjZ4gBdAuDBMA+2TG25rhWbV9ZU4fUAADoHbsGjnBFAvbZQKO+JokhFHpXLa8/YcPW9y32ry21fpv4ANBzjknJe2bXnXWSFEA3MEgA7LUvnzd6ZLvRfl9SnqIGAEBvuWflToME7LPjpqZ3JHm7EvSoOzO367eW4hfXGoMEANCbTqxl7l2zk087Vgqg0xkkAPbKjhesOWT5ivqO1IyqAQDQe84cnjZIwP6p9WIR6EWl1t8cuuILdy7J7y45xQoAQK8eZOS02trzrrsn1x4hBtDJDBIAj2t6cnh5+4F6WU3OVgMAoCe1y/q0ZWB/DD51+j1JvVkJeszHVm2avnSpfnkt1SABAPS2p+9q7bpyxwvWHCIF0KkMEgCPqU5ONp8wVy5N6vPUAADoWe5xz34r69NOKf+kBD2k1W7XXylJXbqTcbc2AIBeV5Oz2w+0N01PDi9XA+hEBgmAxzqQKbPtz/9DKflhNQAAeprbGnBABhr1NTGQQo8oyd+fePn055bsXHxyspmUk6wEAPSFHzyyldfV9b6vAzqPFybgUc2Mjbw8tf6CEgAAPc8gAQfkuKnpHSm5Qgl6wO072wN/sJQbcFuuf2ISfzMRAPpG+fGZraN/owPQaQwSAI9oZmzkRaXkt5UAAOgLBgmYB/ViDej6R3EtLzn58s99dSm3odWubmsAAH2m1PrLMxOjL1EC6CQGCYD/YnZ8+MKU/LUSAAB9wyABB2xwdPq9SW5Sgm5Vk48Pbdp6yVJvR6PmRKsBAP14MFL/bGZ85AVCAJ3CIAHwTWYuXPPsmnKp1wcAgL7i3vYcsLI+7ST/pARdqib1t0pSl35D6pDlAID+PKRO8pqZieEfkgLoBL4oBP7D7OTwmWm3L0+yUg0AgH5SXZGAeTHQrK+NwRS607+csHH6Y52wISVZZTkAoG8tSy1T2yfOfJoUwFIzSAAkSb5ywWlDtVXemeQoNQAA+k3xxS/z4rip6R0puUIJusxDSet/d8rG1JRBSwIAfe2wUhvvmF131klSAEvJIAGQu8495fCBZcvekeRJagAA9CVXJGD+lLxKBLpJrfUVQxuv+3IHbZErEgAAg2nMvXd28mnHSgEsFYME0OfqRWuX7Tpo5WWpOUsNAIA+VQwSMH8GL9v23pLcoARdYnvz0Ob/6bSnkWUBAGpySm3NXTFz/tqD1QCWgkEC6O8DkTJ7567XJflBNQAA+vnAsBgkYN6UpNZSXqME3fF4Lb+36tItD3TYZh1vZQCAr5+sfWeW7XpDXe/7PGDxeeGBPjYzNvLyJD+hBABAv6sPacB8au6pr0uyRwk6WsnWVWu2vqGTNumOC047LMmhFgcA+AYTs1tH/p8MwGIzSAB9amZs5BdLyW8rAQBAau4Xgfl0/Nu23ZaUtypBJyut8uKyPu1O2qZdzZVuawAAPNI52y/OToz4PB9YVAYJoA/NjI2Mp8QEIwAADyt5QATmW631YhXoYB8avHzrlZ22UY3SXmVpAIBHPr7Oy2fGR39cCWDRzk8kgP6yY+LM70zJpZ7/AAB8g/skYL4Nbdr2viRfVIJO1K7ldztzy+rRVgcAeBQlqZdsHxv5QSmAxeCLROgjM2MjZ7Rr451JDlYDAIB/V+PWBsy/ktSU8lol6EAbTty09eqOfN6UerjlAQAew7KSXHbruuGzpAAWmkEC6BN3jJ8xmFLfmeQoNQAA+OYTw2KQgAVRGgOvSbJLCTpIKzW/36kb107jMEsEADz2QXYObzYa75gZP+NJYgALySAB9IG7zj3l8D2l+c6knKQGAAD/RckDIrAQBqc+e0dK3qYEnfNylzcMbdp2XcduX60GCQCAx1VTh5KBd3z5vNEj1QAWikEC6PUDiovWLtu1cuVUas5SAwCARzxmdGsDFvTxVS5WgQ7RatXmyzr7CePWBgDAXh84DC9bUS+/6YUnrdQCWAgGCaCXDyOSMnvH7len5LlqAADwGAwSsGCGNmx9f5IvKsHSnyPXS0/cdM0XOnobSzFIAADsi+9Zcd+hb6jrfd8HzD8vLNDDZsdH/jSl/rQSAAA8prZbG7BwSlJr6j8pwRKbazfzp13wfHFrAwBg39RMzm4d/gshgPlmkAB61PaJkZ9N8rtKAMB/+GKSd6fm2iQPygH/ya0NWGjN2rwkyW4lWLoXuvLPq6emb+j47SxubQAA7Nexzv+aHR/+n0IA88kgAfSg2QtHzik1/6AEAHzjSXX2DG3c9ryhTduGB9dsO6zVrKcmGS+lvjzJR5PsFIm+fXo0i0ECFtSqTVturzWXK8ESabUac3/aFVta3doAANjPw4iUV85MDP+QEsB8KRJAb7ll4oxTm7X58SRHqQEA36JdnjF0+dbNj/SvZs5fe3BdvvMHSi3nJZlIcoxg9ItGaX/Xqg3XfkIJFtKtF675gUa7/T4lWAKXDm3c9lPdsKEz4yOfSvIMSwYA7KevlWb97sGp6WulAA6UKxJAD7llcvioZm28PYYIAOCRNeujfokwdMXmB0/YMH3F0MZtv3hPs56Qmola8vYkc8LR69zagMVwwmVbPpDkS0qwyFrt2vyTLnpBPtiSAQAH4IjaKm+fnXzasVIAB8ogAfSIetHaZc1WuSwpT1EDAB7tDTM/Vi9au+zx/rPhqendQ5u2bTxhw7bzB5p1dSn5naTeLCA9+9So1SABC64kNclrlGCR3/vfdOKma77QPU+UOmDRAIADdHJt7dn0xXNPWSEFcCAMEkCPmL1z198m+T4lAOAxHTtz187n7csfOG5qesfghm2vGDxm5VNKrT+d5Isy0mvaBglYJAPN+roke5RgkbTqQONPumuTyzLLBgDMg2cevHLlG6pbnAMHwCAB9IDZiZHfTvI/lACAx1dSXrBff+7izXsGN02/YfCYFcMGCug1D+2cM0jAojhuanpHkncowaKoedMJU1uu77KtdkUCAGBelJIf3jE++ntKAPvLIAF0ue1jo8+vNS9TAgD2Us35d517yuH7fSL+zQMFv5Lkq6LS5faceuUNu2RgsZRSXq0Ci6CVRvnTrnt+pDQtHQAwX2rqH85OjPywEsD+MEgAXWz7xJlPK6W+0XMZAPbJyp0HrzjvQH/I1wcK/t9As56R1H+Rla5V4moELKpVjdPfneQWJVhY9S1DG7Z+vuu2OtUVCQCAeT3jqzWX7Jg48zulAPaVLx+hS33lgtOGSm28LcmhagDAvp5FN8bn62cdNzW9Y2jj9E80av2B1FyvLl2n5h4RWNTX4KmpVk1eqwQL+cpWmvnTLt12gwQAwHw7qF0bl89MDj9RCmBfGCSALjRz/tqDBwaWvTXJiWoAwP6o594yefZB8/kTV22a/sADO3c+NSl/kqSlMV3kLglYbKVZX+u1kgX0zsGp6Wu78xDFIAEAsCBWlVa54o4LTjtMCmBvGSSALlOTUpbtek2SZ6gBAPvtkGb7/h+a7x966pU37BrauPX3Sy0/kGS7zHSFUu8UgcU2NDX9laS8VwkW5GWtkb/o3o03SAAALIyarNkzsPxf6+RkUw1gbxgkgC4zOz7ypzX5USUA4EDPoOvYQv3owU1bP5Q9u88qyRVC0/nPhWKQgKV6HX61CMy7ks2Dl227qov3wCABALCQB+HPm219/i90APaGQQLoIrMTwz+d5HeVAIB5UHJ+vWjtsoX68UNXfOHOVRu3PT8lv55kl+B0rJq7RWApDB674ookO5Rgfl/S6l92+S74rA4AWOgjpl+fGRv5RR0AJyfQI2bGR7+n1nKxEgAwX+fNOXL73Xu+ZyF/RUnq0IZtr2yU9vfGl2V0qFLKXSqwJI+9izfvKaW+Xgnm0VeG7jp2qsv3YbdlBAAW/mA8f7t9bOQHhQAei0EC6AI7JtecnNTLkixXAwDmT7O2FuWkedWGaz/RajafkZLPqU7HKdWtDVgyjTQuTlKVYF7U+n/LVVfNdfle7LGQAMAiGCjJZTvG1oxIATz6OTvQ0e4695TD2616RZJj1QCA+VVTfmixftfqqWu2DzTqs2vJ25Wn0w45JWCpHL9h642p+ZASzMOb+r0rB1a+tgf2xBUJAIDFUXJ4u7TftmNszXFiAI/EIAF0sHrOOQO7Dlq5IanDagDAQrzZ5ql3jJ8xuFi/7rip6fuHGmesK6l/Jz6dolUaBglYWqW8WgQO/GFU/vGoqc1f6/r9SHFFAgBgMZ3cLu2NXzz3lBVSAN/KIAF0sNmj7/zbJM9RAgAWTNlTmj+wqL9waqo1uHH6V0vJ78TlvOmEJ0Gdu1sFltKuw+/bGFfG4MDsaaX8bS/sSE3dZTkBgEX2zENWHvQqGYBvZZAAOtTs+OgLU/OLSgDAAqt57lL82sEN216RUn4xSdsisKRPgTpwhwospZMvuXlnat6oBAfgTSdu3HJrj7wquyIBALD4Sv3pmfHhXxcC+EYGCaAD3To2enZN/UclAGBRPLcmZSl+8dCGrRcn9X/EMAFLqDYP8TfB6QT+BhT7rd2uf907e1N2W1EAYImOQ/5iZmz4eToA/84gAXSYWyafekKj1I1J3JMIABbH8TsmzjxzqX750MbpfyopP5ekZSlYAg+tnrr6IRlYakObtl2X5N+UYD+878TLpz/XQ/tjkAAAWCrNlHLp7LqzTpICSAwSQEe56YUnrWy2WhuTrFIDABZPrc1nLeXvH9y49ZKa/ESSOavBIrtTAjrmtbjkNSqwz0r9ix7bIbc2AACW0jFpzL11xwvWHCIFYJAAOsjyew/5hyTfoQQALLb6zKXeghM2bntLrfUFcZsDFtfdEtApmgc33pKae5Vg79++c/3ghun39NhO7bKwAMDSHmJlTX2g/Zqlug0k0DkMEkCHmJkY+bWS8kIlAGBJPLMTNuKETdNvTs0vWw4WS6nVFQnoGKsu3fJASt6kBHutkX8oSe2xvbrPwgIAS60mPzIzNvo7SkC/n3IBS25mbPhZqfk/SgDAknnyLZNPPaETNmRo07Z/TMqfWBIWRSkGCegs7fJqEdhLD7Ua9dKe26taXJUDAOiQ08X6Z7PjI+cpAf3LIAEssZnxM56UUjYmWa4GACydgdbc2Z2yLUMbt/5+Sf07q8JCayd3qUAnGbp86+Ykn1GCx1Nq3rR6arr3bs/SqF+zugBAxxyZlFx6y8QZp0oBffoiIAEsnVsmzz4opbkhybFqAMDSqmk8s5O2Z1XzzF9PymVWhoVUUg0S0HmPy5J/UoHHfd9u5B969HXZIAEA0EEHXTmyWZtvu3ty7RFiQP8xSABLqDl3/2tSs1YJAFh6JfU7O2p7pqZauw6/7wWp9SNWh4V7oBWDBHScFY0V/5LkQSV4DJ8e2rDt0724Y9WtDQCAznP6ztau19WkSAH9xSABLJHt48O/k1J/TAkA6Aw1WVMnJ5udtE0nX3LzztZA1iX5khViIZR2mVGBTnPU1Oav1dR/VYJHfc+u5e979nW5uiIBANCRxnZMjP6+DNBfDBLAEpi5cOS5JeXPlACAjnLIbPvzHXffv9VT03e3a51I8oAlYr61S9sgAZ3K7Q14NF8tc8vf0qs7V4srEgAAHXqcUutLt48PX6AE9A+DBLDIZteddVLa+eckTTUAoMNOitvtszpxu07cNH1NkhckqVaJ+dRsNg0S0JFO2Dj9sSSfV4L/qlwydMXmnr31RY0rEgAAHatRUt44O3HmsBTQJ096CWDx3D45fGhtzF2R5Bg1AKADD44bOatTt21o47ZNqXFFI+ZTfeiQe2dloIO9QQK+VWm2X93bxyKuSAAAdLTDai0bb1p31hOkgN5nkAAWSU3KXLu8PsmIGgDQoe/X7fK0Tt6+wadu+4OSXGGlmCd3n3zJzTtloFO1ms03JGkpwX+eV5cPDE5NX9vL+9iubVckAAA6XHnKisbcG+t63zFCr/Mkh0UyOz78v1MzrgQAdPK5cOdekSBJyvq0lz+08yeTXGexmI9DVAnoZKunrtmeUt+jBP+uUfOPvb6PtQ7cYaUBgC5w3uyWkT+WAXr8HEwCWHjbJ4bPT8ofKgEAHe+42cmnHdvJG3j0lTfcW0p7MsmDlosDU27VgI5/lKZcogJfN7vq2OWX9/pOnnDMstuSVMsNAHSB390+PvIjMkDvMkgAC2z75JrTSi2Xer4BQHeoc7tP6/RtHNxw7XRqftNqcSBKrTMq0OnubtTLk9ypBLXWV5eLN+/p+dfmh/fxbisOAHTDoUtJXrPj+aOjUkBv8sUmLKC7zj3l8DLXfmuSI9QAgO5QSzmtG7ZzaNO2f0yywYqx/4/17FCBTjc8Nb27pL5Zib7XLgN5Tf+8QOc2Sw4AdIlD2s16+ZfPGz1SCug9Bglgwc77U3YddNBrUnKaGgDQRQfIpZ7aLdu6qz3w80m92aqxP0rqdhXojnOr5utU6HsfGJqa/kofvUAbJAAAusmTl62ol9akSAG9xSABLJCZ8eHfTuqFSgBAd6m1dM0Q4MmXf+6rpZ0fSbLHyrHPj/XScGsDusLQxi2fSXKNEn2s5PV99gLtijEAQLc5b3Zi9MUyQG8xSAALYPbCkXNKyp8qAQBdqOYp3bS5g5dPfzKpf2Th2Fel1TZIQDe9OF+iQd++L9+b3Ss29tcLtCsSAADdeNxW/2T7xOhzhIDeYZAA5tlXLjhtqLbz5iQDagBAFyo5pZ5zTle9jw+umf6zJB+2eOyLdi2zKtA1L83N5f+cZLcSffm+PDV0xeYH+2yfDRIAAN2oWWq99I7xMwalgN5gkADmUb1o7bKBgWX/muR4NQCgay2fPeq2E7ppg8v6tJvt/GySBy0fe6k9dPwKl86mawxOffaOlLxdiT7UaLy+33a5tg0SAABda9WeNN/UbX9BA3iU0zEJYP7M3rHrFUmeqQQAdLnaWN1tm3z85du+lJL/z+Kxl+4oF2/eIwPdpNHO61ToLyW5YfCyLR/tu8d6wyABANDVvnfH0Xf8iQzQA+cmEsD82D4+8iMp+TUlAKD71UZWd+N2D45u+9u4xQF7efgqAd3m+HuOeVcSt+Top/fj1NeXpPbbfs+l3mr1AYCuPo6r5XdmxkfGlIDuZpAA5sH2yTWnlZqLlQCAXjlILid243aX9Wk3S/mZJA9YRR7zsWKQgG583F511VyteaMSfaM2ms1/7scdP/jBnTdbfgCg+08789rb1o18mxTQvQwSwAG6fXL40DLX3piSw9UAgB5Ru/OKBEly/IatN6aUP7CIPPZDPDMq0JUGGq8RoT+UWj+wamrLTf2470dfecO9Sb7qUQAAdLkntBvZeMvk2QdJAd3JIAEcoD1z5TUpOVMJAOgdNd07SJAkg43TX5nk36wkj/EY36EC3eiEqS3X1+TjSvTB61Qpr+/rACU3exQAAD1w7rmm2br3/yoB3ckgARyA2bHhXy4lP6wEAPScE7t548vUVCul/FySXZaSR3yMlOKKBHTz4/d1KvS8+xqHNDb2d4L6ZQ8DAKBHjuAvmh0b/ikdoPsYJID9NDMx8oxayl8qAQA9eIqbMtTt+zC0YevnkzhW4ZG1218RgW61srH8LUkeUqKH34drplZduuWB/n6dLjd7JAAAvaKW8g87nj86qgR0F4MEsB9uWnfWE1LzliQr1ACAHjzBTT26F/aj1TzsT5J6sxXlW7UzcKMKdKujpjZ/LclGJXr4fbjZuKTvIzSKgS8AoJcc3G7WDXdPrj1CCuii0xIJYN/UpKxozL0uyZPVAICeteKOC047rNt3YvXU1Q8l5TcsJ9+iveeIr/mCiu5+EDcabm/Qu740eNmWj3qQGwQEAHrOqTvbu14tA3QPgwSwj2YnRv9XknVKAEBva61YcUwv7MfQxm2bkrzTivKNh7QnX3LzThnoZidctuUDSVxZowfVWv+5JFWI8mWPBgCg945xMjkzMfJrQkB3MEgA+2B23fB3pNY/VwIA+uDcttU6plf2pdWsv5bEF8f8u5skoNuVpNZa36hE72k06r+qkKS1yyABANCbal4xMzb8LCGgC87PJIC98+XzRo+sjbwlyXI1AKAPzmtrju6VfVk9NX1DUv7CqvJ1BgnoCY267HVJ2kr0kJKtgxuunRYiGbriC3cm+aoSAEAPWpZS3jQ7+bRjpYAOP++WAB5fTcqyle3XJeUkNQCgX46UyzG9tDut5qF/Fl8gk6TW6nFATxi8/HM3p+bDSvSUt0jwTb4gAQDQo05st+beXCcnm1JA5zJIAHthdmL0xanl+UoAQP+oNUf20v6snrr6oZL6O1aWpHGzBvSMkteK0DtaabmtwTf7vAQAQO8eytfvn2ld9/tKQOcySACPY3bd8Hek1j9SAgD6TC0H99ouDW6cvizJxyxu358E3qgCvaLVPOyyuPx7byjZvHrDdV8U4ptcLwEA0NuHgPn9Wy9c8wNKQGcySACP4aZ1Zz2hNvKWJMvUAIA+O5kt7UN68wSg8VtJqhXuX3Wg7dYG9IzVU1c/lOQyJXrgfddtDR4hSjVIAAD0ukaj3X79zPlPOUYK6MAnqATw6FaU1t8n5SQlAKAf9d4VCZJk1cYtH09yufXtW3sGc+Z2GegltZHXqdD9y5jWwJQM36zRbhokAAD6wQlZvuwNNSlSQIedk0gAj2xmYvSilPpjSgBAnyo5pFd3rV2bL0myxyL3pa+UqamWDPSSEy7b9m9J/YIS3asmnxi8/HM3K/HN7tv54BeTeM0GAPrggLCcOzsx8iIhoLMYJIBHMDs5fGZq/WslAKCfT2JzcK/u2ombrvlCLeVii9yX3NaAnlTSeKMKXbx+JW9W4b869cobdiX5shIAQF+oefn2iTOfJgR0DoME8C1ueuFJK2ur/EvSu18eAAB75ZBe3rlGY+APU3OvZe4zpRgkoCfVzL0hSVWiK7VbjeZlMjyqz0sAAPSJFY3a+Nc7LjjtMCmgMxgkgG+x/N5D/zLJU5UAgD5Xak8PFQ5OffaONPJ/LHSfqfVmEehFQxuv+3KSjyjRlT66euqa7TI86vHI9SIAAH1zypqcMjew7JVKQGcwSADfYGZ8ZKwk/1MJACDt0uz5fdy94q+T7LDY/aOW6ooE9PIj/FINuk9JfYsKj/GormVaBQCgr45/kp/ZPjH8Y0rA0jNIAF936/iaE5O8WgkAIElSev9YeeiKzQ+mlFdY7P7RTL1RBXrViod2/WuSh5ToKq3GXNkgw6NrpG5RAQDoN6WWi28de+pTlIClPh8BUten0Uj7DUmOVgMASJKa0hfHyrsOu+/vS8qMFe8T7QFXJKBnHX3lDfem5O1KdJUPHP+2bbfJ8OjmmodvS9JSAgDoM4c2SuufpyeHl0sBS8cgASSZ2TLyB0m+TwkA4N+V1GY/7OfJl9y8s6btqgT94cHjN225QwZ6WaOdN6jQVe+2rkbwOFZPXf1Qki8qAQD0oWcc1Wr8sQywhOfYEtDvZi5c8+yS/J4SAMA3qbVvjpV3Hf7AP7oqQT8oN5Wk6kAvO/6eY96VxN9w7w7tZZl7mwx78eqdXKMCANCPaupvz46PnKcELA2DBPS1L583emTa7TcmaaoBAHyTUvrmWNlVCfpDLdVtDej9l+6rrporyb8q0RU+fuzG62Zl2IvX72SLCgBAvx7i1+S1t08Or5ICFp9BAvr5RLwsW9l+XZInqgEA/Jcz1T47Vm41D39VEl/o9PJjupYbVKBPzvYu1aAbzsnrW1XY62MSVyQAAPrZcXOtcklNihSwuAwS0LdmJkZ/ObU8XwkA4JHUZE8/7e/qqasfSsnLrXwvP6jr9SLQDwY3Tn8qKdNKdLhm0yDBXmq3XJEAAOh7P7RjbOQ3ZYDFZZCAvnTLxMiaUqvL9wIAj6rUuqff9nnXYfe/qqTMWP0efUw383kV6B/1XzToaNedMLXFcNNeOuGt225JcrcSAEBfH+GX/Ons+PC3KwGLxyABfWfm/LUHN2venGSlGgDAo56gNrK73/b55Etu3pla/9rq96ZmqQYJ6KMHfH1jkrYQHWuTBPt6YOKqBABA31teU95817mnHC4FLA6DBPSfZbv+JskZQgAAj2N3P+70QGvPq5J81fL3nK8eNzW9Qwb6xdDU9FdS82ElOlNJvVyFfVU/owEAQJ68c+XKV8sAi8MgAX1ldnz4wiQ/pwQA8PhKXw4SHPu26+8rpb7K+veWGrc1oA8f941cqkJH2r5q4/SnZdjn1/FPqQAAkJSSH56dGP5pJWDhGSSgb8yuO+ukmvJPSgAAe6XWPf2663v2zP1Nkl0eBL2j1OJe5PSdlQ/uvCzJTiU6zttKUmXYNwONxidVAAB4WK3l724de+pTlICFZZCA/nhTWZ9Gbcy9PskRagAAe3X80Ke3NkiSJ77t+plS888eBT115ueKBPSdo6+84d6kvF2Jjns9ulyEfXf8hq03JrlTCQCAJMmhjdK6tJ5zzoAUsJCnb9AHZrYM/1aS71ECANhrpfFAP+9+e6Dxf5K0PRB6hkEC+lOtbxKho3ztnlKvkmG/uSoBAMB/+o4dR935v2WAhWOQgJ43O3HmcEn5QyUAgH1R2u37+nn/T5jacn1J3uGR0DMMEtCXHti58x1JvqpEx3j78NT0bhn2T00+pQIAwDcdH/3ejokzv1MJWBgGCehpXzz3lBWpjX9JslINAGCflHJfvyeojcYrPBB6wp7Bo5d/SQb60alX3rCr1GxUokPeWmt5qwr7r1GKKxIAAHyzgXZtXDJz/tqDpYAFOAeRgF528MqVf1yTNUoAAPuqJn0/SDB02ZaPlORqj4au96Vy8eY9MtCvWs3Gv6jQEXYNtHa/S4YDODbZvcsgAQDAf3V6Wbbz5TLA/DNIQM+auXDNs0vJbyoBAOzfgbIrEiRJSv6vCN2+hvV6EehnJ4xs+WBJmVFiyb3/2Ldd7731AAxd8YU7k9ykBADAN6spvzxz4chzlYD5ZZCAnnTHBacdlnb79R7jAMB+n4SWti87kqw6esUmX8B1t5J8XgX6+jmwPu1a229WYonXodZ3qjAvr+muSgAA8EiHSe289pbJ4aOkgPnjS1Z60tzAslcmOVkJAGD/T0FdkSBJHr4kfr1YiS5WGwYJoFHeJMISL0EtbmswHy/pxS2HAAAexQnNdnm1DDCP53ES0Gu2j40+vyY/owQAcEAHyrX9NRUeNpDWxUn2KNGdWjVubUDfG9qw7dPxXFg6Ndcff/m2LwkxHy0bHxEBAOBRjzvHt08M/5gQMD8MEtBTZiefdmwp9VVKAAAHqqR5hwoPO3bjdbMl2ahEd2rtdmsDSJJS4qoESxf/ShHmx2DztGuS/P/s3XmgnXdd4P/P9zk3S1e6Zy8ttLTlJmmhIKIodRmVYYpNw9VxRkbcUGd+LqOOyuhocHRcEdxGrRtSUJxLkpICBWUJCJQCgTbJbRuattCsTZrubZZ7z/P9/dFCmzTLXc45z/Oc83r9pbRNznl/n9z7PDmf+/0adgQAONatZ07/d+fI8PlKwMwZJKCv5HL8LyNinhIAwIxvlMcPGSR49n1WUfy5Co10//M/sOkhGSCiKONdEZGVqCJ+NkjQIWl0tB05blECAOCYzkgT8Xc5IkkBM3yUk4B+sfPa4R+LHNcqAQB0wMFz1215TIZnLHzvxn+LiC8q0Th2I4CnPb21/heU6Ln97XSa7fg7KKX0KRUAAI4tp/Qdu1Ys/WklYGYMEtAXdo8svzAi/ZESAECH2I3gaFJyhFTzGCSAw+R/1KDnPrZk9Ob9MnRQkQ1mAACcSIrf271i+VIhYAaPHhLQdHlVFGW7/PuIOE0NAKBDD5sPiHAUh2a/KyIeFKJJN8t5iwjwjKFWvCci2kr08FtqdqxBp02k026JiENKAAAc19wylf8wNjI8WwqYHoMENN7O25b9j4h4tRIAQMdkgwRHs/DGDU9GpHcq0RwpF3YkgGc5b3Rsd0R8XIneKYrCIEGHLRm9eX+K2KAEAMAJvfTMdvyaDDDN5zkJaLLtK4YvTyn/phIAQEfl5GiDY0ip/TcqNEe7SJtUgCO+xOfkeIOexY4t81ZvukeIrnxHdrwBAMDk7pvevHvli1+hA0ydQQIa667XXDSnKNL1EWFbGgCgw8+YeacIR7dg9e1jEekWJZpwHcdDi9ds3C4EHO5Qbq2NiINK9MSHJOiOMpWfUgEAYFKGylxcv/sNy0+RAqbGIAGNdcpJc387cixTAgDovOzD1+NJ8XciNEAZt4kAz3XhDbc+nCL+RYkeaMUHReiO2eMT6yNiQgkAgEm5uHyi/AMZYGoMEtBIO1cMvyoifk4JAKAbUoRBguOY8+T+90TEk0rU/DpO4VgDOIac0z+r0HX72+k02+93ybnrtjwWkTYoAQAwaT+569qlr5UBJs8gAY2z7zUXnR4pvSsiWmoAAN1QFsnRBsdx9k1bH42I9ypRbzmlzSrA0c1qH1oXEfuV6KqPLRm9WeOufqHPHxEBAGDSUo746+0rLj1bCpgcgwQ0zsGTT/rDiHi+EgBA14zHNhFO9PSdHG9Q+4e9tqMN4BjOXbflsUhxkxLd/D6R9e1245Q/qgIAwJQsKNLQH8sAk2OQgEbZ/vrl3xE5/5gSAEAXlQvnzdktw/HNX7vpkyliqxK1lYsijckAx5YiHG/QRUVOH1Khux7ff/AzYWcNAICp+s87Vg5fLQNM4rlOAppi9xuWn1KU5V9FRFIDAOii+9N1G8ZlOL4UkXPE3ytRW/ecNzr2uAxwbPnQnPdHhD8n3fHVeTdsvluG7rr4pq0HI+LTSgAATE3K6a+++tplZyoBx2eQgMZoP5l/LyJeqAQA0OXHyfs0mOT9Wav1DxHRVqKWNkoAx7fwxg1PpogPKNEV/ypBr25bkuMNAACmbsHsOfmtMsDxGSSgEXZeu+xbU84/pQQA0G0p8r0qTM6S0dt2RMSHlaijvFkDmMSfFMcbdKdryh9ToWe1P6IBAMC0ngXeuHPl8HcrAcdmkIDa23n1lSdH5L9xvQIAPXqQvEeFKfTK+XoV6ifZkQAm5eDpj98UOR5VorPfGobGk0GCHllQXPalSPGQEgAA03h0zum6fa+56HQp4Oh8MEv9DR343xFxsRAAQC8YJJia1qmtG8MZ47Uz0YpbVYATu/AdXzkQEeuU6KAUm+et23y/ED3KPTrajux4AwCAaTr/4Mlzf08GODqDBNTa7muXf2Ok9LNKAAC9u0HOBgmmYP71G5+IiPcpUSM5Hl08Ona3EDDZr/uON+js1yAfavf+y37+kAoAANO+mfqJHSuW/jsh4KjPy1BPd73mojllLv82IlpqAAC9e34sDRJMUYr4JxVqtSC3pogsBEzOvHPnfDgiHlSiM4qcDRL02OxofzB83QcAmPZTdEr5uj0jw6dKAUc830lAXZ168py3RIoXKwEA9ND4gtbS7TJMzfwHz/lwROxRoiZyfEkEmLx03YbxZGeVTpmYdeDAJ2XorXPX3LErUtymBADAtJ8KLpgo02/rAIczSEAt7Vy59GU5p19QAgDosa+k0dG2DFN83F6/fiJSrFGiJuuR0q0qwNTklB1v0BmfO/umrY/KUMVFHB8UAQBgRvdT/9/OFcOvEgKeYZCA2hkbGZ4dEX8XEUNqAAA9fWZMsUWFacdzvEFNTKT8RRVgahbsO/ejYWeVTnwzcKxBVYriQyIAAMzsjipS/O22kVeeJAV87Q8F1MwZE/GrkWOZEgBAr6VskGC6Fizf9KmI2KZE5Q4+WuQ7ZYApfv1fv34iIt+gxAw7FuljKlT0ffiBs26OFA8pAQAwozvaFxXlY7+pAzzFIAG1sm3l0uUppTcrAQBUwwew037UXhVlzvEeJapeiNg8PDp2SAiYxneAnN6rwow8+fgTB26WoaIv/+vXT+Qy/lUJAIAZ3lfl+Pkd1w5/sxJgkIAayVddNdR66kiDWWoAANXckIRBghk9XZSON6j+Gr5VBJiehQ+d8/GI2KvEtL/+fOrim7YeFKLCb8Mp3aQCAEAHbqsi/c29b7xgrhQM/B8GCaiLXWc/8MuR40olAICqpKHZjjaYgUWrb/9ShGGMKuWUblUBpvk9YP36iZTjRiWm+/Unf1SFarVa5YciolQCAGDGLp3zyKm/JgODziABtbBr5YuHI8f/UgIAqNC+BaNf8pOoM7dGggql/EURYAaKtFqEaX75SeljKlTrvNGx3SniFiUAADpxgxu/vPPa5S8VgoF+RJaAquWRkVbOxd9FxBw1AIAK2Y2gE8pkkKA6E+ngnFtlgOl7sCg/EhEPKzH1dAuWbTbIVIdvwzm9TwUAgI4Yiij/Lr/pSsdxM7AMElC5ne3bfyEivkEJAKBimySYuYU3bNoQEfcqUYmxhTdueFIGmL7h0bFDEY43mKoU6VNplS3166AsJgz0AQB0zuW79x16swwMKoMEVGr7istflCKtUgIAqFrK2SBB52r6achqfF4CmLmcHW8wjWj/JkI9LFl9x12R7bIEANC5W938v3asfPFLlGAQGSSgui++EamIib+JiJPUAAAqvzdJhUGCzlkrQRXSFzSAmTv0vMc+HBGPKTGFrz5FaZCgVuuRb1ABAKBjhlIu/iqPjLSkYNAYJKAyu1YM/1ik9C1KAAB1MH7Q0QadsmD5pk9FxG4leiun9udUgJm78B1fOZAiPqDEpD0x7+yTvihDfbTLws5AAACd9fKd7Tv+qwwMGoMEVGLn1S86J1L6P0oAADVx3/M/sOkhGTrjqXOy8zoleurAwrNP2iwDdEp2vMHk3Zyu2zAuQ30sunzTLRGxSwkAgM5JEb+9/drli5VgkBgkoBpDs98WEecIAQDUQU6xUYVOR3W8QW9zx60+yIMO/pkan/vBiHhCiRNLKTnWoG5r8tRA341KAAB01GlFlG+XgUFikICe27Fy2XdGih9UAgCoi5Qda9BpDw3FxyLiESV69WCXv6ACdM7CGzc8GREfUmIS30PL8lMq1HBdkuMNAAC6YOWOlcNXy8CgMEhAT937xgvmppz/rxIAQJ3knO1I0GHDo2OHIuL9SvTqIo7PiwAd/mOVHG8wCYfKibmflaF+Hn9y/0cj4mElAAA6K+X0p7vfsPwUJRgEBgnoqTmPnvarEXGxEgBAneQY+qIKXXm6drxBrwyFHQmgw2aPT7w/Ig4ocbzvn/HFp3dvoGYuvmnrwYhYpwQAQMc9v3yifIsMDAKDBPTMzhVLL4vIv6QEAFAzjyxae9tdMnTenCcP/mtEHFKiy3I8On947E4hoLPOXbflsRTpX5Q47teffxOhvoocoyoAAHTFz26/ZvgKGej7ZwoJ6IUckXJKfxYRs9UAAGrmiykiy9B5Z9+09dEcydnZ3ZbilrQqSiGgGw+zpeMNjqMV8UkV6mveuXM+HCkeUgIAoOOGiiJdl0dGWlLQzwwS0BM7r136IynytysBANRNTrFBhS4+cOR8kwpdvoZzvlkF6I4Deda6sLPKMb/8jA/lz8hQX+m6DeNRJscbAAB0x8t3T9z+kzLQzwwS0HW7Rl5ybor4PSUAgHrKX9Sgi3UjPqBClx/qiuIWFaA7Lrzh1ocj0seUOIoUm5eMjj0oRM2XKWXHGwAAdEmO9H/ue90lC5WgXxkkoPtfSNvjb42Is5UAAOqojPILKnTPwrWb74iIe5To3u32RFF+VgbonhTljSoc5YtPJMcaNMD8c+b8S0QY+AAA6M7DwulDs2a9XQj6lUECumrXimWvjogfVAIAqKUcjy5edsfdQnQ7c3xIha7Z4ieCobvKdrrxqS9lHP7FPf+bCPWXrtswHjkZhgEA6Np9cYzsWDl8tRD0I4MEdM29b7xgbk7ldRGR1AAAavmsl9IX0qoolej6Q8cHVejSNRzZbgTQZYvet3lbRGxU4nBlq/UpFZrB8QYAAF2+38rpT3e/YfkpStBvDBLQNbMfOeXNEelFSgAAtX3Qi/iMCt2Xx+d8PCL2K9GFazgVN6sAPfnT5ie6D3fvktHbdsjQDA+28r9GxD4lAAC65vntJ8tVMtBvDBLQFdtXXP6ilNIvKQEA1FouPy1C9y28ccOTkfJ6JbrwQDcRBgmgB1JZGiQ4nEG8BhkeHTsUKexKAADQzWeGHD+3Y+WLX6IE/cQgAR2XI1JK5V9ExFw1AIAaK8cPFbfI0KN7xJxuUqHjHps3+9LbZYDum3/D2OdTpJ1KPP01PSXHqjTurie/WwQAgK4aSrn4qzwy0pKCfmGQgI7buWLZG1Pkb1cCAKi525//gU0PydCrp+n0ARU6K+X8uTQ62lYCevDnLSJHzh9S4ilFLg3iNcyCtWOfjoh7lQAA6KqX727f/hMy0DfPfhLQSTuvftE5KeU/UAIAqL9sW+Yemrd60z0RcZcSHbyCk63FoZfKyP+qQkRE7H+wFbfJ0CxPDcPEPyoBANDlZ/VI/+e+112yUAn6gUECOmtozh9GxNlCAAB1l3J8WoVeR4+PitA5ORWfVAF6+CVsYvwjEVEqERuGR8cOydBIjjcAAOi+57Vas94mA/3AIAEds2vFsldHyv9FCQCgCSaG/DR3r6WcDRJ08BKePX7I1uLQQwtv/PIDEWngfxI/57jZ1dDQa3jt5jsi0peUAADorpTi+3asHL5aCZrOIAEdMTYyPDun/JcRkdQAABpgz+LRsbtl6K12bn88/DRvp3zp3HVbHpMBeitFDPzxBkXKn3MlNPoifpcIAAA9uO3K6e33vvGCuUrQ6Oc/CeiEMyaK/x4RlyoBADTEZ1JElqG3Fq+9c19E3KpEB+T8byJA75XJIMFEa8iOBE1ev/FD74mIthIAAF33grmPnfZLMtBkBgmYse3XLl+cUv41JQCApkg5Pq1CNXKKj6nQgY5RfFIF6L1Dpz32qYjYP8AJ7lsyetsOV0Jznb9uy86I+IgSAAA9eHbP+Vd2XXPFBUrQVAYJmPlFlMo/iohTlQAAmqJM2U9TViSV+aMqzFhOEwcNw0AFLnzHVw5ExKcG94t43OIq6INvIhF/rwIAQE+clIuJP5SBpjJIwIxsf/3y74gcI0oAAA1y8NDpT2yQoSITcz8ZEQeFmIl0+8Ibv/yADlCVPLg7gpQG8frBodMff1+keEgJAICeWLlz5fB3y0ATGSRg2sZGhmcXZfmnSgAADfOFp3+ilAosvHHDk5Hz55SYgZT/TQSo0uAeLVJG8Vnr33wXvuMrByLHe5QAAOiRnN6W33TlLCFo3NOvBEzXmWXx8xFxmRIAQKOe3XJ8RoVqpZQcbzCjizgZJIAKPbF//y0RMYgDaYfGn/fYl1wBffK9OLLjDQAAeueyXfsO/bQMNI1BAqZlx/cuXRI5/6oSAEDTpCIZJKhYztkgwUz6te1IAFW6+KatByNiEHdWudWOPv1jwZqxz0fEZiUAAHqkzL+xZ2R4vhA0iUECpiUNxVsj4lQlAICGaY8fiE/IUK0F5869JSIeV2Ja7l30vs3bZIDKn4oH73iDFI416LsljXeoAADQs5uv0yfa6feEoEkMEjBlO1Yu+87IMaIEANBAX3z+BzY9JEPFz87XbRiPSJ9SYhrtcnxcBaheznngBglyZIMEfaaYiHdFxLgSAAA984Ydr1/6TTLQmGcGCZiKsZHh2SnnP1UCAGgkW+rXR8oGCaZzCRcGCaAOZg3lmyNiYpDe81A7fc7K95d56zbfnyLdpAQAQM+kVMaf5pGRlhQ0gUECpuSsifQzEXGpEgBAE5Wt1kdUqMmTc2lHguloFy2DBFAD542OPR4pbhugt/zgeTdsvsfK9+H345z/WgUAgJ566a7yzh+VgSYwSMCk7V6x/Lyc4teUAAAa6kBOp3xGhnqYGDr1cxFxSIkpyLFlyehtO4SAekg53zxAb3dDishWvf/Mu3zzByPiq0oAAPTy+T7/zs6rX3SOENSdQQIm/3Utlb8bEc9TAgBo5L1MpM8sGb15vxL1sGT05v0pYoMSU3p6sxsB1OoZOd0yQG/3C1a8P6VVUaaIv1cCAKCnzsqzZr9FBurOIAGTsvOaZVfmiB9SAgBoqhT5oyrUS5nD8QZTuoYNEkCdtIv82cH5ApQNfvXztRzF30bEhBIAAD19xv+J7dcMX6EEdWaQgBPKESmK/HbXCwDQ6Ae0Mn9EhbotSjZIMIXb8mI8PiED1Mfi0bG7I2LvQHy5bs8ySNDP1/KajdtTpA8qAQDQU62iSH+WI5IU1JUPhjmh3SuG3xARr1ICAGiwR+bPerEPQWqmbMWnIqJUYlLG5q3bfL8MUB8pIucUg3C8wb4FN9z6FSve59dzzn+tAgBAz33zrhXL/pMM1JVBAo5rz8jwqZGK31ECAGi0lNen0dG2EPWyZHTswchxpxKTuYbjYyJAHb+95EEYJPiCle5/8y7f/MGI+KoSAAA9f6j4w32vueh0IagjgwQc18RE/GqOvFAJAKDJck4fVaGuD8zxbyJM5iKO9SJADf9opuKzA/A2v2ilB+Db8aooU0p/pwQAQM/NPzB37q/JQB0ZJOCYto0MXxQp/XclAIDG3/S2skGC+vq0BCfUHj+Y1ssA9TNxIDZERO7rN5ntSDAoxscP/U1EjCsBANBbKcXP7ly57FIlqBuDBBzTUDv9UUTMUQIAaLhd80fH7pChpg8kreJTKhxfivjc8z+w6SEloH6e/rN5b3//5UA2SDAgzl+3ZWfOsVYJAICemx05/6kM1I1BAo5q5+uXfleOuFoJAKDxcnw09ftPizbY/NGN90bEDiWOrcz5X1WAOkv9vPX/3oWjY/dZ4wG6mlP6cxUAACrxnTuuHX6dDNSJQQKeI4+MtCLHHyoBAPSDlJJjDervsxIc7yKOfxEBav0U3b+DBMluBINm4ZpNn0wRG5UAAKji8T/90V2vuchO4dSGQQKeY3d5x5sixzIlAIA+kCdahZ/mrvsi5fR5FY4VJx5deM7czwkBNVbEhv79GlRssMAD+K3HrgQAAFV54Slz5/xXGajP4y48y97XXXJazvEbSgAA/SHdumT0Ntvm1/2hJJU+KD/mJRwfTddtGE/LOMcAAIAASURBVBcC6qtsT/Tvh+0pDBIMokOz3xURDwoBAFDFPXj69Z1Xv+gcIagDgwQc/qw4a9avR8Q8JQCAvpDzB0Wov6GJiS9ERKnEc6UUdtSAmlu89s59EXFfP763MidHGwyghTdueDJS/gclAAAqcUaaNcsP/FILBgn4uvuvWfrClOOnlQAA+kVuhUGCBjh33ZbHIsedShzlga0d/6ICNMIX+/A97Vm8ZuN2SzuY2lH+RRjyAwCoRI70kztXLL1MCapmkIBnHhJb8fsRMUcJAKBP7FuYLrtFhoY8JKfseIPnunveDZvvlgEa8DUs4rY+fFtfsrKDa8nqO+6KiA8pAQBQiaEo8ltloGoGCYiIiF0rlr06clyrBADQRz6URkfbMjTmweTzKhwuR3xYBWiGlPKmPnxPt1rZAf8+lNLbVAAAqOxm7DU7Vwx/jxBUySABkVdFkVP+IyUAgP6SHGvQqOfjZEeCI6/glP5VBWiGdpQb++7rci42WtnBtnD1po9Gik1KAABU9RcDxR/mq64aEoKqGCQgdt627Ici4qVKAAB9pF3mcT/N3SALzp5zW0QcUOLrxucWsz8uAzTD4mV33B0Rj/fTe0qt8lYrO9hSRM45/lgJAICq5OHdZz/w4zpQFYMEA27PyPCpRYrfUgIA6DOfXbz2zn0yNEe6bsN4RLpNiad75PzJs0Y3PKIENOTP7KooI9JYH72lA/P3nvtlK8uh0x9/d0TsUQIAoBo5x1vuveaKM5SgCgYJBtz4RPyPHHmhEgBAn3GsQQOlyI43eFqO+IAK0LgvYv10FMDmtH79hEXlwnd85UDO+S+VAACozLlzi/abZaAKBgkG2N5rL1uQUvoFJQCAflPm7EPYBsoRn1fh6Ws4hlzD0LSvYTn301nydojh61rR+vNw/BAAQHXPGpF/7v6Vy16gBL1mkGCAjaeht0TEKUoAAH1mx6K1YxtlaOCDcauwI0FEpIiti9feZktxaJgip/753pPD91G+bv7ajXty5PcoAQBQmdntnH9TBnr+nCvBYNq18sXDkfOPKAEA9J2UPpgishDNs3B4410R8cSgd8jJ0RzQyG8/ke7oo/diRwIO08qtt4b7KwCAKv3AzmuWXSkDvWSQYEDlXPx+RLSUAAD6kA9hGyqtijJHbBIiHGsADTR/7cY9EbGvD95KPpBbBgk48vrenCLerwQAQGWKKPJbZaC3Fx0DZ9frl14VEf9eCQCgDx2aNX7oozI0V0px64AneOLgqY9/0pUAjbWl+W8hf/XCG2592FLy3O/R5W+rAABQqVfvunbpa2WgVwwSDJi8Koqc4w+VAAD61CfOXbflMRkarIzB/inYlD9y4Tu+csCFAE39Ixx3Nv49RLHRSnI081fffktEfEIJAIDq5Ei/l0dG7DhOTxgkGDC7Ni39T5HDGSoAQF9KOb9PhWYrB/5c7sLRHNDsr2Ffbvx7yOWtVpJjyvl3RQAAqPSGbHjXxO0/ogO9YJBggNz7xgvmRo7fUgIA6NcnqXZqGSRouNlD5aaIKAf1Gi5zMkgATZbKOxr/FoqwIwHHtHDt2Ici0peUAACo8qY9vWXPyPCpQtBtBgkGyOxHT/mZiHi+EgBAn/r84jUbt8vQbOeNjj0eEXcP6Nv/gmsYGq7V2tL4t9BOt1pIjicluxIAAFRswXg7/aIMdJtBggGxbWT4rBTpzUoAAH3sBgn6RIpbB/R921EDGm7h3rPujohDDX4Lj513xeZ7rSTHM7+4bHVE3KUEAEB1UsQv7L32sgVK0E0GCQZlocv05og4QwkAoH+foNJaEfrGbQN5CRfZNQxN/3O8fv1ENHtXlY1p1cAeL8Nkr/PR0Xbk/AdKAABU6tTx1Pp1GegmgwQDYNvI5YtSjv+mBADQx+5cuHrTnTL0yUNKOZCDBHctGB273epDH0hxR4Nf/WYLyGQ8ceDgOyNihxIAABXK8aPbVl52sRB0i0GCAdBqT/x6RJykBADQx9ZI0D8mUnHroL3nFHbUgL6RY0tjX3pKBgmYlItv2nowRbxNCQCASs0qytZvyUC3GCToc09NIqUfVgIA6Gcp8g0q9I/FazZuj4gHBuk9t3O4hqFfviel3NhBgiKXY1aQSV/rpxR/OWjfrwEA6vf8ESO7V774FUrQlWdECfrbUG7974iYpQQA0Md2zF8z9gUZ+kuOtHGA3u79iy7fdItVh/6QIjf2qJ2UWwYJmLT51298Iuf8f5UAAKj2Nr4si9+VgW4wSNDHtq1cujxHjCgBAPT101LktSkiK9Fn65ryIG2vfUNaFaVVh/4w68lDdzT0pT8wf+3GPVaQqcjR/pOIeFwJAIAKpbhqx8pl3ykEnWaQoI+1Iv+uNQYA+v5ZKYez5ftRGXcMzDVcpvdZcOgfZ9+09dGI2NXAl243AqZs8do790WOv1UCAKBaKfLv5oikBJ3kQ+Y+tXPF8Ksip9coAQD0uQfnPXTuJ2XoxwfgNCiDBI8dOOOxj1tx6DuNO94gGyRgmmal9u9FxH4lAAAqvaG/cvfKpXYpp6MMEvSrlH5HBABgALw/rV8/IUMfGhq6fTAe9NP7L3zHVw5YcOi3Z/LY0rSXXOR8u4VjOs5dc8euSPkvlQAAqFbO8Vv5TVfOUoKOPSdK0H92r1j6HyLiVUoAAP3/gJTWqNCfFox+aW9EPDAAT2T/z2pD/0kR9zTwC9JmK8e0r/li9u9ExONKAABU6uJdew/+qAx07ClRgv6SV0VRpvgtJQCAAfBkmpj9rzL0tX7/6djH2sWpH7bM0IfP5pGbN0gwKDvB0BULRr+0N6X850oAAFQsxa/vvPrKk4WgEwwS9Jmdm4a/PyIuVwIAGAAfXnjjhidl6Gt39PW7y+n9S0ZvdqY09OMf7+YNEux5eicYmLZ22f6DyPGoEgAAlVqQZx34/2SgEwwS9JH8pitnFTn9phIAwEDc+6Q8qkKfS30+SOBYA+hbJxUnNW2QYMyqMVOL1965L1L+YyUAAKqVUvqVe6+54gwlmCmDBH1k196DP5ojLlICABgAB+Y+efADMvT7k29fDxI41gD62FmjGx6JFA8158ttNkhAR8xtzX1rRDyoBABAhXKcObuY+DkhmCmDBH3i3jdeMDdS/KoSAMBASPHBs2/aauvcPleWRT+f173OsQbQ53Lc25iXmpNBAjrirNENj0TktykBAFCtFPELu1csP08JZsIgQZ+Y/chpPxsRi5UAAAZBLh1rMAgWrdm4IyIe6ctrOCfXMPS91JzjDVqFQQI6ZqgVb4+IPUoAAFTq1HaUvygDM2GQoA88OHLl81LKv6QEADAgnpw1FO+Xof+liBwRW/rwrT1WDp36L1YY+lvOuTE7EpTtQ7dbMTrlvNGxx3PktyoBAFCtlOKnt41cvkgJpssgQR840D74SxFxlhIAwIA8Bn3wvNGxx3UYDDlyP3645VgDGABF0ZijDXYvXnvnPitGJ5Wt0/80RdqpBABApeYWZflmGZj2c60EzXb/65bOi4ifUQIAGBQ58ntVGCh39N017FgDGJTvV/c043UmuxHQcUtGb96fU/59JQAAqpVy/vFd11xxgRJMh0GChiuH8q9FxKlKAAAD4snWKYVjDQbpgTfSXX32hh568sD+D1lZGIDn9XKoITsS5DutFt1w8LTH/yoitisBAFCp2WUx/hsyMB0GCRps1zVXXJAjvUkJAGBwpA/Ov37jEzoM0ANLO23tqzeU8+jFN209aGWh/z0yNPGViGjX/jtrji1Wi2648B1fORA5flsJAICK7/kjvWHnymWXKsFUGSRosKcniGYrAQAMzINPyraEH7R73nL23RGR++gR7N1WFQbD8OjYoYio/xnxRTZIQNcseOicv4kIu14AAFSrlcv8FhmY8uOiBM10/zVLX5gi/aASAMAAeTKdXHxAhsGy8MYNT6ZIu/rk7dy3YPmmT1lVGCj1P94glz7kpWvS+vUTOadfUQIAoOL7shQj21YuXa4EU2GQoKEmivxrETGkBAAwKHKO9zvWYFDXvry7T97Ku9OqKK0oDNDXr8j31Pwl7l+w/I5tVopuWrR20/tSzh9VAgCgUqmV0/+SgakwSNBAdiMAAAbyxtWxBoP7pJvS1r64hnPxj1YTBu17V1H3HQm+bMCJXiiL/D8iXGsAANXKK7evGL5cByb9TCtBAx++UvzPsBsBADBYnsjjcz8ow4A+5kb0wyDBbfPXbtxsNWHQvn7Ve0eCnGOLVaIXFq2+/UsR+T1KAABUKhUp/YYMTJZBgobZee1lz88p7EYAAAzWU07EjQtv3PCkEoMpRzT+aIOU411WEgbxG1jx1Zp/hb3TItErZbR+OSL2KwEAUKlrdq5c+jIZmAyDBI3T+l8RMVsHAGCQ5JTfq8LgSmXjjzYo26nwU5gwiF+/JopttX59qbAjAT2zeM3G7SnSnyoBAFDtY0BE/jUZmAyDBA2y65orLoiI/6IEADBQcjzaLk53rMEAOxitu5t9Caf1i9ds3G4lYfA8OGt8Z9T5XPjS0Qb01oGy9TsR8YASAAAVyul1O69ZdqUQnIhBgib9uW61/2dEzFICABisZ5u8ZsnozbbBHWAX3nDrwxGxr6mvP0V+h1WEwTQ8OnYoIu6v67fYWeWhL1slev49Pcf/VgIAoFIpFfk3ZOBEDBI0xM6R4fMj5x9SAgAYuCebIv2TCkQ09HiDHI/G+JzV1g8GWl2PN9hx7rotj1keem3BuXP+IiIbYgEAqFCOuHrXNcPfoATHY5CgKdrxqxExWwgAYMDsXfDAOR+TgYjczEGClN+z8MYNT1o/GGi1HCRIOTvWgGquves2jEdOb1YCAKBauUi/rgLHY5CgAXaODJ8fkd6oBAAwcA80Kf2/tH79hBLknO9u4usuc/EOqweD/gUsttfy61NKBgmozMK1m9dExKeUAACo1GvtSsDxGCRogjK9OexGAAAMopT/UQQiIopU3Nu4F51jy6K1mz5r9WDAv5Wl2h5tcKfVoeLv7j8bEaUOAADVKVvpf6nAMe/YJai3Hd+7dEnk+GElAIABdN/C926+WQYiIlIu72vcay7ib1NEtnow6F/Aanq0QRF2JKBSC9ds/GJEvFsJAIAKnwty/IedK5e+TAmOxiBB3bXiVyJijhAAwMDJ+R99CMvXjA9F0wYJJlpFvt7KAe0y1XOQYGLoy1aHqpVR/M+IeEIJAIAK5fifInA0BglqbO+1ly1IET+iBAAwkDeqZeFYA77uwOMHt0WDBktSpA+eNzq228oBkWo5SHBw/qyLt1kcqrZ4zcbtKeIPlAAAqNQ121YuXS4DRzJIUGOH0tCvRsRcJQCAAXTH/Pdt2iQDX3PxTVsPRsSeprzenOLvrRoQEbGodcmuiJio2cu6J42Otq0OdTDROu33Ixq38xAAQD9JQ3Yl4CgMEtTUtpHLF6Wcf1QJAGAwH1+cl8tRNeVDhj0Lzp79AcsFREQ8/YH9rjq9ppzibitDXSwZvXl/pPhVJQAAKnxGiBjZuWLpZUrwbAYJamqo3f7lsBsBADCg2kX+ZxU4imYMEuT8d+m6DeOWC3iWWh0jkHLaakmokwWrN787Ij6tBABAZYoIuxLw3IuCmtl77WULcsSPKQEADKIc8dklo2M+4OC5Um7CIEFZDLWus1jAYV++ajZIYEcCavhnJBdR/OJTt4IAAFR0U/YD21dc/iIh+BqDBDU0nlq/EhEnKQEADOQzS45/UoGjKuv1QdwxfGj+6MZ7LRbwbDlie62+15algT1qZ/6ajZ+NnN6jBABAZVqtaP+yDHyNQYKa2TMyPD9y/LgSAMCAKifa4++VgWM8vdR+R4Kc8l9aKOA5Ur0GodpDYZCAet4IpvRLEfGkEgAA1cgp3rB7ZPmFShBhkKB2Jsr4pbAbAQAwuD52/rotO2XgaFKu/SDBfQuLF3/QSgHPUa8dVSYWnzn3qxaFOlq8ZuP2iPRHSgAAVGZW2S7tSkBEGCSole0rLj07crIbAQAwsFKkd6vAMR9eJtJ9Nb+Ar0ujo20rBTzn61cq6jQk99V03YZxq0Jtjc/+nYhGHGcEANCv3njf6y5ZKAMGCeq0GGnWz0XEqUoAAAPqwJzW7LUycCznrdu8JyL21/TljU+Mj/+9VQKOpmy16zRI4FgDam3hjRueTJF+XQkAgMrMac2a9d9lwCBBTex93SWnRcr/TQkAYFCliBvOGt3wiBIc5xrJEbG9jq8t51jrWA7gWB6K2B1PfQ2r/utVSgYJqL35yze9MyI+rwQAQDVSjp/aefWLzlFisBkkqIlDQ0M/FTnOVAIAGOAHFMcacEI5Ui23Oi5S/kurAxzL8OjYoYjYV4vvt2V5txWh9veFq6KMoviFqMkADgDAADolzZrtB6AHnEGCGrj3jRfMTZFsEQIADLIH5p0758MycCIp5zr+1P8d89eMrbc6wHG/fkXU4utXTmGQgEZY+N6N/xYp3qsEAEBFzw4RP71nZNiR7APMIEENzH30lB+JiPlKAACDKkV+T7puw7gSnPAhtojdNXyy/pPkJyaBE36piF11eB1FKxxtQGMURfHLEXFACQCASpw9MRE/LsMA349LUK08MtLKkX5eCQBgkKVoOdaAyT3A5JoNEqR4qDi1uN7KACf+clGLHQnKiTj9XqtBU8wf3XhvRLxNCQCAqh5k0i/c9ZqL5ggxmAwSVGxXeccPRMQLlQAABvZ5JGLrvDUbb1GCycg51WqQIOX01/Ov3/iElQFO+PWrHjsS7FgyevN+q0GTzJoY/52I2KMEAEAlFp0yd85/kWEwGSSoUI5IkdOvKAEADLIy4t22hWfyDzDlrhq9nImynf/MqgCT+juAlOrw9cuxBjTOueu2PJZSrFICAKAaKaVfyiMjLSUGj0GCCu1auex7I/KwEgDAIMu59Y8qMOnrZag+RxukiPcuet/mbVYFmNTXjDLX4WiDe6wETTS/uOy6iDSmBABA7+WIi3a273i9EoPHIEG1f/LsRgAADPqDyGcXr73ty0owWRNRn0GCdk5/YkWAySqjDjsS5K9YCZoojY62c5T/UwkAgIruxyLenCOSEoPFIEFFdl07/G0R+RVKAAADfTOa87tUYCoWj449FBEHavBSPr947aabrQgw6e95aaL6HQlyca+VoKkWrRlbl3L+qBIAAJW4fNeK4e+WYcCeYyWo6Nk9xf9QAQAYcBMpWqMyMBUpIkfE/ZXfz0e81WoAU/FQq9j11JePCr92pfIrVoImK4v8PyKiVAIAoIrnicJnmwPGIEEFdq9YvjRy+h4lAIBBliJumr924x4lmMbVU/XxBjsWnjNnjXUApmJ4dOxQRDxY5WtoT0zYkYBGW7T69i9F5PcoAQDQeynyt+9e+WK7rQ8QgwQVKCP/YjhHBAAY+HuieLcKTO/Jtax0kCCl+ON03YZxCwFM/QtIVHm8wcElL92y2yLQ/NuAWb8a9TjmCABg4ORc/HcVBodBgh7bNnL5okj5B5QAAAb7qSMeTeNzbhSC6Um7KvzNH5lTzLnOGgDTUkaFX7/yV9MqW8LTfAtuuPUrOcefKgEAUMFTRcTr779m6QuVGAwGCXodvGz/XETMVgIAGGQpxeqFN254Ugmmdf3kqPInav/8rNENj1gFYDpyyjsr/M2/YgXoF4fy0P+JiH1KAAD0XKss8s/JMBgMEvTQgyNXPi+V8SYlAADy9Row7asnUlWDBPuLXPyxFQCmK1W5o0qKe60A/eLCG259OFL8byUAAHovR/qRnVe/6Bwl+p9Bgh7a3z7wE5HidCUAgAH31fnLxz4hA9N+YK1oR4IU+W/nr924xwoA0/8CVuGOKsmOBPSXh4r8FyliqxIAAD13cpo1+7/J0P8MEvTIXa+5aE4Rxc8qAQCQrndGMzO7hMoHKvhdJ6Kc9VbxgRl9+SqqGyTIOduRgL4yPDp2KCK/WQkAgAqeLyJ+evcblp+iRH8zSNAjJ5809wdz5IVKAAADL8W7RWBGl1AqqjgT+Z8W3HDrV9QHZqRM91f1WxelQQL6z4I1Y++NiE8rAQDQc2fnJ9o/JEN/M0jQAzkipRw/rwQA4L4oPrtw9aY7lWAmUjHU60GCXOTi95UHZqocSpXtSJBS6ytWgH5UpPIXnrrNBACgl3KkX8xXXTWkRB/fa0vQfbuvXfrvI8WLlQAA3Hzm61Vgpubvfd5D0cMPDFKkG+ev3bhZeWCmDo0XVe1I8MS8tRv3WgH68r5g9e23RKTVSgAA9NyFu87e+70y9C+DBD2Qc/yMCgAAcaid2/8sAzOV1q+fiIhHevb7Rfod1YFOuPCGWx+OiAM9/41zfDX5iW36WLtVvjkiDikBANBjZfysCP3LIEGX7Vr54uFI8e+UAAAGXor3L1575z4h6JAHe/T7fHj+mo2flRvooN7vSpDiXtnpZ0tGx7ZGjr9QAgCg188a6Vt2XTv8ciH6k0GCLsvR+tmISEoAAAN/X1Smd6pAB/VmKCXn35Ia6LCeDxKkyAYJ6H8Th34rcjwqBABAb+VIP61CfzJI0EXbV1x6duT8n5UAAIgHHh4qb5KBjkn5gR78HjctXDv2KbGBjn5pibS7979puk95+t3CG7/8QCrSW5UAAOi579977WULZOg/Bgm6GbcY+smIOFkJAGDQpYh/Gh4dc24tnZNT1482KCK/RWig81++er8jQZnDIAEDoVWUfxRVHB8CADDYZo9H8VMy9B+DBN36i4E3XTkrcvykEgAAERH5eg3oqNT1ow0+MH/17bcIDXT+W2LZ8x0JcrYjAYPhvNGxxyPF7ygBANBr6Se3jbzyJB36i0GCLtn1wKGRiFisBABA/vKCNWOf14GOPp5G6uogQSrzb6oMdOXrS67gp6VT2qY8g+KhIv9FRNyjBABAT51btB/7TzL0F4ME3fMzEgAARESkd2hAx5Vl1wYJUqR1C24Y+5zIQJe+yPR6kGBiUeuSXcIzKIZHxw6lSP9bCQCAXj/qxM/liKRE/zBI0AU7Xr/0myLyK5QAAIgyt+NdMtDxCyu6drRBjih/S2GgW3KOXh9tsDONjraVZ5DMb116fUQaUwIAoKeW7nj98m+XoX8YJOhG1NJuBAAAEREp548vet9m2ynTjaurW4ME73MUB9BN7aLs9Y4Evg8zeHcJo6PtSPFrSgAA9Pg+LJc/p0L/MEjQ6afzkcsX5YhrlQAAiIiId0pAVx5MU9GNQYJ2SqUPHYCumjte9nZHgpzuU51BtHD1phtSxM1KAAD0Tsrx2h0jyy9Roj8YJOiwoXb5MxExSwkAgHiiNRRrZKAbWik/3Pmn3fR3C1bfbhtkoKvOXbflsYh4ole/XypKgwQMrBzpV1QAAOipVLTb/58M/cEgQQftvPrKk3PkH1UCACAiIlafNzr2uAx0Q1kMPdbhX3J/mdNvKgv0yJ7efcF0tAGDa+GaTZ+MiA8rAQDQOznSj2wbGT5LieYzSNBJQwf/S0ScLQQAQERO6XoV6JbHH3/s0Q4/5f7R4jUbtysL9OR7ZMT9vfq9yih8bWOwlelXn/pjBwBAj5w81E4/LEPzGSTo3F8CpEjxM0oAAERExI6FxaUfl4FuufimrQcj4lCHfrkH5hw48PuqAr2SUu7ZIEEUbUcbMNAW3rBpQ84xqgQAQO/kiJ/OV101pESzGSTokN3XLPueiLhMCQCAiMj5+jQ62haCLuvIrgQ54jfPvmnro3ICvfs+2bsdCXJZGiRg4JVF+9ciYlwJAICeef7us/ZeI0OzGSTo1IN5kX9WBQCAr91ktt6tAj3QiQ//7324lf9KSqDH3yn39Og3enLx2jv36c2gW7L6jrsi8t8rAQDQOzmSz06b/uQqwcztGFl+SUR8lxIAABER8YX5azduloEeeGymv0BK8SvDo2OHpAR6KUfe06PfaJva8JSJiYm3RMSTSgAA9Myrdl0z/A0yNJdBgg5I7fK/R0RSAgAgInJcLwK9udbyTHck+Nz81ZudmQz0XJF6c7RBirxdbXjK+eu27Mw5/lwJAIDeySn9tAoNfnaVYGa2jQyfFRFvUAIAICIixtPQrH+SgZ5IaSaDBGWRyp9JEVlIoOfK1JNBgkjpPrHhWX/0hvLvRsQjSgAA9EiK77vvdZcsFKKZDBLMNOBE8eMRcbISAAARKdJNC0a/tFcJeiJPf5AgRfzD/NW33yIiUMmXrx4dbZDtSACHWTI69mBE/hMlAAB6ZvbQ0OyfkqGZDBLM5IH8qquGUsr/TQkAgKfvj1L5ThXomVQ+Ns3/8pFiIt4sIFCVMib29OZ3KnaoDYcbP1i8LexKAADQQ/kn7n3jBXN1aB6DBDOw+6y910TEEiUAACIixUNPPHnw/ULQs8fQ6R5tkPNb5q3bfL+CQFUWrb3zwYgY7/bvU+RskACO8PwPbHoo5/zHSgAA9My5cx875ftlaB6DBDOQc7IbAQDA12+O4j0X37T1oBD07mEmTWdHgjsWnDv3z9QDqpQicorU9aOA2kVpkACO4qShuX8UKR5SAgCgN3JO/1WF5jFIME07Vyy9LFK8WgkAgKeUOV2vAj19CC2ncbRBzj+frtswrh5Q+dewiK7vjNIqhwwSwFGcNbrhkZzjT5QAAOiZb9i5cunLZGgWgwTTfeAv0n+LiKQEAEBEiti6aO2mzypBT+/Jp3q0QYo1C9eOfUg5oCZfxfZ0+TcYn3f5xgd0hqM7qTXnbXYlAADonZTDrgQNY5BgGvaMDJ+ayvwGJQAAvv4o8M4UkXWgpw8zeUqDBPuLovhF1YAa6faOBLvSqihlhqM7a3TDIynHHysBANAbOeI/bhsZPkuJ5jBIMA0TE+kHI8XpSgAAPPUckFrpXTLQcyk/Ofl/N357/ujGe0UD6vPNM7q6I0GO2KkyHN+BcuiPI+JhJQAAeuKkoXb6YRmawyDB9KrZegMA4Gty/pQPaKlCuygOTPJf3fxQkf9AMaBOirK7OxKkSNtVhuO78IZbH04Rb1cCAKA3csRP5VU+n27Mc6sEU7NrxbJXR45lSgAAfN31ElCFFOX+SfxrZS7iJ4ZHxw4pBtRL7uqOBJGyHQlgEua05rw9UjykBABAT7xw123D3yVDMxgkmKIyst0IAACeceBgnjUqA1VI5SR2JEjxZ4veu/kzagF1k4vu7kiQc96hMpzYWaMbHkmR3q4EAEBvpJR81toQBgmmYO+1ly1IKVYoAQDw9Vv/9194w60P60Al8gl3JLhv1vj4rwkF1PJLWJd3JEgp2ZEAJmn2k/vfHhEPKgEA0ItnoXjt7pHlFypRfwYJpmAiWm+KiFlKAAB87ca/dKwB1T3MDB1/R4Ic+afPXbflMaWAOmqPt7u6I0GyIwFM2tk3bX3UrgQAAD1TlO3yx2VowEJJMDl5ZKSVI35MCQCAr3tg4Tlzb5KB6h5m2sfckSBF/POiNWPrVALqasn8U/dGRO7Wr59TsUtlmLzZ+/f/cdiVAACgV350bGR4tgz1ZpBgkna2b39tRCxWAgDgKSnye9J1G8aVoCpPjM861o4Ej4xPjP+8QkCtv48+9T20ax9aDhXldpVh8s6+aeujEfltSgAA9MR5Z5XpGhnqzSDBZB/wI71JBQCAZ90fpfwuFajSxMHHj7ojQcr5Z85ft8XZ4EAT7OnKr5rj0fNGxx6XF6Zmzv6DfxJ2JQAA6Ikyp59Qod4MEkzCzpHh8yPie5QAAPia/OX5q2+/RQeqdPFNWw9GRHnY/5hizYK1Y+9UB2jGt9O4vyu/bgrDVDANZ9+09dFI8UdKAAB0X4r8bdtXXP4iJerLIMFktOPHIqIlBADA1270C7sRUBfPPt5gdxw6ZJodaIzcpR0JciSDBDBNc4s5fxYRjygBANB1KRXtH5ehvgwSnOjh+6qrhiLSjygBAPDMLVKR4t0yUBNfHyQocvz4whu//IAkQFMUqTs7EqTIu9SF6TlrdMMjkfNfKAEA0H0pxxvves1Fc5So6TOrBMe36+x9/yEiFikBAPC0nD81b/Wme4SgFg+ckZ4eJMjXzV+7+f2KAI36lhp5T5d+6d3qwvS12untEbFfCQCArjvn5LlzVshQTwYJTvxUb2tUAIDDXS8B9bldz/sj4p5ZExO/qAbQwC9i3dmRoEs7HcCgmLdu8/2R4h+UAADovhTJZ7E1ZZDgOHaODJ8fkf+dEgAAX3fgYJ41KgM1etp8MiL98LnrtjwmBtA0OYqu7EiQsx0JYKZakf4gIiaUAADoshRX7Vyx9DIh6scgwfFMpDdFREsIAICv39m//8Ibbn1YB+ojv2Xhmk2f1AFoolZK3dk5oLAjAczUvNWb7kkRq5UAAOiF/GMa1I9BgmNdrlddNZRS+mElAACedY8UpWMNqJWFq8f8BT/QWCnlruxIUIynXerCzLVz/p2IyEoAAHT94eiH7n3jBXOFqBeDBMew66wHrs6RFyoBAPB1Dzzcig/JAACdkU/u1o4EyY4E0AGL147dFhH/ogQAQNedPefR066VoV4MEhxLyj8uAgDAM3JK/zw8OnZICQDojPnXb3wiIp7o8C87Me/yjQ+oC52RIv+eCgAAveB4g7oxSHAU20YuXxQ5fZcSAADPaEXbsQYA0Hkd3T0gRdqTVkUpK3TGgjVjH08RNysBANB1V20bGb5IhvowSHAUrfbED0dESwkAgKekiK3zVt/+OSUAoLNyxJ7O/np5t6rQ8T+nf6ACAEDXpdZEeqMM9WGQ4LkPBinCRQoAcMR9/DtTRNYBADr8HTbl+zv8SxokgA5bsGbzDZHjdiUAALr9gBRvzCMjfti7JgwSHGHH65d/e0S8UAkAgK/LRYp3ywAA3VB0dEeClA0SQKeliJyLeKsSAABdt2h3eed3y1CTp1UJjghStn9EBQCAw3x63upN98gAAF2Q4/7O/nJ5j6jQeQ8X+V0RsV0JAIAuPyLl/GMq1INBgme595orzohIK5QAAHiWlK4XAQC69G02lx3eQSDtUhU6b3h07FCk9DYlAAC67uo9I8PzZaieQYJnmd1q/2BEnKQEAMDXHSrL8dUyAEB35KKzRxGkwtEG0C3FyemvIuIBJQAAumqoPZF+UIYa3P9K8KyH7RyONQAAOPwOad3itXfu0wEAuiPnDn/wX6b7VYXumH/9xidyzv9XCQCALj8nRfxYjkhKVMsgwdN2XrPsyoj8EiUAAJ51057jXSoAQPcMlamjgwS5CIME0EXF0Ow/i4j9SgAAdFGKS3ZeO/xNQlR87yvB10rkHxUBAOAwDz48VN4kAwB0Tz6t6OggwfgBgwTQTQtGv7Q3It6tBABAdxU52Um+6jWQIOLeN14wNyJ+QAkAgGfkiPcMj44dUgIAumf+9RufiIjHOvTLTZz/gU0PqwrdlVL59qdulwEA6Jac4vv2jAyfqkR1DBJExOxHTrkmIs5QAgDgGa1UvlMFAOiJTu1KsDf5cBO6bsHq28cix78qAQDQVae2y1gpQ3UMEkRESsUPqQAA8Kz7o4it81bf/jklAKAHcu7IIEGK2Csm9Oh+Oae3qwAA0O1HpeQz3AoN/CDBfa+7ZGFE/ncuBQCAZ0vv9BONANAjRerIIEGO2CMm9Mb8GzZ9KCLuUAIAoKuuun/lshfIUNGj6qAHaA0N/WBEtFwKAABfl4sU75YBAHoj5ejUjgQPqAk9+nMbkSPSHysBANDd264y4gdlqMbADxKklFx8AACH+8y81ZvukQEAeiOnuL9Dv44dCaCH2q1T3xkGeAAAuvu8lPMbc0RSovcGepBg17XDL48cy1wGAADPujlP6T0qAEAPv/dG7OrEr5Ny8oEm9NCS0Zv3R8RfKwEA0FUX7nr98lfJ0HsDPUhQpuKHXAIAAIeZGBrPozIAQO8UuWM7EtyvJvT45nli/M8iYlwJAIAuKkuf6VbxrDqob3xsZHh2yvn7XQIAAM+S8r/OW7fZhxAA0EO5TLs78wvlvWpCb52/bsvOiFinBABANx+aYmTn1VeeLERvDewgwZllXB0R57gEAACefVOe/kkEAOit9qzCIAE0WIr85yoAAHT1huv0GDq0QojeGthBgpSTLTAAAA53YM7+A++TAQB6a/HeM++PiHKmv04ZQ3vUhN5bsGbs45FikxIAAF2Uss92e2wgBwl2r1h+Xo74HssPAPDsm/G48eybtj4qBAD0+Fvw+vUTEbFvpr9OHpp4QE2o6lY6/kIFAICu+o4d37t0iQy9M5CDBGVR/kBEzLL8AADPksOxBgBQkRSxa4a/xPji0bGHlIRqtIp8fUQ8ogQAQNcUaSj9Zxl6GHwg33WOH7T0AACHefiJ/Qc+KAMAVCNH2jnDX+KBFJGVhGqcNzr2eKT4ByUAALqozG8QoXcGbpBg28rLLo6Il1l6AIDDvPfim7YelAEAqpJ3zPAX2KMhVKsd7T+LiFIJAIAuSfHi7dcMXyFEbwzcIEErD/0Xyw4AcLiyKN6jAgBUKc9oR4IcaZ+GUK0lq++4KyI+qgQAQPcURbLzfK9aD9QjeUSKyP/JsgMAHGbXonTJehkAoErFzHYkyPkBDaEGUv4rEQAAuni7FekH8shIS4kePKUO0pvd9frlr4qIF1h2AIBnyfmf0uhoWwgAqPDbcSpntCNBSmFHAqiBBfvOfV+KtFMJAIAuPTtFXrgjb7lKie4brKMNyvI/W3IAgCPvCNM/iQAA1Uq5tWOGv4JBAqjDn+X16ydy5H9QAgCge1o+8+2JgRkkGBsZnh0Rr7fkAADPSBFbF67e/AUlAKBarYlyhkcblA+qCPVQtIq/johSCQCA7sg5Vu68+sqTlejyfe2gvNEz2+m1EXG2JQcAeEYZ8W4VAKB65710896IGJ/uf5/C0QZQF/NHN94bOT6iBABAl6Q4Pc86eLUQ3TVIRxvY4gIA4EitwrEGAFADaVWUEbF7+r+Aow2gVn+mU/5rFQAAuqfw2W8vGve/e6+54oyIeK3lBgB4tvSlRaMbt+gAAPWQI6Z9vEE7J0cbQI3MP2fu+2Imw0EAAJzo+el7dl79onOU6J6BGCSYU4y/PiLmWm4AgGdJ8f9EAIA6fWue/iBBGjJIALX683zdhvHI+R1KAAB0zaw0a9b3ydA9AzFIkKP4AUsNAHD4LVIrDBIAQJ2kiJ3T/m8PHHC0AdRMK6e/iYisBABAd+RIPgPuor4fJNgzMjw/RX61pQYAOMwX5q3edI8MAFAfZU7T3ZGgXDD38ocUhHqZd8PmuyPik0oAAHTNN++65ooLZOiOvh8kmCjT90dEy1IDADwjZbsRAEDtvj+nPN0dCR5Oo6NtBaGWf67/XgUAgO7dbkVrYkSG7uj7QYKc4z9aZgCAw2+RIg+9VwYAqJci5+nuSOBYA6ipdHLrvRHxmBIAAN3hs+AuPqP285vbOTJ8fop4hWUGAHhGivjsghtu/YoSAFAvZVFMa0eCbJAAamv+9RufSDlGlQAA6JqX7lyx9DIZOq+/dyQoi/8UEckyAwA8I0d2rAEA1NCs8UPT2pEgGSSAut9/O94AAKCLUpEcb9AF/T1IkOP7LDEAwOF3SLmdVssAAPVz7rotj0XEI9P4Tx9UD+prwdqxT0fEXUoAAHRHztnxBl3Qt4MEO1cuuzQiv8QSAwAc5jOL3rd5mwwAUFMp7pvyf5MNEkC9/1hHjoh3KAEA0DWXbV8xfLkMndW3gwQmTwAAjnKPFPHPKgBArb9ZT3mQIKV4SDiot3ar9Q8R0VYCAKA7igifDXe+aX9KEd9veQEADlO2J8YdawAANZYjvjr1/yY/ohzU25LR23ZEjo8qAQDQJSn+Y45IQnROXw4S7Fj54pdExKWWFwDgMP92/rotO2UAgBrLaeo7EkTxsHBQfynyu1UAAOja3dYFO1Ys+0YdOqcvBwlSmb7P0gIAHHGPlPOoCgBQd6UdCaBPDbUn1kbEk0oAAHRHEdmO9R3t2Y9SGrG0AACHKYdSuUYGAKi51jR2JCjiIeGg/s5dt+WxFLFOCQCALknxfXlVn37+XYG+C7nzmmVXRsQLLS0AwDNypPXnrrljlxIAUPPv2WUx5UGCMpd2JICGSDkcbwAA0D0Ldm5e6niDDum7QYLUKu1GAABw5D1SxP9TAQDqb1Hrkl0RMT6V/6ZVDD2sHDTDvHPnfDgiHlACAKA7Umnn+k7pv60dclppWQEADtNOrSHHGgBAA6TR0XZEbJ/KfzMxcehR5aAhf8av2zCeDfkCAHRRXpkjkg4z11eDBDuvXf7SHHGRZQUAeNatc6RPLBj90l4lAKAxpnK8QV700HxHG0Cz7tD/UQMAgK5ZsmPFMscbdECf7UhQvt6SAgAcIcVaEQCgUb46hX/38bR+/YRk0BwL14x9JiLuUQIAoDsKnxl3qGN/cVEAABwu55xukAEAGvXteyqDBHYjgIZJETly/JMSAADduuFKr3e8wcz1zSDB9muGr4iIiy0pAMAzcsQti9ds3K4EADTqG/i2KfzbDwsGzVNGHlUBAKBrzr9/5Yu/QYaZ6ZtBgqJII5YTAOCIe6QUa1QAgKZ9A4/7pvBv25EAGmjx2rHbIuJOJQAAuqPMhc+OZ/xo2j+utZwAAIdrl633qQAATVNM5WiDh/WCpkrv1QAAoGu+z/EGM3wy7Yc3sX3F8OURcanlBAA4zG2L1972ZRkAoGEOzZ7KjgQPCwbN1E6ONwAA6KIlu68dfpkM09cXgwRFipWWEgDgcDniBhUAoHkW3rjhyYjYM8l//VHFoJmWrN68MXJsUQIAoFuK12swg3p98jYcawAAcIRWO61WAQCaKUXcPcl/9SG1oMl/2JNdCQAAuib7DHkGGj9IsG3lZRdH5GFLCQDwjBSxdf77Nm1SAgCaKUdsndy/lx9RC5rL8QYAAF19rrpo9/cuW6bE9DR+kKAoh0ySAAAcKWW7EQBAk7+VT3JHghSFQQJosCWrN2+MiDuUAADojjwUK1SYnuYfbZDyNZYRAODIW6TWDSoAQHPlSHdN6t/LpUECaP4f+DUiAAB061YrGySYpkYPEmwbuXxRiniFZQQAOMyOeWs23iIDADRXkdqT3JEgHlYLmv4HPm4QAQCgS3Jccf/KZS8QYjq3qQ02NDFxzVPPzAAAfE2KWJMishIA0FwTZbl1Mv9ekVoPqwXNtmD15g0RsU0JAIDuKLNdCaaj6UcbWHQAgOfe4dkaFQAabvHaO/dFiodO9O+VjjaAxksROae0TgkAgO7IPlOelsYOEtx7zRVn5JS+1RICABzmgfkPnPMpGQCgD+Q44a4Es1L7YaGgD5T5fSIAAHTNK/dee9kCGaamsYMEc1vj3xsRsywhAMBhbkjr10/IAAB9IKcTDhKMj59sRwLoAwvPnbN+MruQAAAwLcV4DL1OhilGa+yzdE7XWD4AgCPukVK2JSoA9Mv39SjvOsG/Mr7wxg1PKgXNl67bMB5l+pASAABde8JyvMEUNXKQYOfVV54cEd9l+QAADrM/HZr7URkAoD8URdxzgn/lYZWgf+TkeAMAgC769q++dtmZMkzhmbSRr3rWwe+OiJMtHwDAM1LER/xUIgD0jzKlu07wvd+xBtBH5u4/cFNEHFQCAKArZs2aHf9ehslr5CBBirja0gEAHC6n9H4VAKB/tNrF1uN/7zdIAP3k7Ju2PhqRPq4EAEB3pJR9xjwFjRskyKuiyGFaBADgyNukdlF8QAYA6B/z127cE8fbdSDHQypBn93UR/6gCgAAXbrXyvGasZHh2UpMTuMGCXbdNvxNETHP0gEAHGbDktHbdsgAAH3n7uP8MzsSQJ9ptQq7jAEAdEuK088oi28VYnIaN0iQUmHLCQCA59wjpRtVAID+k3Mc73iDhxWC/jJ/dOO9EfnLSgAAdEcKxxtMVvOONoj8OssGAHC4MtoGCQCgD6WUtxznnz6mEPSjwvEGAADdkuN7RZjkXWmTXuy2keGLIuJSywYA8IwUaefC1bffqgQA9J8caezY/zA/oRD0oSLfJAIAQNc8f9vKpctlmMRtaZNe7NBEusaSAQAcLqe8LkVkJQCg/7RycexBghQGCaAPPfHEgU9ExONKAAB06TkrwvEGk9CoQYKcLCoAwJFSjverAAD9ad65s7ZExPhR/2E2SAD96OKbth5MkT6mBABAl+TkM+dJaMwgwbaR4bMi4pssGQDAYfbn8TkflwEA+lO6bsN45LjraP8sF35iGfpVzo43AADo4t3WN2wbuXyRDsfXmEGCoYn4DxExZMkAAJ6RIv3rwhs3PKkEAPSxIo5+vIEdCaBv5TI+oAIAQNek1sTEv5fhRI+iTbl5ToUtJgAAjrxHivJGFQCgv6V89EGCwhnq0LcWvW/ztoi4QwkAgC49ZyXHG5xIIwYJ8puunBU5f5flAgA4/DZpYmLigzIAQJ9/w0958zH+iV2JoI+liI+oAADQpeesiO/cNvLKk5Q4tkYMEty/98C3RIrTLRcAwGG+cP66LTtlAIB+V4wd4x/YkQD6WJnTR1UAAOiak4bGH79KhuM8iTbipjklZ1QAABwhpfR+FQCg/y3Yd/bWiDh45P+eczJIAH1sdvvQxyJiQgkAgC4pSp9BHy9PQ17nay0VAMDhymjfqAIA9L+0fv1EpPjyc/7BUH5CHehf567b8liO+IISAADdkSP5DPo4aj9IsHtk+YURcamlAgA4zK6Fq2+/VQYAGBBl2vyc/2mibZAA+lyK9BEVAAC65sKdK5ZeJsPR1X6QoF1mkyAAAEfK6V9SRBYCAAZEkceO/J/2H5hwtAH0uVTkj6oAANDF+60Ujjc41mNo7RcvnE0BAHCkXJQfVgEABkk6cpCgffFNWw/qAv3twZQ/ExF2HwEA6JIyks+ij6HWgwTbRl55UuT0assEAHD4/W2rbPnJJAAYIO2YOHKQwG4EMACGR8cORaR/UwIAoDtS5G95cOTK5ynxXLUeJBhqP/btEXGyZQIAOMwX56/duEcGABgci4ul90TE/q/9/ymSn1CGAZEif0QFAICumXWgPPCdMjxXrQcJynAmBQDAc+RwrAEADJg0OtqOiE3P3A5kgwQwOA8An9QAAKCbt1vpNSI8V60HCVJkgwQAAEdqFQYJAGAQpfjis/4fRxvAgJj/4LlfiojHlAAA6Jp/nyOSDIer7SDBrpUvHo5IF1giAIDDPLbgrFmflQEABlCZnzVIYEcCGBRp/fqJiPiMEgAAXbNg17XLXyLD4eq7I0FZ2EICAOC5Ppqu2zAuAwAMoNTa8Kz/zyABDJZPSAAA0E1tO+UfobaDBDnFd1seAIAjb5LCsQYAMKAearU3R8TBp/9fRxvAQD0H5H8TAQCgm/db8V0iHK6WgwTbRl55UkR8s+UBADhcq0j/ogIADKbh0bFDETH29P9rRwIYIA8Nxeci4kklAAC6JKVXPjhy5fOEeEYtBwmGxh+/KiJOsjwAAIe5a97qTffIAAADLKUNERHZjgQwUJ4eJLpFCQCArhk6UB76NhmeUctBgpyyYw0AAI6QIjvWAAAGXZm/+PSNgZ9MhgGTIz6pAgBAV++4fEb9LLUcJIgUFgkA4MhbpJwMEgDAgMtFeUtERJHtSACDppWzQQIAgK4+cOXvEeEZtRsk2DkyfH5EXGppAAAOc6gYyutlAIDBtnDfeZsi4onI8YQaMFjKibmfjYhxJQAAuiVdsH3F5S/S4Sn125Fgwm4EAABH8enzRsf85CEADLi0fv1ERHwhhx0JYNAsvHHDk5FioxIAAF185irK71LhKfUbJEjJIAEAwBGyYw0AgKellD8byY4EMJDPBZE+qwIAQFfvuHxW/bRaDRLkkZFWRHybZQEAOOI+KZcGCQCAp+4Lovisow1gMKXIBgkAALp5v5Xj2+56zUVzlKjZIMHOfMcrIuIsywIAcJh9i64Ys4UpABAREUWZPhMtRxvAIGoXBgkAALrslFNPmvNNMtTtaIO2rSIAAJ4jxSfSqiiFAAAiIuav3binLIvblYDBs3h07O6I2KsEAEAXpfCZddRtkCCl77IkAACHyznWqwAAPNviNRu3qwCDJ0XknOIWJQAAuifnwmfWUaNBggdHrnxeiniZJQEAOFyrndarAAAARESkCMcbAAB0Vb5818hLzh30CrUZJNg/ceiqiBhyYQIAHGbfvJdsGpMBAACIiChTYZAAAKC7iijHv02EuryQlL/DNQkA8Bzr06ooZQAAACIi5hw6+LmIaCsBANA9OfvsuqjPYoRBAgCAI++RIj6hAgAA8DXnrtvyWES6UwkAgG5K3znoBWoxSLD32ssWRIrLXJAAAIdrtdN6FQAAgMPlDRoAAHTVC3aPLL9wkAPUYpBgPFrfGRHJ9QgAcJh9816yaUwGAADgMDkMEgAAdFk50R7oXQnqcbRBTo41AAA4UopPpFVRCgEAABwuf1EDAIDuSmmwP8OuxyBByt/uUgQAOEIZnxABAAA40tBQ3BoRbSUAALonR3xHXlWTz9MrUPkb3zGy/JKIWOJSBAA4XLuI9SoAAABHOm907PGI+LISAABddc6OW4eXD+qbr3yQoBjwsyUAAI7hwcXLNm+WAQAAOKocG0QAAOiuVjG4xxtUPkiQB/xsCQCAo0qxPq2KUggAAODozwzZIAEAQJfllA0SVBJ+VRSR4iqXIADAEcr4hAgAAMCxFV/UAACgy3L61rGR4dkDebdZ5W++a+PyKyLHma5AAIDDtYtYrwIAAHAsQ63yixF2MQMA6LJTzmjHywfxjVd7tEHKV7n2AACeY9/iZZs3ywAAABzLeaNjj0fkrUoAAHRXSumqQXzflQ4SpGyQAADguTdJ8Ym0yk8WAQAAJ3x42KQBAECX5Xj1IL7tygYJ8shIK0d8iysPAOAIZf6UCAAAwImkCIMEAADd981jI8OzB+1NVzZIsGv8zisi4gzXHQDAETdoqXWzCgAAwInkbJAAAKAHTj5zIr5h0N50ZYMEKeVvc80BADzHwcf2P/klGQAAgBNpF22DBAAAvZDiqkF7y5UNEpTFYJ4lAQBwPDniSxfftPWgEgAAwIksXnbH3RHxhBIAAN2WBu6z7UoGCfLISCvleJULDgDgiNvRSJ9VAQAAmNTzw6ooI+J2JQAAuu6b7nrNRXMG6Q1XMkiwq7zjJRFxhusNAOBwObJBAgAAYNJSDscbAAB038mnzJ3z8kF6w5UMEqSIb3OtAQAc7T6pbZAAAACYtJyyQQIAgF5IcdUgvd1qjjbI8WpXGgDAc+xauOaOr8oAAABMVlm0DBIAAPREGqjPuHs+SJBHRloR8SoXGgDAc9wiAQAAMBWzDpWbVQAA6IlvGhsZnj0ob7bngwS7xu+8IiKe5zoDADhcjnyzCgAAwFTMW7f5/oh4UAkAgK47+YycXjYob7b3Rxu0st0IAACOIkXxWRUAAICpP0vEFhUAAHqgnb5lUN5q7wcJcnyLKwwA4DkmilPSBhkAAIBpuFMCAIAeKAbnh+aLCn7Pb3KFAQAcIcVt86/f+IQQAADAVJU52ZEAAKAHUsQ351WVfMbecz19k9tXXP6iiFjgEgMAOFyO5FgDAABguuxIAADQCznOvP9Ly4YH4a32dJAgFe1XuboAAI5ynxTZIAEAADC954ki7EgAANAjuVV+yyC8z95uu5Dzt7i0AACeq10YJAAAAKZnwdmz746IcSUAALov52Igfni+tzsSRDJIAADwXPsWj47dLQMAADAd6boN4xHhmQIAoCc3X/lbB+Ft9myQYM/I8PyIeKErCwDgcDnFzSkiKwEAAMzAnRIAAPTEol3XXHFBv7/Jng0StCcKuxEAABzthiynz6kAAADMSM4GCQAAeiWN9/2uBL072iBlgwQAAEe9T4oNIgAAADORU9qqAgBAj+69iuJV/f4eezZIkCO9yiUFAPBcraL8ogoAAMBMFJHvUQEAoEdyNkjQCXtfd8lpEXm5KwoA4Dl2nTc6tlsGAABgJnIr7lYBAKBnLt159YvO6ec32JNBgkOzZr8iIlquJwCAw2XHGgAAAB2wYHhse0QcVAIAoCdSMTT7G/v5DfZkkKDI8UrXEgDAUZTZsQYAAMCMpVVRRuSvKgEA0Btl6u/PwHsySJBTaZAAAOAoUlF8SQUAAKAzDxiONwAA6CGDBDORI1Lk9ArXEQDA0e7GSjsSAAAAHZGjuEcFAICe+YZ81VVD/frmuj5IsHtk+LKIOMt1BADwHPsWjo7dJwMAANAJKcIgAQBA75yy66wHl/frm+v6IEFZpm90DQEAHJVjDQAAgI7JpaMNAAB6KeV23x5vUHQ/XnyTSwgA4KhukwAAAOiUVmlHAgCAXsopGSSYPjsSAAAc9S4p0mYVAACAjjk93RMRWQgAgJ4xSDAd915zxRkR+TLXDwDAc5WpbUcCAACgY+Zfv/GJiNinBABAz7xgz8jw/H58Y10dJJgb7VdGT3Y9AABonHZZPO9OGQAAgM5K2zQAAOidiXZ/Hm/Q1Q/5c1G+0qUDAHBUX14yevN+GQAAgI5K5X0iAAD0Ts5hkGAad63f6NIBADjabVJsFgEAAOj4o0YOOxIAAPTy/isZJJiSHJEi4uUuHQCAo90s5Y0iAAAAnVaGQQIAgB57ab7qqqF+e1NdGyTYtXLZJRFxhusGAOC5ci42qQAAAHRcMkgAANBjJ+84Y+/SfntTXTzaIL/MNQMAcHRDOTvaAAAA6LhUGiQAAOi1olV8Q9+9p67dsOb4BpcMAMBRPXneFZvvlQEAAOi4VBokAADotZxf3m9vqWuDBDmSQQIAgKNKW9KqKHUAAAA6bcGD83ZERFsJAIDeSRF2JJiMsZHh2RH5CpcMAMDRlHdoAAAAdENav34iInYrAQDQOzlieM/I8Kn99J66MkhwZpmWR8QclwwAwHOlKO5UAQAA6N4zR9ynAgBAT7Um2sVL++kNdWWQIJX5Fa4VAICjy6m8XQUAAKBrzxwRO1UAAOitlHNfHW/QlUGCHMXLXSoAAMe4oSzC0QYAAEDX5JQcbQAA0Ot7sCIMEpxQ6q9pCwCADpp4/PGDd8sAAAB0S8qlQQIAgF7LBgmOa+/rLjktIi5xpQAAHPVm8u6Lb9p6UAgAAKCLDBIAAPTe8+9/3dJ5/fJmOj5I0G4NvTy6tdMBAEDTJccaAAAA3X7sSLtUAADovYlZ/bNzf8c/8M9FutIlAgBwdCnlLSoAAADdlMtkRwIAgEpuxPrns/KODxKUZbzMFQIAcIz7yBxbVQAAALqpPaswSAAAUIUUBgmO2aaP4gAAdPxeqUgGCQAAgK5avPfM+yOiVAIAoLeKnF7aN++lk7/YgyNXPi8iXuASAQA4unZZGCQAAAC6Kq1fPxER+5QAAOitHHnh3msvW9AP76WjgwSHJg5cGRHJJQIAcFT7Fy3fuFMGAACg61I43gAAoAIT0eqLXQk6OkiQi+RYAwCAY7s7rbK9KAAA0ANl7BIBAKACqT8+M+/sIEGZXuLKAAA41g1kvlsEAACgN88fcb8IAAC9l6O0I8Fzb07zy1waAADHuoFMd6kAAAD0RtqnAQBABbIdCQ6z7zUXnR4RL3RlAAAcXSrDjgQAAECPlAYJAACqsfj+1y2d1/Q30bFBgkNzT3pJdHqHAwCAPpLDIAEAANCrB5D0gAgAANUoi9T44w0698G/Yw0AAE5w89j+igoAAEAvJEcbAABUJreyQYKvx4jmxwAA6Oa9YxRnbJcBAADoiVTakQAAoCo5rmz6W+jgUQTpJa4IAIBjun/J6M37ZQAAAHphItmRAACgOrnxn513ZJBg28grT4qIF7kgAACOJX1VAwAAoFfy+LgdCQAAKpOe/9XXLjuzye+gI4MEQ+OPLouIlgsCAODocs4GCQAAgJ45ON62IwEAQHXS7NmxvMlvoCODBLlVXOFaAAA4LoMEAABAz1x809aDEfG4EgAA1ciRL2/y6+/MIEFudgQAgO7fdNmRAAAA6LXseAMAgIqkCIMETY8AAND9m8ZkkAAAAOjxg0hyvAEAQEVyMeCDBDkiRY5lLgUAgGMbL+I+FQAAgJ7K8aAIAACV3YsN56uuGmrqy5/xIMGea5a+IFKc7koAADjeXVfeLgIAANBjj0oAAFCZufef+eClTX3xMx4kaCfHGgAAnMDBxaNjD8kAAAD0UjJIAABQqTJyYz9L78DRBtkgAQDA8e1MEVkGAACgl3KkR1QAAKjyfmyABwmKVFzhEgAAOK5dEgAAAL2WIxskAACoUEpxRVNfux0JAAC6f7u4UwMAAKDnTyIpOdoAAKBaVzT1hc9okODea644IyLOt/4AAMeWItuRAAAA6Lmc7UgAAFCxc/dee9mCJr7wGQ0SzBkql0VEsv4AAMeWkx0JAACA3iscbQAAULnxorWsmfeSM5ByudTSAwCc4J4pSjsSAAAAPVfmZJAAAKBqOTXyM/UZDRKUkYatPADACe6ZSjsSAAAAvdcqykdVAACoVipzIz9Tn+GOBNmOBAAAJ1AWcb8KAABAz59FomVHAgCAiuUUg7cjQUTYkQAA4ATmFHmPCgAAQK/NyhMGCQAAqjecV834c/mem/YL3nvtZQsi4hzrDgBwXPncM+fukwEAAOi5ifJxEQAAKnfKnk3LLmjai572IMGh3HKsAQDAiT2SrtswLgMAANBr58xZ/qQKAADVm8hl4z5bn/YgQYpskAAA4IT3TPGACgAAQCXPI6Oj7Yg4qAQAQMX3ZZEGaZAgGSQAADixvRIAAAAVekICAICq5eGmveJpDxLkFAYJAABOzI4EAABAlRxvAABQsYHZkSBHpIi4zJIDAJzwxsmOBAAAQJXPJHYkAACo/JYsLs1vunJWk17ztAYJ9qxcdmFEnGbJAQBOICU7EgAAAFU+k9iRAACgerN3P3Tg4ia94OntSFDmF1trAIATK6PcpwIAAFCdbEcCAIA6mCiGm/RypzVI0E4GCQAAJiOl4mEVAACAyuSwIwEAQB0UcVmzXu60/qN0qZUGADixnPMjKgAAAJVJBgkAAOogl9Goz9inNUhQRrOmJQAAKrvZKtOjKgAAANXJBgkAAOqgyP2/I0FKcYmVBgA4sXLIjgQAAECFUvGECAAANZDjkrxqep/PV2HKL3TvtZctiBxnWmkAgBNrtQs7EgAAABXK+zUAAKiFk/ZsWnZBU17slAcJJqK41BoDAExOuyztSAAAAFQmRxxSAQCgHsqIxnzWPp2tEy6zxAAAkzP30AGDBAAAQGVSNkgAAFAbOTfms3aDBAAA3VOe9Yqtj8sAAABUJUeMqwAAUJt7s/7dkSBHcrQBAMDkPJZWRSkDAABQleRoAwCAOunrHQkMEgAATI7dCAAAgEqliIMqAADURn8OEux7zUWnR8Qi6wsAcGIpYr8KAABAlXJ2tAEAQI2ctXvF8vOa8EKnNEhwaM6cSyMiWV8AgBPLySABAABQsZTsSAAAUCM5ciN2JZjSIEEu0iWWFgBg0neEBgkAAIBqH0tStiMBAECd7s+KaMRn7sUU39bFlhYAYNIMEgAAAJVKEYdUAACoj9yQz9ynNEiQIr3I0gIATPruySABAABQ7VOJQQIAgJrdn/XhIEGOsCMBAMDk754MEgAAANU+lUQySAAAUKsbtGb88P4UjzYwSAAAMIU7QoMEAABApexIAABQOy/IIyOtur/ISQ8S7L32sgURcZp1BQCYLEcbAAAA1SrLPK4CAECtzLk/tpxf9xc56UGC8RiyGwEAwBTklA6oAAAAVPpc0ipKFQAA6qXMZe0/e5/C0QbliywpAMDkpRx+8gcAAKhUq2wbJAAAqJnUzv0zSJCisCMBAMCU5LYGAABAtY8ldiQAAKjdLVqk/hkkyJHtSAAAMAUpkkECAACgUrmVDBIAANRNUf/P3qdwtEGyIwEAwBRkOxIAAABVP5c42gAAoHZS7pMdCfKqKCLyCy0pAMAU5PAXdgAAQLWPJY42AACo3z1axAVjI8Oz6/waJzVIsGvjZUsiYq4lBQCYys2gHQkAAIBqtXLpuQQAoH6GnjcxdEGdX+CkBgnKYtZF1hIAYIo3WkXhL+wAAICKH0wiiwAAUD+tXNb6RIBJDRIU7fYLLCUAwNTYkQAAAKj8uaR0tAEAQC2lstafwReTexPpQisJADDlO0GDBAAAQKVyq22QAACgjvdpNf8MflKDBCnCjgQAAAAAAA1ThiPXAABqqvlHG2SDBAAAU5dzIQIAAFClWRMpqwAAUD91/2H+yf7ltkECAICp3gimNKQCAABQqcIgAQBAHeWmDxI8OHLl8yLibEsJADA1pR0JAACAik1Eu6UCAEAtnbp7xfLz6vriTviX2wfa4y+0hgAAU5ci+Qs7AACgUkVqeS4BAKirVN9dCYoTv/a2Yw0AAKYl+ws7AACgUsmOBAAAtVVGbu4gQVnzsxkAAOrKjgQAAED1zyV2JAAAqO+9WtT2dIAT70iQ0oWWEABg6rIdCQAAgIq17UgAAFBjubafxZ9wkCBKOxIAAEzvHjCGRAAAAKqUojBIAABQU7nJOxJECjsSAABM705rjggAAECVUpQGCQAA6quZOxLkiBQRS6wfAMDU5ZznqgAAAFSpTHYkAACosYX5TVfOquMLO+4gwQPXXjY/IvwFOADAdOR0sggAAECViojZKgAA1FZr9572opreRx5bO2Y939oBAEzzRivFSSoAAABVylF6LgEAqLPUruVn8icYJCgNEgAATFMOgwQAAEDVkucSAIBaK5s3SBCRDRIAAEyfow0AAIBqldkgAQBAnaWiiYMEySABAMD07wD9hR0AAOC5BACAY8o1/eH+4w4SpAiDBAAA078F9Bd2AABAtU8lBgkAAOqugTsSpDjfugEATNspEgAAAJVKBpwBAGqugYMEpR0JAABm4HQJAACAKhV2JAAAqLvzc0Sq333kMXz1tcvOjOQvvwEAZuC0vOoEg5sAAABdlFOeqwIAQK3NeeDay+bX7UUd8y+2W7NKuxEAAMzwXuuhsStPkwEAAKhKztkPiwEA1Fw7pfPr9pqOOUiQUmGQAABghg60nzxDBQAAoCopJYMEAAA1l6N+n80Xx/knSywZAMDMtFPreSoAAACVyY6vBQCovTKasyNBEeViKwYAMDOtVBgkAAAAqnSGBAAA9ZZTWlS313TMQYJc1u/FAgA07gYwt89QAQAAqJDhZgCA+qvdD/kXTXqxAABNkyL5SzsAAKBKjjYAAKi5FLk5OxJEygstGQDAzOQcZ6oAAABUyCABAEDN5WbtSJDsSAAAMEMp8rkqAAAAVRgbGZ4dEScpAQBQewvzyEirTi/oqIMEX33tsjMj4mTrBQAwU+k8DQAAgCqcFbMdtQYA0AytbQc3zqvTCzrqIMGcobAbAQBAZxgkAAAAKpEnxs9RAQCgGWYVQ7X6jP6ogwQ5GSQAAOgQgwQAAEA1UnLUGgBAQ+SUGjBIUJSLLBUAQEdu//zFHQAAUNHjSLYjAQBAU27dUtTqM/qjDxJEsiMBAEBHJDsSAAAAFT2O2JEAAKApipTrP0iQIuxIAADQGWeMjQzPlgEAAOi5ZEcCAICmyLkBRxtExEJLBQDQGafHkJ8CAgAAKpDP1gAAoDEaMUhgRwIAgA4Zak8Y0gQAAHovO2oNAKBBN28L6vRqjjVIMN9CAQB06PYvFYY0AQCAKjjaAACgMVK9BwnyyEjLDSYAQOfkmm1JBQAADAzHrAEANMdpu9+w/JS6vJjnDBJsO7hxXkS0rBMAQGeksrQjAQAAUAXPIgAADZIeK2tzcsBzBgmGhuY41gAAoKN3f8lf3gEAAD2V33TlrLAjAQBAo0wUub6DBCnKBZYIAKCjHG0AAAD01K6HDiyIo/z9LwAA9ZVS1HeQoIywIwEAQGcZJAAAAHqqaLcWqgAA0Cw5itr80P9RdiTIdiQAAOgsRxsAAAA9Vaa25xAAgIZJOebV5bUcZZCgPi8OAKBPnLxtZPgsGQAAgF7JOdmRAACgeXdx9d2RIEeyIwEAQIe1xosLVQAAAHqlSNmOBAAAzTO/NveTR/nfDBIAAHRYSvECFQAAgF7JZTJIAADQNKnegwSONgAA6LAyDBIAAAA9tVgCAICGyfUeJJhvhQAAOiul0iABAADQw4eQfIEIAACNMy+vOupn+D132IvYMzJ8akScYn0AADotXagBAADQC/mqq4Yikh0JAACaZ2jHbZeeWYcXctggQRmtc60NAEDnpQiDBAAAQE/sPuPhxRExpAQAQPMUxaxafGZ/2CBBHm8bJAAA6IIc8fw8MtJSAgAA6Lpi3CAzAEBTpVS/QYIokkECAIDumLV7/K4lMgAAAN1W5uICFQAAGqpd1nCQIOVzrAwAQHeUrfZFKgAAAF2X8vNFAABorPPq8CKKI+4wz7MuAABdc6kEAABAt6UIRxsAADT1Xq6WRxvkZEcCAIDuMUgAAAD0wgUSAAA0Va7fIEEZpR0JAAC6JOV8iQoAAEDXnz0iOVYNAKC56jdIkKIe2yQAAPQpOxIAAABdtfd1l5yWIy9QAgCgoXINdySImkw3AAD0qUV7RoZPlQEAAOiW8WL2iyIiKQEA0FApGSQAABi0W8CJ8cLxBgAAQNfkVvkiFQAAGnw/V8ejDcIgAQBAdyXHGwAAAF2Uk+FlAIBmOzfXYIeprw8S3PWai+ZEhK12AQC6ySABAADQ1UeOfLEKAACNNnTfa5edUfWL+PogwZxZrbOtCQBAt+WlGgAAAF2T7EgAANB0c2fls6p+DV8fJJjdmnOWJQEA6LrlEgAAAF1Thh0JAACafktX1GiQoGzFmZYEAKDrLtz3motOlwEAAOi0+153ycJI4XkDAKDhcor6DBJEzo42AADovnTgpDnLZAAAADptaPYsR6kBAPSBHDUaJMiRHW0AANCLG7CUHG8AAAB0Xk4GCQAA+kBR1miQoA4vBgBgEOQcdiQAAAA6LpV5WAUAgH64sStqtCNBijOtCABAT9iRAAAA6Licwo4EAAB9cV9XVv7ZffGs/9sgAQBAbyzPEUkGAACgU55+xrhMCQCAPri3y1GfQYIUjjYAAOiR0/Zcs/QFMgAAAJ1y/8jyCyLiNCUAAJqviHR29a/hadkgAQBAz0wU8TIVAACATmm328tUAADoDzlqtCNBJIMEAAA9vBO8UgQAAKBTUqSlKgAA9Ilc/Wf3xbNezJlWBACgN1KyIwEAANDBZ4yI5SoAAPTNzV2NBgmSQQIAgJ7JcWVe9ax7MQAAgBk9YsRLVQAA6Bv1ONogR6TIcbr1AADokRSn7xxbfrEQAADATO17zUWnR8RFSgAA9I05977xgrlVvoAiIuKB111yakS0rAcAQO+kiex4AwAAYMYOnTL3pRGRlAAA6B8nPXJ6pRsBFBERB4fmPM9SAAD0+k6svFIEAABgxsrwbAEA0GfGi/FKP8MvIiJarbZjDQAAei2nl4sAAADM+NEixxUqAAD0l1a0qh8kaE8UdiQAAOi9K8dGhmfLAAAAzEgKx6YBAPSZoszVH21QFKUdCQAAeu+ks8v8EhkAAIDp2jMyfGpEvEgJAID+UqZU/Y4EKZIdCQAAqrgZzOmVKgAAANM13o7L4+m/5wUAoH9U/Rl+ERGRc7YjAQBAJXeD6ZtEAAAApqswnAwA0Jeq/gzfjgQAABVKOX2zCgAAwHTllF6hAgBA/0l1ONqgtCMBAEAlcuSFO6+97PlKAAAA03yq+EYNAAD6T5nsSAAAMNByKhxvAAAATNmO7126JCIWKwEA0H9SLY42SGFHAgCAqm7IchgkAAAApv4sUSS7EQAA9KmqNwMoIiJyGCQAAKhKTulVKgAAAFN/lsivUAEAoE/v9eowSBARp1oKAIDK7giXb19x6dlCAAAAU/RKCQAA+lQuT6nytzdIAABQvaIoZn2LDAAAwGTlN105KyJeogQAQJ9KRaWf4T81SJDiFCsBAFChMl8lAgAAMFn3PzB+ZUScpAQAQL+qwY4EKduRAACgUkW8WgQAAGCy2tH+VhUAAPpZqn6QIIcdCQAAKpVj+fYVl54tBAAAMBkpkkECAID+Vv0gQYQdCQAAKlYUxaxvkQEAADiRvCqKiPhmJQAA+lqln+F/bZDgZOsAAFCxMl8lAgAAcCI7N7348og4QwkAgL42NDYyPLuq37zYNvLKkyKiZR0AAKqVUnybCgAAwAmfHaJwrAEAwAA4vcJdCYrWgX2nWAIAgOrliGV7r71sgRIAAMAJGCQAABgAxaFU2Wf5RWqdfKolAACohTQere+UAQAAOJYckSLHq5QAAOh/aajCQYJoHbIjAQBAfXy3BAAAwLHsXvniF0fEeUoAAAyCXN3RBqnCcxUAAHiO78qropABAAA4mhyFXcwAAAZEKivckSDndLIlAACojXN3bVx+hQwAAMDRpBzfoQLw/7N353GW1fWd/9/fU9ULmwsIdBfgFhShqhqwVSSahN8kE8NEkK6mxonRxElmyDLZ18nExE4ymlGjScxO4jIajaakGyGGmG2IMRqXaqAXFiFBobuqWZW9l7r3+/uDVkEa6KWq7vZ8Ph71iGHpOuf1PfQ9t++nvgeAAdGkg482iEECAICuUup3igAAAHyjes45w7Xm25QAABiQ+7+0D+vU925qqcstAQBAN90dGiQAAAAea+boO85KyVOUAAAYEO2mY5/lN6nNMisAANBVXnb75OiRMgAAAI/UpHyHCgAAg6OTmwI0NfUwSwAA0FWW7plrPPcUAAB4lJoYJAAAGCBN7eAgQSe/OQAA+1ZKfaUKAADAV91x/ilHJTlLCQCAAVJKB3ckaDzaAACgC313TYoMAABAkswNL/nWJEuUAAAYHJ18ukATjzYAAOhGK3dMjL5IBgAAIEnapZyrAgDAoOncpgBNarUjAQBAF2rXeLwBAACQJCm1fpcKAACDpZbawUcb1M49VwEAgMdXSjFIAAAAZGbN2KlJvkkJAIDB0tQODhI0JQYJAAC605nbJladKAMAAAy2kny3CgAAg6emHNap793UYkcCAIAuVZpUf2AIAAADrpb8JxUAAAZS53YkSAe3QwAA4MnU8zUAAIDBdde5Jz8lycuVAAAYQCWd25EgHm0AANDNvv3uydVPlQEAAAbTrsOX/cckS5QAABhAtZM7EqQutQIAAF1r2c653a+UAQAABlNpF481AAAYXB0bKG1Sy7D+AABdrNS1IgAAwOCp69LUEoMEAAADe0PY0UEC22IBAHS579rxulVHyAAAAINl9prRb06yQgkAgAFV0rFNAZoUgwQAAF3usPpA61wZAABgwJRygQgAAAN9Q9jBHQlikAAAoAduGD3eAAAABs/5EgAADLLayUGCYpAAAKDbbxeTV978+mcvVwIAAAbDjleNjyd5nhIAAAOsg08XaFLqsBUAAOh6Ry6974j/KAMAAAyG9lD7VSoAAAy42sFBglI92gAAoBeUdvM9KgAAwKBoJjQAABhsJenYpgBNjUECAIDeuGusr7p9cvRIIQAAoL/NTJz6rKSeoQQAwGDr5Gf5TTo4xQAAwAE5fM9cXikDAAD0uTJ0QZIiBADAgN8WpnR0kGCpJQAA6A1N8XgDAADod7Xmv6gAAEBN7dwgQSenGAAAOOAbx+/atuYFxygBAAD9afurxk4qyVlKAACQTj7aoKZ6tAEAQO9Y2pShNTIAAEB/apq8Oh5rAADAwzr6aIMh/QEAekeNxxsAAEDf3u+XvFoFAAD2ajr5jU23AgD0kJL6bXdMnLpSCQAA6C+3rR1/bpLVSgAAsFdHBwka/QEAesrQXB36XhkAAKC/tGr1WAMAAB6pY/eGTapBAgCAXlNLeb0KAADQdzzWAACAR+rgjgTFhCsAQO+pozNrx16kAwAA9Iftk6tOSXK6EgAAPIJHGwAAcGBKzfepAAAAfXJ/36qvVQEAgG/Q0UECOxIAAPSgmnzvjeeevEwJAADo+Xv7ktTXKAEAwL7vFRefHQkAAHrX0UcsX/7dMgAAQG+bvXDVy5M8VwkAAB5jcrIjn+cbJAAA6GGllO9XAQAAely75bEGAADs29P/vWODBAAA9Kiaeu6ONauOUwIAAHrTjeeevCylTCoBAMC+3HTrPR0bJBiSHwCgZy2paX+fDAAA0JuOOHzZK1PzdCUAANiX4ePnSie+b5OkyA8A0LtqyQ9X93QAANCrXicBAACPZ9ldx3RsRwJ/6AwA0Nu+aceFY98mAwAA9JZta15wTGo5VwkAAB7P8PKdBgkAADg4tV3/uwoAANBbmjL0uiRLlQAA4PG0lw/VjtyrJmnLDwDQ68qFs5NnHqsDAAD01H386zUAAOCJtL+ypGODBFV+AICet7S25zxbFQAAesSOiVUvTXK6EgAAPJFdx9zVkY0B7EgAANAv2vWi6rFVAADQG7fvaf+gCgAAPJkHHzjCIAEAAIeg5JTZifFvEQIAALrb7ZOjRyZ5tRIAADyZ056+3KMNAAA4RDU/LAIAAHS3Pa3y6iRHKQEAwJP68nPtSAAAwCEq9cJbJ08/QQgAAOheTeKxBgAA7J+pKYMEAAAcsiXDrdZ/kwEAALrT7NrTRmtythIAAOyP0qEnDHi0AQBAn6nJD22dHF2qBAAAdOMNe/E4MgAA9lfHNgWwIwEAQP9Z+bS5TMgAAADd5fbJ0SNryuuUAABgP3V0kMCOBAAAfaaU8mMqAABAd5mbK69N8lQlAADYT3YkAABgXr1s5oLx1TIAAEAXKeUiEQAAOAB2JAAAYH6VUn9UBQAA6A4za0ZfntQzlQAA4AB07LP8Jsmc/gAAfXiHWfKaHWtWHacEAAB0gVJ+WAQAAA5Qq1Pf2CABAED/Wt4qbbsSAABAh81OnnlskguVAADggJTs6dS3bpK6xwoAAPTrfWZ+9NbJsw9TAgAAOqe29vy3JMuUAADgwG4kO7cpQFNS7EgAANC/jh1q3/86GQAAoDPqRauXJLFTGAAAB6ykdG5HgprYkQAAoJ/V9s/WdWmEAACAxTd75+7JJCcqAQDAgaodfLpAUwwSAAD0ufL8264Z+086AABAJ9Sf1AAAgIPRyc/ym1oMEgAA9Lt28rMqAADA4ppZM/ryJC9RAgCAg1E7OkhQDRIAAPS9knNmJla9UAgAAFjM+/DGbgQAABzC/WTmOvWtm5LOfXMAABbznrP9CyoAAMDimJk49VlJvUAJAAAOWgc3BWgSOxIAAAzGPWcu3Lbm9OcrAQAAi3ED3vxEkmEhAAA4eKWjgwS7LQAAwEAYakrLrgQAALDA7jr35KeklB9UAgCAQ1M7Okjg0QYAAIPj+2YmR58pAwAALJydhy374SRPVQIAgEPk0QYAACyKJWnnp2QAAICFceO5Jy9r0vykEgAAHLLawUGCWj3aAABgsG4+y0Uz5z3/GUIAAMD8O/yw5a+tqSNKAABwyEoHBwlKyU4rAAAwUI6ow0t+XAYAAJhfdV2akvysEgAAzI/yUKe+c5NUgwQAAIN2+9mUH7/j/FOOUgIAAObP7KaxVyU5VQkAAOZH3dWp79ykFIMEAAADd/+Zp++xKwEAAMyrkvy8CgAAzKPO7UhQqkECAIAB9TN2JQAAgPkxe+HYOTU5WwkAAOZL6eDTBZp2bRskAAAYTMfsWbLkJ2QAAIBDV9v5nyoAADCf2h18ukBTStllCQAABlTNz9x17slPEQIAAA7ejrWnnZXkFUoAADCfSq2de7RBikcbAAAMsKN3Hb78x2UAAICD167Nr6oAAMC86+CmAE3xaAMAgMFW83M3X3DG04QAAIADNzOx6oVJzlUCAID5Vmo692iDth0JAAAG3dOWNXt+TAYAADhwJfWNSYoSAADMu1o7N0iQdO65CgAAdIvy03dPrn6qDgAAsP+2rz3tzJp6nhIAACyETm4K0JR2556rAABA1zh6Z2v3z8kAAAD7r9TmV2I3AgAAFup+M6VjmwI0pRY7EgAAkKT+1G3njx2vAwAAPLkdrxofT3KBEgAALJiOPtpg2KMNAABIkhzZWpL/JQMAADy59lD9tdiNAACABdTJTQGazNUHLQEAAEmSmh++be34c4UAAIDHN3PB+OrYjQAAgAVWmzzQqe/dZEnutwQAAOy1dK62f0UGAAB4Ak19U+xGAADAgisd+yy/qa32AxYAAICv3ZqmvG527WmjSgAAwGPNrBl9eZJXKAEAwEKrQx3ckaBdqx0JAAB4pKFam9+QAQAA9qW4VwYAYFHUVgcHCfY8dacdCQAA+EYX7Fh72lkyAADA182sHX1FSs5RAgCAxdDaVTs3SPCc935xZ5I5ywAAwCOUWpvfrp77CgAAX1ebXxMBAIDF8swTlnbs6QLN3v9rVwIAAB6lJmfPrhlbowQAACQzE2NrkmrXLgAAFsuecvH0nk598yZJSopBAgAAHqvkbTeee/IyIQAAGGR1cnIoyZuUAABg0ZTc38lv3yRJTTVIAADAvjz3iMOX/7AMAAAMsh3t6y5KcqoSAAAsmtrZpwrsfbRBud9KAADwON546+To0TIAADCIbp8cPbLW/KoSAAAsqq4YJKhtgwQAADzeDevTm3b5JSEAABhEe1rl55KsUAJYFCVfTnKzEACkdMMgQWk82gCA1JR/TPLLSb147/++JUlVBig1P75jctVzlAAAYJDcPjm6oiQ/qwSwQG5LqVek5k0p9cJmqHnuyCVbjk7Jx6UBILV29DP84b3/144EAKSkLh9Zv+XNj/xrt06efdhw696xWpozU+sZJTmjJuNJjlQMBsqydqu+NcmkFAAADIq5Vlnn/S8wT25JqVeVNBtLu27cMzx01UlT12zf5z9Z851yAZCms5/hlySZXTP2rlryA1YDgFZpPf+kS6678Unf+Zx/ysjQkuHVqWV1SlaXmtOSPFdB6Pub11eMfGTL3woBAEC/2z656pTSam/J138YC2B/zdaS6dRMp9Tp4T3ls8dftuW2/fkXb1176vOG6tAXJASgJB9auX7L93Tq+w8nSW3qPanFagCQ4Qx/T5Jff7J/7pmX3TCTZCbJ5V/9a7edP3Z8a0k9o7abM5pSz6ypZybledk7uAb0gZrfquec88Jy5ZVzYgAA0Nfa7d+KIQLgibVSc0OSjWnKVaXUjcvKsquOnpq+52B/weHa/EfPGQUgSWrqvZ38/g8PEtRyr094AHj4lam+ria/UZIDfs+yd7L643u/kiR3nH/KUXuGhk9PU1an5uGvklNjuAB69e51fOaYu344ye+LAQBAv9p24apvL+32K5UAHmEuNV9IyXRKptOu082RQ1eteP+meX5+dfOKg/hjOQD6UK3lnk5+/+EkKbXek+LzHACSmpx829rTXpJLrv3MfPx6x152w31JPrn3K0myY82q42ppv7idvLgkL0ry4iTHqQ+9odT6azPnPf9DI5d/4U41AADou/fF55wzPNu6853G32GgPZRkc0o2pl03pjYbH9j10JbnXXHTroX8plsnR5fWuXqO338ASJJSumFHgmJHAgC+rtbme5N8ZqF+/RUbNt2e5GN7v5Ikt5x/ysjQkuHVqWV1SlaXmpcmeYbVgK50dJYs/fUkPyoFAAD9ZuboO3+kJKcpAQPj/iTXJHVrSrk27Tr9wM5dn1vooYF9edpc+baUPMWSAJAkNV2wI0FTy7212CoHgK++OOW/1ItW/2y5eHrPYn3PZ152w0ySmSSXf/WvPXK4oCQvS3J2kiOsEHSFH5pZO/bukUu2fF4KAAD6xZe+e/zpJfWNSkCfqrk3JZtTMl3adTpNnV4xfu11ZV3a3XB4Tcl5PqkB4GuvC7V2fpCgDtV7uuNlEoAuceyOO3d9Zx6xY0AnfONwQT3nnOFtx9x5WlPz4lLKWan1JUnGkgxZMlj8+9jUvL0m5xQPbwQAoE8sXVZ/rSbHKAF94baUujHtsjFNvapphjaumNp082P+qUu654Br6nnxXAMAvvq60DSdf7RB027ubZskAODRXpsODxJ8o3LllXNJNu39eleS7HjdqiPa97fOTFNWp+bhr2ILSlgk37pjzejrsmHr+6QAAKDXzawZO7UmP6wE9KTZWjKdmummlq1pWteuvOTarb10AtvWjJ6elGdbSgC+qtR253ckaNf2PYbcAHikmrzqrnNPfsoxV9x0bzcf54r3b3ogySf3fiV5+JEIw0uWvmTvjgUvTfKiJEdZVViA3ytKeduXvnv88md9bPOX1QAAoMf9TpIlMkCXvw1N/q2WXFXbZboM1auya/fGkcu/cGevn1jTlFfa7w+AR73otbtgR4K51p57hofdIwPwKIftPuywiSTv7bUD3/tIhEv3fiVJbls7/tx2u/3y+tWdC5IXJ1lqmeGQHbdkeX1zkh+RAgCAXjU7MXphTb5TCegqrSRfqiXXpmY6pU6X3Xs+vbIPhgb2qeZ8Sw7Ao14Il3R2R4KSJLdPjh451yr3WQ4AHvUiUes/rNyw9Tv68dx2vG7VEe2H8sLSap9VSzkrqS9J8kyrDgelXdr17JWXbv2sFAAA9OT7wwfa1yU5SQ3omD0p2Vra2ZjUja00G4ePLJv27kTZ9+6YOHXlngxtS9K4FAD4qqY2x6/YsOn2Tn3/kiQ1KbMTY7uzd4cCANir3U7zrBPXb9o2CCd7++Toij3tvDi1rE7J6lLzzUmOdhnAft1Ublpx9zNWlyuvnFMDAIBeMjsx/paa+gtKwKLZk5obUzKdkum063Rr+CnTJ019+qFBDbJ97fiPlVp/z6UBwCM98NDO5c+74qZdnfr+w0lSkjqT3BsflgDwaM1QaX9PkrcNwskeN7V1R5LL936lrkuzY/Npp7bbQy8pTc5O6ktTc1qSIZcGPFpNVs0cfeePJPEHHwAA9IyZNWOn1tSfUgIWzH2p9eqkbCxNvarMNRuPv+eY6wyhP1pp17UP/9gnAHzNzk4OEST5+kvT7MTYjTU52ZoA8A2uGVm/5QwZHnb75OiRc3M5I01ZneRlqfm2JMcpA0lq7p1r7Tn1mZfdMCMGAAC9YPvE+D+U1P+gBMzPe8KUbE7JdGnX6TR1esX4tdeVdWmL8/huO3/s+NZwtscPrgDwDbeqI+u3nNjJAxj++mt87rYeAOzD6TteNT6+4qObN0uRHDe19f4kn9z79btJcsv5p4wsGVr6strUl6dmdZIXJVmmFgOn5ClDQ0t+O8mrxQAAoNvNTIy/JoYI4GDf/305Ndc+amhg/bXXlqQ+6p+7RKon016SiVRDBAA85rW245/dDz/if3/ZigCwL3Uor03yi0rs296fvp7a+5WZ81YfnmV7VpdW+6za5OxSy0tr6ohSDMT9bcl/3r5m/IMnbNj8UTUAAOhWd5178lN2pf6WErBfbkmysZRyVWnXjbtbezbaiW4etevaFM81AOAxrw9f6fQhfO3VaWbN+AdT6vdYFQAe+2JRZlYMveCZZWqqpcZBvuM+/5SRoSXDq1PL6pK8LA9/HaYMfWp2V3v4tOdcevVXpAAAoBttXzv++6XW/6EEPPb9XC2ZTs10Sp0e3lM+e/xlW26TZWHMnPf8Z2TJ0tk8+oc+ASBJLh1Zv2VNJw/g6482aHJ3qVYEgMeqqSO3zV37bUn+UY2Ds3dSfybJ5UlSzzlneMcxt59SM/Sy1L2PRCg5NY8Y8oMetnJZM/fmJD8qBQAA3Wb2gtGX1Fp/WAkGXCvJl2rJtV8dGii793x65PIv3CnNIlq6bCK1GiIA4DFK7aJHG5TavttnFwA8npryvTFIMH83AVdeOZdk696vi5Pk9snRFXvaeXFqWZ2S1aXm5UmephY96odmLlz1FyMf2fTPUgAA0DXvbc85Z3h26M4/8TxyBsxcar6QkumUTKddp5sjh65a8f5ND0jT6d+U6oUiALAv7aaLBglS82VzBAA87vua5MKZ81b/+Mjl0w+qsTCOm9q6Iw/vWPDwrgWTk0M72ltfkHZZXUtellpenpIXJGnUogc0abf+7ObXP/v057z3izvlAACgG8wec+cvpuYMJehje1Jz4yOHBlrDT5k+aerTD0nTXbatecExSf4/JQDYl1Lz5U4fw9d3JGhyd/VoAwAe91UrT6lLdp2X5MNiLFLyqalWvr5rwfu++iZzqFlyVq3tlyblpUlekuSpatGlV/Hzl91z5BuSvEELAAA67da1pz4vNb+sBH3kvtR6dVI2lqZeVeaajcffc8x1e3dBpMs1GZrII3/YEwAeoZQuGiRoJ3fbkACAJ37lymtjkKCjTtxw/V1J/nrvV+q6NDs2n3ZqO81ZpebsJC9NclrsWkD3/L7xC9vWjE6duGHrNWIAANApNSkzdfiPk3qYGvToe6svl3bd2E7ZmNSNNcMbTzj9mpvKurTF6dU1La8VAYDH066df7TB12YHtk+MvqykfNKyAPAE9jS1OXHFhk23S9G97jr35KfsPPywl5Sv71pwVpJnKEMH7zivXnnMspeUi6f3iAEAQCfMToy/vqa+Rwl6xI6UelXaZWOSjaUOb1x56dVflKV/zEyc+qxk6ObEA6cB2Lda850nbNjyd508hq/tSNAM5cu1ZVEAeEJL2ml9b5LflqJ7HXPFTfcm+fu9X0mSW84/ZWTJ0NKX1aa+PDWrk7woyTK1WJy73pwxc+euX06yTgwAABbb7ZOjK+Za9e1K0KVma8l0aqZT6vRwmq3HX7L532Xpd0PfG0MEADyBUkvHdyT42iDBUHK3BycB8OSvXuUHYpCg5zzzshtmkkzt/crMeasPz/DOF6Ypqx8eLKjfkpRnK8WC/daR/PLM2rG/Grlky+fVAABgMc21yx8kOVoJusCjhwb2lM8ef9mW22QZyHfJr0mqDAA8rmZJ6Z5HG2ydHF369FbZGVNwADz5q8eLfRjYf2YmTn1Wrc3ZpTRn1dSXluTM2LWA+f29Y/MDD+588fOuuGmXGAAALM77nPHXJPUDSrDIWqm5IcnGpG4saTYuG1569dFT0/dIw8zEqhcm7WklAHgiy4eWPa3T9w5f25FgdGrr7pmJsXuSPM3SAPBEas1/TWKQoM+MrL/uS0m+lORDSXLjuScvO2z5YS9sSvuskvLSmpyd5JlKcfC/eWT8iMOW/2qSXxYDAICFdtv5Y8e3Ut+pBAtsT1K2JHVjqfWqVpqNzdzSa0Yun35QGvaptF6b6uc5AXhCu58+NX1vx1+yHvn/zE6M3ViTk60NAE/intbQUStPmvr0Q1IMljsmTl25uzQvSi2rS/KyPPx1mDIcgLnSri9beenWz0oBAMBCmpkY+0iStUowj/ak5saUTKdkOu063Rp+yrQ/H2F/1XVpZjeN3ZLkBDUAeALbRtZvOanTBzH8Df//HTFIAMCTe2ozd++rsvcn1xkcx66/bjbJ5Xu/vr5rQdovTWm+OalnezPMk91/1lLec/Prn736Oe/94k45AABYCNsnxl4dQwQcmvtS69VJ2VhSN5Z2c9Xx9xxzXbnyyjlpOFizW8a+I/7cBIAnU3JnNxzGNwwSlDuSanEAePLXsVJeH4MEA2/vs+4/vffrt5PklvNPGRlaMry6SV5Wa3l5ktVJlqvFI26ET1t271G/meSnxQAAYL7NnPf8ZyTxSAMOxD1JtqRkurTrdJo6vWL82uvKurSlYV6181oRANiP14vbu+EwHvVog5mJsT9L8oNWB4D9eSmrrTz7hI9uuVUKnsitk2cfNjR37+rSlLNrzTcneWmSFcoMvFprXnHChi1/JwUAAPNpZmJsfZI1SvA4diTZmJqrkmwsdXjjykuv/qIsLPiF97pVR7QfaO9IcqQaADyx+sGR9Vu/t9NH8egdCWq9I6VYGwD2R1OG831J3iQFT2TvsyI/uffr4TfPk6ue056r31xK+6W1lLNTc3oe+8gl+lspJe+5dXJ01UlTW++WAwCA+TC7dvT7azVEwNfckmRjSdlYar1qd2vPxmdedsOMLHRC+/56QYohAgD2Qy13dMNhPPoP7JvmjlSPNgBgf1/M8oM1eXPxXBwO0IqpTTcnuTnJB5Jk5rzVh2d45wvTlNVJXpaab0tynFJ974ShVvmzJBNSAABwqGYvOOPZtT33zvg5qYG9BGrJdGqmU+r08J7y2eMv23KbLHSLkvZ/rX6DAmD/XjS68tEGr0vyPqsDwH5rmm8d+cimfxaC+XbL+aeMLBla+rLa1JenZnWSFydZqkwf3heX+vqVl2z9v0oAAHCw6ro0s9eM/UNKzlGj77WSfKmWXPvVoYGye8+nRy7/wp3S0K12TK56TrvVvilJowYAT35zWy8a2bD1Tzt9GB5tAMAhvn2vP5jEIAHzbu92k1N7v3LH+acctWvpspc07dbZSTk7yUuTHK1UH9wXt8s7d0yu+sTenSoAAOCA7bhm7GcMEfSlPUnZktSNpdarWmk2NnNLrxm5fPpBaegl7Vb9gRgiAGB/ldIVA5KP3pHggvHVaernrQ4AB+DBXe3hE55z6dVfkYLFVJMyu3b8lNrO2aXJ2an17CSneWPesz65cujUc8rUVEsKAAAOxI5XjY+3h+rnkixTo6c9lJRNSd2YWq9KbTZ+eUl78+jU1t3S0Mvq5OTQbOu6LyU5QQ0A9u/Fo37LyIatn+z0YTx6R4Il7TvSsiMBAAfk8KXN3OuS/J4ULKaS1Fyy+fok1yd5T5LcPjl65NxczqhpXpamvrzUnJ3kGLV6wst3tK57Q5JfkwIAgP1147knL2sP1ffHEEGvuS/JppRMJ2Vr2u1rH9i563PPu+KmXdLQb26bu+7cFEMEAOy/VtO+rRuO41GDBK085Y6h3Gd1ADggJbkoBgnoAsdNbb0/ySf3fr2lrkuzY/Npp9Zazi4p31wffhzCC/INuzLRHWryKzMT4/9vZP3mT6gBAMD+OPzw5f87Nacr0dXuTrKxpGxs1/ZVNcMbTzj9mpvKurSlYRC0S35ABQAO6LVj53D3PdogSWYmxu5NcpQlAuBA1NSXn7B+678oQbf70nePP33p8pxda/ulpeabaykvce/TVba169wZJ264/i4pAAB4IjNrR1+RWq6IQeFusiPJxtRclWRjqcMbV1569RdlYVDdPjm6Yq5VbkmyRA0A9tPuleu3LC9J7fSBDD/OzZ4/TAfggJTa/PckBgnoes/62OYvJ/nrvV+pk5NDO9pbX5B2WV1LXpZaXp6SU+MPIzvlxKYMv68mr+yGm2UAALrTjjWrjmvX9nvct3fUbC2ZTs10Sp0eTrP1+Es2/7ss8HV75prvL6UaIgDggG51u+XPRR+7I8Ga0U+klG+xRgAcoIf27Con7P2QFnrazHnPf0ZduuTsUsvZqTk7JS9OcoQyi3qX+lMjl2z5XSEAAPhGNSmzE2NXJHmFGovmgVLrv7ZL+WRp8ql2a27aLmKwP79XjV6flOerAcAB+NzI+i0v6YYDGX7si1uZNcYLwEE4bMnS+rok75SCXjdy+RfuTHL53q/Uc84Znj367lWlts6upZyd5Owkz1VqAdW8ZWZi1T+PrN+0UQwAAB5px8TYz8QQwUK7M6X+S9J8oknrX46/67jpcuWVc7LA/pudGP+WpBoiAOCAlIefHtAVHjNIUJrssIksAAf3ClcuikEC+vHSfvgPzDbu/fqDZO9zDtvNS2u7fnMpOTvJi5IsV2veLEvaH7rj/FNWH3vZDffJAQBAksysHXtRrXmzEvOs5oZa6qdL8i9lKJ9aMbX1ukdvqXutRnDg/2H9oAYAHPCrRyndO0iQlFmPowXgIF/iRmfWjL58ZMPWT2pBvztuauuOJJfu/Uq9aPWS2+566IXtNC8tNWfX5KVJnqXUIXne3PCSi5N8jxQAANxx/ilHzdX8RU2WqnFIHkzy+dT6qdrkU2X3nk/v3ZUNmCd3T65+6s7WrguVAOBA1XZ7tluO5bE7EtTsMEYAwEF7eFcCgwQM3qV/8fSeJJ/Z+/W7ycO7FuyZa84qpb4k+dquBUepdQA3zsl/2b52/F9OuGTz76sBADDY9gwP/3GSk5U4YNtqzadKk0+VVv30iuOWX7X3/QuwQHa1d70myeFKAHCgmqZ7diQo3/gXZtaOviK1/I1lAuAgPdQaqieeNLX1bing0erk5NBtczec2irts0opZyX1pak5LcmQOk9od1Pa37rikms/IwUAwGCamRj/oaT+sRJPai7J1Sn5VG3XT6dd/uWEj265VRZY7N+zxqaTvFAJAA7CxMj6LRu64UAesyNBu50dTbFCABy0w4Za+b4kvyMFPFqZmmol2bL3611Jcvvk6JGtWl7UbpWzSqkvTXJWkpVqPcrSdm3+ctuaF7zwxA3X3yUHAMBg2b72tDNTq/eY+3Z3kk+n5NOl5F/KYc3nVrx/0wOyQOdsWzN+dlINEQBwUNq1e3YkeMwgwZJW2dEatkgAHJIfqcnvlsTTcuBJHDe19f4kV+79SpJsf9XYSc1QPaumfHWw4IWxJeIzm7Lkz+u6fHdZl7YrBwBgMOx9zvhUkuVqpJWSa1Pz2VryqdLOp1du2HK9997QXZrS/rF9bAYNAPtleLiLH21Q16WZ3TS2K/sYMgCA/X6BaZf/tPLSzVcoAYeunnPO8Mwxt4+XdnNWSl6U5EVJRgfxfq2U8saVl2z+dVcFAMAA3AcnZXZibCrJ2gFNsC0ln621fqapzWeGhtvTeweRgS51++ToirlW+VKSpWoAcDBaQ0cdftLUpx/qhmPZ51jc7MT49po6YqkAOAR/PbJ+y3fLAAvj1smzDytz959RSn1RSV6cmtUpeUGSps9PvV1rvuuEDVv+zlUAANDfZtaO/WTqgDw2r+beWsrnS+pnUspn5/bs/uwzL7thxlUAvWV27fiv1lp/TQkADtJXRtZveXq3HEx5nJv0z6dmtbUC4BC0W6X1gpMuue5GKWBx3HH+KUftGV56ZkpelHZelFJflOTk9N+eineW9vCLV1569RetOgBAf9qx9rSz2rX5RPrzp3rnkrI5pX6mtstnm6b12RXj117nEV7Q2+pFq5fsuHP3F/2QJgCH4PqR9VtO7ZaD2ed2uDWZ9QQfAA5RM9Qe+h9JfkoKWBzHXnbDfUk+sfcrSXLzBWc8belQ60UleVFq/epjEZ7V46f6jNq01s+ct/rlI5dPP2jlAQD6y441q45r1/ZU+maIoH6xpHym1vqZWvLZ9tBTNj5mu9pLrDv0upk7d02UxBABAAd/15jSVTtS7XOQoCTbLBUAh6zkB+469+RfPeaKm+4VAzrjOZde/ZUkf7/3K0ly9+Tqp+6c2zmepqxOzeq9j0U4rcduq8/Mkp1/muR7rTIAQP+o55wzPJs7P5zkpN48gdybks0pmS7t8smmVT9x/GVbb7Oy0P9K8uMqAHBoryW1qz6jH973DW/d3n874ALQAUftPmzZa5P8oRTQPY6emr4nySf3fiVJ7pg4deXu0rwotaxOyepS8+Ikx3f5rfVrZtaOT49csvkdVhUAoD/MHn3X25Kc0yOHO5eaL6RkOqV8sqT1LytWeUQBDKJtF4yekeRlSgBwqC8p3XQw+360QW22l1ItFQCHrCY/WZM/KokXFuhix66/bjbJ5Xu/kiS3nH/KyNCS4dWPGC44K8mx3fWbTH3rzNrRrSOXbP24VQQA6G0zE+OvSepPdfEhztaS6bTLJ0va/9Iafsq0RxQASTJUyo/7gy8ADlVJ3d5dx7MP29eM/cdS8reWC4D5UEv5jydcsvnvlYAe/285KdsmR7+paZXVTcoLa+qZSV6Y5JgOH9qdpT384pWXXv1FqwQA0Ju2rRk9vSnlU0kO75JDuiXJdJLPp9TpVpPPnTS19W4rBTz2968XHNOU4VuTHKYGAIei1nLBCRs2f7RbjmefOxI0w3V7bXm0AQDzo6n58Tzi+exAbypJzdTWm5LclOTDX/3rM5Ojz0y7eWFtt89MU15Yas5McsIiHtozatNaP3Pe6pePXD79oJUCAOgtt06OHt20yvp0uLW4yAAAgABJREFUbojg1iTTSZ1OzefL8NLplVNX3WFlgP16r1yGfjCGCACYj9eU2l2PNtjntMBd5578lF2HLb/HcgEwT1rNUPO8FVObbpYCBsOONauOa6f1wpRyZkrOTM0Lkzz38e4/5+nOdmrlJVte7VEqAAC9o05ODs22rvtYklcs0rfcXlL27jSQ6WZPnT7+si23WQng4H8Pu/ampDxbDQAO1fBQXXnc1NYd3XI8j/sHuTMTY/cmOcqSATAvb6xKfuuES7b8vBIwuO469+Sn7Fq+bFWasjo1q1NyWmrGkyydt99rkl87Yf2WdWoDAPSGmTWjb08pP7NAv/xsLZlOzXRKnV5a258/dv11s6oD8/Z72NrxC1LrBiUAmAe7V67aclhZl3a3HNATDRJcl+QF1gyAeXrF+fJwU5953NTW+8UAvnbPed7qw5sle1a1a/uMlJyRlDOSOp6D39a21lpfc8KGrR9SFwCgu21fM/5fS6nvnq9frpZc9dWhgdaeuelnXnbDjMrAgr6nnRj7uyTfoQQA8+BLI+u3PLubDmj4Cf7ethgkAGC+1Dx9rl1+MMnvigF81cjl0w8m+de9X19zy/mnjAwtGV6dWlanZHWpOS0PPxrhyZRSynt2rD3t5hWXXPsZhQEAutP2C8e+ubTrHx3kv/6onQaWNPlcN20BCwyGmTVjpyb5diUAmCe3dtsBPf4gQS3bUzxeFoB5VPPT9Zxz/qBceeWcGMAT2fvTYzNJLv/qX9uxZtVxrbRPT6lnluT01HJGSp6/j3va5e3abNg2seolJ67ftE1NAIDuMjNx6rPSzoYky57kH50rybW1lqvS1KtSy1XLHnro6mOuuOleFYGOK/nxPMGuzwBwYC8r2d5tx/QEOxJUf+gKwHx71swxd0wm+QspgAO1YsOm25P83d6vh+9YL1q9ZMddDz0/7bK6NmV1Ht654MwkK5vUy3a8btW3rHj/pgfUAwDoDrdOnn1YWvd9JMlx3/C39qTmxpRMp2Q67TqdueUbVz68gxVAl/1eNnp0Wvk+JQCYL+3SQzsSlCbbqw0JAJhnpZafi0ECYL5+T7l4ek+SrXu/3pckNSm3XzD23HbTPrP1UDk9yaeUAgDovJqU2fZ9f57k5CT/L7VelaZcVdK+akUzen2ZmmqpBPSC4VbzP2rqEUoAMF9Ku8503evdE9zZ32LJAFgAL9x24apvP/Ejm/5BCmBBbrqTmku3/FuSf1MDAKB73H3uyUcNpfz88es3//tj/+61AgE94ebXP3t5vbf+DyUAmFdN9302//g7ErTKLXXIlgQALMDrYbv980kMEgAAAAyQY6646d4k9yoB9LJl9xzxupQcrwQA86t8qduOqHm8v7Fk90NfsmAALJBXbLtg9AwZAAAAAOgVNSlJ+SklAJhvpVnSO4MEeyeEv2LZAFiQF6Cm/IwKAAAAAPSK29aMfXdKTlMCgHn20Iqpq+7stoNqnuTv25UAgIXyX2YmR58pAwAAAAC9oJ38rAoALIAvlaR220E98SBBqV+0bgAskCW1XX5cBgAAAAC63czEqhem5BwlAFgAXfnD/U84SFBqucW6AbBQSs0P3XzBGU9TAgAAAIBuVmv7F1UAYIFeZXpvkCAebQDAwjpq+dDcf5cBAAAAgG5129rx55aStUoAsDBKLw4SVIMEACysWn7qxnNPXiYEAAAAAN2oVesvJBlSAoAFUdKVTwmwIwEAHVVTR448fPkPKAEAAABAt7nt/LHjk3y/EgAsmHb9Yjce1hMOEpQ6ZJAAgAVXa35p6+ToUiUAAAAA6Cbt4fIzSZYrAcBCqe0efLTB8Rs23ZHkQcsHwAI76emtfJ8MAAAAAHSLu849+Sk19YeUAGABzY3c84zZbjywJ96RIKlJdz6TAYB+U36pnnPOsA4AAAAAdINdhy3/H0meqgQAC6duK1deOdeNR9Y86T9R6s0WEIBF8NwdT7/jNTIAAAAA0Gk3v/7Zy5P8uBIALKSa5t+79diaXj54APrsBbPkl+vk5JASAAAAAHTS8vuO/K9JVioBwEIq6d4f6n/SQYKm2pEAgEV7yXz+TPva/6wDAAAAAJ1SL1q9pNb8vBIALIJ/69YDe/IdCUr5N+sHwGIptfxKXbcfj94BAAAAgAUwc+eu70vyHCUAWGg16d1HG7RSPdoAgMV06o5NoxMyAAAAALDY6uTkUEl+UQkAFkPTxZ/FP+kgwbLGIAEAi/yGLc06uxIAAAAAsNh2tK99bZLnKQHAYmjVVu8OEhw3tfX+JLdbRgAWTx2duWb8PB0AAAAAWCx1cnKotssvKQHAIrnnxA3X39WtB7dfP+3Zzc9mAKA/lZI31qQoAQAAAMBimG1d/+qUnKIEAIvk37r54PZrkKDE4w0AWGz1zB1rx8/VAQAAAICFVtelSa2/rAQAi+jmbj64/Xz+dGOQAIDFfwOX+ut2JQAAAABgoe24ZnxtSk5TAoDFUlJ6f0eCWj3aAIAOqFm9Y2J0rRAAAAAALJSalFrsRgDAIr/+1Nr7OxI0MUgAQMfeyL2pnnPOsBIAAAAALITZtaMTSU5XAoDFVJPe35GgVbp7WwUA+ll5/szT73qdDgAAAADMt7ouTWpZpwQAi224y58KsF+DBCes37Q9yQOWE4BOKKW+8cZzT16mBAAAAADzaWbz6KuTjCkBwCLbfdxXnvGlbj7A/RokKEktXb61AgB97VlHLF/+QzIAAAAAMF/q5ORQqeVXlACgA/69XHnlXDcfYLO//2BN+YL1BKBjSt5wx/mnHCUEAAAAAPNhx9y135vkVCUAWGwlubHbj7HZ/3+03mhJAeigY/csWfITMgAAAABwqOrk5FBN+V9KANCR16Fa+2eQoNZikACADr+y5udvnRw9WggAAAAADsVM67rXp+QUJQDojNJHOxKUtkcbANBpTx2ay8/LAAAAAMDBqhetXlKSX1YCgE5pUr/Q/ce4v//g0FKDBAB0Xik/eevk6ScIAQAAAMDBmL1j1w8meY4SAHRKq91HOxKsnLrqjiRfsawAdNhhTavl+XUAAAAAHLCbX//s5Sl2IwCgox4aOXPL9m4/yOYA//kbrSsAnVaS/37bBWPfpAQAAAAAB2L5PUf+WJITlQCgY0puKuvS7vbDPNBBAo83AKAbLGk1eaMMAAAAAOyvuydXP7WW/E8lAOiwnvjh/QMaJCh2JACge3zvzAXjq2UAAAAAYH/snNv180mOUQKAjmrXnvjh/QMaJGiXakcCALrnNazU35IBAAAAgCezY82q41LyE0oA0Gm1KX24I0EdusHSAtA1Ss7Zvmb8VUIAAAAA8ERapf3GJEcpAUDH1doTn7kf0CBB9iy5Pknb6gLQLUqpb986ObpUCQAAAAD2ZcfkqueU5L8pAUA3qLV1fS8c5wENEoxcPv1gklstLwBd5Jue3i4/IgMAAAAA+9Keq29K4gdRAOgGt5+44fq7euFAm4P4d663vgB0mTduW/OCY2QAAAAA4JFuXTu2KqW+WgkAusR1vXKgBzFIUK6zvgB0lZqnNxn6X0IAAAAA8EhDtbwlB/dDlQAw/0o/DxL00MkBMEgvvuXHbp0cPVkIAAAAAJJk9sKxc5L6XUoA0EV6Zvf/Ax8kqB5tAEBXWjrULm+RAQAAAICalNrO25QAoKv0844EZWjYjgQAdOs7xIltF676diEAAAAABtvsxNhrk7xICQC6Sd3Tx4MEK6euuiPJnZYZgK58YWvXt9V1nnsHAAAAMKhufv2zlyf5DSUA6DL3j3x0y7ZeOdiD/aDF4w0A6FL1zB3XjL5WBwAAAIDBtOzeI386ybOUAKDLXF+S2isHe3CDBKV4vAEAXauW8uYdr1t1hBIAAAAAg2XmvOc/I8kvKgFAF+qpz9jtSABAPzqhPlh/VgYAAACAwVKWLHljkqcqAUAX6qnP2A9ukKDdvtY6A9DNaq0/f8v5p4woAQAAADAYtq05/fk15YeUAKBL9f+OBLVdtlpnALrckcPDw2+TAQAAAGAwNKX1liRLlACgG7XrUE99xn5QgwQnfHTLrUm+YrkB6G7lNTvWjP4HHQAAAAD628zE+LcmuUAJALrUzhOGn/9vvXTAzSH8u3YlAKDrtUvzznrRapPoAAAAAH2qJiWpv6UEAF3s2jI11eqlAz6UQYIt1huAHngrObrjzl0/oQMAAABAf9oxMf79SV6sBABdrOc+Wz/oQYJqRwIAekRN3njr5OknKAEAAADQX+44/5SjauqblQCgm9XUnvtsvTn4f7HakQCAXnHUUGvurTIAAAAA9Je54aVvSLJSCQC6WdNuNvfcMR/sv1j37NlsyQHoHeU1O9aM/gcdAAAAAPrDbReMfVNN/UklAOh27VoH59EGI5d/4c4kt1l2AHrmhTrl9+pFq5coAQAAAND72k15R5JlSgDQ5e4Z+eiWbb120M2h/MulerwBAD2k5LQdd+76CSEAAAAAetu2C1d9e009XwkAesCWktReO+hDGiSoKQYJAOgpNXnjrZOnn6AEAAAAQG+q55wz3LTbv6MEAD2iJz9TP6RBghQ7EgDQc44aas29VQYAAACA3jR7zJ3/I8mYEgD0gpps7cXjbg7tXx4ySABADyqv2bFm9D/oAAAAANBbbp0cPTo1v6IEAL2iSR28HQmaodaWJG3LD0CvaZfmnfWi1UuUAAAAAOgdQ+3ypiTHKAFA77x4LR28QYLjprbeX5J/t/oA9J46uuPOXT+hAwAAAEBvmJlY9cLU/HclAOgh21dOXXVHLx54c6i/QE252voD0Itq8sZbJ08/QQkAAACA7lbXpSlp/36SITUA6CFX9+qBN4f+S7Svsf4A9Kijhlrt35EBAAAAoLvNbhr9gZqcrQQAPaZnP0s/9B0JSgwSANDD6oUza8cv0AEAAACgO906OXp0Ut6sBAC9ppQBHiQojUECAHpcrX948wVnPE0IAAAAgO4z1MpvJjlWCQB6Tas9dHWvHvshDxKMTG29JcldLgMAetjKpUOt/y0DAAAAQHeZWTv2oqT8NyUA6EEPnHD6NTf16sE38/Kr1Gx2HQDQy0qtP7J9YvRlSgAAAAB0h7ouTWr+IPP1WQYALObrWLK5rEu7V49/fl58S7napQBAj2tKyp/deO7Jy6QAAAAA6Lwdm8d+KMlLlACgF5Xkml4+/kYEAPiaFxx52GG/IAMAAABAZ21b84Jjas1vKAFAryrFIEHapWWQAIC+UFN/eXZy9DQlAAAAADpnqAy/LckxSgDQq1rt3t7Vf14GCR58cPe1Sfa4HADoA8vqXP64JkUKAAAAgMW3/cKxb67J65UAoIe1l7V2b+nlE5iXQYLnXXHTrpRc73oAoC+U8i2zE+MXCQEAAACwuOpFq5eUdv4kfsgDgB5Wkn8/9rIb7uvlc2jm7Vdql40uCQD6511rfeutk6efIAQAAADA4pm9c9fPJxlTAoAeN93rJzBvgwS11GnXAwB9o+QpQ63W7woBAAAAsDhunRw9OckblACg5xWDBI/8lQwSANBv1s6sHb9ABgAAAICFN9Qqf5TkMCUA6HWt0vT8bv7zNkhQdi27OsmcywKAvlLrH958wRlPEwIAAABg4cyuHf3+JN+hBAB9oNbSuqrXT2LeBglGLp9+MCk3uC4A6DMrlzZzb5IBAAAAYGFsW/OCY2otb1MCgD5x80lTW+/u9ZNo5veXqxtdFwD0m5L88Mya0ZcrAQAAADD/mjL8jiTHKgFAfyh98Zn5/A4SlEy7MADox/ezKeXim1//7OVSAAAAAMyfbReu+vYkr1MCgP5RDRI8RrsaJACgX5269L4jf0MGAAAAgPlx47knL2ta7T9IUtQAoG80/fHD9/M6SDA8nKuTtFwdAPSjUvMzMxPj36oEAAAAwKE74rDlb0zJKUoA0E9KWXJVX5zHfP+CMxNj1yY51SUCQJ+6MXuWnTFy+fSDUgAAAAAcnB2vGh9vD9XpJEvUAKCP3DKyfsuz+uFEmgX4NTe6PgDoY8/L0l2/KQMAAADAwannnDPcHqrviiECAPpNyef75VTmf5Cg1mlXCAD9/W43PzZ74dg5QgAAAAAcuNlj7vq5JC9WAoA+1Dc/dD//gwRDQ593fQDQ55razrtvnxw9UgoAAACA/TezdvwFqfWNSgDQl9r980P38z9IsGvJdJI5VwkAfe45c+3yNhkAAAAA9k9dlya1/mmS5WoA0I8vde20PtcvJzPvgwQjl08/mGSr6wSA/r8lyA/NrBn9LiEAAAAAntzsNaM/meTlSgDQp246ccP1d/XLyTQL8quW8lnXCQADoKSUP/vSd48/XQoAAACAx7djctVzUsqvKwFAH+urz8gXZpCg3f6c6wSAAXHC0qX1t2QAAAAA2LealHarfXGSI9UAoG+V9NVn5AsySNDus2kLAHjCN8MlPzC7dvw/KQEAAADwWDsmRn8kyXcoAUA/a2rzmb46n4X4RU8YPm1LkgdcLgAMilrrn906OXq0EgAAAABfNzNx6rNqyv9RAoA+t2fP0BHX9NMJLcggQZmaaqXWja4XAAbIyqFW+R0ZAAAAAB5p6E+SHKUDAH3umpOmPv1QP51Qs4C/9udcLwAMmNdtXzP+KhkAAAAAku1rx34gySuUAGAA9N1n4ws2SFBL+azrBYBBU0r90x1rVh2nBAAAADDItk2sOrHUvF0JAAZBSf99Nr5ggwRDQ41BAgAG0bG1tN8pAwAAADCo6ro0TdrvS/I0NQAYCENtgwT7a8XUppuT3OGqAWDg3iwnr94+MfZqJQAAAIBBNHvN6E8m+f+UAGAg1Ny7YnTr9f12Ws0C//p2JQBgIJWSP9r+qrGTlAAAAAAGyezk6Gkp5c1KADAoaimfL+vS7rfzWuBBgvqvLh0ABvPOIU8vTf1AnZwcEgMAAAAYBPWcc4Zrq7w3yXI1ABgUJflUP57Xgg4SNLU/owHA/t09lG+Zmbv+54QAAAAABsHs0Xf8apIXKwHAICkln+7H81rYHQmOHPpMkjmXDwCDewNRf2P2gtGXKAEAAAD0s5kLxlcn5X8qAcCAqXX3rs/244kt6CDBivdveiAlW1w/AAywJWnKB26fHD1SCgAAAKAf3fz6Zy9Pk/+bZIkaAAyYG0Yu/8Kd/XhizYJ/h9qfWzkAwP6/FObkuXZ5mxIAAABAP1p+75FvTeqoEgAMmpL+/Sy8WYTvYZAAAGp+ePua8VcJAQAAAPSTbReu+vaa/JgSAAyiWqtBgoM11M6nXEIAkJRS/+yOiVNXKgEAAAD0g7snVz+1abffnaSoAcAgKk3t28/CF3yQ4PhLt/xbkttdRgCQZ+zJ0HuqN9cAAABAH9g5t/uPkjxTCQAG1D0rxq+9rl9PrlmU71KqxxsAwMNeMbt27CdkAAAAAHrZ7NrR70+p36MEAAPsX8u6tPv15BZlkKC2G4MEAPC1F8a8Zdua0dOFAAAAAHrRbWvHn1vb5Z1KADDIStLXn4EvyiBBGSqfcikBwNcsa1I+eOvk2YdJAQAAAPSSes45w3O1fiAlT1EDgEHWrunrz8AXZZCgVY74fJI9LicA2KvktKG5+35TCAAAAKCXzB5956+V5KVKADDg2ocNL/tsP59gWaxvNDMx/q9JPcs1BQBfU0ty3sr1Wz4mBQAAANDtZi5c9S1pt/9fkiE1ABhw14ys33JGP59gs3jfqn7S9QQAj1Jq8u7bzh87XgoAAACgm918wRlPS7v95zFEAACppfT9Z9+LNkhQa/lnlxQAPMZxrSX1PXURdwkCAAAAOFDLm7k/TvJMJQAgSa19/9n3og0SlLld/5KkuqoA4BtvOMq5sxPjFwkBAAAAdKOZteMX1eTVSgDAw2qaf+n3c1zUn36cWTO2NSWnubQA4DEeTCmrRy7ZfL0UAAAAQLeYWTv+gtQ6neRwNQAgSfLvI+u3fFO/n2SzqN+t1E+6rgBgnw5PrVMz5632phwAAADoCjeee/Ky1HwwhggA4Otq+edBOM1FHiQYjKgAcJDGsmTnb8sAAAAAdIMjDl/2m0k9UwkAeITSHogfnl/UQYLSGrYjAQA88avlRTNrxr9XBwAAAKCTdqwZe2Vq+SklAODR6tDQQPzwfFnsbzgzMXZLkpNcYgDwuO6vQ82LTpjadIMUAAAAwGLb/qqxk8pQrkpyjBoA8Ch3rFy/5fiS1H4/0WbRv2MtdiUAgCd2ZNNq/+Wtk2cfJgUAAACwmOpFq5eUoXwohggA4LFK/nkQhgiSDgwSlKb+sysMAJ7kTXuyarh171uVAAAAABbT7J2735rkm5UAgH2og/NZ9+IPEszZkQAA9ut+JOXHZtaMTSgBAAAALIYda8ZemdSfVAIAHkcZnM+6F32Q4PgzN29NcperDAD256Yk79oxueo5QgAAAAALafaCM57dbvK+JEUNANin+1be9YyrB+VkF39HgnVpJ/mE6wwA9svT2q32h7dOji6VAgAAAFgI9aLVS9LMfTA1T1cDAB7XP5crr5wblJNtOvJda650nQHAfnvx0+fymzIAAAAAC2H2jl1vq8nZSgDA46up/zRI59uRQYJWY5AAAA5IKT89s3b8AiEAAACA+bRjzdgrU/ITSgDAE2vag/UZd0cGCU68ZMvmJHe63ABgv5Wkvnv2gjOeLQUAAAAwH2YmR5/ZLvm/SYoaAPCE7lvxlWM3DtIJd2SQoCQ1JZ9wvQHAAah5em1aH6oXrV4iBgAAAHAo6kWrl5RW+VCSo9UAgCf1z+XKK+cG6YSbTn3jmvL/XG8AcMCvoGftuGvnb+gAAAAAHIqZO3f9Tk3OVgIAnlwpg/VYg6SDgwRDc/knlxwAHLhayy9sXzt6nhIAAADAwZhZM/69JflRJQBgP9V65aCdcscGCY7/6OYtSW531QHAASullnfdOnn6CVIAAAAAB2LbmtHTU+rFSgDAfrtvxd3HXjVoJ92xQYKS1CT/7LoDgINy7FCr9cE6OTkkBQAAALA/vvTd409vSlmf5HA1AGC/faJceeXcoJ1008lvXku50nUHAAftW2db175RBgAAAODJ1HVplixvfyDJc9UAgP1XSv5pEM+76ew3b/0/lx4AHNItzC9vXzv+HToAAAAAT2R20+i61HKuEgBwgGq9chBPu6ODBCsuufbaJLe7+gDg4F/LS60f2Dax6kQpAAAAgH3Zvnb0vKS8QQkAOGD3rLj72KsG8cQ7OkhQklqSf3T9AcAhOa5J/cjWydGlUgAAAACPdOvaU59XanlfkqIGABygUq8sV145N4in3nT6AGrqP7gCAeCQX1HPOrqVt+sAAAAAfNWO1606YqgOrU/yNDUA4MDVWgb2s+ym84fQ/juXIADMww1Nyo/Nrh39fiUAAACAJGk/0P7DJGNKAMDBKTV/P7Dn3g0HMTMx9m9JnutSBIBD9lAt7ZedcMm1V0kBAAAAg2tmzehPp5R3KAEAB6ekzKxcv/mEQT3/pjsOo/69SxEA5sVhpTYfvnty9VOlAAAAgME0MzH+rSnlLUoAwMGrA/4ZdlcMEpQyuM+WAIAF8LxdrV3vr12y8xAAAACweGYmTn1WUqeSLFEDAA5eqXWgP8PuikGCVnvuH5K0XY4AMD9qct7MmvFfUAIAAAAGx+2To0eWDF2W5Dg1AODQtMrQPw7y+XfFIMGJG66/KyWbXI4AMH9KqW+euXDsO5UAAACA/leTsmeuvKsmq9QAgEN+Yb32xPWbtg1ygqZ71iJ/74oEgHl+nW/n/dsmVp0oBQAAAPS32YnRXysl/1kJADh0peQfBr1B1wwSlHb9B5ckAMy745rUj2ydHF0qBQAAAPSnmTVjE0l5gxIAMD/atRgk6JojmVv+iSS7XJYAMN/qWUe38nYdAAAAoP9su2D0jJS8L0lRAwDmRWt3HfqnQY/QNYMEI5dPP5jkX12XADD/asqPzUyMv0YJAAAA6B+3T46uaJpyWZIj1ACA+VGTzz3n0qu/Mugdmi47nr91aQLAgt3+/Nn2taedqQMAAAD0wbv8i1YvmWuVDyc5SQ0AmFcfl6DbBgnaxaIAwMI5rNTmw3dPrn6qFAAAANDbZu/c9YdJvlUJAJhftfrMOumyQYKVZ2y+KsntlgUAFszzdrV2v696biIAAAD0rNmJsZ9N8t+UAIB595UTvnzM52ToskGCsi7tpP69ZQGAhVNTz5+ZGP15JQAAAKD3zFw49p01+T9KAMBCKH9frrxyTodue7RBklI9cwIAFvz1NuVNsxOj/58SAAAA0Dtm1oydmnY+nGRYDQBYALX9tyI8rOsGCYaG87dJqqUBgAU1XFM+tG1i1YlSAAAAQPebOe/5zygllyV5mhoAsDCa4SG753+1Rbcd0HFTW3ck2WRpAGDhX3ZL2lNbJ0eXSgEAAADd69bJsw8rS5ZeVpOT1QCABXP9iqlNN8vwsKYbD6qU+jeWBgAW4TU3eenTWuW3lQAAAIDuVNelGWrd/76anK0GACygEo81eITuHCRoWyQAWLx7o/zozNrxi5QAAACA7jNzzdj/SeqFSgDAwiqt4ofdH6ErBwnuGs4nk9xveQBgkdT6+zMT498qBAAAAHSP7RNjP1hKfl4JAFhwu8pR5RMyfF1XDhKMTm3dneSfLA8ALJolSf3LbROrTpQCAAAAOm9m7egrSvLHSgDAovjnFe/f9IAMX9d064HVYusIAFhkxzdpX3Lz65+9XAoAAADonFvXjq1Ku/xlkmE1AGDhlZK/VeHRunaQYKgpH7M8ALDoXrLs3iMvlgEAAAA6446JU1cO1VyekqeoAQCLpf3XGjxa1w4SrJjadHNqbrBEALDoXjezduwnZQAAAIDFNXPe6sP3ZOjSJM9UAwAWza0rL7l2qwyP1nT30VWTHwDQCTVvn1kz+l1CAAAAwCK9FV+XJkt3fjDJS9QAgEX1VxI8VlcPEtQ0BgkAoDOGUsoHbrtg7JukAAAAgIU3u3nst1PLq5QAgMXV1PhMel9duvngvtK0P5HkPssEAB1xdKvJJTtet+oIKQAAAGDhzKwZ/enU/IQSALDodrbnlv2jDI/V1YMEo1Nbdyf5e8sEAB1zevuB9vtrUqQAAACA+bd9zeh/SSm/pQQAdECp/2/k8ukHhXispvsPsdpKAgA6a83sxNgvyQAAAADza8ea0f9QSnlveuLP6gGg/9Q0Pot+HF1/c7Ik7Y8lqZYKADrqN3asGXulDAAAADA/ZtaOvahdykeTLFMDADpjuFWvUGHfun6Q4Nj1182m5BpLBQCdvWdol3xwdu1po1IAAADAobntgrFvSs1fJTlSDQDomOuPv3TLv8mwb72xXVI7H7NUANBxR9Va1t98wRlPkwIAAAAOzuzkmce2mlyR5Hg1AKCjfAb9BHpikKAOxbMpAKArlOcva+Y+VCcnh7QAAACAA3PXuSc/pbb2/E2S56kBAJ3V1Ooz6Cfq0wsHOVJO/UySuywXAHSFV8y2rvt1GQAAAGD/3Xjuyct2HnbYhiQvVAMAOu6+u4bzSRkeX08MEpSpqVZsLQEA3eSXtk+MvVoGAAAAeHJ1XZrDly9/X0n9D2oAQBco+ZvRqa27hXh8Te+sZb3ccgFA97w0l+Q9MxeMr5YCAAAAntjspvG3l5L/rAQAdIkanz0/iZ4ZJBgayt8k2WXJAKBrHJamXjI7eeaxUgAAAMC+zawd++Wk/pQSANA1Wtmz+woZnljPDBIcN7X1/iRXWjIA6CrPqnO7L6kXrV4iBQAAADzazNqx16bmN5QAgK7yyZHLv3CnDE+s6aWDLamXWTIA6LYX6PIts3ft+i0hAAAA4OtmJsbWpOY9SYoaANA9Ss1fqfDkemqQYG5o+KNJqmUDgC5T8xOzE6M/KgQAAAAk29eOf0eSv0gyrAYAdJdWhvzw+n7ouUnImYnxjUk909IBQPfdfzU1F6zYsMU0JwAAAANr25rxs5tS/zbJkWoAQNe5fmT9llNleHJNrx1w9XgDAOhWQ+2SD+541fi4FAAAAAyibWtGT2+a+rEYIgCArlRSfNa8n3pukKC0y+WWDQC61lHtofZlt50/drwUAAAADJLtk6tOaUr5eGqergYAdKda2z5r3k89N0iw8tLNG5Nss3QA0K3Ks1vD+auZ81YfrgUAAACD4LYLxr6padV/TGKwHgC6110rv3zsv8qwf3pvR4KkpsSzlwGgu70oS3b/37qu9+41AAAA4EBsm1h1Yqupf19TR9QAgK72sXLllXMy7J+e/MP90vLsCgDofvXC2U1jb9UBAACAfrVjzarjmrT/LinPVgMAultJ9ViDA9CTgwT373roH1Nzr+UDgK73szNrxn5CBgAAAPrN3ZOrn9pu2n+d5AVqAEDX2zk8N/dxGfZfTw4SPO+Km3aVkr+2fADQA0p+e2ZibI0QAAAA9IuZ81YfvnNu5+WpWa0GAPSAUj9+7GU33CfE/uvd5xaXbLB8ANAz9xsf2LZm/GwpAAAA6HVbJ0eXZsnuS1LKt6gBAL2hxGfLB9GsN91x/ilH7RlecnuS5ZYRAHrC7SX1v9R24/FEAAAA9KzS5Fdr6vlKAEDPmGvXuRUnbrj+LikO4J6nlw9++9qxy0vNKy0jAAAAAAAAAPvw9yPrt/xHGQ5M0+PHbwsKAAAAAAAAAPappPpM+SD09CBBbc99NMmcZQQAAAAAAADgG9RWhi6T4cD19CDBiRuuvys1n7SMAAAAAAAAADxSTT5z4vpN25Q4cE0fnIOtKAAAAAAAAAD4Bh5rcLB6fpCgXZr1SaqlBAAAAAAAAOCrah2+VIWD0/ODBHu3opi2lAAAAAAAAAAkSUo2n7jhmi8IcXCaPjkPW1IAAAAAAAAA8LBaLxXh4PXFIEGrtKYsJQAAAAAAAABJ0tShv1ThEPr1w0mcdMl1Nya5xnICAAAAAAAADLr6hRUbNm3R4eA1fXMmJXYlAAAAAAAAABh4jd0IDrVgv5xIuz1kkAAAAAAAAABgwLVK9dnxISr9dDIza8c2pWbcsgIAAAAAAAAMpBtH1m95vgyHpumnkym1mCwBAAAAAAAAGFw+M54HfTVI0B4qnnUBAAAAAAAAMKDabY81mA+l305oZmJsc5IxSwsAAAAAAAAwUP59ZP2Wb5Lh0DX9dkKleLwBAAAAAAAAwAD6sATzo+8GCdpNcXEAAAAAAAAADJzmIxrMj9KPJzUzMb4lqaOWFwAAAAAAAGAg3Lxy/ZZvKkmV4tA1/XhSJdXjDQAAAAAAAAAGREmZMkQwf/pykKA91HzI0gIAAAAAAAAMhla7/RcqzJ/Sryc2MzG+MalnWmIAAAAAAACAvnb9yPotp8owf5p+PbFa82HLCwAAAAAAANDfSmLH+nnWt4MEZbj9F/EMDAAAAAAAAIC+Vmv+UoX51beDBCNTW29J8mlLDAAAAAAAANC3No5s2HKdDPOr6euz83gDAAAAAAAAgL5ViscaLIS+HiQYHq5/maRlmQEAAAAAAAD6Tk1reEqG+dfXgwTHTW3dUWq90jIDAAAAAAAA9J1Prbz06i/KMP+afj/BGo83AAAAAAAAAOg3pda/UGFh9P0gwZ7dzUeS7LbUAAAAAAAAAH2j1bTKR2RYGH0/SPCsj23+cpK/s9QAAAAAAAAAfeMfj79sy20yLIxmIM6yFltaAAAAAAAAAPSJWvIhFRbOQAwSNEeWS5Pcb7kBAAAAAAAAet7O3a3h9TIsnIEYJFjx/k0PpOZSyw0AAAAAAADQ22rNZc+59OqvKLFwmgG6nD5guQEAAAAAAAB6XPHZ70IbmEGClcOn/V2SHZYcAAAAAAAAoGfd/ZWh/I0MC2tgBgnK1FQrpf6FJQcAAAAAAADoWR8endq6W4aF1QzU2bYaW1wAAAAAAAAA9KjqkfaLogzaCc9MjG9J6qilBwAAAAAAAOgpX1q5fstzSlKlWFjNwJ2xxxsAAAAAAAAA9KD6PkMEi2PwBglq68/j4gIAAAAAAADoKWUoH1JhcQzcIMHI+uu+lFo/aekBAAAAAAAAesbnV05tvVaGxdEM5FmX5gOWHgAAAAAAAKBXVJ/xLqKBHCRYPrT0Q0kesvwAAAAAAAAAXW9u2GMNFtVADhIcPTV9T6253PIDAAAAAAAAdLeSXHHc1NYdSiyeZmBPvCn/1/IDAAAAAAAAdLdaqs92F9nADhKsuOuYv00y6xIAAAAAAAAA6Fp3P/Dgrr+SYXEN7CBBufLKuVryAZcAAAAAAAAAQHcqqR983hU37VJicTWDffLt97oEAAAAAAAAALpTLR5Z3wkDPUiw8pJrt6Zk2mUAAAAAAAAA0GVqrh25ZMvnhVh8zcBfezUmWAAAAAAAAAC6TGnyXhU6Y+AHCdpD9QNJPFMDAAAAAAAAoHu0WrX5Cxk6Y+AHCU6a2np3Sj7mUgAAAAAAAADoGh8/cf2mbTJ0RiNBUmv1eAMAAAAAAACALlGKR9R3kkGCJCPPWH5FktuVAAAAAAAAAOiwki/vPOr+y4ToHIMEScrF03uSvF8JAAAAAAAAgM6qKR98znu/uFOJzjFI8NWLcaj50yRVCQAAAAAAAIBOar1Lg84ySLDXCVObbijJvyoBAAAAAAAA0Bkl2XTCJddepURnGSR4hHZisgUAAAAAAACgU2q9WITOM0jwCENHNB9Kcp8SAAAAAAAAAItu5+7dzQdl6DyDBI+w4v2bHkjyl0oAAAAAAAAALLpLnvWxzV+WofMMEnyDdi0ebwAAAAAAAACwyEqqz2q7hEGCb3Dihs2fTs21SgAAAAAAAAAsmptXrNr6TzJ0B4ME+1BK3q0CAAAAAAAAwCIpeVdZl7YQ3cEgwT606tx7k+xSAgAAAAAAAGDBtetc3idD9zBIsA8nbrj+riR/pQQAAAAAAADAgvubEz665VYZuodBgsdT65+JAAAAAAAAALDgfDbbZQwSPI6VG7Z+PMm/KQEAAAAAAACwYHasfMYyu8V3GYMEj6MkNcm7lQAAAAAAAABYKOXPysXTe3ToLgYJnsDwUH13EhctAAAAAAAAwPxrl/bQu2ToPgYJnsBxU1t3pORyJQAAAAAAAADmWakfX3np1V8UovsYJHjSizd/IgIAAAAAAADA/KrtxmexXcogwZNY+ZEtf1eSm5QAAAAAAAAAmDezI8cu/WsZupNBgidRklqTdysBAAAAAAAAMD9qrX9aLp7eo0R3MkiwH4bm8u4kLmIAAAAAAACAQ9cupe2HubuYQYL9cPxlW25LykeVAAAAAAAAADhkV4ysv+5LMnQvgwT7qZb8iQoAAAAAAAAAh6aW6rPXLmeQYD+NXLL5H0pykxIAAAAAAAAAB23bSHPaX8vQ3QwS7KeS1CR/rAQAAAAAAADAwSkpF5epqZYS3c0gwQHY2R5+V5IHlQAAAAAAAAA4YHv2zO1+lwzdzyDBAXjOpVd/pSQfVgIAAAAAAADgwJTkkmdedsOMEt3PIMEBapf276kAAAAAAAAAcGBqyh+p0BuKBAduZmLsM0leogQAAAAAAADAfqi5duWGLWMlqWJ0PzsSHIRS6h+qAAAAAAAAALB/SpPfN0TQOwwSHIT7H9z1oSS3KwEAAAAAAADwpO5b+uDOD8jQOwwSHITnXXHTrpLyXiUAAAAAAAAAnlgt5X3HXHHTvUr0DoMEB3uxZ+4Pk7SUAAAAAAAAAHh8Q3P5ExV6i0GCgzSy/rovJfkbJQAAAAAAAAAe1z+t+OjmzTL0FoMEh6CU8ocqAAAAAAAAAOxbKfGZag8aluDgrRjf/Dc7No3dVJOT1QCAx/Une3aVX5IBAACAfrNkaX1jSn5SCQDYt5Iys+KYpRuU6D0GCQ7lwl+X9sya/F5KflcNAHgcNTuf9bHNXxYCAACAfjO7dnRnrUUIAHgcNfUPysXTe5ToPR5tcIiWtPa8J8k9SgAAAAAAAAB8zUPZs/tiGXqTQYJDdOxlN9yXWt+lBAAAAAAAAMBX1fePXP6FO3XoTQYJ5kNpvzNJSwgAAAAAAACApFXKH6jQuwwSzIOR9dd9KSUfVQIAAAAAAAAYeDV/e9IlWzYJ0bsMEszbfwzld0UAAAAAAAAABl1pfHba6wwSzJOR9Zs/keTzSgAAAAAAAAAD7MYV45v/RobeZpBgHpVSf18FAAAAAAAAYFCVkt8u69JWorcZJJhHdzf5iyQ7lAAAAAAAAAAGTsmXy+HN+4TofQYJ5tHo1NbdJfljJQAAAAAAAIBBU1IvXvH+TQ8o0fsMEsy3oSV/mGSnEAAAAAAAAMAAmatN/lCG/mCQYJ6tnLrqjpL8hRIAAAAAAADAoCjJJSNTW29Roj8YJFiI/0hq844kVQkAAAAAAABgELRq+V0V+odBggWwYsOmLUmuVAIAAAAAAAAYAJ8/ccPmT8vQPwwSLJBq4gYAAAAAAAAYALXUd6jQXwwSLJCR0zdfntQvKAEAAAAAAAD0q5IyM3LM8o8o0V8MEizUfzDr0k4pf6gEAAAAAAAA0K9q6u+Xi6f3KNFfDBIsoCV79rw7yT1KAAAAAAAAAH3ooXadu1iG/mOQYAEde9kN96XUdysBAAAAAAAA9KH3nbjh+rtk6D8GCRZYaS15Z5KWEgAAAAAAAEAfqan5XRn6k0GCBbby0qu/mOQyJQAAAAAAAID+UT4+smHLdTr0J4MEi/GfUC0mcQAAAAAAAIC+Udp5pwr9yyDBIli5YfM/JeUzSgAAAAAAAAB94LoVZ2z+uAz9yyDBIimlvkMFAAAAAAAAoNeVUt9S1qWtRP8ySLBIVjSnXlKSm5QAAAAAAAAAetj2u5v8hQz9zSDBIilTU63U+jtKAAAAAAAAAL2qJL89OrV1txL9zSDBIqpzy9+T5A4lAAAAAAAAgJ5Tc++yoWV/JkT/M0iwiEYun36wJH+gBAAAAAAAANB76h8ePTV9jw79zyDBIpsbqr+X5AElAAAAAAAAgB6ya64193syDAaDBIvspKmtd9dS3qsEAAAAAAAA0EP+/JmX3TAjw2AwSNABQ015e5I5JQAAAAAAAIAeUMtQfYcMg8MgQQesmNp0c0kuUQIAAAAAAADoeqVetnJq67VCDA6DBB1S2+VtKgAAAAAAAADdrtb4bHPAGCTokJFLN0+XWv9BCQAAAAAAAKCLfeqE9Vv/RYbBYpCgg1pDQ7+pAgAAAAAAANCtSvJmFQaPQYIOOvEjm/6hJJ9WAgAAAAAAAOg2Jdm0Yv2Wv1Zi8Bgk6LBayltVAAAAAAAAALpNu9T/U5KqxOAxSNBhKy/Z/NEkW5QAAAAAAAAAusi/j9x17JQMg8kgQYftneCxKwEAAAAAAADQPUp5S7nyyjkhBpNBgi6wcujUDyb5NyUAAAAAAACALrBj11H3vU+GwWWQoAuUqalWSX2HEgAAAAAAAECnleS3nvPeL+5UYnAZJOgSO5/ywLuTzCoBAAAAAAAAdNDdw3N7LpZhsBkk6BLPee8Xd9ZaflcJAAAAAAAAoFNq8nvHXnbDfUoMNoMEXWT5zof+KCVfVgIAAAAAAADogAfKnt2/LwMGCbrIMVfcdG9q9R8mAAAAAAAAsPhq/ZORy79wpxAYJOgyu9pL3pHkK0oAAAAAAAAAi2jnXGvu7TKQGCToOs+59OqvpOYPlAAAAAAAAAAWS0n+9JmX3TCjBIlBgq7UGq7vSHKfEgAAAAAAAMAi2FPTshsBX2OQoAudNLX17iS/rwQAAAAAAACw4EreNbL+ui8JwVcZJOhS7Tr39tiVAAAAAAAAAFhYe5qmeasMPJJBgi514obr70qtf6AEAAAAAAAAsFBKzftXTG26WQkeySBBF2un9VuxKwEAAAAAAACwMFqtDL1FBr6RQYIuduKG6+8qKX+kBAAAAAAAALAAPnjihmu+IAPfyCBBl6t7dr0tyf1KAAAAAAAAAPOolVLeLAP7YpCgy41c/oU7a8kfKwEAAAAAAADMl5JMjVyy+Xol2BeDBD1gqN28LckDSgAAAAAAAADzoF1q8yYZeDwGCXrAig2bbk/sSgAAAAAAAAAcupJMrdiwaYsSPB6DBD1iaC5vS/KgEgAAAAAAAMAhaJdWsRsBT8ggQY84/rItt6XUP1ECAAAAAAAAOGi1fHjFRzdvFoInYpCghww3eWvsSgAAAAAAAAAcnFZSf0MGnoxBgh5y3NTWHan5UyUAAAAAAACAg/ChkQ1brpOBJ2OQoMcMD9f/k+QhJQAAAAAAAIAD0Eop/1sG9odBgh5z3NTWHSl2JQAAAAAAAAAOyAdHLtl8vQzsD4MEPWhJbdmVAAAAAAAAANhfrTrUvEkG9pdBgh507PrrZkvqu5QAAAAAAAAAnlQtf37C1KYbhGB/GSToUcNpvzl2JQAAAAAAAACeWKud5s0ycCAMEvQouxIAAAAAAAAAT6bU/N8TN1zzBSU4EAYJetnQ0l9Pcp8QAAAAAAAAwD7srMP112TgQBkk6GErp666I8nvKQEAAAAAAAA8Rql/NDK19RYhOFAGCXrc8qFlb01ytxIAAAAAAADAI9zftIf+jwwcDIMEPe7oqel7ai1vVQIAAAAAAAD4qpq8fcWGTbcrwcEwSNAH2sNHvjPJNiUAAAAAAACAJHcuf2jnO2TgYBkk6AMnTX36oVLyZiUAAAAAAACAlPKbx1xx071CcLAMEvSJFccs+7OS3KQEAAAAAAAADK6SMtNqjvwjJTgUBgn65TeEi6f31JQ3KgEAAAAAAACDq6b9xpOmPv2QEhwKgwR9ZOWqzR9KydVKAAAAAAAAwEC6ceXdx75XBg6VQYI+Utal3bTzK0oAAAAAAADA4CklbyhXXjmnBIfKIEGfWbFhy18l+SclAAAAAAAAYHCUZNOK8S0fUYL5YJCgH9X6BhEAAAAAAABgcNRaf7GsS1sJ5oNBgj40smHrJ5PyN0oAAAAAAADAQPjkyIatPh9k3hgk6FOtUn8xMXEEAAAAAAAA/a7UYsdy5pVBgj510iVbNtUaz0ABAAAAAACAPlZL/mrlhs3/pATzySBBH2s3rTck2aMEAAAAAAAA9KV2bdVfkYH5ZpCgj510yXU3ppT3KgEAAAAAAAD9qH7oxEu3Xq0D880gQZ+b27N7XZIHlQAAAAAAAIC+sqc1lDfKwEIwSNDnnnnZDTNJ/kgJAAAAAAAA6CMl7zppautNQrAQDBIMgHad+83U3KsEAAAAAAAA9IWd7dq8SQYWikGCAXDihuvvKk15uxIAAAAAAADQ+0rKO09cv2mbEiwUgwQDYqhpvyPJDiUAAAAAAACgh5V8eW6o/RYhWEgGCQbEcVNb70+tv6oEAAAAAAAA9K5S86aTprberQQLySDBAFk5fNq7U7JZCQAAAAAAAOhF9Yv3P7Tz93VgoRkkGCBlaqrVtOtPKQEAAAAAAAC9p9b80vOuuGmXEiw0gwQDZsWGrf+Y5ONKAAAAAAAAQE/53MiGrR+WgcVgkGAQ1fx0kjkhAAAAAAAAoDc0tf7PklQlWJTrTYLBM7Jhy3Up5T1KAAAAAAAAQA8o9aN7dx6HRWGQYFAXvl3ekJp7lQAAAAAAAICu1ipN/pcMLCaDBANqxYZNt6fJW5UAAAAAAACArnbxyqmt18rAYjJIMMBazVHvSHKLEgAAAAAAANCV7h8eqr8uA4vNIMEAO2nq0w8leYMSAAAAAAAA0I3qW46b2rpDBxabQYIBt3L9lj9P8nklAAAAAAAAoKtsb44Y+m0Z6ASDBAOuJLXU8nNKAAAAAAAAQBep5RdXvH/TA0LQCQYJyMoNm/8ppX5UCQAAAAAAAOgG5TMrN2z+oA7/P3t3HqXnWdD//3M9z2TpijRdZiYJUCy2ZZKwRFRksaxaoUsSRtlls4isoiwiYpGfCIK4gAJVtIAgfqczE1qwKqhFQRAIbTMzXaDQQpulLW2hW7Z5nuv3B25AKU0yy7O8Xudw4HD4632Yua/77mfum8ViSECSpNkqv55krxIAAAAAAACwqGpq+zdKUqVgsRgSkCQ5bvP0V0vyXiUAAAAAAABg8ZTk74YnZz6tBIvJkID/sXdP+Z0kNysBAAAAAAAAi2J32gO/KQOLzZCA/3Hfj0/dUpI3KwEAAAAAAACL4h1Dmy+5RgYWmyEB3+XmZn1nSa5SAgAAAAAAABbUDct27X6rDHQCQwK+y8jYzN7U8jolAAAAAAAAYOHU5HUrLrzqViXoBIYEfJ+hyamxJJ9WAgAAAAAAABbEpcPNk8+VgU5hSMAP+D9G41VJqhIAAAAAAAAwv0rqr5WxsZYSdApDAu7S4MTWz6XmQ0oAAAAAAADAPCoZG5qY+Vch6CSGBPxAAwP1VanxHRYAAAAAAACYH7tKa+DVMtBpDAn4gY4dm9mZRvl9JQAAAAAAAGA+1DcPbb7kGh3oNIYE3K1bGu13JPXLSgAAAAAAAMCc+tqeI+94uwx0IkMC7tbI2MzemrxKCQAAAAAAAJg7tdRXHH/uNbuVoBMZEvBDrZyYOT8p/6AEAAAAAAAAzIlPrByfuUAGOpUhAfdMra9Msk8IAAAAAAAAOCh7a7PxUhnoZIYE3CPDk9OXp9R3KQEAAAAAAAAHodZ3rBzbeqUQdDJDAu6xZXfuOTvJTiUAAAAAAADggOxctnvP78tApzMk4B5bceFVtyb1t5UAAAAAAACA/VdLfeV3/pkbdDZDAvbL0LqZv0ryRSUAAAAAAABgv/zb8PjMR2SgGxgSsF/K2Wmn5EVJ2moAAAAAAADAPdJq1/qyklQp6AaGBOy34fHpLyb5KyUAAAAAAADghyup7141OXOpEnQLQwIOSKtZX5Pkm0oAAAAAAADA3bqpVVtny0A3MSTggKwem7m5lLxBCQAAAAAAALg79bWrJq+4SQe6iSEBB2xw7fR7k3xeCQAAAAAAALhLXxpaN+OT4XQdQwIOWDk77ZS8OElbDQAAAAAAAPgutZHGi8vZ/lka3ceQgIMyPD79xSRWVAAAAAAAAPB/lOTcwYmtn1OCbmRIwEFrNetrknxTCQAAAAAAAEhSc+tAWr8lBN3KkICDtnps5uZS8gYlAAAAAAAAIEmpv3PMxOU7hKBbGRIwJwYbJ5+Tki1KAAAAAAAA0N/KzNDRy/9MB7qZIQFz8+twbKyV5FeStNQAAAAAAACgT9WS9kvLOVv2SUE3MyRgzgyPT38xJdZVAAAAAAAA9Kv3DU3M/KsMdDtDAubUkn37Xp/kOiUAAAAAAADoM9/Mvr2/KQO9wJCAOXXM+VfelpqXKwEAAAAAAEBfKfm14Qu+/E0h6AWGBMy54cnpiZJyvhIAAAAAAAD0iU8NjU9/SAZ6hSEB86I22y9NcrsSAAAAAAAA9Lg9KeVXSlKloFcYEjAvhsdmvlGSs5UAAAAAAACgl5WU3xsen7pCCXqJIQHzZrB58h8n+ZISAAAAAAAA9Kb65dt37foDHeg1hgTMmzI21krJC5O01AAAAAAAAKDH1EbNix5w4VV7pKDXGBIwr4bHp79YUt+tBAAAAAAAAD3mrwYnZ/5FBnqRIQHzbumuPb+VZJsSAAAAAAAA9Iibsm/va2WgVxkSMO9WXHjVrSX1FUoAAAAAAADQI35t+IIvf1MGepUhAQtiaGLmvJJyvhIAAAAAAAB0uU8NTUz/jQz0MkMCFkxttl+a5HYlAAAAAAAA6FJ7UsqvlKRKQS8zJGDBDI/NfKOU/K4SAAAAAAAAdKNSypuHx6euUIJeZ0jAghq86eg/SsrFSgAAAAAAANBd6pd3H3HbH+hAPzAkYEGViy6aLWm/MElLDQAAAAAAALpEbdS86Phzr9ktBf3AkIAFNzQx84VaynuUAAAAAAAAoBuU5NzByZl/UYJ+YUjAolh+567XJdmmBAAAAAAAAB3upjSXvEYG+okhAYtixYVX3VpKXqkEAAAAAAAAnayU+utDYxffqAT9xJCARTM0Pv3/knxcCQAAAAAAADpRTfmXwfGZDyhBvzEkYFHNzu47K8m3lAAAAAAAAKDD3Nlutl9YkioF/caQgEV1n/Ov3J5aX60EAAAAAAAAHaXkdavHZq4Sgn5kSMCiG5qc+cvU/JMSAAAAAAAAdIKSfHaocfK7lKBfGRLQCb+Ia0rrrCS3qQEAAAAAAMAi25NmfUEZG2tJQb8yJKAjDE9c/vVayuuUAAAAAAAAYDGVkt8eGpu5TAn6mSEBHWN47dSfJ/mUEgAAAAAAACyOcvHgTUf/kQ70O0MCOufX8tlpN5qN5ya5XQ0AAAAAAAAW2N5GLc8uF100KwX9zpCAjjI4tvXqlPI7SgAAAAAAALCw6psGJ7dO6wCGBHSgobVTf5zk00oAAAAAAACwQC4dOnr5W2WA7zAkoOOUs9OuzcYLkuxWAwAAAAAAgHk2m3Z5fjlnyz4p4DsMCehIK8e2XplS3qgEAAAAAAAA86v+/vDmqS06wP8yJKBjDd204u1JvqAEAAAAAAAA8+TyPUfe8WYZ4LsZEtCxykUXzabml5LsUQMAAAAAAIA51q6NvOD4c6/xuW34HoYEdLThyenLSylWYAAAAAAAAMypkvL2ledN/4cS8P0MCeh4gzeteHOSLykBAAAAAADA3Khfnm0efrYOcNcMCeh45aKLZtu1Pi/JPjUAAAAAAAA4SO00mi9YPfbZXVLAXTMkoCusmpy5NDV/oAQAAAAAAAAHpeadw+dt/Xch4AczJKBr3LF795uSTCsBAAAAAADAganXDAzU1+sAd8+QgK7xgAuv2lPa9flJWmoAAAAAAACwn2qt5axjx2ZulwLuniEBXWVo88zna8kfKQEAAAAAAMB+es/KyelPyAA/3IAEdJt244g3NFu3PTnJSWoAdL5aytrtm9aepQQAAAA9d89b64NVAOgaVy+Z3fcaGeCeKRLQjbZvXPfQpP25JEvUAAAAAAAA4G60Sy2PHZqc+pQUcM/4tAFdaXhi65eS+hYlAAAAAAAAuDul1LcZEcD+MSSgaw3dfMzvJvmCEgAAAAAAANy1MrP7iDvO1gH2jyEB3ftr/6KLZlPzS0l2qQEAAAAAAMD32NMq9enHn3vNbilg/xgS0NWGJ6cvLzVvUAIAAAAAAID/qyS/tXp8eqsSsP8MCeh6gw+afkcS37UBAAAAAADgv316sHnyH8sAB6ZIQC/YObru+HarfWmSI9QAAAAAAADoYzW3prTWDU9c/nUx4MB4IwE9YXBs69VJeZUSAAAAAAAA/a006suMCOAgf44koFfUpOzYuOZjSX5eDQAAAAAAgD5U6keHx2fOFAIOjjcS0DvXhaTOzu775SQ3qQEAAAAAANB3dpbG0l+WAQ6eIQE95T7nX7k9iQsEAAAAAABAn2nU/PLQ2MU3KgFz8PMkAb1meGJ6MrW8XwkAAAAAAIC+8d7ByemPyQBzw5CAnjQw0H5JSa5SAgAAAAAAoOd9bcnsvlfJAHPHkICedOzYzO3t1OckaakBAAAAAADQs9ppNJ5zzPlX3iYFzB1DAnrWyomZz6TmLUoAAAAAAAD0qvLm4fO2/rsOMLcMCehpQ7ccfXZS/lMJAAAAAACAXlMuvqXZfpMOMA8/XRLQ664dHTmh2SoXJzlcDQAAAAAAgJ6wp9EqDxv86NSUFDD3vJGAnrd6bOaqUvJqJQAAAAAAAHpEyWuMCGD+GBLQFwbHp99TSz6mBAAAAAAAQHcrtf7z0NrpdyoB88eQgP64oCR1YF9ekOR6NQAAAAAAALrWze12eW45O20pYP4YEtA3jjt/+vo08uzEhQUAAAAAAKArlfL8lR+dvlYImF+GBPSV4fOm/6nW/KESAAAAAAAA3aWW8mfD41OblYD5Z0hA3xk+Ztlv1eRzSgAAAAAAAHSLMtNuHP4qHWCBfuIkoB9dv2nt/VvtenFKjlQDAAAAAACgo+1ulfzk6vHprVLAwvBGAvrSceNTXyuN/LISAAAAAAAAHa7WlxkRwMLyRgL62vYNa89Nqb+kBAAAAAAAQEcaH56YfooMsLC8kYD+/gE4vLw4yRVKAAAAAAAAdJxrW816lgyw8LyRgL6384y1a9vN+vkky9UAAAAAAADoCLO1kZ9Zed70f0gBC88bCeh7gx+dmkrqbyoBAAAAAADQMX7HiAAWjyEBJBmamPmTknK+EgAAAAAAAIvuU0PNk98qAyweQwJIUpJa9+15fknZrgYAAAAAAMCiuXF2dt/Ty9hYSwpYPIYE8F+GL/jyN1Pz9CQuTAAAAAAAAAuv1tQX3Of8K/3hJywyQwL4P4Ympz6VmrcoAQAAAAAAsMBK/eOVEzM+RQ0dwJAAvsfQLUefneQzSgAAAAAAACyQkqk9R9zxOiGgU34kge+z7Yw1q0szlyQ5Sg0AAAAAAIB5dUdK+fHh8akrpIDO4I0EcBdWfnT62pR6lhIAAAAAAADzq5T6YiMC6CyGBPADDI/PjKeUv1ACAAAAAABgftSa/zc0PvN+JaCzGBLA3dhzxG0vK8lWJQAAAAAAAObcV5fv3v3LMkDnMSSAu3H8udfsTmk/PckuNQAAAAAAAObMvkYaz1xx4VW3SgGdx5AAfoih8ctmUuvLlQAAAAAAAJgjJa8anNj6OSGgU39EgXtk28aRvy4pz1ECAAAAAADgIJT60aHxmQ0lqWJAZ/JGAriH9h55x4uScrESAAAAAAAAB+wryxvLf8mIADqbNxLAfrh2dOSEZqt8Mcm91AAAAAAAANgvu9vt+vBVm2cukQI6mzcSwH5YPTZzVa3ll2IlBwAAAAAAsF9KyouMCKA7GBLAflo5OfXRpPyJEgAAAAAAAPdUPWdoYupcHaA7GBLAARg6eumrk3xaCQAAAAAAgB/q0lbzyFfIAN2jSAAH5rqN61Y10v5SkmPUAAAAAAAAuEvfapay/rjxqa9JAd3DGwngAK2a2Hpdo9anJmmpAQAAAAAA8H1qkucZEUD3MSSAgzA4OfMvJXmTEgAAAAAAAN+j1rcOT0xPCgHdx5AADtLguuk3pdQLlQAAAAAAAPgfnxq65ZjflgG6kyEBHKRydtqtRp6Z1GvUAAAAAAAAyPWzs/ueXi66aFYK6E6GBDAHVo/N3Fza+cUke9UAAAAAAAD6WKuW8sz7nH/ldimgexkSwBwZ2jzz+dS8SgkAAAAAAKBf1Vp+a+X41CeVgO5WJIC5tX3Dmg+m5JlKAAAAAAAA/aSWfGx4fPr0klQ1oLt5IwHMsYGB+qLUXKYEAAAAAADQR75e27PPMSKA3mBIAHPs2LGZ2+tAY2OS29QAAAAAAAD6wJ60y6ZVk1fcJAX0BkMCmAcrx7ZeWUt9oRIAAAAAAEDPK+Vlw5untggBPfRjLQHMn+0b17wniUEBAAAAAADQo+qHhydmnqED9BZvJIB5tOfI21+R5AtKAAAAAAAAvaYkWxuHNc9SAnry5xuYTzduPHloNgNfrKnDagAAAAAAAD3i5mY7P3Hc5umvSgG9xxsJYJ4dM3H5jnajjibZqwYAAAAAANADWqVdnmlEAL3LkAAWwMrzpv+jlLxCCQAAAAAAoOuV8uqhzVMXCgE9/GMuASyc7RtH3psU3woCAAAAAAC61YeGJ6afKQP0Nm8kgAU0dPTyl6TWf1cCAAAAAADoOiWXZN8yfzAJffHjDiyoG0ZHBmdb5QtJVqkBAAAAAAB0iZsazcbDBse2Xi0F9D5vJIAFduzYzM6kcUaSXWoAAAAAAABdYLY08hQjAugfhgSwCIYntn4pyQuVAAAAAAAAOl0t5deGzpu+SAnoHz5tAItox8aRd9aUlygBAAAAAAB0qA8OT0w/WwboL95IAIto8OZjfi01FykBAAAAAAB0oC+1mkd4wzL0IW8kgEV23YaTVjTKwBeSHK8GAAAAAADQIa5vp/Hjqya2XicF9B9vJIBFtmryipva7boxyZ1qAAAAAAAAHWBfUn7BiAD6lyEBdIBVm2cuSS1nKQEAAAAAACy6Ul4yPDH1b0JA/zIkgA4xPDn1oSR/qAQAAAAAALBoSt4zPD51jhDQ3wwJoIMMNU9+TUq9UAkAAAAAAGChleSzd9y5+xVKAEUC6CzXjo4c1WyVzyf5UTUAAAAAAIAFsmN2dt+P3+f8K7dLAXgjAXSY1WMzN6fmtNTcqgYAAAAAALAAdpd2PdOIAPhvhgTQgYYnpy9PyXOSVDUAAAAAAID5VJOXDG2e+bwSwH8zJIAONTwxPZnk95UAAAAAAADmTcmfrpyYfp8QwP81IAF0rqF107+9Y+uaE5NsUgMAusanknqlDABAX6rlfil5ohAA0CVKvXCo8cBXJtNaAN/960EC6GzXjj78kGbr9n9N6k+qAQBdoNazhidn/kIIAKAf7dg48pSaMqYEAHSBmsuWDyz76aPGtnxbDOB7+bQBdLjVY5/dtSSzG5JcqwYAdIPS1AAA6Fft6g2oANAlvtmsOd2IAPhBDAmgCxwzcfmOdruenuR2NQCgs9VG8fAcAOhbxVkIALrB7nYtpx+3efqrUgA/iCEBdIlVm2cuKaX8YpKWGgDQuUpte3gOAPTxWciQAAA6XE0tL1g1OfVZKYC7Y0gAXWRofOrvS81rlQCAzuXhOQDQz2qMKgGgk5VSzh6enPqQEsAPY0gAXWZocvrtSf5SCQDoTD5tAAD092HIWQgAOvhC/eHB8ak36QDcE4YE0IWGjl72q6XWf1YCADrwlrzW5SoAAH2rUQ4VAQA60heyb/kvl6RKAdyjo70E0H3KOVv2Ld29Z2NSZtQAgA67TieHqwAAOAsBAJ2jXtOczWnDF2y5UwvgnjIkgC614sKrbm2WnJ7kRjUAoKN4eA4A9K+aw0QAgI5yW6PVOP2486evlwLYH4YE0MWOG5/6WhqNTUn2qAEAHcLDcwCgj7WLsxAAdJBWo+bpgx+dmpIC2F+GBNDlhs/b+u8l5VeUAIAOUbyRAADo46NQ21kIADrmulzrywcnpz+mBHAgDAmgBwxNTJ1bSn2rEgDQETfpR6gAAPTxYciQAAA64ZKcvHNocubPlAAOlCEB9IjB8ZnfLMnfKQEAi6s2yo+oAAD07Vko5d4qAMCi+8fBm49+pQzAwTAkgB5RkjrbPOK5ST6vBgAsopqjRQAA+lUj1VkIABZTzWV72gNPLRddNCsGcHBne6BnrB777K4laZ2Z5Fo1AGDRrJAAAOhX1VkIABbTN5s1px+/+ZJvSQEcLEMC6DHHTFy+o5b2GUnuUAMAFsXhVz/nfstlAAD6lCEBACyO3e1aTj9u8/RXpQDmgiEB9KCV45ddXJJfTNJSAwAW3sAd9/IAHQDoOzeefuIRSQwqAWDh1dTyglWTU5+VApgrhgTQo4Ympj+eWl+lBAAsvDI769vAAEDf2TfQOEoFAFgEJb89PDn1ISGAuWRIAD1seHLmj1LqHykBAAt8yG6W41QAAPruDJQlQyoAwAIr5S+Gx6d/Twhg7s/3QE8bGp/59dT8jRIAsHBqzSoVAIC+OwOl5QwEAAvr40M3rfhVGYD5YEgAPa4k9ZaB+vxS6z+rAQALdcguHqIDAH2nxpgSABbQFxqHNX6xXHTRrBTAfDAkgD4wMjazd+nuPRtLslUNAJh/tbZXqgAA9N0ZqBRnIABYGF9t1MaTBz+49Q4pgPliSAB9YsWFV90622z+fJJvqAEA880bCQCAPjwBtQ0JAGABfLNVWqcOTm69QQpgPhkSQB9ZPXbptlLaP5+SW9QAgPlTvNYXAOhLbWcgAJhfdzbSOG31+OVfkQKYb4YE0GeGxi+bKe2yIckeNQBgftSa+6kAAPSdUu4rAgDMm1at5emDE1s/JwWwEAwJoA8NTU59qia/lKStBgDMg5Ijr9tw0gohAIB+8ZVTT1gWb2UCgHlTUl+2cnLqo0oAC8WQAPrUyonpvyslr1UCAObHQKNxggoAQL84bPny+8ezRgCYFyU5e2hi5s+VABaSwz30saHx6bcl5Y+VAIC5167NH1UBAOgXtVGNKAFgfrxvaGL6jTIAC82QAPrc0LqpX0/KeUoAwNwqiSEBANA/Z592DAkAYO79/dDNR/+KDMBiMCSAfr/RPzvtW5rtZ9SUf1EDAOZOrYYEAEAfnX0aDWcfAJhbXxxo1l8sF100KwWwGAwJgIyMzew9pLl0Y0qm1ACAuVFLPVEFAKBflOrsAwBz6GvN2Tz52LGZ26UAFoshAZAkOWpsy7fbtfHzSa5VAwAOXknW1KQoAQD0iTUSAMCc+GZtNn7+uPOnr5cCWEyGBMD/WDWx9brGd8YE31IDAA7a4Ts2nnwfGQCAXnft6MhRSQaVAICDtqs2csbKsa1XSgEsNkMC4LsMTm6dLo1sSLJHDQA4OCVNf5kHAPS8ZqvhzAMAB6+V5Bkrz5v+DymATmBIAHyfofOmL6q1PidJVQMADly7Fg/VAYCeV9J25gGAg1RLecXwxPSkEkCnMCQA7tLKyZmP1NTXKgEAB66keqgOAPS8dsqICgBwMOqbVo5PvUsHoJMYEgA/0MqJmT8opb5VCQA44NP2g0QAAHpdSR6sAgAcmJr8+fDEzBuUADqNIQFwtwbHZ34zqecoAQAH9DTggTufte4wIQCAnj3ujI42E+NJADjAK+mHh9dNv1QHoBMZEgB3qyR1aN3Mi0ryETUAYL81W7vaHqwDAD3r+r1XPDCJ4SQA7Kda8rGho5c/p5ydthpAJzIkAH6ocnbag0cve3aSv1cDAPbzOtrKj6sAAPSqVsNZBwAOwH80D208tZyzZZ8UQKcyJADukXLOln2t5hFPSa3/rgYA7M9FNOtFAAB6VsNZBwD206V72gNPGvzg1jukADr7qA9wD60e++yuPXXJ6UkuVQMA7qni4ToA0LMatT5UBQC4x64ozSVPOH7zJd+SAuh0RQJgf+0YfcgxdXbfv6fkRDUA4Idq79tTjr7vx6dukQIA6CVfOfWEZYcdsvxbSZarAQA/1HVJ65HDE5d/XQqgG3gjAbDfhsYuvrG284Qk31ADAH74mXvpkvyUDABArzls+bKHxYgAAO6JG1PKE4wIgG5iSAAckJUfnb62XZtPSHKDGgBw92qpj1ABAOi5M04azjgA8MMvmLemXU4dHp+6QgygmxgSAAds1eSlXy6pT05ymxoAcDdKHikCANBrGsaSAPDD7Eoppw1vntoiBdB1530JgIMxNDHzhZJ6RpLdagDAD/QTM6MjS2UAAHpFTUqNzzcBwN3YV5LR4Ympf5MC6EaGBMBBG5qY+dday1OTzKoBAHfpkBWt5kNlAAB6xY5Na09McowSAHCX2kl5ztDE9MelALqVIQEwJ1ZOTn00Jc/9zgEJAPhe7bQfowIA0CtKu/04FQDgB6m/Pjwx9WEdgG5mSADMmeHx6b8ptb5MCQD4fqVWD9sBgJ5RS3G2AYC79lvDEzN/LAPQ7QwJgDk1NDnzZzV5oxIA8N1qKY+4dvThhygBAHT9uWZ0tJmSU5QAgO9WkncOT0y/WQmgFxgSAHNu5cT02an1HUoAwHdZ3mjf/ggZAIBud3175sdTc28lAOC7fGBwYvrlMgC9wpAAmBdDkzO/UWr+SgkA+F++JQwA9IJ2Go9XAQC+y+ahm49+fkmqFECvMCQA5kVJ6uAtR78wyaQaAPDfp+/yBBEAgK7XjiEBAPyvf7xj1+6nlosumpUC6CWGBMC8KRddNHtLsz61JBeoAQBJah567eiDVgoBAHSrm0fX3yslPtcEAElS6783DmtsesCFV+0RA+g1hgTAvBoZm9l7c7M+JcnH1QCAlEar9XMyAADdaldrz88lWaIEAOQzAwP5+cEPbr1DCqAXGRIA825kbGZvq3nEaE35FzUA6HcleZIKAICzDAB09fXws0tm95167NjM7WoAvcqQAFgQq8c+u6vsW3paai5SA4A+98Srn3O/5TIAAN2mnp1Gkp9VAoD+Vi7eu6c86Zjzr7xNC6CXGRIAC2b4gi13Ng5vPDnJv6kBQB87bNnthz9aBgCg22yfXvNTSY5VAoA+dmmr2X78fT8+dYsUQK8zJAAW1OAHt96xbNfu05J8Xg0A+lWt5XQVAIBuU9p5sgoA9O11MNnarrOPWz02c7MaQD8wJAAW3IoLr7p1eXPZE5N8UQ0A+lGpddN/vRoYAKB7zjDJqAoA9KWaK5vN+rOrJq+4SQygX3h4CSyKo8a2fHtPe+AJSb6kBgB9aHDHpSM/LQMA0C2uO3PkwTU5QQkA+tBXZlv7Hnvs2MxOKYB+YkgALJrjN1/yrdJc8nNJptUAoO+UxiYRAIBu0SjlKSoA0Ie+nrSecJ/zr9wuBdB39wASAItpaOziGxu18bjUXKYGAP2lPqUmRQcAoCuUGEEC0G++UdoDpwxPXP51KYB+ZEgALLrBya03zLb2PaEkV6kBQB9Zdf3GdT8pAwDQ6XZuWLcmyUlKANBHrm00G6cMbb7kGimAfmVIAHSE+5x/5fZWGo9J8jU1AOgX7dp+qgoAQMefWUr7aSoA0EeuTylPHBzberUUQD8zJAA6xqqJrdelWR+T1GvUAKAvlDytnrV+iRAAQKf6r08xGRIA0C9uKM362OHxqSukAPqdIQHQUYbHZr6RtE9J4rtTAPSDY3fetPcJMgAAnWrHxrWPSnK8EgD0gRsbtfG4obGZy6QAMCQAOtDwxOVfb5XWE0rKdjUA6HW1nWeqAAB0rvYzNACgD3wr7XLq4OTWaSkAvqNIAHSqbaPrTiyt9kVJBtUAoIftWt5cNnTU2JZvSwEAdJKZ0ZGl926V7UlWqAFAD/t2SX3C0MTMF6QA+F/eSAB0rJVjW69slfxskm+qAUAPO2TX7N6NMgAAnebes+XJMSIAoJfV3Noo7Z81IgD4foYEQEdbPT69NTWPTrJDDQB6VSn1eSoAAB2nUV8gAgA97FuN0vjZwfHL/lMKgO/n0wZAV9i+ae1Jpeafa+qwGgD05MG8WUeGxmYuUwIA6ATXbVy3qpH2NUmaagDQezfhuaW06s8NbZ75vBgAd80bCYCuMDw+dUWrNh6T5Do1AOhFdTbPVwEA6BQl7RfEiACA3nRju10fY0QAcPcMCYCusWry0i+X9sCjklytBgA9p5Rf+sqpJywTAgBYbPXsNEryXCUA6EHXN1rlcasmZy6VAuDuGRIAXWVo8yXXpFlPSfJVNQDoMSsOPWT5mTIAAItt59Y1pya5jxIA9NolrpT24wY/OjUlBcAPZ0gAdJ3hsZlv1FYeU5Kr1ACgl5SaX1EBAOgAL5QAgB5zbatZHzU0ftmMFAD3TJEA6FY3jI4MzrYan0zqiBoA9IpWyYNWj09vVQIAWAw7znzw/Wpj9qokTTUA6BFfb7bzuOM2T3vLLcB+8EYCoGsdOzazs1HLY1PiVVQA9IxmyktUAAAWS23ue1mMCADonSvbNY1m4zFGBAD7zxsJgK63Y/Qhx9TWvk8keZAaAPSAXe06u3rV5BU3SQEALKTtp60/NEv2XJvkKDUA6H71y63mwGNXj126TQuA/eeNBEDXGxq7+MY97YFTknxeDQB6wCGlNJ8vAwCw0MrSPb8UIwIAesMVs7OzjzEiADhwhgRATzh+8yXf2tMe+NkYEwDQA0rKr9ZTThlQAgBYKDUptZYXKwFA999TZ2ujNn7mPudfuV0NgANnSAD0jOM3X/KtgWZ9XGouUgOALnff7StuHJUBAFgoOzeu+fmkjigBQHcrF9d9ex83OLn1Bi0ADo4hAdBTjh2bub1xeOPJNeVf1ACgm5VaXlOTogQAsBBq8ioVAOjuG+lsadd9Txi+4MvfFANgLn6tAvSg7aetPzRL9nw0yePVAKBb1Zonrpyc/oQSAMB82rFx5GE1xacCAehm/7Fs1+5TV1x41a1SAMwNbyQAetLwBVvuvGPX7ieX5AI1AOhWpfjLQABg/tVSXqsCAF3s00tm9/2cEQHA3PJGAqCnzYyOLL13q/xdkjPVAKA7NdYPT2z9kg4AwHy4/sw1P9pq5MokTTUA6EKfGmjWJx87NnO7FABzyxsJgJ42Mjaz95Zm/cUkk2oA0I1qbb9GBQBgvrQa+c0YEQDQlco/tJpHnGpEADBPv2UlAPpBHR1t7py9/Jxa8jw1AOgy7UarPHjwo1NTUgAAc2n76Mh90ipfSbJUDQC6Sqkf3XPEHU89/txrdosBMD+8kQDoj3Pl2FhrcHL6Ban1HWoA0G1n9tqsr5MBAJhz7cbrY0QAQPf54NBNxzzFiABgfnkjAdB3tm1Y+5pS6luUAKCLtBu18aDBya3TUgAAc3JvfMaa1aWZq2JIAEAXKck7ByemX16SqgbA/PJGAqDvrJycemup9SVJ2moA0C3n9nZp/aYMAMBcKQN5XYwIAOima1epbx2amH6ZEQHAAv3elQDoVzs2jDy7lvK+JANqANAFWqlZOzw5fbkUAMDB2D46cp+0ypeTLFMDgC7QTs2Lhyen3yMFwMLxRgKgbw1NznygUbMhyS41AOgCzZS8SQYA4GCVVjk7RgQAdIfZUurzjAgAFuG+QQKg3+3YsPZnaur5KTlSDQA6XSONhw9ObP2cEgDAgdg2uu7E0mpPx9v5AOh8e1LKU4fHpzZLAbDwvJEA6HtDk1OfSi2PTXKjGgB0unbab1EBADhQpdV+S4wIAOh8306tjzciAFjEewcJAL5j+6a1J6XWf0qyWg0AOlmteeLKyelPKAEA7I8dZ478RG2Uz8UzQQA62w21tH9u5fhlF0sBsHi8kQDgvwyPT11R2gOPTvIVNQDoZKXkzdU/AAAA9lNtlLfEGQKAzvb1dm0+yogAYPEZEgD8H0ObL7mmOZtHpeQSNQDoYD++Y+Pap8kAANxT2zaOnJ7kMUoA0MGuqK08atXkpV+WAmDxGRIAfI/jzp++fk9r4DFJPq0GAJ2rvnXns9YdpgMA8ENPDWetX1KStykBQMcq2VKaSx698qPT14oB0BkMCQDuwvGbL/lW9i372ZR6oRoAdKhV9Y76ShkAgB9mxzd3vzgpP6YEAB3q35bdufuxQ2MX3ygFQOfwTTSAuzEzOrL0qFb5QE1+UQ0AOtCdtZWT/MUGAPCDfP1Ja++9ZFn9SpIVagDQaWrJx9qNI35h9dhnd6kB0Fm8kQDgboyMzewdbJ78jKSeowYAHejQNOvvygAA/CBLl9U3xogAgI5UPzy8YtlGIwKAzuSNBAD35EiblJ2bRn6/1vIaNQDoMO3Srg8f2jzzeSkAgP9r54Z1a9ql/aUkS9QAoJOU1HcNrpt5eTk7bTUAOpM3EgDco4Nt6tD4zGtLyauTVEUA6KQzfW2UP6tnO9sDAP+rJqVd2u+KEQEAnXeNeuPQxMxLjQgAOpuHjQD7YWh8+m0l9ReS7FYDgA7y4zsuXXOWDADAf9uxac0zkvyMEgB0kFZqXrRyYvpsKQA6n08bAByAHRtHHlNTJpPcSw0AOuRkf0tpLDlxaOziG8UAgP5206knHLn3kEMur6nDagDQIe5o1Dx1cHL6Y1IAdAdvJAA4AEMTM//aqI1HJrlWDQA6Qs29a2vf7wsBAOw5dPmbjAgA6CA31UaeaEQA0F28kQDgIGwfHblPZsuFKXmgGgB0gJpaHz08OfNpKQCgT+9TN657aNL+zyQDagCw2Epy1Wyznrp6bOYqNQC6izcSAByE4bGZb+zbWx6Z5FNqANABSlL+8urn3G+5FADQf+oppwyktM+JEQEAneELpTYeYUQA0J0MCQAO0n0/PnXLHbt2/2xJPqIGAIuu5MSl3z7sN4UAgP6z/agbX5ma9UoAsOhq/mnJ7L7HDU5uvUEMgO7k0wYAc3Y2Ttm5ce1bauqr1QBgkc222/VhqzbPXCIFAPSHHWc++H61MTud5DA1AFhMJfnrwZuPPqtcdNGsGgDdyxsJAObugFyHJqZek5JXJGkrAsAiGmg0ynvr6GhTCgDofTUptTF7TowIAFjkS1JN3jg0Mf08IwKA7mdIADDHhsen/6TW+owke9QAYBH9xI7WZS+VAQB63/aNa56X5AlKALCI9pWU562cmD5bCoDe4NMGAPNkx1PWnFLbmUzyI2oAsEh2l2ZdPzQ2c5kUANCbrtu4blUj7Sn3ngAsojtKKb8wND7191IA9A5vJACYJ0PnTV9USvuRSb6hBgCLZHm7Vd7nEwcA0JtqUhq1/b4YEQCweHamXX7GiACg9xgSAMyjofHLZmZn9z08JZeoAcBiKMlP7Whd/molAKD37Niw5qUpeaISACySr7ZK69HDm6e2SAHQe3zaAGAB3Hj6iUfsay45zwMeABbJ3lbJw1aPT2+VAgB6w/VnrvnRViOXJDlcDQAWXvnP0hw4bWjs4hu1AOhN3kgAsACOOf/K2+7Yvfv0knxEDQAWwdJm8v6vnHrCMikAoPvVU04ZmG3kb2JEAMDi2NxqHv4YIwKA3mZIALBAHnDhVXsGJ6afXpM3qgHAgqt58GGHLP89IQCg++046sY3lOSnlABgEbxv6OajR1ePfXaXFAC9zacNABbB9k1rXp6ad8SgC4CFVdPIzw2fN/1PUgBAl95PPmXdo9Ju/2uSphoALOj9ZCmvGx6feosUAP3BkABgkWzfMPJzSfm7lBypBgAL6IbmbNYdd/709VIAQHe5eXT9vXa3dl+SlPupAcAC2p2U5w9PTH1YCoD+4S9hARbJ8OTMPzTa5ZFJvq4GAAvo2NaS+tfVqBgAus7u2b3vNiIAYIHtLO36M0YEAP3HkABgEQ1+dGpqSVoPT/IFNQBYMLWcumPDmpcKAQDdY9umNc9LqU9TAoAFdGlt5SeGNs98XgqA/uOvkAA6wNXPud/yZbce9r6kPF0NABbIvnYtP7NqcuqzUgBAZ9u5Yd2admn/Z5JD1QBgYZR/WLZr1y+uuPCqW7UA6NMrgQQAnaEmZfvGNb9Tkjf4/QzAAvlGu84+dNXkFTdJAQCd6YbRkcNnW+XzSU5WA4CFUc8ZuvmYF5eLLprVAqB/+bQBQIcoSV05MX12rfXpSXYrAsACuE+jDLy/GrABQMeanS3vjhEBAAt02amlvHR4YuaFRgQAGBIAdJiVkzMfqY08LskNagCwAJ60c9Oa35ABADrPjg0jL07JM5UAYAHcVko5Y+X41LukACDxl0cAHev6M9f8aKuRjyU5SQ0A5tlsqeXxQ5NTn5ICADrDjjNHfqI2yr8lWaYGAPPsq6k5bXhy+nIpAPhvhgQAHezG0088Yt/Ako8k+Xk1AJhnNzWajYcNjm29WgoAWFzXn77muNZAvphklRoAzLP/aNTGhsHJrd6OCsB38WkDgA52zPlX3jZ089FnlFSvFANgvq1ot9sT209bf6gUALB46lnrl7QG8ncxIgBgnpXk7/YcefvjjAgAuCuGBACdfqC/6KLZoYmZl6aUFyaZVQSAeVPz4Azsea8QALB4dn5z9zuS/IwSAMzn3V9N3jg4Mf2048+9ZrccANwVnzYA6CLbN4z8XFL+LiVHqgHAfKnJy1ZOTL9TCQBY4Hu+TWuemZoPKgHAPNqdlOcPT0x9WAoA7o4hAUCX2XnG2rXtZr0gyX3VAGCezNZSTl05PvVJKQBgYWzftObHU/OpJD4zBMB82VFSzxiamPmCFAD8MIYEAF3ohtGRwdlW+WiSn1ADgHlRc2tptH96aPyyGTEAYH5t33jyfZPmfyY5Tg0A5kXJVGrrtOGJy78uBgD3REMCgO5z7NjMzjt27X50Ur2CDID5UXJkrY3zt5/2Y0eLAQDz58bTTzyipHl+jAgAmL8bvH9YdufuRxoRALA/DAkAutQDLrxqz9DEzDOT+qYkVREA5sH9M7B0rJ61fokUADD36uhoc9/Ako/UZJ0aAMyTPxxqnvTkFRdedasUAOwPQwKALlaSOjwx84aUOprkdkUAmIeLzSk7vrnn3UIAwNzbMXv5Hyb5eSUAmAe7Usszhyemf6OMjbXkAGB/FQkAesO20XUnllZ7c5KT1ABgHu4cXj88Pv17QgDA3NixceRXa8qfKQHAPLiupG4cmpj5ghQAHChDAoAectOpJxy595Dlf1OT09QAYI7VWsvzV05O/bUUAHBwdmxYO1pL/Ui8LRSAuffp5myectz509dLAcDBcLMC0ENWXHjVrYPNkzeUUt+apCoCwBwqpdT3bt808rNSAMCB2/6UdY+qpX4gnssBMOfqOUNHL3usEQEAc8EbCQB61LaNa36xJO9LcpgaAMyh25LGKcMTW78kBQDsnx2jIw+srfLvSY5SA4A5tKcmL145Mf0+KQCYK4YEAD3sujNHHtxolM1J7qsGAHNoR7OURx43PvU1KQDgHt6fbVy3qpH2Z5LcRw0A5tC2RmlvGhy/7D+lAGAueYUaQA9btXnmknadXZ/kk2oAMIeGWrV+4hunnzgsBQD8cNtP+7GjG7X9jzEiAGBu/ceStB5mRADAfDAkAOhxqyavuGmoefLPlVLfqgYAc+j+AwNL/vHa0RGvZgaAu3Hj6ScekSVLL0zJA9UAYO7Uc25p1sccM3H5Di0AmA8+bQDQR7ZvXPv0pP5FkkPVAGCOfH6gWR937NjM7VIAwHebGR1Zeu/ZckFKnqgGAHNkttby+pWTU/5oCIB55Y0EAH1keGLqwyX1lCTXqQHAHPmJ2VaZ+MqpJyyTAgD+Vz3llIGjWo0xIwIA5tDO1PoYIwIAFoIhAUCfGZqY+UL27X1Ikn9VA4A58oTDDl02aUwAAN9RR0ebO4765rk19XQ1AJgb5eKk9VPDkzOf1gKAhWBIANCHhi/48jeHbj76iaVU62UA5kYtpx526PIP11NOGRADgL6+JCZlR+vy9yR5hhoAzJEPtZqHP2J44vKvSwHAQikSAPS37RvXPCvJOUmWqwHAHNxinDd084qnlYsumtUCgH5Tk7Jj45p3J3mhGgDMgdlay+t9ygCAxWBIAEC2PWXNT5d2zksypAYAB6vW/L/hgZOfXsbGWmoA0DfXv6Rs37jmXSX5VTUAmAM3tRuNX1x13tZ/lgKAxeDTBgBk5XnT/9FqNh+WlP9UA4CDVUp+YXvrsr+sZ7vfAKA/1KTs3LjmT4wIAJiju6qLk9Z6IwIAFvVqJAEA/62ecsrAzhU3/n+1lteoAcAc3Gx8ZPDmo5/lMwcA9PR9VFJ2bhz505ryEjUAmAMfzL5lvzJ8wZY7pQBgMRkSAPB9tm9csyHJXye5lxoAHOQdx9jQimXPKOds2ScGAL2mjo42d7Yu/4uaPFcNAA7S7tT6suHJmb+QAoBOYEgAwF3aNrruxNJqn5dkjRoAHIxa8rE779z9lAdceNUeNQDomevb6GhzR+vyv0rybDUAOEhfadc6umpy5lIpAOgUhgQA/EA3jI4cPtvKe5PydDUAOBi15GN7j7h99Phzr9mtBgBdf107a/2SHTft+VBqRtUA4KCUTCy7c/dzV1x41a1iANBZlygA+CF2bBh5di3lPUkOUQOAg/CpZbt2n+4BGQDdbPtp6w/N0t3npZZT1QDgIMzWWl4/PDn1ByWpcgDQaQwJALhHtm9c99CkPZbk/moAcBB3IFtKY8mpQ2MX3ygGAN3m6jMf/CPLGrMXJHmkGgAchG019RdXTsx8RgoAOpUhAQD32M2j6++1u7Xnr5NsUAOAg3BFbeWJKz86fa0UAHSL609fc1xrSf4hNQ9WA4ADVnPRwEB92rFjMzvFAKCTGRIAsJ/3Oik7Nq15WWrenmRAEQAO0DfatfmEVZOXflkKADrd9o0n3zdp/FNSfkwNAA5QLaX+wWDjgb9VxsZacgDQ6QwJADggOzeMPLZdyt8mOVYNAA7QDaVdTxvaPPN5KQDoVNduWrOuWfP3SVaqAcABuqm0y7OGNk9dKAUA3aIhAQAHYnBy5l8atbG2pvyLGgAcoGNro/zrtk0jp0kBQCfauWHksc2af4sRAQAHqmRLo9l4mBEBAN3GkACAAzY4ufWG4ZtX/GxN3pikKgLAATi01DK5Y9OaF0kBQCfZsWHtaLuUjye5lxoAHJh6zi2N+tODY1uv1gKAbuPTBgDMiW0bR04vpZybmnurAcAB3p386dD49CuKcRoAi2z7pjUvT8074o9wADgwt9dSz1o5PvO3UgDQrQwJAJgz146OnNBsl7HUPFgNAA7QB+/YtfuXH3DhVXukAGCh1VNOGdhx1DffleSFagBwYBeTXJbkKcOT05eLAUA3MyQAYE5d/Zz7LV922+FvTc3L1ADgAG9SPltq48zBya03qAHAQrnx9BOP2Dew5G+TPEkNAA5M/fBAMy88dmzmdi0A6HaGBADMi20b1j63lPquJIeqAcAB+Fpp1tOGxmYukwKA+Xb9mWt+tNXIBUlOVgOAA7CnpL5yaGLmz6UAoFcYEgAwb7ZvWntSav1IkgepAcABuK1R8/TByemPSQHAfLluw9qHN0rdnORYNQDYbzVX1kb7aSvHL7tYDAB6SUMCAObL8PjUFXuOvP2namKNDcCBOKJdMrl9wxqfywFgXmzbsPa5jVL/NUYEAByAUvNXjcMb640IAOjJ65wEACyEbRvWnlFKfV+SFWoAsP/qh1vNI1+weuyzu7QA4KCvKqecMrBzxY3/X63lNWoAsP8XktyalF8dnpz6kBgA9CpDAgAWzLYz1qwuzfxNkkerAcAB3L5cnMxuGJ64/OtaAHCgtp/2Y0fXJcv+rqQ+Vg0ADsAXW836tNVjM1dJAUAv82kDABbMyo9OXzvUPPmxtZbXJtmnCAD7pz4kaX5xx8aRx2gBwIHYtumBD8mSpV80IgDgQG5IUvKntzTrI4wIAOgH3kgAwKLYvnHto5P6oSSr1ABgP+0ttb5yaHLmz6QA4J7atmHtc0upf55kuRoA7KedtebZKyenPyEFAP3CkACARXPz6Pp77Zrdc04p+QU1ADgAk8uby5571NiWb0sBwA9y9XPut3zZbYe/NTUvUwOAA/DJJWk9+5iJy3dIAUA/MSQAYNHt2DDy7FrKu5McqgYA+6XmykYaTxmc3DotBgDfa/vGk++bNMeSPEwNAPbTbE1+b3jd9O+Ws9OWA4B+Y0gAQEfYMTrywNouH0nNWjUA2E+7ai0vXjk59ddSAPDftm0aOa2kvD8191YDgP1Tr2nXxtNXTU59VgsA+pUhAQAdY/tp6w/Nkj1/kuQFagBwAN6bfcteOXzBljulAOhfXzn1hGWHHXLIW5L68nj2BcD+qvmbJa19v3rM+VfeJgYA/czNFAAdZ/uGNRvTyF/6yyEADsAVSeMZwxNbvyQFQF/eS5ycRj6cmgerAcB+uj2l/Prw+NQ5UgCAIQEAHWr76Mh90iofTvIINQDYT/tq8mbfMgXoLzs2jDy7lvLnSQ5TA4D99KV2bT5t1eSlX5YCAL7DkACAjlVPOWVg+1HffH1JXp+kqQgA+3UdSfmXdrPx7NVjl25TA6B37Rh9yDFp7XtfTU5TA4D9v23IO++4c/erH3DhVXvkAID/ZUgAQMfbsXHkMUnjb2rqsBoA7Kdv1VpftHJy5iNSAPSebZvWPr5R8373CgAcgG82ap47ODn9MSkA4PsZEgDQFXaMPuSY2tp3TpIz1QBg/9Vzsm/5rw1fsOVOLQC631dOPWHZYYcc8pakvjyebwGwv0q9cEltP/+Yict3iAEAP+ByKQEA3WTHhrWjtVHfm5p7qwHAfqm5MqXx9OGJrV8SA6B7bd+w5uQ08uHUPFgNAPbTrpT85tD49J+WpMoBAD+YIQEAXWfHmQ++X23Mvj/Jo9UAYD/tLSWvH2yc/I4yNtaSA6B71KTs3DDyq7WUtyU5RBEA9vM68rl2aT179fjlX1EDAH44QwIAuvXmr+zYtOZlqXlrkmWKALCft0IX19J6/srxyy7WAqDzXb9p7f3b7fY5tZTHqQHAfpotpf7h4Irlv13O2bJPDgC4ZwwJAOhqOzY9cKTW5geT+hA1ANhP+0qp77j9zj2/84ALr9ojB0DnqaecMrBjxTdfnJrfS3KYIgDspytS8qzh8ekvSgEA+8eQAICuV89av2T7N/f8Vklen6SpCAD7abpR2i8YHL/sP6UA6Bw7z1i7tt2s70vyMDUA2E81qX/ROKz5ysEPbr1DDgDYf4YEAPSM6zasfXiz1A/U5AQ1ANhP7aT+5UAzv37s2MztcgAsnnrW+iXbb9z7ylLq7yZZqggA+2lnSV4wNDH9cSkA4MAZEgDQU248/cQj9g0MvD0pZ6kBwAG4uta8cOXk9CekAFh4256y5qdLO3+Z5GQ1ANhvJWPt9uyLVk1ecZMYAHCwl1UA6EE7zlx7am3U9yUZUgOAA7hT8gASYAFtP239oWXp7jfUWn4jPlcGwP77dpKXDk9Mf1AKAJgbhgQA9KzrT19zXHsgf1GT09QA4ADsSPLi4YnpSSkA5vGX7aa1P19rfXeS+6gBwAH4RKvZfO7qsUu3SQEAc8eQAICet2PDyLNrKe9KcoQaAOz3TVOt/5xGffnQ+GUzagDMnW1nrFldmvm9JM9SA4ADsLvWcvbwg6beVs5OWw4AmFuGBAD0hR1nPvh+tTH7/iSPVgOAA7AvJe9e3lj2hqPGtnxbDoADt/209YfWJXteXZLXJFmuCAD7qyRbZ0uetXp8eqsaADBv11sA6A/17DR2TK15aWremmSZIgAcgJtS8qahtdPv9FdPAPtv26aR00ot70xyXzUAOACzpdQ/vLmRN4yMzeyVAwDmjyEBAH1n54Z1a9qN9gdT82A1ADjAO6kt7XZ56arJqc+KAfDDbd+09qS065+k5IlqAHCArk6tzx6enPm0FAAw/wwJAOjPO8/n3G/5sm8f9jsp5TeSDCgCwAFol5pzG6287rjzp6+XA+D7XTs6clSjVd5UkhcmaSoCwIGcu1Pzzswue93wBVvulAMAFoYhAQB97boNIw9qlPJXSR6qBgAH6I6avP3OXbt//wEXXrVHDoDvfFZs56Ujz6ylvD3JMYoAcIC+Whp5wdB50xdJAQALy5AAgL43Mzqy9Eda5XUleV2SJYoAcIAub9S8enBy+mNSAP1s26a1jy+pb/MpMQAOwmxJecfuI2/7nePPvWa3HACw8AwJAOC/7Nywbk27tP8qycPUAOBA1eRzjdTXDU3M/KsaQD/ZsXHkYan5/VrK49QA4MCVmdJuP29o88zntQCARbwiSwAA/6uecsrA9nvf9Oul1DcmWaYIAAfhk0njNcMTW78kBdDLtm9ae1JSfzc1T4lnTQAcuNlS6h/efuee3/HJMABYfG7uAOAuXDs6ckKzVd6X5NFqAHAQakrOa7ebr181eemX5QB6ybYz1qwuzfr6pDwvyYAiAByokmyt7fK84c1TW9QAgI65PgMAd6WencaOqbUvSK3vSHKYIgAchNkkf1vaA28Y2nzJNXIA3Wz7aT92dFm65DdqLS9PslwRAA7CvlLqO25u5A0jYzN75QCAzmFIAAA/xPWb1t6/VetfJnmMGgAcpL1JPbdRm789OLn1BjmAbnLD6Mjh+2YbLy6pr0vJkYoAcFBKLmm36nNXbZ65RAwA6MRLNQDwQ9Wz09i+dc2LS/L78XYCAA7et5P69mW79vzpiguvulUOoJPdMDpyeKtdXlRrXpvkKEUAOEi7Ss0bBgdO/qMyNtaSAwA6kyEBAOyHHWc++H61MfsXSR6vBgBz4LaU/PWS2nrLMROX75AD6CQ3nXrCkXsOXf7cfGdAMKgIAHPgP1LK84fHp66QAgA6myEBAOynmpSdG0aeVRvlj1Nzb0UAmAN7kvy/VrP+7uqxmavkABbTzg3rjm2V9q+W5BVJ7qUIAHNgV63ljcMDJ73dWwgAoDsYEgDAAbpx48lD+0rj3anlDDUAmCP7knykNOtbhsZmLpMDWEg7R9cd3263X5GaX05yiCIAzIla/73VaD9/9fjlXxEDALqHIQEAHKQdG9aO1lLfnWSFGgDMkXYt+ftm2v/f4Phl/ykHMJ92nrF2bbtZX5XkaUkGFAFgTtTcmkbeMLR2+p3l7LQFAYDuYkgAAHPgxo0nD+1L88+TnKkGAHPsEyX194cmZv5VCmAubds48oiS8ptJfj6eEQEwt/6+tvIrKz86fa0UANCd3CQCwBzatmHtGaXUdyZZrQYAc3z79p+l1HcMrlg2Wc7Zsk8P4EDU0dHmjtblp6fWX0spj1IEgDm2o9Ty8qHJqTEpAKC7GRIAwBzbftr6Q8vS3W+otfx6vBoWgLm3s5T6/lZtvmvVxNbr5ADuiavPfPCPLGvO/lJqfUVS7qcIAHOsJvmbVrO+YvXYzM1yAED3MyQAgHly3YaRBzVK471J/Uk1AJgHe1Py0ZpyzsrxqU/KAdyV7RvXPTRpvTApz0xyqCIAzLWSbC1pvHBwYuvn1ACAnrrGAwDzpZ6dxo6ptS9Iu74tJUcqAsA83dpdnJL3ZO/Svxm+YMudekB/mxkdWXrUbOOMWupZSR6vCADz5M6avO1bzfrmkbGZvXIAQG8xJACABXDjxpOH9qX51iTPUgOAefTtlLy/0Wj88eDY1qvlgP47c+6tA88upb40yUpFAJhHHy/tgZcMbb7kGikAoDcZEgDAAtq2ceT0kvLOJPdRA4B51C4pH6u1/e6hgQd+ooyNtSSB3lTPTuP6S0dOaZfyq0nOSDKgCgDzpaRsT9ovH5qYOU8NAOj16z4AsKC2n7b+0Lpkz6tL8rokSxQBYH5v+sr2Wup57Xb9q1WTM5cqAj1yphwduU+dbTytfOfzBfdXBIB51k7qXy7btedVKy686lY5AKD3GRIAwCK5bsPIg0op7ynJT6kBwALdAW5J8sHSWPLhobGLbxQEustNp55w5N7ly86spTwryePiuQ4AC3KEzNaSxgsHJ7Z+Tg0A6KszAACwWOrZaeyYWvuCtOvbUnKkIgAskD215BONdvnA4DFLN5dztuyTBDr4vHjpyE+n5FlJeUaSw1QBYIHcWZO3fatZ3zwyNrNXDgDoL4YEANABbtx48tC+NN+a5FlqALDAbk7qebXU96wcv+xiOaAzbBtdd2Ja7aeV5NlJjlcEgAX28aT14uGJy78uBQD0J0MCAOggOzeseXK75F1J7qsGAIvgS0n9YJqZGB6b+YYcsLC+cfqJw0uaAxtSyjNq8nBFAFgE21Lqy4fHZ8alAID+ZkgAAB1m+2nrD61L9ry6JL+ZZKkiACyKmstqyVgp5SPD41NXCALzdPYbHblP2mVDap6c5JQkA6oAsAjaSf3LZbv2vGrFhVfdKgcAYEgAAB3qujNHHlwa5d0l+Sk1AFhkl5aU8TTb40NjM5fJAQfn2k0nP6CZgU2pdVOSH1cEgEVVsqXU+qKhiZkviAEA/O8RAQDoWDUpOzeMPKuW8tYkg4oA0AG+lpKPpV3HhiZnPlOSKgn8cDs2PXCk3W4+uZR6WpJHKAJAB7g5Jb871Dj5XWVsrCUHAPB/GRIAQDfc2Y+uv9fu9u7fSS0vSbJEEQA6xNdqzXhNmVw5cNLnPYCG/1XPTmPn1pH1NWVDUjcl5cdUAaBDtGry3naz/vbqsZmb5QAA7oohAQB0kes2POjHGqX9J0n9OTUA6DC315KLSsoFabT/YXhs5huS0G92jD7kmMzOnlJL+/EljSfX1GFVAOgwXyjt+pKhzTOflwIAuDuGBADQhbZtGjmt1PxpUu6nBgAd6mtJ/WQt+djeI+74xPHnXrNbEnpNHR1t7th3xYNro55WSp6cmofGsxYAOtOOUutrBydnPujTVADAPeHmFgC61LWjDz+k0brtNSV5TZLligDQwXYl+Uyt5ZOl5pPDm6e2SEK3un7T2vu3kscn9fGpeWKSe6kCQAfbl5J3L7tz92+vuPCqW+UAAO4pQwIA6HLXb1p7/3bNH9XU09UAoDvUa5Lyj7XWi2ppfnrVxNbrNKFT3bjx5KHZNB7RLo1TGrX+bE1OUAWALvGPtdl4+cqxrVdKAQDsL0MCAOgR1z1l3eMarfafpuSBagDQZXak5NNJPpNW+fTQg6cuLmenLQvoQoFDAAAc10lEQVSL4fpNa+/fbrcfWUsekVoemZKT4/kJAF32iKDU+ltDkzMfkAIAOFBuhAGgh9Sz1i/ZcdOeX03Nm5IcoQgAXeq2JP9Zk8+klE+3G4d/ZvXYZ3fJwpyfnU45ZWDHj9z0oDTrI5M8IjWnJDlGGQC61K6a/MHeI29/y/HnXrNbDgDgYBgSAEAPunb0QSubs+23pdSnut4D0AP2JPliSflMO+3PtJsDW1aPXbpNFvbXDaMjg61WWV+Tn06tj0opD0uyXBkAesB40vr14YnLvy4FADAX/IMFAOhh2zeufXRJfWdN1qkBQI/5VpKZlGwp7boljbplsDFyRRkba0lDknzj9BOHm0sG1qeW9SlZX2rWJxlSBoDeUr9c2o1XDG2eulALAGAuGRIAQI+rZ6ex89KRZ9ZS/jDJ0YoA0MP2puaqlGxJyZa065bMLv/S8AVb7pSmh886p5wysHPFDSemXdbXRlmfmgcmeUiSFeoA0MPuqMnb79y1+/cfcOFVe+QAAOaaIQEA9Ikdow85prb2vTnJ85I0FAGgT8ym5PLUXJJSLkutV9Zm47Lhey/5Wjlnyz55ukc95ZSB61Zcf3yjNk5OclKSk0saD0rqmiRLFAKgXy6JST440KyvOXZsZqccAMB8MSQAgD6z/cy161Paf5RSHqUGAH1sX5KvJrk8tV5ZS7mq0chX2/vy1eGPTl9XvvOQnkVw7eiDVjZb7R+tNT9aSj0hyYmpOTklJyRZqhAA/aomn2um8WuDE1s/pwYAMN8MCQCgT+3YOPKUmvLWJPdXAwC+y54kX6slXy3tfDWlXpOSa0sr1w402tcePXH5TkODA3fD6MjgbLusSs3qlNwnqfcttfGjNfnRpP5okuUqAcB3+UYt9bXD4zMfcQYBABaKIQEA9LGvnHrCskMPWfbykvK6JPdSBADukT1JrktyXWquTeoNaTS2JfWGRrtur416favd3rlq8oqb+inK15+09t5LD20PpZZja6usTNrH1kYZLjXHJVlVktU1WZ1kmf8LAcA9cntK3tJqHPGO1WOf3SUHALCQDAkAgOzcsO7Ydmn/bpIXJGkqAgBzYm+Sm1Nzc1JvSiM3l3a5qd3IzaXm5tTckpTbanJ7M+3b2rXx7VZz9tZljcZtu+5s7LnPx6e+tZB/dfj1J6299/JmXbp3WT2iua9xr9JoH9lOjii1cURKDk/JvWu7HlVKjkqyIslRSVmR1KO+858NBABgjrRLzbkDpfX6YyYu3yEHALAYDAkAgP+x84y1a9vN+odJnqAGAHSM21Iym5o7kuxNze408v1/lVizO/mf/355Sg75/v9NWZ7UQ5IsScnhaaeZkiMlBoAOUXNRbbRfuXL8sovFAAAWkyEBAPB9tm1a+/hS6x8lWaMGAAAAzLtvlFp/e2hy5gNSAACdoCEBAPC9Vo5PfXLo6GUPraW8NMmNigAAAMC8uDm1vvKWZn2AEQEA0Em8kQAAuFs3jI4cvq9VfqMkr07u4hXJAAAAwP7al9S/Ls2lrx8au9iAHwDoOIYEAMA9cu3og1Y2W7NvSMrzkzQVAQAAgP1WU3Jes5XfPG7z9FflAAA6lSEBALBfdoyOPLC2yh8keZIaAAAAcM/U5HNJ/Y2VEzOfUQMA6HSGBADAAdm2ae3jS61vT/IgNQAAAOAHqLmypPz20OTUmBgAQLcwJAAADlg9O42dl67dVEt9W5L7KgIAAAD/46Zay9u+NdD+o5Gxmb1yAADdxJAAADho209bf2iW7HlFklcl+RFFAAAA6Fs1t5aSdwzM7nvHMedfeZsgAEA3MiQAAObMtaMjRw208+pay8uSHKIIAAAAfWRvUs9tzpY3HHf+9PVyAADdzJAAAJhz121ct6qR1m8n5XlJBhQBAACgh7VTMt5oNF4zOLb1ajkAgF5gSAAAzJvtm9aelNTfTc1TnDsAAADoMTUl57Xbzdevmrz0y3IAAL3EA30AYN7tOHPkJ2qjvCXJY9QAAACgB3wy7fLa4c1TW6QAAHqRIQEAsGB2bFzzpCRvrsk6NQAAAOhCn0nK64Ynpv5NCgCglxkSAAALqiZl54a1T6ml/f8l5ccUAQAAoPOVmVLzxsHJqfNKUvUAAHr+9CMBALAY6tlp7Lx07aZa6luS3F8RAAAAOtDXU8qbhxonva+MjbXkAAD6hSEBALCoZkZHlt673XhOaj07yZAiAAAAdIAbay1/eOfuXX/8gAuv2iMHANBvDAkAgI6w/bT1h2bpnl9OzeuSHKsIAAAAi+DmWssflNml7xy+YMudcgAA/cqQAADoKDeMjhy+b7bx4lLqbya5lyIAAAAsgDtKqe/a3VryluM3X/ItOQCAfmdIAAB0pO2n/djRWbL0tUlelORQRQAAAJgHu1NyTnNf3nzc+dPXywEA8B2GBABAR9sx+pBj0t7767WWl8agAAAAgLmxN6nnttN806qJrdfJAQDw3QwJAICu8H8GBS9LcogiAAAAHIB9ST7SLOXs48anviYHAMBdMyQAALrKzg3rjq2N1isNCgAAANgP3xkQtPPG4zZPf1UOAIC7Z0gAAHSl/zMoeHmS5YoAAABwF/Yl+UirWX939djMVXIAANwzhgQAQFfbdsaa1WUgv5Gas2JQAAAAwHcYEAAAHARDAgCgJ2zfePJ9k+ZrkjwvyTJFAAAA+tLeJB9slvLm48anviYHAMCBMSQAAHrK9aevOa69pP5areWlSQ5VBAAAoC/sTfJ33kAAADA3DAkAgJ60Y/Qhx7Rb+15can4tJUcqAgAA0JP2JPX97TTftGpi63VyAADMDUMCAKCnbT/tx46uS5a+pCQvT/IjigAAAPSEO1Lyvtl9+956n/Ov3C4HAMDcMiQAAPrCTaeecOTu5Ye8qDTqa1Jzb0UAAAC60u0p+auBRv39Y8dmdsoBADA/DAkAgL5y8+j6e+1u7X5pUl6e5GhFAAAAukDJLbVd39keyJ+sHpu5WRAAgPk+fgEA9KGvnHrCssMOPeSXUuvrk6xWBAAAoCPdUJN3720P/PHxmy/5lhwAAAvDkAAA6Gv1rPVLdt64+2m1lNcmOVkRAACAjrhbuyal/HGrccQ5q8c+u0sPAICFZUgAAJCknp3G9qmRJ5VaXp/kJxQBAABYFNOl1rcN3nLMh8tFF83KAQCwOAwJAAC+x/YNI4+sjfKaUvNkNQAAABbEl0otbxmcnDqvJFUOAIDFZUgAAPADbNs48oiU8tpS8yTnJgAAgHnxj6WW3x+anPqUFAAAncMDcQCAH+LaTSc/oJnmS1JzVpLligAAAByUdi35+0arvmlo88zn5QAA6DyGBAAA99ANoyOD+1rlV0ry8iQ/oggAAMB+uSOpH2qV9ttXj1/+FTkAADqXIQEAwH668fQTj9i3ZMnzUvMbSVYpAgAAcPe3UTX581pn37lq8oqb5AAA6HyGBAAAB2hmdGTpUbN5ai2NVyd1RBEAAIDv8rWU/Gn2LvuL4Qu23CkHAED3MCQAADhINSnbN619XFJfXmqerAgAANDnvlRq/ZPBgQd+qIyNteQAAOg+hgQAAHNo+8Z1D03ar0jy1CRLFAEAAPpEu5b8fVL+ZOX41CflAADoboYEAADz4IbRkcF9rfIrJXlxkqMVAQAAelLNrWnk3NIa+KOhzZdcIwgAQG8wJAAAmEdfOfWEZYcvX/aLtZRXJVmjCAAA0CO+Wmv5i721+d7jN1/yLTkAAHqLIQEAwALZvmHkkbVRXlNqnuQcBgAAdKnPlFr+ZHDgpIkyNtaSAwCgN3mADQCwwK4dHTmh2S4vTc3zkxymCAAA0OH2JPl/rZK3rx6f3ioHAEDvMyQAAFgkN516wpF7Dl3+3NT8WpL7KgIAAHSY60up5+7bN/un9zn/yu1yAAD0D0MCAIBFVs9OY/vUyJNKLS9L8nhFAACAxVUuTsl79hxx2weOP/ea3XoAAPThiVACAIDOsf3MtevTqC9P8tQkSxQBAAAWSLuW/H1S/mTl+NQn5QAA6G+GBAAAHeiG0ZHBfa3yKyV5cZKjFQEAAObJbUn929psvmPl2NYr5QAAIDEkAADoaNtPW39olux9VlJfnuRkRQAAgLlQkqvayZ8und137jHnX3mbIgAAfM95EQCAbrB9w8gj0ygvS82Z8dkDAABg/7WT/Eup5ZzBgZMmythYSxIAAO6KIQEAQJe5cePJQ3vrwLNLqS9OsloRAADgh/hWSj7QaDT+eHBs69VyAADwwxgSAAB0qTo62tzevuznSy0vS/I4ZzsAAOC7lGxJyjmtxuEfXD322V2CAABwz4+SAAB0vW2j605stFvPrSlnpebeigAAQN/anWSslvYfrRy/7GI5AAA4EIYEAAA95KZTTzhy7/Jlz6ql8aKkjigCAAB9oubKlPqePe0l5x6/+ZJvCQIAwMEwJAAA6FHbz1y7Po32WUl5RpLDFAEAgJ6zNyUfrSnnDI9P/XNJqiQAAMwFQwIAgB538+j6e+1u7/3FUuuLa7JOEQAA6HpfqbW8r5ny14OTW2+QAwCAuWZIAADQR/7PWwqemeRQRQAAoGt4+wAAAAvGkAAAoA/991sKkvqS1KxVBAAAOlNJrmrX8pfePgAAwAKfQwEA6GfbN659dFJfkOQpSQ5RBAAAFt2ekky2Go2/XHne1n/x9gEAABaaIQEAAEmSm0494cg9hx7y1NT67CSPUAQAABZYzWU15QONgYG/Ghq7+EZBAABYLIYEAAB8nx2jIw9MO8+utTw/ydGKAADAPKm5NaV+JDUfHJ6c+bQgAAB0AkMCAAB+oK+cesKyw5cfcnq7UZ9dak5N0lQFAADmQMmWpJzTOLR8aPCDW+8QBACAzjquAgDAPbBzdN3xrdnWc0opz02yWhEAANg/JWV7TX1/q7T+evX45V9RBACAzj27AgDAfqhnp7Hj0pGfTsmzkvL0JIerAgAAP9CeWvKJRrt8YPCWFZPlootmJQEAoNMZEgAAcMCuHX34IQOztz+5lnpWksc5XwIAwH8p2ZLkg9m790PDF3z5m4IAANBdx1kAAJgD285YszqN8vRS6i8n+VFFAADox2NxSsZbyftWj09vlQMAgG5lSAAAwJzbfuba9Wm0z0rK05IcoQgAAD1sd0ouqKkfHL7pmAt9ugAAgF5gSAAAwLzZ+ax1h7XvaG9M8owkj0/SVAUAgB7QrikXpeZvlu/eNb7iwqtulQQAgF5iSAAAwIK4bsNJKxqNJZtS67OT/LSzKAAAXafmsloy1mw23j84tvVqQQAA6FUe3gIAsOC2b1p7Uq31qY3kGTU5QREAADrYtpSMpzbePzyx9UtyAADQDwwJAABYVNvPXLs+zfrs1Dw1ybGKAADQAb6d5Pxa6thw44F/X8bGWpIAANBPDAkAAOgIM6MjS39ktnFqo9Sn1eS0JIeqAgDAAtqd5OMp9W/3HHHHx48/95rdkgAA0K8MCQAA6DjXjj78kEb71seXlGel5owkS1UBAGAetJJ8LqV8YNmduz6y4sKrbpUEAAAMCQAA6HBXn/ngH1le9p3ebpTRUvOzSZaoAgDAQWgn+WxKxpr78pHjzp++XhIAAPhuhgQAAHSN6zactKKZ5pNqKc9K8jjnWQAA7rGay2rJWLPZeP/g2NarBQEAgB/Mg1cAALrS9o0n37eU5i/UmtEkD1MEAIDvVy5O6nnNUj5y3PjU1/QAAIB7eJKWAACAbrd9dOQ+aZcN+c6o4KedcwEA+th/vXkgzcbfrhzbeqUgAACw/zxgBQCgp2w7Y83qMpCNRgUAAH3kv8YDtTY/vGry0i8LAgAAB8dDVQAAetZ1G9etapT2pv8aFTw8SUMVAIAe8V/jgXZpfWj1+OVfEQQAAOaOIQEAAH3h/4wKNiR5ZJKmKgAAXaWd5LMpZSJ1dnx44vKvSwIAAPPDkAAAgL5z7ejIUQOzeXJtlCen5ueTHKYKAEBHaiX5XErGZvftG7vP+VdulwQAAOafIQEAAH1t+2nrD61Ldz+u1DKamjNScqQqAACLalct+edGu47trkvOP37zJd+SBAAAFpYhAQAA/Jern3O/5UtvO+KRJfW01PxCkkFVAAAWQMktST5Z2vVjzYFMHDs2c7soAACwmEd0AADg+9TR0ebOevmjaq2nl1pOq8kJqgAAzOmJ65qSckG7lPOHVyz9VDlnyz5NAACgMxgSAADAPXD9prX3b33nTQVPTnJKkgFVAAD2U81ltWSstMsFQ5unvlSSKgoAAHQeQwIAANhP1204aUUzSx5bSz0tNWek5EhVAADu0q4kn0nJx1qN5nmrxy7dJgkAAHQ+QwIAADgIVz/nfsuX33bEY2utpyd5cpKVqgAAfW5Hko/XUs9vN4785Oqxz+6SBAAAuoshAQAAzKHv+QTCzyRZogoA0OPaKbm4pH6ytvOxoQfN/Ec5O21ZAACgexkSAADAPLl2dOSogdnG42ppPz4ppyUZUgUA6BE3p+Sfk/LJJXX2gmMmLt8hCQAA9A5DAgAAWAD17DR2XLL2IbXk8aXU05L8tPM4ANBlvpaSj9WUC4ZXLP1UOWfLPkkAAKA3eXAJAACL4MaNJw/tLc1TGzVPrMnjk6xQBQDoKCW3pJZ/Tm3/U7s0L1w1sfU6UQAAoF9uBwAAgEX1PW8reHySRydZqgwAsMBaKbmkpH6yncYnvXUAAAD6lyEBAAB0mJ3PWndY68768JJ6Wmo9PSn3UwUAmCfXp+TfSrt+bHYgH1s9NnOzJAAAgCEBAAB0uOs2POjHSmn9bEqeWGpOSXK4KgDAAbojpf5bav4ptfzj8OT05ZIAAADfy5AAAAC6SB0dbe7Yd8WD/89nEB6VZJkyAMAP8F2fK7jzzl3//oALr9ojCwAAcHcMCQAAoIttP239oXXp3p9upP34mvL41DwkSUMZAOhrX0vqJ0ttfHJ3bX7i+M2XfEsSAABgfxgSAABAD9m5Yd2xrUbrcaWWxyV5fJL7qgIAPe+61PLPadRPLqmtfz5m4vIdkgAAAAfDkAAAAHrYN04/cXhJc+kjamk/PilPSHK8KgDQ9Xam5N+T8smS1mcGxy+7rCRVFgAAYK4YEgAAQB8xLACArvRfw4F8Jq3y6aHNU18yHAAAAOaTIQEAAPQxwwIA6EjXp+TfYjgAAAAsEkMCAADgf/zPsKBRH5nkEal5qPsGAJh3X0vymZTyaZ8qAAAAOoEHggAAwA9006knHLn70EN+opH242stj0zy40mWKQMAB6yVmitT6qdLzWfa7fKvKz86fa0sAABAJzEkAAAA7rGdz1p32Oyu/FRptx+VlEeV1J9McpgyAPAD3ZnkC0n9tzTKp5fs3ffZY86/8jZZAACATmZIAAAAHLA6Otrc2Z45Ke2yvpY8IrU8MiUnu9cAoI/tqCVb0i6fLml/5o7de77wgAuv2iMLAADQTTzcAwAA5tT1p685bnZJ/YnUsr4kj8h3/nWIMgD0oNmUXJrkM6Vdt5SB5r8Pjm29WhYAAKDbGRIAAADzamZ0ZOmKdn1Iu5aHl5Sfqqk/mZT7KQNAF7o2yedTyn/UUj935x27t3jbAAAA0IsMCQAAgAV38+j6e+1q731Yan1kStaXmp9McowyAHSQ25JsTckWbxsAAAD6jSEBAADQEb5x+onDzSUD6xvJI2otj0zy0PgkAgALYzY1X07JlpTy6ZLWZwbXXnZ5OTttaQAAgH5kSAAAAHSketb6JTtu2Lsujfx40n5oSlmfmrVJlqoDwEHYl5TppH6ppH4p7Xzx5iW5ZGRsZq80AAAA32FIAAAAdI16yikDO1fccGLaZX1tlPWpWZ/kIUkOVQeAu/B/3jSQLWnXLa2BI7esHvvsLmkAAAB+MEMCAACgq9Wz1i/ZduPuB5ZGWZ+UhzZqfWhN1iY5XB2AvnJnUqZS6sWpdUvS/NLQ0Uumyjlb9kkDAACwfwwJAACAnvSN008cbi4ZWJ9a1peSB6adkZSc7D4IoAeU3JKay1KypbTrljTqlsHGyBVlbKwlDgAAwFzcdgEAAPSJm0fX32v37O61aZT1qfWBSRlJ8tAkh6gD0JG+82mCRmZqzWUpdcuSRr5w7NjMTmkAAADmjyEBAADQ1+pZ65dcf/3ek1qN9kgpZW1KHUkta5Icn6ShEMDC/DpOck0tmSntOp3SmGq325d9e0kuGxmb2SsPAADAwjIkAAAAuAszoyNLj2rXB6TdfGC71JGUrC81D8x3BgbupQAO1H9/liB1JqVclnbdsqQ1e+kx5195mzgAAACdcusGAADAPfb1J62995JDyprUenLSPim18Z1/T7mveyyA7/KN1FyR5PKUcnmpuaKVfdOrJq+4SRoAAIDO5iEXAADAHPiuNxgk9y/feYvBA/OdtxgcohDQo2aTfCPJ11JyWVJm0m5f5g0DAAAA3c2QAAAAYB7VU04Z2HbvW+5fyuxJjZT/v727aXHrPMM4/r8fSfOObMmN7dHYMVYymwyEQlbdZZtFIJv5Cv1Q2WbpTSmUbPMFAiXBpe0kKkw9o4xDJFupZ0Yj6bm7mMFJm5KQN9ce/39w4AGdgzgXOotbXJxnO2E7ie0gt4FbzmWSXhAHJHuU2AtyL4k94K+b15Y+j/c/nhmPJEmSJF0u/mElSZIkSf8n93d3ln5Ty6059IPcIfMNiD7QB+46s0l6poIxMAAGQQ6o/CWz3G/Vs7/7dgFJkiRJetlGREmSJEnSc+erd15vn64tvRZEP4h+Qp9KP4J+wh2gZUqSfqRvtiEgBwmfFxgkjcG0lsHdP/z5kRFJkiRJksAigSRJkiS9cHJ3t/HFbO92xKxf4TWgn0Q/gruclwyum5L00vqSOC8LBDlIyiBh0ITB9a+u7cdHH82NSJIkSZL0QywSSJIkSdIls/fO68vttdWtOfRLrb1K2Yyo/W9tm/Aq0DQp6QX0X9sPJDGMGoeZDJanJ3vXPvxsYkiSJEmSpJ8/fkqSJEmSXir59tvNYfdoC5p3IO8QsRWZvYx8lYwecAu4ARTTkp7dowkcERxExgHU/SQOgQeRsR/N2L/RaT2I9z+eGZUkSZIk6ddmkUCSJEmS9B35+7dah0fTm7S4XRaxlVG3SG5HxFZm9ghuQPSADdOSftCTgGHCFwRDMg7Iup8Rh5APgvpg3CjDnXv3z4xKkiRJkvQ8sEggSZIkSfrJDt99a22xctprzLlJ4UZm9IK4HuRWwnVgM4ibSb4CtExMl8gc+JLgiOQwyYfnbxLgYRDDpA4rzYfNjTy4+cEnT4xLkiRJkvQisUggSZIkSXom/rn7u9WcjjrNsrSZjdorlU6W6AS5mRm9DDqRdIBNYAtYNjU9U8GYypBgnME4Mg+TGEYwjprjWsphYTGczRbj28tvHsW9ewtDkyRJkiRdzhFZkiRJkqTn0MPdnY05dOucTiPoZtCl0k1KtwTdJLtAB+heHB3gysWhl9djYBIwzmREYUSer6PECBhF1lEko3kyKqWOW/M6euWPf/va6CRJkiRJOmeRQJIkSZJ06fzjvd9eXW7N2mXeaC8atR2LbEeJdhJXM+vVyGhH0M6MNiXXSK6SuUKJtUiuJKwQrJNcAYqJ/qqS4BHJMXB6sT65WI9JToKcJDHJjEkUxpn5uNSY1FInjUWZ1MZ8Mps2J3f+9OnYOCVJkiRJ+vksEkiSJEmS9D3u7+4sbRyX9dbyvE00V1mwTmE9gyWoq6WWlYxcIWI1YYnKekRtRbBRiUZkts8n8Og8HcaTlYTVb33NFeJpYWGJZP27A3ysZOTqL3JTySlw8j8+OSaYXpyTwKOnlwSn8R/XxCOyJsTXETkny5OanBF5HBHTqPUUykmNOiXKcanMMvkXkceRzZOz2eLxWT053v7ws6m/MkmSJEmSni//BvmxSyfMfuGAAAAAJXRFWHRkYXRlOmNyZWF0ZQAyMDIyLTA3LTI4VDEzOjIxOjI5KzAwOjAwjws2WAAAACV0RVh0ZGF0ZTptb2RpZnkAMjAyMi0wNy0yOFQxMzoyMToyOSswMDowMP5WjuQAAAAASUVORK5CYII=;" parent="1" vertex="1">
                    <mxGeometry x="537" y="590" width="56" height="55.51" as="geometry"/>
                </mxCell>
                <mxCell id="7" value="Components" style="shape=image;verticalLabelPosition=bottom;labelBackgroundColor=default;verticalAlign=top;aspect=fixed;imageAspect=0;image=data:image/svg+xml,PHN2ZyB4bWxuczp4bGluaz0iaHR0cDovL3d3dy53My5vcmcvMTk5OS94bGluayIgeG1sbnM9Imh0dHA6Ly93d3cudzMub3JnLzIwMDAvc3ZnIiB2ZXJzaW9uPSIxLjEiIHZpZXdCb3g9IjAgMCAzNjcgMjcwIiBoZWlnaHQ9IjI3MHB4IiB3aWR0aD0iMzY3cHgiPgogICAgCiAgICA8dGl0bGU+QXJ0Ym9hcmQ8L3RpdGxlPgogICAgPGRlc2M+Q3JlYXRlZCB3aXRoIFNrZXRjaC48L2Rlc2M+CiAgICA8ZGVmcy8+CiAgICA8ZyBmaWxsLXJ1bGU9ImV2ZW5vZGQiIGZpbGw9Im5vbmUiIHN0cm9rZS13aWR0aD0iMSIgc3Ryb2tlPSJub25lIiBpZD0iQXJ0Ym9hcmQiPgogICAgICAgIDxwYXRoIGZpbGw9IiMwRDIxOTIiIGlkPSJkYXByIiBkPSJNODkuNzkxNzExOSwxOTMuNTA4NzYxIEw2Mi45MDAwMzkyLDE5My41MDg3NjEgTDYyLjkwMDAzOTIsMTg1LjA2NDEyIEM2MC4zMzExMDY0LDE4OC4yODg5NSA1Ny43MzQ4ODM1LDE5MC42MzkyMTUgNTUuMTExMjkyNiwxOTIuMTE0OTg1IEM1MC41MjAwMDg0LDE5NC42ODM5MTggNDUuMzAwMjMzOSwxOTUuOTY4MzY1IDM5LjQ1MTgxMjQsMTk1Ljk2ODM2NSBDMjkuOTk1OTUzNCwxOTUuOTY4MzY1IDIxLjU3ODcyNTQsMTkyLjcxNjI1NCAxNC4xOTk4NzU5LDE4Ni4yMTE5MzUgQzUuMzk5OTE0NjQsMTc4LjQ1MDQ3OCAxLDE2OC4xNzQ5MDEgMSwxNTUuMzg0ODk1IEMxLDE0Mi4zNzYyNTcgNS41MDkyMjkyOSwxMzEuOTkxMzY1IDE0LjUyNzgyMzEsMTI0LjIyOTkwOSBDMjEuNjg4MDQwMSwxMTguMDUzNTM4IDI5LjkxMzk2NzQsMTE0Ljk2NTQgMzkuMjA1ODUyLDExNC45NjU0IEM0NC42MTcwMDgzLDExNC45NjU0IDQ5LjcwMDEzOTUsMTE2LjExMzIwMyA1NC40NTUzOTgxLDExOC40MDg4NDUgQzU3LjE4ODMwNTMsMTE5LjcyMDY0MSA2MC4wMDMxNTc2LDEyMS44Nzk2MDUgNjIuOTAwMDM5MiwxMjQuODg1ODAzIEw2Mi45MDAwMzkyLDcwLjM2NDU3NjYgTDg5Ljc5MTcxMTksNzAuMzY0NTc2NiBMODkuNzkxNzExOSwxOTMuNTA4NzYxIFogTTYzLjcxOTkwNzMsMTU1LjQ2Njg4MiBDNjMuNzE5OTA3MywxNTAuNjU2OTY1IDYyLjAyNTUzMDIsMTQ2LjU3MTMzIDU4LjYzNjcyNTMsMTQzLjIwOTg1NSBDNTUuMjQ3OTIwMywxMzkuODQ4Mzc5IDUxLjE0ODYyMSwxMzguMTY3NjY2IDQ2LjMzODcwNDIsMTM4LjE2NzY2NiBDNDAuOTgyMjA2MSwxMzguMTY3NjY2IDM2LjU4MjI5MTQsMTQwLjE4OTk4NyAzMy4xMzg4MjgzLDE0NC4yMzQ2OSBDMzAuMzUxMjYyOSwxNDcuNTE0MTc4IDI4Ljk1NzUwMTIsMTUxLjI1ODIwNSAyOC45NTc1MDEyLDE1NS40NjY4ODIgQzI4Ljk1NzUwMTIsMTU5LjY3NTU1OSAzMC4zNTEyNjI5LDE2My40MTk1ODYgMzMuMTM4ODI4MywxNjYuNjk5MDc1IEMzNi41Mjc2MzMzLDE3MC43NDM3NzcgNDAuOTI3NTQ3OSwxNzIuNzY2MDk4IDQ2LjMzODcwNDIsMTcyLjc2NjA5OCBDNTEuMjAzMjc5MSwxNzIuNzY2MDk4IDU1LjMxNjI0MjgsMTcxLjA5OTA1IDU4LjY3NzcxODcsMTY3Ljc2NDkwMyBDNjIuMDM5MTk0NiwxNjQuNDMwNzU2IDYzLjcxOTkwNzMsMTYwLjMzMTQ1NyA2My43MTk5MDczLDE1NS40NjY4ODIgWiBNMTkwLjY1MDA2LDE5My41MDg3NjEgTDE2My43NTgzODcsMTkzLjUwODc2MSBMMTYzLjc1ODM4NywxODUuMDY0MTIgQzE2MS4xODk0NTQsMTg4LjI4ODk1IDE1OC41OTMyMzEsMTkwLjYzOTIxNSAxNTUuOTY5NjQxLDE5Mi4xMTQ5ODUgQzE1MS4zNzgzNTYsMTk0LjY4MzkxOCAxNDYuMTU4NTgyLDE5NS45NjgzNjUgMTQwLjMxMDE2LDE5NS45NjgzNjUgQzEzMC44NTQzMDEsMTk1Ljk2ODM2NSAxMjIuNDM3MDczLDE5Mi43MTYyNTQgMTE1LjA1ODIyNCwxODYuMjExOTM1IEMxMDYuMjU4MjYzLDE3OC40NTA0NzggMTAxLjg1ODM0OCwxNjguMTc0OTAxIDEwMS44NTgzNDgsMTU1LjM4NDg5NSBDMTAxLjg1ODM0OCwxNDIuMzc2MjU3IDEwNi4zNjc1NzcsMTMxLjk5MTM2NSAxMTUuMzg2MTcxLDEyNC4yMjk5MDkgQzEyMi41NDYzODgsMTE4LjA1MzUzOCAxMzAuNzcyMzE1LDExNC45NjU0IDE0MC4wNjQyLDExNC45NjU0IEMxNDUuNDc1MzU2LDExNC45NjU0IDE1MC41NTg0ODcsMTE2LjExMzIwMyAxNTUuMzEzNzQ2LDExOC40MDg4NDUgQzE1OC4wNDY2NTMsMTE5LjcyMDY0MSAxNjAuODYxNTA2LDEyMS44Nzk2MDUgMTYzLjc1ODM4NywxMjQuODg1ODAzIEwxNjMuNzU4Mzg3LDExNy40MjUwMDQgTDE5MC42NTAwNiwxMTcuNDI1MDA0IEwxOTAuNjUwMDYsMTkzLjUwODc2MSBaIE0xNjQuNTc4MjU1LDE1NS40NjY4ODIgQzE2NC41NzgyNTUsMTUwLjY1Njk2NSAxNjIuODgzODc4LDE0Ni41NzEzMyAxNTkuNDk1MDczLDE0My4yMDk4NTUgQzE1Ni4xMDYyNjgsMTM5Ljg0ODM3OSAxNTIuMDA2OTY5LDEzOC4xNjc2NjYgMTQ3LjE5NzA1MiwxMzguMTY3NjY2IEMxNDEuODQwNTU0LDEzOC4xNjc2NjYgMTM3LjQ0MDYzOSwxNDAuMTg5OTg3IDEzMy45OTcxNzYsMTQ0LjIzNDY5IEMxMzEuMjA5NjExLDE0Ny41MTQxNzggMTI5LjgxNTg0OSwxNTEuMjU4MjA1IDEyOS44MTU4NDksMTU1LjQ2Njg4MiBDMTI5LjgxNTg0OSwxNTkuNjc1NTU5IDEzMS4yMDk2MTEsMTYzLjQxOTU4NiAxMzMuOTk3MTc2LDE2Ni42OTkwNzUgQzEzNy4zODU5ODEsMTcwLjc0Mzc3NyAxNDEuNzg1ODk2LDE3Mi43NjYwOTggMTQ3LjE5NzA1MiwxNzIuNzY2MDk4IEMxNTIuMDYxNjI3LDE3Mi43NjYwOTggMTU2LjE3NDU5MSwxNzEuMDk5MDUgMTU5LjUzNjA2NywxNjcuNzY0OTAzIEMxNjIuODk3NTQzLDE2NC40MzA3NTYgMTY0LjU3ODI1NSwxNjAuMzMxNDU3IDE2NC41NzgyNTUsMTU1LjQ2Njg4MiBaIE0yOTQuNTQxOTIsMTU1LjU0ODg2OSBDMjk0LjU0MTkyLDE2OC41NTc1MDcgMjkwLjAzMjY5LDE3OC45NDIzOTkgMjgxLjAxNDA5NywxODYuNzAzODU2IEMyNzMuODUzODgsMTkyLjg4MDIyNiAyNjUuNjI3OTUyLDE5NS45NjgzNjUgMjU2LjMzNjA2OCwxOTUuOTY4MzY1IEMyNTAuOTI0OTExLDE5NS45NjgzNjUgMjQ1Ljg0MTc4LDE5NC44MjA1NjEgMjQxLjA4NjUyMiwxOTIuNTI0OTE5IEMyMzguMzUzNjE0LDE5MS4yMTMxMjMgMjM1LjUzODc2MiwxODkuMDU0MTU5IDIzMi42NDE4OCwxODYuMDQ3OTYxIEwyMzIuNjQxODgsMjMxLjU1MDYzOSBMMjA1Ljc1MDIwOCwyMzEuNTUwNjM5IEwyMDUuNzUwMjA4LDExNy40MjUwMDQgTDIzMi42NDE4OCwxMTcuNDI1MDA0IEwyMzIuNjQxODgsMTI1Ljg2OTY0NSBDMjM1LjA0NjgzOSwxMjIuNjk5NDczIDIzNy42NDMwNjIsMTIwLjM0OTIwOCAyNDAuNDMwNjI3LDExOC44MTg3OCBDMjQ1LjAyMTkxMSwxMTYuMjQ5ODQ3IDI1MC4yNDE2ODYsMTE0Ljk2NTQgMjU2LjA5MDEwNywxMTQuOTY1NCBDMjY1LjU0NTk2NiwxMTQuOTY1NCAyNzMuOTYzMTk0LDExOC4yMTc1MSAyODEuMzQyMDQ0LDEyNC43MjE4MyBDMjkwLjE0MjAwNSwxMzIuNDgzMjg2IDI5NC41NDE5MiwxNDIuNzU4ODYzIDI5NC41NDE5MiwxNTUuNTQ4ODY5IFogTTI2Ni41ODQ0MTgsMTU1LjQ2Njg4MiBDMjY2LjU4NDQxOCwxNTEuMTQ4ODg5IDI2NS4yMTc5ODUsMTQ3LjQwNDg2MiAyNjIuNDg1MDc4LDE0NC4yMzQ2OSBDMjU5LjA0MTYxNSwxNDAuMTg5OTg3IDI1NC42MTQzNzIsMTM4LjE2NzY2NiAyNDkuMjAzMjE1LDEzOC4xNjc2NjYgQzI0NC4zMzg2NDEsMTM4LjE2NzY2NiAyNDAuMjI1Njc3LDEzOS44MzQ3MTQgMjM2Ljg2NDIwMSwxNDMuMTY4ODYxIEMyMzMuNTAyNzI1LDE0Ni41MDMwMDggMjMxLjgyMjAxMiwxNTAuNjAyMzA3IDIzMS44MjIwMTIsMTU1LjQ2Njg4MiBDMjMxLjgyMjAxMiwxNjAuMjc2Nzk5IDIzMy41MTYzODksMTY0LjM2MjQzNCAyMzYuOTA1MTk0LDE2Ny43MjM5MSBDMjQwLjI5Mzk5OSwxNzEuMDg1Mzg2IDI0NC4zOTMyOTksMTcyLjc2NjA5OCAyNDkuMjAzMjE1LDE3Mi43NjYwOTggQzI1NC42MTQzNzIsMTcyLjc2NjA5OCAyNTkuMDE0Mjg2LDE3MC43NDM3NzcgMjYyLjQwMzA5MSwxNjYuNjk5MDc1IEMyNjUuMTkwNjU3LDE2My40MTk1ODYgMjY2LjU4NDQxOCwxNTkuNjc1NTU5IDI2Ni41ODQ0MTgsMTU1LjQ2Njg4MiBaIE0zNjMuNjcxMzczLDE0Mi4yNjcwMDYgQzM1OS44OTk5NjEsMTQwLjQ2MzI4OCAzNTYuMDczOTQ5LDEzOS41NjE0NDIgMzUyLjE5MzIyLDEzOS41NjE0NDIgQzM0My4zMzg2MDEsMTM5LjU2MTQ0MiAzMzcuNTk5NTgyLDE0My4xNjg4MjUgMzM0Ljk3NTk5MSwxNTAuMzgzNyBDMzMzLjk5MjE0NCwxNTMuMDA3MjkxIDMzMy41MDAyMjgsMTU2LjUzMjY4OSAzMzMuNTAwMjI4LDE2MC45NTk5OTggTDMzMy41MDAyMjgsMTkzLjUwODc2MSBMMzA2LjYwODU1NiwxOTMuNTA4NzYxIEwzMDYuNjA4NTU2LDExNy40MjUwMDQgTDMzMy41MDAyMjgsMTE3LjQyNTAwNCBMMzMzLjUwMDIyOCwxMjkuODg2OTk4IEMzMzYuMzQyNDUyLDEyNS40NTk2ODkgMzM5LjQwMzI2MiwxMjIuMjYyMjM1IDM0Mi42ODI3NTEsMTIwLjI5NDU0MiBDMzQ3LjExMDA2LDExNy42NzA5NTEgMzUyLjM1NzE2NCwxMTYuMzU5MTc1IDM1OC40MjQyMTgsMTE2LjM1OTE3NSBDMzU5Ljg0NTMyOSwxMTYuMzU5MTc1IDM2MS41OTQzNjQsMTE2LjQ0MTE2MSAzNjMuNjcxMzczLDExNi42MDUxMzYgTDM2My42NzEzNzMsMTQyLjI2NzAwNiBaIi8+CiAgICAgICAgPHBvbHlnb24gcG9pbnRzPSIyMDUuNTM4NDA5IDE5NC4wNjIxNzIgMjMyLjYxNDU1MSAxOTQuMDYyMTcyIDIzNC45NDY2MjEgMjU3LjYzMzgzMSAyMTkuMDc2NDggMjY4Ljc1NDQzIDIwMy4yMDYzMzkgMjU3LjYzMzgzMSIgZmlsbC1ydWxlPSJub256ZXJvIiBmaWxsPSIjMEQyMTkyIiBpZD0idGllIi8+CiAgICAgICAgPHJlY3Qgcng9IjIiIGhlaWdodD0iNzIuMjk0MTQ0NCIgd2lkdGg9IjEwMi43MjI2NDMiIHk9IjIuMjc5MDg4MjkiIHg9IjE0NC44Mjk0OTciIGZpbGwtcnVsZT0ibm9uemVybyIgZmlsbD0iIzBEMjE5MiIgaWQ9IlJlY3RhbmdsZS00Ii8+CiAgICAgICAgPHJlY3QgaGVpZ2h0PSI3Mi4yOTQxNDQ0IiB3aWR0aD0iMzcuOTk3NjM2OSIgeT0iMi4yNzkwODgyOSIgeD0iMTQ0LjgyOTQ5NyIgb3BhY2l0eT0iMC4wNzk5OTk5OTgyIiBmaWxsLXJ1bGU9Im5vbnplcm8iIGZpbGw9IiNGRkZGRkYiIGlkPSJSZWN0YW5nbGUtNCIvPgogICAgICAgIDxyZWN0IHJ4PSIzLjcyMDE2IiBoZWlnaHQ9IjE3LjM1MTM0MTIiIHdpZHRoPSIxNjYuMjQ4NDg4IiB5PSI2OS45MDkwOTQ0IiB4PSIxMTIuMzkwNzY4IiBmaWxsLXJ1bGU9Im5vbnplcm8iIGZpbGw9IiMwRDIxOTIiIGlkPSJSZWN0YW5nbGUtMyIvPgogICAgICAgIDxyZWN0IGhlaWdodD0iMjEuMzU1NDk2OSIgd2lkdGg9IjUxLjQzNzU0NzgiIHk9IjY5LjkwOTA5NDQiIHg9IjExMi4zOTA3NjgiIG9wYWNpdHk9IjAuMDc5OTk5OTk4MiIgZmlsbC1ydWxlPSJub256ZXJvIiBmaWxsPSIjRkZGRkZGIiBpZD0iUmVjdGFuZ2xlLTQiLz4KICAgIDwvZz4KPC9zdmc+;" parent="1" vertex="1">
                    <mxGeometry x="140" y="610" width="59.22" height="43.56" as="geometry"/>
                </mxCell>
                <mxCell id="9" value="" style="sketch=0;aspect=fixed;html=1;points=[];align=center;image;fontSize=12;image=img/lib/mscae/Cache_Redis_Product.svg;" parent="1" vertex="1">
                    <mxGeometry x="352.5" y="240" width="50" height="42" as="geometry"/>
                </mxCell>
                <mxCell id="16" value="Sub" style="edgeStyle=none;html=1;entryX=-0.074;entryY=0.47;entryDx=0;entryDy=0;entryPerimeter=0;" parent="1" source="8" target="14" edge="1">
                    <mxGeometry x="0.2868" relative="1" as="geometry">
                        <Array as="points">
                            <mxPoint x="450" y="315"/>
                        </Array>
                        <mxPoint as="offset"/>
                    </mxGeometry>
                </mxCell>
                <mxCell id="17" value="Sub" style="edgeStyle=none;html=1;entryX=-0.044;entryY=0.485;entryDx=0;entryDy=0;entryPerimeter=0;" parent="1" source="8" target="15" edge="1">
                    <mxGeometry relative="1" as="geometry">
                        <Array as="points">
                            <mxPoint x="440" y="432"/>
                        </Array>
                    </mxGeometry>
                </mxCell>
                <mxCell id="8" value="" style="shape=image;verticalLabelPosition=bottom;labelBackgroundColor=default;verticalAlign=top;aspect=fixed;imageAspect=0;image=data:image/png,iVBORw0KGgoAAAANSUhEUgAAAeYAAAH8CAMAAAAzAPwAAAADAFBMVEUAAAAkJCQlISEjHiEjHyEjHiAkHyEjHyAjICAjHyAjICAjICAkHx8iHh4kGyQjIyMjICAiHx8jHyAkHyAjHyAkHx8gICAkJCQjHiEjHx8jHyAjHyAkICAhISEnHx8jHyAjHx8kHyEkHx8mHh4jHiAjHyAkHx8jHh4zMzMiHiAiHyAjHx8oGxsjHx8jHyAkHiEAAAAcHBwiIiIjHiAjHx8jIyMjHyAhISEjHyAjHyAjHyAlICAkHyAjHyAhISEgICAjHyAjHyAhISEiHyEAAAAiHx8jHx8jHyAiHiIkHyAjHyAkHyEjHyAjHyAiICAkHiEkHiEjHx8AAAAjHyAjHyAjHiAkICBAAAAkHyAjHyAeHh4jHx8jHyAjHCMjHyEiHiAjHyAiHx8iHx8jHx8iIiIiHyAjHyAhHiEiICAjHx8mHBwjICAjHyAjHyAgICAjHyArKysgICAjHyAjHx8jICAhHSEkHiEjHiAjHyAjHyAjHyEiHyEiHyEiHCIiHyAkICAjHx8jICAkHx8iHCIjICAkHx8mGiYjHx8nHR0jHSMiHSIkICAkICAkICAkHiAkHx8jICAjHyAaGhoiHiAkHx8jHyAhISEjHh4gICArFSsiHiAjHyAjHyAjHyAnJycjHx8kHh4kHR0jHyAjHx8jICAjHyEkICAjHiAjHyEjHx8jHyAjHyEkICAiICAiICAjHx8iHx8jHyEiHiAjHiEcHBwkICAjHiAiHiAiHx8jHyAiHiIjHyAiHyEiHiIjHx8lICAkHiEjHyEjHyAiHx8jHyAjICAjICAkJCQhISEkHSEjHiEkHyAkHyAiICAjICAjHiAjHyEiHSIjICAjHyEkICAlHx8jHx8jICAjHiAjHyEjHyAuFxckHiAjHx8iHx8kHyAfHx8jHx8jHiAkICAjHyEjHyAjHyAjHx8kISEiHyAjHyAjICAjHx8jHyAjHx8jHiAjHx8iHiAjICAiICAjHyAkHx8iHx8iICAiHyAiIiIjHyAkHiEkHiAkHh4jICAjHyAvGh+CAAAA/3RSTlMAFT5lhZikr7GmmYlqQxwdYKPm7a1rKA5eu/7WgB8h9vusMSKf+rMzBW/0ohM651QBCQ+wyxbOL9nu4TfQ7CcIwN0XlQNLe9RE1/Bk8bVpXF2KAtj8qEcEpfIRUa4kfcHvUkrrHt7VRXjTG6HR5SDoBhj9QUg9Vpf1vcyNlC3PP5NYMiWRchSbGiw1T3mBh2PCxwq5evcuOxAMd7+2vg1CKyPN41B1QG7E8+l8umhhi2KMhmYSiOJ/q+A8+ZxMczBVvOpb+NLKBzZObZaesqp2bDRntHEp26mghMYLj5panRlJuDh03+SDRsjcX5LFgtrDfldwpzlTWY4mt03JKpB0v0NpAAAlUElEQVR42u2deZxN9f/HL9os2b80E8bSMNm6I9IkRjXWbI3JIMsVKbKMCREilYbSYokRg6JQZE3fqGSJVEq2NImiVaWNSt9+52cZzJjX+7Occ+/9nDnezz/n8Xm/z/v9ec0999zz+Xzeb5+PYRiGYRiGYRiGYRiGYRiGYRiGYRiGYRiGYRiGYRiGYRiGYRiGYRiGYRgj5Mtf4KKLL7n0soKFChe5vKjpaJgQUKx4iZJWDkqV/k8Z01ExwaTsFRGRFuLKcuVNx8YEiQqFoiySipUqm46PCQJVroq2hERWrWY6RsYhMVdXt6RE1qhpOk7GCbWulIt8ktrXmI6UsY3/6mg1lU9QI9Z0tIw96lyrLPIJ6vIzd56k3nU6Kp+4cdc3HTGjT/nr9VS2rLhapmNmdCl6g67KllW9gemoGT3K3qivsmU1bGQ6bkaH+MZ2VLasm242HTmjwS32VLasxgmmQ2eUaRJpV2arqenYGVWKNrStslWRH7fzCpfaV9mymsWYDp9RorkTlS3ratPxMyrEtHAmc0t+2s4L3CqQsFXrwm3atmtzW+tWgkG3mc6AkZPYnpIv6fYOZ38uJTfvSK5edepsOgdGyh2Uel265hxYoSA1spvpHBgp3bF0gR65h97ZE48tye9I3E4v/Gbkrq5ocLHeWOe7TWfBSLgH6tanLx5dE28iutd0FoyEfki2/uQRiwED4UNYiuk0GCGD0D079T7aYDC8yQ8xnQcjZCgS7X6RxVX8rJ33QCuQnYS7sAcNAybDTefBCHkAaDZCbDISmLQynQcjpBPQTHLucRS6aw8ynQgjYBBQ7EGZEfpRNdp0JoyAIfr3bJ9vDDAqYDoTRkAPoNhDMqMrgNE9pjNhBLQDio2VGdUCRheZzoQRUAQoVkxm9DAwesR0JoyAR4Fi42RGfYHRY6YzYQSgT3OazKgrf5rzGOhparzMaAJ/N+cx0JP24zKjh4DRE6YzYQSg380TZUZPAqOnTGfCCEBvwZ6WGT0DjPKbzoQRATbmpvYVm6SlApn5nbarQStUktNvTwATXqFyN2hVceAkkUVsbWAy2XQejBC4e0T4ENYNWUwxnQcjBO4Fm/osbVAGbR6xppnOgxEDa460mE4NT4c7QeNSTKfBiJmBZLOei8ejE2bC4fxG2+30SoXCzcpAg+OJA++zTWfByCBqCF05J/fQuc/jsS8k2rhujB0jxi7zsHTW1HLn/a6Kv4eqwTxf64JlX3zpsQXt404aLuw9s1CRysmmp+BCIJGsrbzo5Ww7DIo+UZIaFyirfrXxMxrnOidd/ZXFXPAg5CyxSFLrvrpkdrVqs5cueyCVHrVc9UoZK+oSLpIaP8Sf6dCS3MxyRM+VatdZuWqhyM1r8zPU/DD2mO1M5sVKF0lf3VLmaOAKPg4fSl53ovKDStrc/V8VX/3eMD0VXiatp4oGmDUqbWymr1WsFpl0EReTCx1v2q/Z+ZaC+7eVPsqnqVvF9GR4mEfsqjzZL3e+TqHn0Tka8pH4kJHyjj2V2ys0pGqqeauI4uZHISNDs5/JadZ3lXueoe01dYPp2fAuaRrfn2dYqPD4Vc7Gf0/FO0zPhnepcJOuGgGFUtqL7dwkrI2Xm54N75K2SU+Lkm/LfY5Wb1OXg4bcyyxkZGh1lXu3r9xjeds/yOtuNj0b3iWxqfqH72KFHpGJz9lV2bLGmJ4ML7NFsbXcwPdUvG21r7KVyj00Qkh8tygFCd5XqqA9d5jcFU2zFNNz4WkGfFBRIsCHCs9eJ9nmRGXL+sj0THicrvcLFoajb5+g6GaC/Rflp+jJ688hps7HC7BGm5pKaxmcZTit4KKrlm5Pq9O5/IuPfjiVHsVnpkNPsU+2xeWc9WE7du7ScLCdlG/BvGwbgjKK7KbGNeSPczg47z3lHj3rTwnxXph33sCYlzoRQ9X2pTDOcCTzOOJuvA1sA61C7AR81/QMXBA4kvklrNxePxo8iXj/Nsr0FFwIOJIZP4DtJUan7IDDC5ueggsBJzKvhD++X/dT49P7oPH9TE/BhYATmTcg1V6rQxvM2QgMIrmkSehxInMhJPM8kcVqZNHO9BxcADiRGZ3k+ExokY4WLUeanoMLAAcyZ6IjV5KtfBOBSWPTc3AB4EDmykCyhpLDcBXA+9WepufgAsCBzKisp7TDICqDks/0JHgfBzK/BRRbIjP6HBjNMT0J3seBzKuAYs/KjIoDI64FGnIcyLwPKCataTAaGM1TuRrjBAcyg0aSa6RGzwKZvzA9Cd7Hgcz35hZsmNRoPJCZz1OFHAcy788tWKq0uMgWILO0VD/jFAcyjwCKHZAZoY4MX5qeBO/jQGZUpld6LuoeYFTZ9CR4nulrc874ZRpl+VARKukOvi7ASNoUi3FA3wIl2ud699hq+JNNJqnZjwaKNZbYpIBSQ/LnNsYuXcs9T26xjtqxWKFAgS8NmCb1Ets8Dmx4X0GIiL+isWQb/cZtg+U1olDlx71ik6+AyVrT0+FNMubXthTYfWuKxNFlwKqlsBzgQfTftcL0hHiR+CmlVEQ+yQsfiwt4HUJG+wQGiZ8hC8XTWowG675WFfkkV3YQ+ZqDTCLvpg3g/8U3ftNz4jl6adeMuuwA7S0+gCx6VqDG3wcP0L9velI8x7o4S5tAW8pb8xbYYjdRyaIyvnpz07PiMTL36It8khLwd/TcqqTB17Bt8GBcnbc/F/AMKhX6WTZ5MHfJn0nfCg6zWp1uzWUQMzEJj11tel68xRsOKvCuP39/Rw9ZHbmnc1YV8c+jyrZHHzA9MZ7iO0c1QqY2ye6r0WQFk+/bnD0MX/7q3uSwGqYnxlO8t1FBGQFr1p11lb5qjaLR7tdHTJmy7PUfRH655HIQeUhWUUZK0uEzrr5x6io7P5qeGS8x2+Fn+STRg096mjMrmCJbgXqmp8ZDjA84F8Syhh30ZZZTvV8rcoXpqfEQaf2Do0ntl5SWPDTYYXpqPERicO+zQWS9emEqRkY353qEhugXTU+Nh3jD8UN2qPjE9NR4iElaC4+2qFr/JztmT5qeGi/xs9KUR8bF2S2+eeROn6/O8/p2XEAoiHSdKpvu3mM2VDtVUDFj7BePaDcMXTgj5aRt519YZZO0Fk/21+XOe9lYvptO05PIjmeWlmMv1RI5+j+mJ8ZT3Cec7CvbgSNPCV/0VtTKejBbbzj/r6mqZid+SfEzdlB5RTDXC98izrUlXN1JRatSRXJu8e2g/BbmnV4KoTPKbBfM9feC9kDFFkilSro/1479zjWUHuNarfCbnhePUZqe7JEpIsOYzyVaLYDH24YoPHGXLmZ6VrxGBfrrspvM9pDok9m/rR9bJf4m3okU+VwH2YUZXV4mp3uG3Pgt0ji6sKCivf/OD5Mow04jy5ieEi9C9pt6RMWabPdcXXJisu/v3YHSnf64RvGkJaNFA0qn4UqHmBPJrfvyXq3Tvyw3c/fZzffD+uz5/WCK6enwKtTHcf0BNfu09YSDEmr2CcUqH23efEL9m01PhLchDkVYyg2yvyAcBFJMp8ac5QAh0i9+ZReNCRdvmM6NOQv1WdRov3mQcMEt/9zDY1iixjo+umMf15rOjTkL0Xf9mI6PedjHIr/p5JgsEvFKcyBex0kKcVKWX1i6hQpYoKv0vOzHXkabzo7JogMWqK2elz+xF2l1dCZMbA3K7TYNe/nWdHZMFnuhPqV03eCDFtKWFkyYwK86P9N1g/fyXWo6OyaLD6A+BXXd1IBuIkxnx2TxOtTnYl03I6Gbn0xnx2QxE+ozQtfNKuiGq6m6hQ+hPn/punkVuqlrOjsmi4LBuWnfD908Zzo7Jot9UB+9busnuB264fPnbuEvqM8Dum4egG7+MJ0dk8WvUJ9Wfj0vflyBkVsuu4W2UB9LcwvtLuzlUdPZMVlswQJplqL/BHvhro5uoTMWSPM1ZRfsRdrYlQkXePvtxuk6PurgvQlJmaaTY85AHHrVumvfin08aDo35izECar2Gn3j/MSJdn7Qdg9vYIl0Hp+IHX+6W1CYELI5ivg4p6h6SGlPyDzAdG7MOSIIkQ6pOjhEOOhjOjMmGysIlaLmqNnPIW4H1kQF4+SxG6YUah0RUTei4Jimj1fwm54M79KZqoq8KVbFPJbYz29Z9SWW/i0/z6qe06TVjiJcBz9EXEvp1EXhaTuxC2UdyBAa7hpB1M/ftFXrNzujyFBKKGukX2brH0Ma06VHTpg16U7bWVFX/W16TjxICt2WYr+kbW/yB5aIBWOx2Zc3WmIqPlbU9Kx4j0P0fLcWNuAd95VErtRC43JbPXzckjN1BJcgCTJlBU0u/is4i/7iC3K54raeVyQwcWeUgsonOHLU9Lx4jeWiD+Q+4gNd71O1osub7sthpd5rIWmvvNM7o8E4YYvXlt/WzG1S77aFynptO1d8c4vCDeAcVTM0kmCkbBVP99Q/vsxx3nnS46W1WlYN65b1E7yJZm/CTeXtZMMQJG+STXhUxEVtDzZKK1qmVvEnG+u3JbvrVJGwDdoNNf7L78WDyRt2mxsoM2u873EbbVNuqOA8OeYsa0MtsxV9r63ehD+Mc54cc4bMFnY0CAe/pJieGy8xStrVxBS8CSWYXG1aTpJ1pqfGU9wSHFFmjVJ5malDT67aGkQS9LoHEfSr4/P9c1dwdeZygcEk83/OFbnp1CcvtlxUUHW+2/TUeIp8fZzq8ULXLFcDKgVT5uf9pqfGU9Ss60yOH7K9zLhcsR9ZyW1N2x77p/i3l7UUDHrI9Mx4izry1lICmh3I7ivm94DUouXn2/1nxid/t4dsc9Lbr5kIIyS2o32VZ56/iavefnGrwI2r6uQ0KDOTGjrb9MR4DP8MjS6O2YlcBZaHJ3wv+vCDvZ/tiI6EpU3Pi+f4TrmLY3Z69oDO/MVrUxYz4WryHNwwvOIg09PiOVbu0Ve5KilD2RH4G3dmCh5fHv/o/sT0rHiQoVqbPCyr9mGBs+lw/fFGckvfv63gf4XpOfEimd9qrGSsKVxW5GsdsqnelTaA1bk38oahUNBrpKLQGwtJzsPApWzhQbyqyILfhIWGQYVLyUWOW5Ym89MMmH2dIrL4F32bNzU9H55l89CvhL+uUiP+lLc+yUCaLRbboEWUy0zPhpepV3wb8RKyU+mnDqh4QM3Iqku+aL8ENq+ZngqPk/x2gX3nHbOqvX/x9hhF8w1AstclNingNWmq6gUZ23yec8r3aZh2AzLfKjNCh3F5L2/IcSDzj0CxsTKjJ4ARdxYNOQ5kvhcoJj3teAwYvWd6EryPA5nBU/NCqVEtIHMPhYsxjnAgM6hasV5qVBnIvM70JHgfBzKD3UItpUboVxjvIAk5DmQGLaoipS9V3gQyf2l6EryPA5lHAMV2yYxQJdEJpifB+ziQ+R6gWDuZEXrbyb+bQ44DmVE9Kll7aD/YwJKk1TmcsYMDmZ8FMveUvLicBmzam56DCwAHMsdGA83+FNt8Cky2mZ6DCwAHMvvQkZ3rhHUii6IyorzeHHqcyAw7mrUTWaD3o9YQ03NwAeBE5juRaD0FG3K/Q4VQWvI6ZOhxIvNmuMN+Filb0UVofBfTU3Ah4ERm3zYkm3UV8fVcEx/LLG56Ci4EHMn8G9TNujcFDS7aDw7ulG56Ci4EHMmcMhDr/HTf3GPvJk72PGZ6Bi4E6pXOOek76mmZT8TSWYEiKTkHHviAKkPXwPQUeB3/0b9655r8yGbLGviVXaRFE+JZd+3Md+5CW/ZFUeNmmZ4Fj3Og2w3U1H89RbnCz0iLJOmZV4t3mNZ86IxKdJF+y8pveh48TZWrogVzb61Zq7hqVK+T5Qj+MIeQmvdHy+Z/zciVSq66qYhJf+K5UH7I8D/VUEWCnkv9Cs5iHZUEXWZ6LrxLvstURfjqgIK7sdIbA831Sn3PGBtMq60uw0CVVYW9tlWuyPvwQ8USrdrXawrIPcYMtyvzTtOT4Vnm60qxSu5z5RF7Kl9iejI8i43n4sJyr2Xi9N1a1i/8xRwiPrEjxwy538pKj+45+b6s3C9jh2NJ+mpYVmQ7uWd9nety99cQcdBmN4To++S+R32t53MHlw8KEdM1lTjHQIVCfDXf0fFYKFnukbFFaR0dcnLcL3ef/Jdyx6uW7UzPhXdZYl9ly/pY5Qr5d6s5m9VLxRtjh87rncgcUFqZnPSjQo3fkksTVXwxtnDYvUZ2NiqLfytJ7tzV9/LWrxAyR/xbqmJcnFifyGqKFxpbQvA83/8etdVNxiaX0HPfYnmHoidG+HsNXnUlPUq9unnnrQ/Af5moSutSTE+Dx6lAtWSN/LBW9nEHu1Af6lTpAfVs3HxFxx9yfE1HPzDyN75bhxxqy9b1ud58TKNaGX2gecn0BsXfWl7oBE++9N7b/Po6HGwm1hZuB5+w2P14bPVM01kwEo5h5d7HP21m4NFtTWfBSMA9IpdTw1fD4cdNZ8GIiY9Csl3qJw3gEbhofoZyN6ORaiVr0gbT4Qb6wabzYISU0/6q/QJZKOwXYgwyC2jWxy+y8KM2Fp+ZzoMRgooELBGbLAUmrUznwYiYDiQbJnmeKoue2rjNn5tpABT7UGY0GRiNNp0JIwCVjjgkM2oKjA6rXI0xRAGg2Hcyo3nAaKvpTBgBO4Fif8uM6gOjKaYzYQT8audpqgIwWq5yNcYQ6O1IPplRUWCkcM6GMcYhoFh5mVEZYNTNdCaMgDZAMWkxiNnAiA+qupm2QLElMqPFwEjaGZAxSH6gmLS2HmhLw/20Xc0goNhrkj3xiWgpkluPuJpWQDLJi8vRwGQqH5dwNc8AzST7rtH+kQdN58EIKQw0S60vsoCHNB4xnQcjBDYreFpwC/ZHIAtuzOpuysIzF/Npg4/R+MhxpvNgxKDFYyu6AzV8NKwd9rTpLBgJh5Fs1kKiyF79ABzexnQWjAS45ceyht2BBndoCQdH8z3b9cA2Xye+bj/PdTAqfjlRcaCS6RwYKeOp86w3HM7RNSrhix+IgdYW0zkwcqpS6lmvXbQ94fSYxGoT6ZpSXMY+L1BLVHOi5TMFC71f4qeAYIh1uekMGBUKWo641nT8jBJ9FzpReePDpuNn1NCupJ2diaajZxRJtF3E3rLqppiOnlGlb0+7Ki+U7upm3EMTW+W0LStyqOnIGR1sFcdXKo/PuIkn7ah8semoGU38HfVV/jDBdNSMLgkX66rcMcb5VZmwo9kD7i+/6YAZW8wLqIscxecs8iwP36iqcu9/TcfK2Cfm6uoqIkc/wsVY8zZzZ8pVfqeR6SgZx9SqKm56sOAf0xEyQWHLp+TS5LAS00xHxwSN9MOtgdLVjy/lJp0eI2bI6kq915xReM2VpSeOTjEdExMakns9W6tDh2nPlufGjQzDMAzDMAzDMAzDMAzDMAzDMAzDMAzDMAzDMAzDMAzDMAzDMAzDMAzDMIwXSOzcq8r4atVMh8GEhoS/r1m9r+oD/U8X+K1tOhwmBIw/dF5lC5bZ56uGKrq8bToq29z8xKZc2eSUeTxKuLLpuEONp2QuPzIKZMMye0rmmBlTYbUpltlLMv/bjCgqxjJ7SOa7yTq+LLN3ZP6tosUy03hE5vwbLZZZgDdknhtnscwivCHzKxbLLMQTMhe3WGYxXpA5fhHLLMELMq+wWGYJHpDZ35tlluEBmYcIJK6++/uIPTlGs8x5VOZVhMSRr7T7259rNMucR2Xuh1U+jhvdsMx5U+a+uOPNbX48nGXOmzK/CVUuQQ1nmfOmzIdQBj07U8NZ5rwp81qUwa/kcJY5b8q8AGXQixzOMudNmduDBFrQw1nmvClzf5DAJfRwljlvytwKJFCOHs4y50mZ/UkggY/p8SxznpR5M0pgKT2eZc6TMsejBNrR41nmcMlcLP/gdU9tXbFi3YtlYh07ywsyFx0SxIRtEV6Zk7d8tOfB6tmulPrDtfccddTX1d0yJ0yYv+e6HAnf5DRhW4RR5ppFdnRCV7PiavxjP3EXy1yzTdVWMOFAjffCrLS2zP4REZhuwutsvuayNRZN/4n5so/+Dfjvkn3A72f/PBy5a5bd0OG2Av8yIuHVwoRTelwrTPjnetlHrwP+LzUp85NE3NfVERhl7vzGklB92cpz42eAAaWyOywkc5cNh5uELiLc3jhdYDTp9xdkYQ0bkS1htP4SMChzESLoIzfTNukv91SRo+EnfhfK3IbwunsQbZM5Zb1KYKXanE3YZTL/k4Qj/mYAfYl//qsqyCsHXCfzm8TZrP4VBAl/rRpaRJorZa4VhcNtOIe8QJXWGooMHOwymY8SCZcaTyY8oKpGbIvudKHMXYl70bBapP87WmokbVmRj7pK5rnERv9h08iE5wUsHSLfcp3M+XbjUNcMprxvfkQr55OscpHM+Y5gj9FfUgknr4q0NFnlMpkznsdxJl1DOR9UV1tly7rNNTKnP0AkPJRKuN73NhJe5iqZY77CUUYWoHyXP2Ijacta7BKZY44TCa+gEu7V3rJDGxfJ7L+KCPIjynUZ6U9HTPR9rpDZ/wHh7x4q4UY32Eu44mz3yLyXiPE2yvMupR/LiPXj3CDzz4S7ZVTCf4sPZgroWc8tMlOnDu/1E44PKP94BE5dIHMBwlsNKuFxR+wnfIlLZH6PeC1SOoHwSz2vKRE5GfwxvDJT74EupdYcMt91kLCFEg6/zAeH4eje2Uy4TdR5KaJGWGVuQCQ8K55I2H9t0BMOu8zUW4J3Myi3bwU96bDKPHcgdkUvV7wU/ITDLTP1luBIPcrr+KlW0AmjzNTXLL0+Mycq+AmHWeZ04iXHDUUpp7GS+gFZaZSM66QyLoscMu9qfoY70dgx67Lxj67M1Nfsa8WohOM3WQpoJhxemZNn4ijWNyKdXmSJ2TTiigmnl6cz/71jYoTaR78UvlY8GtuOTlguczLxXLG+DOm0nCT23p8f3nL6fj9p1+OrJ0e5T2b/fhxEq7GkzwpC3VrsTDtvfOyxaytaUsIm81p8/U7bSZ/FiAe201x/6PzbXuy80tEuk3kijmHqi7TP1wWxf3Y5NBkwRip0uGQmPplT76N9dhSE/W4HP/zP+Fy0hSjsMhNvCSq+R7vMT0f+wjx6+hu7Q+ZbiYTpyH1H6VWpkuv8lFWZCPfITGyeiDwscEmHf4lo+5S/7UJLRHhkbkIkXFwQOf2OYE9N0dz/Jl6LD5/M26vjCN4SeBxF/W8nzZDEMuou4zJvJ/7VDgnCbpRKRBwpOLF3iodbuEJmarfIXpHHe4mopzaRBpPvF8MyU++BlouifowIeM0d0oRXznKBzPWI3SLvixymEY8W0W8qRJNBLOSHSWZqe8zFfkHM9YjfFRV7KCQ86TPjMmf+D1/+9kSRw/lE0G2Vwql3xKDMVMJ7EnwCribifUop4ZpXGpY5eQe++vEUoUPildlfivHMxcdRwiFzMrElc7I44Z+wlfCWl41epczKTHzlfJYplglbfa98ZmiJMZn34es+I064F37ivC5FNeE/jcpMvCXos1Lsbwq0qqhx+K6SIZl/xZdtJkkYliWzkjT6j95uUOal+J/0pgMSf89Asyc1IjpAvDkMscxLcMJ3pfnEdIdm/6eRcD5iPSMQJIlPQsj8JX5LsOhvibtY+JzdcqVSLFm8akJmImHB+sxpNsPn7Or1fBoQ2+wCwVH4FFhm4i1B4FmZu9HQrptKJGcZh/+7QypzNSLh+rJgj0K7i7QS7owPagScq3sWKHOPgfC6giMlZ2iK7DbmUwgkG3+FXeZjRMJvSGOFvx8r9tVLGFcEDzhTNgdQZvyulT5Scg64Nt1RM6ZRYZeZSFj+3s4Ht4B1kdvloJEZmSGpfyq4g2dcFf49cgJ/e4dSZpzwBoVQjyBLlfdfOYC/vQP2FIWoy1xEwdtm9Ba/1WYFyxx85AqZP1aINBltD4jKVLDMwe+ukVnpMQrefSppB7XFDTKLS4tkUQFZttZO+G23yDxSyVsTZPqodlDJ6I1nmGW+RSnSu5FpU+2EExu6Q+Zf/ErePka28ufzXDxnXOafhOszZ4FnjprrJ2zk1EVuKh5V8vYysp2uZJqD/cZlrkgXYMjOR8j2gH7C97tDZusGpRdZqJpUnI2o0L9LmG/arykljDZETvXrJ4z+XQI2Jo5C+RFsj4o3VIOin42oDpuX2XpdJdBXgeERGwl/4RaZrQIK3vYDuwU2okKLc2H/QfWJQqDoZvu8jYSPmZAZvsYfNkfurSCwm2wjqh5hlhkmHEUXhTrLp8DuaRsJo2ZaARt+KKDMeK25j7xIMNruF2EjqjvCLHM5uArZbJI0ULT3oruNhI3I/DY+X3K/1Bu6h/1kI6r/hFnmBrfAhAtJA0UPI3VtJIx+mAXs6EmAZU4/AtO+RuZtGTBqoRLGeaAn9pDKHIt33g31SVgOjG6ykTAqdBKwpyiE2FbQAH5bBQZIvKFoo/z6UaHv+JDK7BuL90MIKnOeAv3yi07waYO+7QK2Rc0NtUkI74z6TLJzbycyKqYWSXbQ+ejQygxrVFnW9zHiQNG3i1VFP+EbDcmciE+uSbZFoN8FlvzwwflkoIWuEMuciA9ASHax/YNs1mknPAndPAOOhM0JubOzCtyqk9pc39sq7aBGIzchltnXC27VSf1OGCncAbHMp0st5CbgTFm5MKe22xaH/92LBom81UQmD2oHVdiEzL5rcMIHRJFmIJNN2gnDTX8BR8LmRHC4Bp9G/8ovcodWECOLqgSSnSNGZPZdAhOeLFyrgqUMe/k0gbVaAo6EzYlA5pW4P8V8kbvuyOKQUiTnCP9esNMy18Fl/IXndSO0LQBl4HUDTrXNhuhEZHN4cDdatCb5KrLorRnTxYZk9r0BS/sJF2FhNZ3r/XoJjzEqs28EvPxNgh41Q6HFbK2Q8kWZkhm+7bCsuwQJz4MWehsLVuJiAYFg6JuFUObN/eD1/6DdDYAGw7VCIorahEPmFHy+WrAImwYNZmkl3A0nHAiGvlmIi1IQ1foER3dxXYkXVULJYhBxpCgcMvvK4ANcgkXY66GBoOxQLm4mzvoGgqPwKSQlZuDOUmvYLtIfbm7RTKNXHlGWKzwyE22nptKnil7FCUvenmWHOHAbTpn9k2EEm6hCtL7mOGT1h+1qRIXjMMnsx2fZ6UVYojyWesLbqYTDKLMvrSEMgdzeGoOPfW1UbbaZThbXCY/Mvny14dXJRdgE3ARAPWGyP0Y4ZYYbOSzB+RGikND1ndXiwa8owiiz70180JlchCW+ZNorJlzQogirzHB/l2XFlSccTiOC7q50xOYjMumwyex7H086tQgLj4ic4DmlhJ+gEw6vzOk/wCAWUE9VfYioL1VIm6rKE1aZJ+HvDXIR9joi4NIKCT8qSDi8MvsO4oP8VA24rVTYwzNkwewUtWQLm8y+arg8LlUDbjEVcUS6LOFDooTDLLNvNYwilXi3VYdskthnjjCUTPp7ObwyE3dSahE2Az+lnmDTv8KE0+nvZRMyJ+NSdCWJIgQvk4EPayNY7Xm7jyUkjDIndIcR1CYqiuCNJ6cS/kSQ8FhJD4Fwy0xsMbCO+6HLdEHbretGE3H0LZRkiQmjzL6icTCEr7BomQPpqJ/PbzvhsMvsW4oDIQrxzhcF330deEE04RZhffmwy+zbgGMgFmHxu8IsGq8Dz24qCYdfZqIm2xrcFyB2tzD8RR9ck/03ZfropkodUMIqM/FzNnoL9LlZWDDZGrj/vISnNFNJ2IDMNfvDSH4oC53eJ21i/MLkR779aMWj395y+ybZvcuMzNNxW09iEXYIVVI7W8I/7v1oxc5vR/6hnLABmX13Y+WIJbq1VvAJr8y+IViNbdgr3gnhDBMy+z7HsSyBXjt/YwWdMMtMFOsiFmHrvOYRmYktBtXxmuRBaV8W18scg5uOEYuwDTZ6Q2bfKJzIjXhNsoijDNFrqHDL7NsVBWMjFmGpzsf2EzYjM/X+dQx2vN9B0lHoZGXYZcYFc8hFWKrlhVLCI90jsx93HorEHZo2f2U/6yekbbrDIrOfaJuIF2FTHPQybuqSNt2nILYYEGuSscPtJv1Tgjtk9tUbCOMj1iRTiP8KOe/GuElm4viJ9QteostcYC/p9QN8LpHZ9x6OkFiEndTdXsI9K/hcJbPvAxznz3h0uq0O5RuH+FwjM/V7mFiEzSxtJ+E1+X0ukznzCAw0Fff39PllDW8BSScrBLhG5kl4pxa1JukvJ33/lzvh33xuk9l3FG8x+GYcMf6KKM2kp546De0amX0T8BYDahHWt0G+JHFewqce6FwmM3UkYoefGP830aaJYNHpGorukRnX+7es1lTCXUUNEMmE3SZzMm5NY/1OGfhXEO1EEd2zuge4SGaibANdV1gr4aezEnabzL6uuPnHGrrx0tyO0vWbLCHbnCnO4iKZfQPw2Zc1dHP2KiUUE44rciZh18lM9bEm1iRP8e82hSeTyBrn9uC4SWbfFfoJ79JN2H0y+7rgqEuIbOqPxNtuzhL1WPZjSq6SmWr7JuzUMupHsvdjVsJrsyccapnLNgeId9pOb44Rb0uO3/AKvYjTfn7OssYDgHtiF1kiCuUAHUc6Gi84wHyCOkTC8UKr+D8nqydcHrjXOUbqJiYNXnZj7m+tqJkfzzUdWagS7vDqgyDh41u7mo4s1MTWH9qtxCs/9bsprn+LdyM6Nu3RSONMbF4kvv66l7MSbl83omDTY2U8njDDMAzDMAzDMAzDMAzDMAzDMAzDMAzDMAzDMAzDMAzDMAzDMAzDMAzDMAzDMAzDMAzDMAzDMAzDMAzDMAzDmOX/AVVB4euwBF7aAAAAAElFTkSuQmCC;" parent="1" vertex="1">
                    <mxGeometry x="341" y="350" width="73" height="76.3" as="geometry"/>
                </mxCell>
                <mxCell id="18" style="edgeStyle=none;html=1;entryX=0.99;entryY=0.5;entryDx=0;entryDy=0;entryPerimeter=0;" parent="1" source="14" target="9" edge="1">
                    <mxGeometry relative="1" as="geometry">
                        <Array as="points">
                            <mxPoint x="564" y="261"/>
                        </Array>
                    </mxGeometry>
                </mxCell>
                <mxCell id="32" value="State" style="edgeLabel;html=1;align=center;verticalAlign=middle;resizable=0;points=[];" parent="18" vertex="1" connectable="0">
                    <mxGeometry x="0.2783" y="1" relative="1" as="geometry">
                        <mxPoint as="offset"/>
                    </mxGeometry>
                </mxCell>
                <mxCell id="14" value="Processor 1" style="aspect=fixed;html=1;points=[];align=center;image;fontSize=12;image=img/lib/azure2/other/Worker_Container_App.svg;" parent="1" vertex="1">
                    <mxGeometry x="530" y="284" width="68" height="66" as="geometry"/>
                </mxCell>
                <mxCell id="15" value="Processor 2" style="aspect=fixed;html=1;points=[];align=center;image;fontSize=12;image=img/lib/azure2/other/Worker_Container_App.svg;" parent="1" vertex="1">
                    <mxGeometry x="530" y="400" width="68" height="66" as="geometry"/>
                </mxCell>
                <mxCell id="21" style="edgeStyle=none;html=1;entryX=0.5;entryY=1;entryDx=0;entryDy=0;" parent="1" source="20" target="8" edge="1">
                    <mxGeometry relative="1" as="geometry"/>
                </mxCell>
                <mxCell id="24" style="edgeStyle=none;html=1;entryX=0;entryY=0.5;entryDx=0;entryDy=0;" parent="1" source="20" target="5" edge="1">
                    <mxGeometry relative="1" as="geometry">
                        <Array as="points"/>
                    </mxGeometry>
                </mxCell>
                <mxCell id="29" value="Traces" style="edgeLabel;html=1;align=center;verticalAlign=middle;resizable=0;points=[];" parent="24" vertex="1" connectable="0">
                    <mxGeometry x="-0.1336" y="5" relative="1" as="geometry">
                        <mxPoint y="5" as="offset"/>
                    </mxGeometry>
                </mxCell>
                <mxCell id="25" style="edgeStyle=none;html=1;entryX=0;entryY=0.5;entryDx=0;entryDy=0;" parent="1" source="20" target="6" edge="1">
                    <mxGeometry relative="1" as="geometry">
                        <Array as="points">
                            <mxPoint x="440" y="618"/>
                        </Array>
                    </mxGeometry>
                </mxCell>
                <mxCell id="28" value="Metrics" style="edgeLabel;html=1;align=center;verticalAlign=middle;resizable=0;points=[];" parent="25" vertex="1" connectable="0">
                    <mxGeometry x="0.1871" y="1" relative="1" as="geometry">
                        <mxPoint as="offset"/>
                    </mxGeometry>
                </mxCell>
                <mxCell id="27" style="edgeStyle=none;html=1;entryX=0.023;entryY=0.527;entryDx=0;entryDy=0;entryPerimeter=0;" parent="1" source="20" target="26" edge="1">
                    <mxGeometry relative="1" as="geometry">
                        <Array as="points">
                            <mxPoint x="410" y="701"/>
                        </Array>
                    </mxGeometry>
                </mxCell>
                <mxCell id="30" value="Traces/Metrics/Logs" style="edgeLabel;html=1;align=center;verticalAlign=middle;resizable=0;points=[];" parent="27" vertex="1" connectable="0">
                    <mxGeometry x="0.2753" y="-1" relative="1" as="geometry">
                        <mxPoint x="21" y="-2" as="offset"/>
                    </mxGeometry>
                </mxCell>
                <mxCell id="20" value="Otel Collector&#10;" style="shape=image;verticalLabelPosition=bottom;labelBackgroundColor=default;verticalAlign=top;aspect=fixed;imageAspect=0;image=data:image/png,iVBORw0KGgoAAAANSUhEUgAAAPoAAAD6CAYAAACI7Fo9AAAbeUlEQVR42u2dC5Ac1XWGVxhAUBUIJDFC070SWFVAcCCOAiFOxRaYFGgfQotDUsHW7qyEVuDYgQQ7wdgOY2E7wU4FbFJl4xirAHanu2dWD1YPnrU4BTiOSYiTooJNAYqgKFcMYNDOY+fVOef2vbM9o13t9DxW07f/v+rWPLQz0zPqr8+55557Tk8PBIVErtPzPjfRc/xC/za9wL9BEBQWyKfnIH7bOee0zHjv2pwTuzxrxS6dcVavqLkYuD3L8ItBUJgAJ2jJih/H9zPJlR/KWbFkJmm8WUiZrrvLdMuTpptNGjM5y3giY8UG1OscAh6/HgSFAXIC3O3xrHPONm5nqN2pXreQMtysZVRolGiU847hunu8fyMLbynIXcAOQSGA3FWQm992DzDERplGQULu+gY/LvK/uft72cI/6wJ2CAoR5Jb5HXefgHc+wI8YZPnzbNnpFrBDUKgg96y4G2DMem688UPADkF6Qg7YISgikAN2CIoI5IAdgiICOWCHoIhADtghKCKQA3YIigjkgB2CIgI5YIegiEAO2CEoIpADdgiKCOSAHYLapUR3Qw7YIahlS85FI3q6HnLADkGtuux8m0nSfvLuhhywQ1BTkMsab7lk7DZRNCLZ9ZADdggK6LILS37YOuv8Wcdws7YoGFEJCeiAHYKCWPNM0viuuzcULjtgh6BAkMvg2wvOBScSJAdLaVPVenMBOwRpFoDLW+YHcrZRzFlV190F7BCkiVSp5RkrdpGYn1uhhhywQ9BRLbpjrOG66xpYdMAOQQvN0d39a04iKA6FfI4O2CFoQdhV1N2K7ZBgFDQBHbBDUP08fXbCuLA4Z9ErgB2CdLXqdmy7e2CVgEMj0AE7BFVhl7vWyIX/fkhy3QE7BDULenW+DtghSFPY5XIbKwfYIQiwA3YIAuyAHYIAO2CHIMAO2CEIsAN2CALsgB2CADtghyDADtghCLBDEGAH7BAE2AE7BC0tpsu8MbeRBbADdkgHJRLHrUtMH5+gW//T117rvI+fl+ADdsAOhVUeyDVwn9x/3fjpdHtizd+tSxwP2AE7FEIXnS023+uLOyv6R9Jf6B9xnu4fSb1O463+4dTBgZHUo/Tcjevi08s92KcBO2CHQjgP7+mPpz5FUGeHxh5xN2yZcgdHd7kDozvdwc273auv3+tupOcZ/vXDqfXzeQCAHbBDXck4AS7n4gTwXUPbHnMH4pNu34hToMclGmUCvyJuvcezCvqBeHorv27t2L0nAHbADoUAcnLLvznkWeuChNo9ymDgK1dfv4/uT44BdsAOhQ7ydGURyNUoe7DvBeyAHQqZJXcDDsAO2CHNIQfsgB2KCOSAHbBDEYEcsAN2KCKQA3bADkUEcsAO2KGIQA7YATsUEcgBO2CHIgI5YAfsUEQgB+yAHYoI5IAdsEMRgRywA3YoIpADdsAORQRywN4C7DnbeFZB7gB2QN7lkAP21iz7Mwpy122tKi8EyAF7Fw6y6Hl3P3+vmAUXHpC7IRuAPdgosGXPWLEB/p7TiZ7jAQMgB+z6wV5095huzjKegFUH5IBdX9gredtg0A/POKtXAAhADtj1hb1cnjR5rn4poADkgF1f2EvuLnLfndjlAAOQA3Z9Ya8UUqabGe9dCzgAOWDXE3aCXNz+4m3nnNMACCAH7HrCLpbX6Dsk5ffC8hogB+yawV5RgbhMcuWHsLwGyAG7jrAnyZofoGSZpHG7+C7TsOaAHLDrBnuBjzNnm9+u/w4QIAfsesDuQW6Z3xHH3tOzDBtaADlg1wv2WsgJcFhzQA7Y9YIdkANywK457IAckGNoDjsg14jyZQJ0QA7YAbnGgiUH7IBcb117rSOymfrjqb8f2vYoIAfsgFw3rVuXENlM/SNO/8at+/kELfIJClAjDTsg11BiXt43kvrJhi0P0wmZLgLQSMMOyLV12UdTHx7cvIdPyhLAjDTsgFxLtz0xLdz2vmHncxvHDmBuHm3YAbnuoJO7fs/GrQT6cApuezRhB+QAHUNz2AE5XHeMpYJd/V+0AntmDvZZWRTi6EUjkoAcwTiMJYJ9nzsQT2/1ljrbAvv33QOrRAlmad3LWVtC7916z9N9r2iE3E8OyLG8htF5y75+OLXegz3ROux2bHsxbbpcy62UFl1UhAXnW37s7u11Zx3DzSVjt4nX0jmQAOSau+9ImDnWozS4eTffvr4uPr1cYttUEQdhlWUBiNkJ40J25QnwQ1x3XYBtG0W6fzCTNL572DrrfHWBQNGIqLnwSIE9VmN2o9hf4NzYyny9Cryvdpu7f81JecdYM2PFLspb5gdecC44cb6/g6IibGo5hiNdZPedpk+P+i+8rYh7li8EMj9PVhyuejSFbarHcq4u3Pfh1EGC/ER/7KTl/9UeL8gmwGc3vQduOoTCE8dmDKcqA6M7+f5b/deNn97KPB2CAHs3W/TRXSIgRxb9ZIAOAXZNI+8btkxxMO5pL1ySwPwZAuy6jb4Rp+D9vukvtCPqDkGAvQvd9oH4JEOe6Ys7K/wrIBAE2PVYVuPEpMLQtsdcymH4FKw5BNj1HNJlT93Fv2071s8hCLB3IeT8W85F2RFphwC7vpCL3xSQQ4Bdb8hdQA4B9oVGhTPK5FbP+lGRgS5ADkEhgb0iCmJwmSuv1FWJIeYlKc4m4xzxDVQ0g8egGLtdkU4aT6v93up1RfkYkENaaxlHdXn5hiuZiEH3W4r0dg72soKTqq+4XBCD98pzuSve5eWtO6cyNH5O45WB4dSLdPs/dAH4Kd3+L92+yVs/+UKwces+73V06+37Tle8904v5b57QA51Xo2UKGoa+PbBXlEW2wPUg5Me52g8T2Du6BtJ/yWB33fVcPrCaz45edaGzff9Sk1hRTqW9Z/Zf9LG+K5fvSqeXD0w7FxCr/mTgXgqQevUu8VFgS4S3gVjn3fBqHoJgBwKuRX3zi/3OIZkYDj9d3TyPUTjQTr5t/cPT14W5ILQAdjZnS4IAMlqX339FKWEpg8R2N8jUP94/ScmjXb9GHxRoOyz36L3/TQd53763BkP+imfF9HWuT0ghzo+iZ6Dj4Chk+5ldnv5xBZusHSFvTpxqf+ik/FjS2rZvUBaQVhv728z4gI0mr6SrXL9dxFTDjHtSBzPFy3fktSyI743Dd4YIqYqR5miXEleAW0kGaNjeYbdellKq11lrwE5tASBMnlSUdWSOxloWZesKOCbC2wVvJ1TD4u5L1n4m32WfVlnYPfSPjlgJktMv0HH+EWGrma6IWMJbc77XsYXifnAF27+sDPOxyeAFxeipgtlAnJoiaPhXANu8XmoiEhL8D7bQdj5GCryc97izxocmzrFD7cEcGmgoOPkz/RvC73qk865PK1hT0O69AXpfQByqEshr0LWwLzTO5lLbM24oUPbYY+n8+w5sCXn5zhg5p87H+sdW2pFQj0ejFsX8/5wvij5gnaAHOpWyIOvWbcbdt608fEbn2S3/d8JnrU1gHdZ6qdy7asufTx9Ax1/3ive6BQAORR2yDsDuwJmdPJPx8aeO6EKeJdDwBZeufR9102u4oCdDBqWBo5MvAHkUKggbz/sdbuywrYVU12cpGfyD3Jt39++CpBDoYS8A7CrjjDhBMC7OFVLYQ+LOENcVG3NA3IozJB3BPaQ/+DLVBZe/7B9GWfsXXPjE9WiEYAcCivkXQs79woTDQlkN5KakaAhmxV04hhVgwXOKKRA3der0xNADoUY8q6AncGeTkiQAzYEdBPVC0Dblu9qO56iMgykB+THDHZ3gf5h7zrGGdwtNO8YV+Us4xN5yxjLJGM3zFjmaMY2N2at2KXZyZhRDzf3G2vmYjGfVIotTkpIJ8gXg739gPuaALoPrTk1Y68czFrGt2j8W8Yy3uY2wO5urwc49/sWg+/v6XXLkyb3A89lk8bPsknTzluxbdxJtOYzGHj0IYMAeQOwxz3Y2+W6iiaABLl6zJY5Zxv3EbT/5+4xPZh3mW4hZTDIFe77TaPoH7IHeDlvG26FgHcf9i4C8m+nqX3wMLcS9gOPEwwC5Auny5a9NWWvu0irbYSeu3dtdb06lzTWZW3jSQEqWelCynR9UJck5O4io0IWvey7CLjiYjEloD+UnYjdrC4qYh7vwrpDgHzeNkIe6M7jrYCuAm3Cgj8UMwjCSbbaDKUP1EbAPvqw5zyAUtrzDuj9X87bvYPqWNRxQBAgr2kjlHp3/ajzG82C7p+HzyRjcQqsZaXFLWU9F9zt0OALSEG59nT/gZe+5bnzrs+zgKAoQy6OhXd19Q2ntvEx1pRzChBwq7rqlvE9trAcYGMAOwh4/RAWvmrdnZXnAnYIkNe0+E39uHq8TULuOhecSKD9wN3XqwAvLyHk/jHL0wWCvcDxAcAORR3yOdCHJ6/g4wy6vKYgf80xTibAnpeu+uwxAtw/ihz0K9KYmTCuAuxQhCFPF8W+7OHUk3ycQRNG/AksBNYPuwjyqivP0wcxhUiu/HD9agAERcGSz2PNE8GsuQy+ZS3Tke56N0EuBq/Dc1Se4gaHCXazPp4AQRGA/OG5uXnAKLtyg7O2+VmGPNeFkPtGgZf3MknjP3wXKayzQ9pDLmqmcVOFgU32VmHNE43PzZVFnBmP/bbIavPWtFtZG6+w5c1ZZkFlwsnhz5QrtxygowtS3jLuhAsPRQNySnuV6+bvXLnFOUN+gWWNf1XPGhLgP+L8dJWp1hTgZG05vZVz2kVKLN3yerhIglG571Nevru8CJRaSLAp8/tmnN61cOEh3SGX1lw0N5gIGmlXueTkBm+ROeeF5qPihspbzxLw+2fs2Oczlnn1e/bKP6Clsd/LO71/xDvZZH78QXExmLuwNONBFEWGnm08VR9MhCC9IJd13zndlVolfTwI6Gp3GMNO0LwidpUlA7vUFQEcWemMZbyTS8ZuyyTNlYt+9nNrT+CLgIrusxfQpHUXsGdso4/fF2mykK6QV+rTXRtNklHWPGebm+VSWqEJyMvea2NJ3ofun/fz+0+rijJ1FWf8x8FWniGvTAafNrD7L/Pun/KvHECQTpCLaLvXqjj42nl1bk57yEXmWTCLKgJ2wvW2zVv8lroRF5q9CVlkQvzt7ETvBVnL/Lm7s6kYAebqkNaQV/PaKVnmy0Gi7QqGAsFRTJtuE1HwEs+x6fbTyjtodo7MqbbCs3BW9tJ8+81SOvBFp+DFBsy7/J4KBOkCedWi03bUfm9+3liSTDUIZ8W+EjQIx5F16erfI96LlrZarQajYOdiFrJwhRsgQFeWbv9LykNAdRpII8i5Z1va6zu2efIc/h6NbketWVIL4LbneC7tudc/rX+vlv87lGW3Y9ubWAGocB58ZhzuO6SXJRf7zrmrKEXbD62L71guv9ii0CkXm6PjBEhGRrwrDa5fF9llp3zzIWXN2/df4l0wXt2xejl91uulAFOKnHLfk8ZfwH2HdILcvyX12UDWXFq7vL3yikBBOFp642AZRbpf6JR7rC4cOdv8IoOba9yqF+V04gGADukEuVg/l4kyqWbm5wTFZ6SLXAwS9MoljQS/vhNpp8rb4CITdVlwiwcHvT3rP2rndAIC5N2REcf9wUdS/xQo4q5At81/DAS6suhJ8w+XYh6csYz/Fp/XmMdRlq7+IZdcf8AOyPWAvBb0O5oC3TLGpbvbCOgVWUrq8MzE2Wd2EiRXFaO0YlbQ48tZ5ruHHzjz/QAdkOsBuQ/0vnj61kCgS0tMFnNKFF9srNBjWTZeOFgt1NihJaw5j8P4RgCPg3fMiV1t7yRXrPZPAyBArgXodPs3zYDOG09E0ksjoJPbXvECcS922lLOpeYaiYZBt6ugF/PjvecAdECuB+RtAD0Liw4B8lCB/iXM0TFHB+Q6Qu4HfST1DUTdZdQ9abyGqDsg1w90sY6e3iFAXxcQdMoia2od3TZu59d3ch39PV5HV+vnja6j78Y6OiDXcnjlnfvj6Uf4Oze6RbXVzDiytB3PjMsgMw4C5Go45Q2b9/D9F5qxmpzrTtY5UK57Tua6E/RD7bbqygpz22TkukOAvK66TN9I6peDfzbx6/LHWBYEqkzAohNLsnvNMr4c0JrP7V5D8QltKY8q5DU72AaGnUsCue/V/ejmV5rYEurtR7eNbyp3u2370amIpIzuB96PTt7GS9W+cdiPrhnk0oJFFPJqPff+kcmxQJF3lR2XNH+3lQozedv8c3XhaLXCDHdeySSNpivMzFjG3XDbNZTalkkpoHdHEnJf5J3c9/uDRN79LnfLNeMs86+q70k14xLN1Ixzen+T1s1bqxlHFy247ZpJndB9cefWoW2P8Yle8CquRAx0CsgNbt7NwL+USLgKsEBVYEVN91aqwD4sgmATvxzvPd3vMTRaBZY+fyvD3UwVWM+zQBVYTS25d0L3b9n5wYHRnSIoRSd6BCH3BeXodxgctX4n0Dxd1XWnOTaBcrANdd3fnpmgpg0Prjprsc/maD1Z4A00z3+29bru/NmxAX5f1HXX0ZqTu8rz074ouuzzVoJ1/pZ/l7Vj9za85FXdQNLeTi0ZipjvoznzrQJmJ/b72XHjkrzdewUFzLaSBadOLbFX29apxTJ+4F82hLQJwPX0DI5NnUIn+BsccebIc8RB9zqpDjv/GWSJbd65ejt6rzmGy+686r1W7nTvNczNNXbbN+08v7YaaqRB95bZaK4+GJ+8NIj77gdkxmlfN1W5I06BXJbv1/ZuqnT7dTUVAB0aSZ3AdEJfLKx5tOfmR7ZNHkn9c5BltirsEpSZCeOvQ9Mf3TKer/dKIM0s+mA8fd6cJYdF97LkRI33w31bJlf5lx8DuPDi78kap6S17EbYS3KX2gx3doHLrvkcfV18ejmd3K9jjl4zZq+54Qm3b5OzyR+0bPiX9QWzCKh/lUtu3QR7ibPmROYctWKGy6571F26pWS97hM100acAiBPFThpiPIK7pbmuSlXtppC6hgnU3T8J10Eu4jqcxZf3jLW+6cbkObu+1WbnXP72V2VwaioQ85pwPWeT0uwe7vI/kW68YU2BNCaD7ztEgUoCjk7dhkgj6BVHxhO3zS07VGv/9hIJANztZDzvNx1Ww5M+ee9vO7NS2V5b7NJYSlddbFW7u1ke3l2YuV5gDzCEfj+eGr7RpHrno4a7B2BXMnxwT5jmaMEXU668qUGC0o2O9hzKHBKrEyvfZC9C0AeXS1Tbjxlx90RMdg7Crl/2UqllWYnYwYBvpPdaJlfXm4hq22+BBhhwUVyjZdh90rGMq/2BQuR3hrlKLyy7BGCfUkgr/mVfZb08ETscoJwWlhcsvAcJMvVJshUGt0Q40ugqWbOEfSv8Y44lZ7LgGOdHIoa7EsOuX/5zT935xz2TDK2gyD9hchb55RXsvYiu+7ITDhveBeEMm9iUa65LAFVpn97ioJtI6/KKq7iM7G3HIog7McM8vpAnX876NvOOaeJzSuWcQ+NH2cs4x1e667mtu+VY2ou953+Lk8Btp+R5XYyVuxGCvStqfkM3s6KKjFQBGHvCsiPAH4ei/ve/bFfm7FiF/F6dy4Z20QgbyPLf0PONjfTBWBI7GajajL1e8eFxzANNx2KLuxdB/l8AbtmIHXV67DFFIo47F0N+ULgO3UVZapDVZxh6w3XHALs4YQcggA7IIcgwA7IISg6sANyCNIcdkAOQZrDDsihCKPJHT3ql2layn3uStgBORRhyBfZrdR8mmRXwQ7IoQhD7ts8kXOMj2Yt43M07swlzS9lbHPjWw+tOdV3QTgupLADciiigJNLrsDNJo0hgvtFsf95r29zBLfgoa6bOTv2+fkuDCGBHZBDgJys9lcF1F53zVLOMrmEUVHdivY/B1YR8LHHqj3EwgM7IIciDLmqK07dN2RBwqO17OGiBXnxd7bXSTMksANyCJDXQV5pqEIoFw8MB+yAHALkTUAeJtgBOQTIW4A8DLADcgiQtwHyboYdkEOAvI2QdyPsgBwC5B2AvPOwU0eYgcXbP1X6ADkEyDsKeQ3svPRWXWdvMYOOO8KI9k8EM4Ps9Xuradlcls9XhrY9Rg0P03cDcigccMrKnNNztb7ExpJEQGiWGPI52Pf1iqQa36E0lRuvOsJwrzfuQ85dXGXLZrbyAnZ+vHHrAXdgdCd3Nb1VvbaVhocQ1HnIpxffVNLFkKuR5ww6lS7bQkOAqmXfwF1cqWUz92dXgEuL/gZZ9Pv7t+z8oGfIyZIDcqhrAe/xpaImzZVZ27yF8s5TOct8PJs07awVu/nwA2e+X819j7aD7BhDLjLoOF2Wc+PfeuiMU9UxNfvbqC6u4n58evlgPH3eYHzy4v5NO88fHJs6pfpv66bRYQTq/rm0BPMmYRE555xb5+zxtdCxjEzGjt0g//64+eDpAsjVKIqNMLTrTU5HWoKQ3Xg/8DUXAgJcufkQ1L2Qy+g0WfKvuY+wy2twX6yCL++8yI9Fy539DE9se9Wy+2DvIsi5t3ZBROFpi2uL7vu8c3d26T244aZDIYKcW+nIPthFuXlkoU0lokk9Bbvu8Lvx3QR51aJ7Xsid7QUdgsIIupyXkwV8hhvkqXa2R219a9fBPu1F57sI8qpF5+IVAB2CGHJn1dkMhq85vdso7BTZvkO9T75LIJejxMUruFKN33OBoOiCPmF8lIs95BbeB75QU/sSz9mpe+ZtuaSR4PtdA7lXvOLFqueCnl9Q5EG3zY80AbqCvcyvlWCVG/QIOjkq1fk5laWS0xO47RCUS65YTXAUcnOgNAxWxhIR+rIYxxbwOcj3iWW1r8Jlh6C6YBwlxDzdYDCuW0cVcg4I+r8bBAF0afFmxs0rOTFGrptXdIC8lWw4CNIWdl4u66KAWvOQu4AcghZx4btqiQyQQ1BbQfc3UQgH7IAcgpqG3Q0F7IAcgjSHHZBDkOawA3II0hx2QA5BmsMOyCFIc9gBOQRpDjsghyDNYQfkEKQ57IAcgrSG3QbkEBQF2Mu8sSYPyCFIW9hFCSguSyU+o66cNARBesAuQY/dJt6fq8ui1hsE6QV7zpY16PbPVZeFVYcgPS27V122vkkEYIcgDWGvbxLBQTm48RCkMey+Xm/4lSFITze+KBs7el1c0VoJgrSEvcxdXLlls+rPnkAZZwjSEPakapgYuxlWHYL0hb0oas4nTVu8L1osQZCWsJfcPdwbznxcvCeCchCkJezSohspfo9pWHQI0hB2NUe3zVswR4cgPWEv52yDb/OZpLlSztERdYegUMG+v9rYsVjTW13uSxdu+yOr+LmbYM0hKGywS6ssGjvS/JtbNud8vdb5Pj/nTnEarPk1WHIICjns3LKZ+7OT1S7wNlWxVZXu0+NnMpaxvvr3yHWHoJAC71sqyyVXrM7Z5kdyE8ZHc86qs+f7GwiCQgz7fG45PwfIIah1/T93JlhvXQtrgAAAAABJRU5ErkJggg==;" parent="1" vertex="1">
                    <mxGeometry x="341" y="510" width="70" height="70" as="geometry"/>
                </mxCell>
                <mxCell id="26" value="Azure Monitor" style="aspect=fixed;html=1;points=[];align=center;image;fontSize=12;image=img/lib/azure2/monitor/SAP_Azure_Monitor.svg;" parent="1" vertex="1">
                    <mxGeometry x="540" y="680" width="50" height="40" as="geometry"/>
                </mxCell>
            </root>
        </mxGraphModel>
    </diagram>
</mxfile>